G04 #@! TF.GenerationSoftware,KiCad,Pcbnew,(5.0.2-dirty)*
G04 #@! TF.CreationDate,2019-01-30T14:47:07+02:00*
G04 #@! TF.ProjectId,fsb,6673622e-6b69-4636-9164-5f7063625858,rev?*
G04 #@! TF.SameCoordinates,Original*
G04 #@! TF.FileFunction,Copper,L2,Bot*
G04 #@! TF.FilePolarity,Positive*
%FSLAX46Y46*%
G04 Gerber Fmt 4.6, Leading zero omitted, Abs format (unit mm)*
G04 Created by KiCad (PCBNEW (5.0.2-dirty)) date ke 30. tammikuuta 2019 14.47.07*
%MOMM*%
%LPD*%
G01*
G04 APERTURE LIST*
G04 #@! TA.AperFunction,ComponentPad*
%ADD10R,2.623820X2.623820*%
G04 #@! TD*
G04 #@! TA.AperFunction,ComponentPad*
%ADD11C,2.623820*%
G04 #@! TD*
G04 #@! TA.AperFunction,ComponentPad*
%ADD12C,2.999740*%
G04 #@! TD*
G04 #@! TA.AperFunction,ViaPad*
%ADD13C,0.800000*%
G04 #@! TD*
G04 #@! TA.AperFunction,Conductor*
%ADD14C,0.500000*%
G04 #@! TD*
G04 #@! TA.AperFunction,Conductor*
%ADD15C,0.200000*%
G04 #@! TD*
G04 #@! TA.AperFunction,Conductor*
%ADD16C,0.300000*%
G04 #@! TD*
G04 APERTURE END LIST*
D10*
G04 #@! TO.P,J101,P$1*
G04 #@! TO.N,/Power Supply/VIN*
X164002040Y-119002040D03*
D11*
G04 #@! TO.P,J101,P$2*
G04 #@! TO.N,GND*
X168000000Y-119002040D03*
G04 #@! TO.P,J101,P$3*
G04 #@! TO.N,/Power Supply/VIN*
X171997960Y-119002040D03*
G04 #@! TO.P,J101,P$4*
G04 #@! TO.N,/CANH*
X166001020Y-123000000D03*
G04 #@! TO.P,J101,P$5*
G04 #@! TO.N,/CANL*
X169998980Y-123000000D03*
G04 #@! TO.P,J101,P$6*
G04 #@! TO.N,/Power Supply/VIN*
X164002040Y-126997960D03*
G04 #@! TO.P,J101,P$7*
G04 #@! TO.N,/EBER_FAN*
X168000000Y-126997960D03*
G04 #@! TO.P,J101,P$8*
G04 #@! TO.N,/VBAT*
X171997960Y-126997960D03*
D12*
G04 #@! TO.P,J101,P$9*
G04 #@! TO.N,N/C*
X154301780Y-112202460D03*
G04 #@! TO.P,J101,P$10*
X181698220Y-112202460D03*
G04 #@! TO.P,J101,P$11*
X183199360Y-130299960D03*
G04 #@! TO.P,J101,P$12*
X152800640Y-130299960D03*
G04 #@! TD*
D10*
G04 #@! TO.P,J102,P$1*
G04 #@! TO.N,/KEY_50*
X154002060Y-61002040D03*
D11*
G04 #@! TO.P,J102,P$2*
G04 #@! TO.N,/KEY_19*
X158000020Y-61002040D03*
G04 #@! TO.P,J102,P$3*
G04 #@! TO.N,/KEY_AC*
X162000520Y-61002040D03*
G04 #@! TO.P,J102,P$4*
G04 #@! TO.N,/KEY_30/B*
X166001020Y-61002040D03*
G04 #@! TO.P,J102,P$5*
G04 #@! TO.N,/EMCY*
X169998980Y-61002040D03*
G04 #@! TO.P,J102,P$6*
G04 #@! TO.N,Net-(J102-PadP$6)*
X173999480Y-61002040D03*
G04 #@! TO.P,J102,P$7*
G04 #@! TO.N,Net-(J102-PadP$7)*
X177999980Y-61002040D03*
G04 #@! TO.P,J102,P$8*
G04 #@! TO.N,Net-(J102-PadP$8)*
X181997940Y-61002040D03*
G04 #@! TO.P,J102,P$9*
G04 #@! TO.N,/FL*
X156001040Y-65000000D03*
G04 #@! TO.P,J102,P$10*
G04 #@! TO.N,/RADIO_4A*
X160001540Y-65000000D03*
G04 #@! TO.P,J102,P$11*
G04 #@! TO.N,/RADIO_BAT*
X164002040Y-65000000D03*
G04 #@! TO.P,J102,P$12*
G04 #@! TO.N,/UI_4A*
X168000000Y-65000000D03*
G04 #@! TO.P,J102,P$13*
G04 #@! TO.N,GND*
X171997960Y-65000000D03*
G04 #@! TO.P,J102,P$14*
G04 #@! TO.N,/CANH*
X175998460Y-65000000D03*
G04 #@! TO.P,J102,P$15*
G04 #@! TO.N,/CANL*
X179998960Y-65000000D03*
G04 #@! TO.P,J102,P$16*
G04 #@! TO.N,Net-(J102-PadP$16)*
X154002060Y-68997960D03*
G04 #@! TO.P,J102,P$17*
G04 #@! TO.N,Net-(J102-PadP$17)*
X158000020Y-68997960D03*
G04 #@! TO.P,J102,P$18*
G04 #@! TO.N,/HORN_4A*
X162000520Y-68997960D03*
G04 #@! TO.P,J102,P$19*
G04 #@! TO.N,Net-(J102-PadP$19)*
X166001020Y-68997960D03*
G04 #@! TO.P,J102,P$20*
G04 #@! TO.N,/AUX_15A*
X169998980Y-68997960D03*
G04 #@! TO.P,J102,P$21*
G04 #@! TO.N,Net-(J102-PadP$21)*
X173999480Y-68997960D03*
G04 #@! TO.P,J102,P$22*
G04 #@! TO.N,/HEATER_15A*
X177999980Y-68997960D03*
G04 #@! TO.P,J102,P$23*
G04 #@! TO.N,/HEATER_15B*
X181997940Y-68997960D03*
D12*
G04 #@! TO.P,J102,P$24*
G04 #@! TO.N,N/C*
X144301800Y-54202460D03*
G04 #@! TO.P,J102,P$25*
X191698200Y-54202460D03*
G04 #@! TO.P,J102,P$26*
X142800660Y-72299960D03*
G04 #@! TO.P,J102,P$27*
X193199340Y-72299960D03*
G04 #@! TD*
D13*
G04 #@! TO.N,GND*
X185600000Y-136200000D03*
X139700000Y-121500000D03*
X137800000Y-125100000D03*
X148200000Y-115500000D03*
X135800000Y-109700000D03*
X162600000Y-100600000D03*
X155000000Y-96600000D03*
X167300000Y-88200000D03*
X163900000Y-88200000D03*
X165342802Y-79300000D03*
X171600000Y-88200000D03*
X175000000Y-88200000D03*
X173542802Y-79300000D03*
X179300000Y-88200000D03*
X181142802Y-79100000D03*
X196800000Y-128600000D03*
X184500013Y-136200000D03*
X153250000Y-133450000D03*
X131000000Y-117300000D03*
X147000167Y-96080787D03*
X182748630Y-88197441D03*
X143228882Y-99703612D03*
X204350000Y-136250000D03*
X194850000Y-136250000D03*
X199950000Y-127000000D03*
X203950000Y-125200000D03*
X194650000Y-119300000D03*
X204100000Y-114650000D03*
X194950000Y-107050000D03*
X204000000Y-100250000D03*
X189950000Y-96350000D03*
X182450000Y-103050000D03*
X181750000Y-109250000D03*
X204050000Y-88050000D03*
X189900000Y-84950000D03*
X189800000Y-71850000D03*
X204050000Y-75900000D03*
X201700000Y-67550000D03*
X205700000Y-66350000D03*
X193650000Y-61700000D03*
X185900000Y-65200000D03*
X205300000Y-50800000D03*
X191950000Y-50450000D03*
X178450000Y-50150000D03*
X166600000Y-50250000D03*
X153100000Y-50400000D03*
X140000000Y-50400000D03*
X130450000Y-50550000D03*
X130150000Y-59650000D03*
X130300000Y-69050000D03*
X145550000Y-57250000D03*
X148900000Y-60250000D03*
X141650000Y-67750000D03*
X146000000Y-70850000D03*
X149250000Y-81050000D03*
X157650000Y-72050000D03*
X151000000Y-71450000D03*
X148500000Y-72800000D03*
X137900000Y-83150000D03*
X146900000Y-87900000D03*
X152900000Y-87800000D03*
X157000000Y-80500000D03*
X139750000Y-99650000D03*
X130750000Y-100650000D03*
X130700000Y-88050000D03*
X130500000Y-77600000D03*
X136800000Y-74900000D03*
X137050000Y-65150000D03*
X144850000Y-107550000D03*
X141450000Y-110300000D03*
X137750000Y-109800000D03*
X142050000Y-115000000D03*
X131700000Y-121550000D03*
X130900000Y-130900000D03*
X141050000Y-137550000D03*
X140800000Y-130300000D03*
X150400000Y-111500000D03*
X155550000Y-124650000D03*
X155650000Y-128850000D03*
X158450000Y-132200000D03*
X169650000Y-132000000D03*
X179250000Y-128300000D03*
X187850000Y-132700000D03*
X187550000Y-124450000D03*
X197000000Y-131750000D03*
X155600000Y-136400000D03*
G04 #@! TO.N,/CANH*
X152500000Y-134800000D03*
G04 #@! TO.N,/CANL*
X153000000Y-136000000D03*
G04 #@! TO.N,/LPC1549/CAN_RX*
X150700000Y-127500000D03*
X150430005Y-123551992D03*
G04 #@! TO.N,/LPC1549/CAN_TX*
X149900000Y-124400000D03*
X150000000Y-128500000D03*
G04 #@! TO.N,/LPC1549/VBAT_SENSE*
X142650000Y-111550000D03*
X147250000Y-111452470D03*
G04 #@! TO.N,/LPC1549/HORN*
X146800000Y-97480798D03*
X138319018Y-102681421D03*
G04 #@! TO.N,/LPC1549/AUX*
X166200000Y-88200000D03*
X141379188Y-105869956D03*
G04 #@! TO.N,/LPC1549/AUX_SENSE*
X165050000Y-88250000D03*
X140617508Y-105221985D03*
G04 #@! TO.N,/LPC1549/RADIO_SENSE*
X152000000Y-97200000D03*
X139715147Y-103240376D03*
G04 #@! TO.N,/LPC1549/HORN_SENSE*
X150250000Y-97250000D03*
X138216845Y-103676199D03*
G04 #@! TO.N,/LPC1549/HEATER_SENSE*
X177100000Y-89000000D03*
X143460036Y-105450000D03*
G04 #@! TO.N,/LPC1549/EMCY*
X134800000Y-117600000D03*
X132750000Y-104600000D03*
G04 #@! TO.N,/LPC1549/KEY_50*
X134800000Y-104250000D03*
X135757394Y-114995715D03*
G04 #@! TO.N,/LPC1549/KEY_19*
X134000000Y-103650000D03*
X136511521Y-115652461D03*
G04 #@! TO.N,/LPC1549/KEY_AC*
X135450000Y-116550000D03*
X133600000Y-102700000D03*
G04 #@! TO.N,/Sheet5A07C728/SENSE1*
X158250000Y-97050000D03*
X140884285Y-104234982D03*
G04 #@! TO.N,/Sheet5A07C728/IN1*
X156579668Y-97030368D03*
X139581417Y-104232109D03*
G04 #@! TO.N,/VBAT*
X166100000Y-129100000D03*
G04 #@! TO.N,/LPC1549/DOORSW2*
X133900000Y-119500000D03*
X131450011Y-105789824D03*
G04 #@! TO.N,/Sheet5A337B25/IN2*
X145550700Y-97000000D03*
X138100000Y-101599998D03*
G04 #@! TO.N,/LPC1549/SEATSW*
X133150000Y-118700000D03*
X131150000Y-106900000D03*
G04 #@! TO.N,/LPC1549/FUEL_L*
X135850000Y-114000000D03*
X136416823Y-103950000D03*
G04 #@! TO.N,Net-(J102-PadP$19)*
X151800000Y-69200000D03*
G04 #@! TO.N,/LPC1549/HEATER1*
X173850000Y-88200000D03*
X142486975Y-105219400D03*
G04 #@! TO.N,/LPC1549/HEATER2*
X143000000Y-106900000D03*
X181750000Y-88250000D03*
G04 #@! TD*
D14*
G04 #@! TO.N,/CANH*
X164145700Y-123000000D02*
X156200000Y-130945700D01*
X166001020Y-123000000D02*
X164145700Y-123000000D01*
X156200000Y-130945700D02*
X156200000Y-132800000D01*
X156200000Y-132800000D02*
X154200000Y-134800000D01*
X154200000Y-134800000D02*
X152500000Y-134800000D01*
X152500000Y-134800000D02*
X151800000Y-135500000D01*
X200200000Y-63000000D02*
X177998460Y-63000000D01*
X177998460Y-63000000D02*
X175998460Y-65000000D01*
X206200000Y-69000000D02*
X200200000Y-63000000D01*
X206200000Y-137100000D02*
X206200000Y-69000000D01*
X205100000Y-138200000D02*
X206200000Y-137100000D01*
X152700000Y-138200000D02*
X205100000Y-138200000D01*
X151800000Y-137300000D02*
X152700000Y-138200000D01*
X151800000Y-135500000D02*
X151800000Y-137300000D01*
G04 #@! TO.N,/CANL*
X163492371Y-124900000D02*
X168098980Y-124900000D01*
X168098980Y-124900000D02*
X169998980Y-123000000D01*
X157000000Y-133100000D02*
X157000000Y-131392371D01*
X157000000Y-131392371D02*
X163492371Y-124900000D01*
X154499999Y-135600001D02*
X157000000Y-133100000D01*
X153000000Y-136000000D02*
X153399999Y-135600001D01*
X153399999Y-135600001D02*
X154499999Y-135600001D01*
X181854280Y-65000000D02*
X182954280Y-63900000D01*
X179998960Y-65000000D02*
X181854280Y-65000000D01*
X182954280Y-63900000D02*
X200000000Y-63900000D01*
X200000000Y-63900000D02*
X205500000Y-69400000D01*
X205500000Y-69400000D02*
X205500000Y-136800000D01*
X205500000Y-136800000D02*
X204800000Y-137500000D01*
X204800000Y-137500000D02*
X153300000Y-137500000D01*
X153000000Y-137200000D02*
X153000000Y-136000000D01*
X153300000Y-137500000D02*
X153000000Y-137200000D01*
D15*
G04 #@! TO.N,/LPC1549/CAN_RX*
X150700000Y-127500000D02*
X150700000Y-123821987D01*
X150700000Y-123821987D02*
X150430005Y-123551992D01*
G04 #@! TO.N,/LPC1549/CAN_TX*
X149900000Y-124400000D02*
X149900000Y-128400000D01*
X149900000Y-128400000D02*
X150000000Y-128500000D01*
G04 #@! TO.N,/LPC1549/VBAT_SENSE*
X142650000Y-111550000D02*
X147152470Y-111550000D01*
X147152470Y-111550000D02*
X147250000Y-111452470D01*
G04 #@! TO.N,/LPC1549/HORN*
X139050659Y-101949780D02*
X144765920Y-101949780D01*
X138319018Y-102681421D02*
X139050659Y-101949780D01*
X146800000Y-98046483D02*
X146800000Y-97480798D01*
X146800000Y-99915700D02*
X146800000Y-98046483D01*
X144765920Y-101949780D02*
X146800000Y-99915700D01*
G04 #@! TO.N,/LPC1549/AUX*
X141379188Y-105304271D02*
X141379188Y-105869956D01*
X154668755Y-104349845D02*
X142333614Y-104349845D01*
X166200000Y-88200000D02*
X166200000Y-92818600D01*
X142333614Y-104349845D02*
X141379188Y-105304271D01*
X166200000Y-92818600D02*
X154668755Y-104349845D01*
G04 #@! TO.N,/LPC1549/AUX_SENSE*
X154503066Y-103949834D02*
X142159398Y-103949834D01*
X165800000Y-92652900D02*
X154503066Y-103949834D01*
X140887247Y-105221985D02*
X140617508Y-105221985D01*
X142159398Y-103949834D02*
X140887247Y-105221985D01*
X165050000Y-88250000D02*
X165800000Y-89000000D01*
X165800000Y-89000000D02*
X165800000Y-92652900D01*
G04 #@! TO.N,/LPC1549/RADIO_SENSE*
X147015899Y-102749801D02*
X140205722Y-102749801D01*
X140205722Y-102749801D02*
X140115146Y-102840377D01*
X152000000Y-97765700D02*
X147015899Y-102749801D01*
X140115146Y-102840377D02*
X139715147Y-103240376D01*
X152000000Y-97200000D02*
X152000000Y-97765700D01*
G04 #@! TO.N,/LPC1549/HORN_SENSE*
X138782530Y-103676199D02*
X138216845Y-103676199D01*
X150250000Y-98950002D02*
X146850211Y-102349791D01*
X139012173Y-103446556D02*
X138782530Y-103676199D01*
X150250000Y-97250000D02*
X150250000Y-98950002D01*
X146850211Y-102349791D02*
X139588240Y-102349791D01*
X139588240Y-102349791D02*
X139012173Y-102925858D01*
X139012173Y-102925858D02*
X139012173Y-103446556D01*
G04 #@! TO.N,/LPC1549/HEATER_SENSE*
X155000011Y-105149989D02*
X143760047Y-105149989D01*
X143760047Y-105149989D02*
X143460036Y-105450000D01*
X170500011Y-89649989D02*
X155000011Y-105149989D01*
X176450011Y-89649989D02*
X170500011Y-89649989D01*
X177100000Y-89000000D02*
X176450011Y-89649989D01*
G04 #@! TO.N,/LPC1549/EMCY*
X132299956Y-105050044D02*
X132350001Y-104999999D01*
X132299956Y-114468556D02*
X132299956Y-105050044D01*
X132350001Y-104999999D02*
X132750000Y-104600000D01*
X134800000Y-117600000D02*
X134800000Y-116968600D01*
X134800000Y-116968600D02*
X132299956Y-114468556D01*
G04 #@! TO.N,/LPC1549/KEY_50*
X134800000Y-105084300D02*
X133499989Y-106384311D01*
X133499989Y-106384311D02*
X133499989Y-112738310D01*
X133499989Y-112738310D02*
X135357395Y-114595716D01*
X134800000Y-104250000D02*
X134800000Y-105084300D01*
X135357395Y-114595716D02*
X135757394Y-114995715D01*
G04 #@! TO.N,/LPC1549/KEY_19*
X133099978Y-113399335D02*
X135550642Y-115849999D01*
X134000000Y-103650000D02*
X134000000Y-105318600D01*
X135550642Y-115849999D02*
X136313983Y-115849999D01*
X136313983Y-115849999D02*
X136511521Y-115652461D01*
X133099978Y-106218622D02*
X133099978Y-113399335D01*
X134000000Y-105318600D02*
X133099978Y-106218622D01*
G04 #@! TO.N,/LPC1549/KEY_AC*
X132699967Y-106052933D02*
X133499969Y-105252931D01*
X133200001Y-104050001D02*
X133200001Y-103099999D01*
X133499969Y-105252931D02*
X133499969Y-104349969D01*
X133499969Y-104349969D02*
X133200001Y-104050001D01*
X132699967Y-113799967D02*
X132699967Y-106052933D01*
X133200001Y-103099999D02*
X133600000Y-102700000D01*
X135450000Y-116550000D02*
X132699967Y-113799967D01*
G04 #@! TO.N,/Sheet5A07C728/SENSE1*
X152365877Y-103549823D02*
X141569444Y-103549823D01*
X141569444Y-103549823D02*
X141284284Y-103834983D01*
X158250000Y-97665700D02*
X152365877Y-103549823D01*
X158250000Y-97050000D02*
X158250000Y-97665700D01*
X141284284Y-103834983D02*
X140884285Y-104234982D01*
G04 #@! TO.N,/Sheet5A07C728/IN1*
X152200188Y-103149812D02*
X140856615Y-103149812D01*
X139774318Y-104232109D02*
X139581417Y-104232109D01*
X140856615Y-103149812D02*
X139774318Y-104232109D01*
X156579668Y-97030368D02*
X156579668Y-98770332D01*
X156579668Y-98770332D02*
X152200188Y-103149812D01*
D16*
G04 #@! TO.N,/VBAT*
X169895920Y-129100000D02*
X166100000Y-129100000D01*
X171997960Y-126997960D02*
X169895920Y-129100000D01*
D15*
G04 #@! TO.N,/LPC1549/DOORSW2*
X131850010Y-106189823D02*
X131450011Y-105789824D01*
X133900000Y-116634300D02*
X131850010Y-114584310D01*
X133900000Y-119500000D02*
X133900000Y-116634300D01*
X131850010Y-114584310D02*
X131850010Y-106189823D01*
G04 #@! TO.N,/Sheet5A337B25/IN2*
X145550700Y-100599300D02*
X145550700Y-97565685D01*
X144650000Y-101500000D02*
X145550700Y-100599300D01*
X138100000Y-101599998D02*
X138199998Y-101500000D01*
X145550700Y-97565685D02*
X145550700Y-97000000D01*
X138199998Y-101500000D02*
X144650000Y-101500000D01*
G04 #@! TO.N,/LPC1549/SEATSW*
X133150000Y-118700000D02*
X133150000Y-118134315D01*
X133150000Y-118134315D02*
X131450000Y-116434315D01*
X131450000Y-116434315D02*
X131450000Y-107200000D01*
X131450000Y-107200000D02*
X131150000Y-106900000D01*
G04 #@! TO.N,/LPC1549/FUEL_L*
X133900000Y-112050000D02*
X133900000Y-107094109D01*
X135850000Y-114000000D02*
X133900000Y-112050000D01*
X133900000Y-107094109D02*
X136416823Y-104577286D01*
X136416823Y-104577286D02*
X136416823Y-104515685D01*
X136416823Y-104515685D02*
X136416823Y-103950000D01*
D14*
G04 #@! TO.N,Net-(J102-PadP$19)*
X166001020Y-68997960D02*
X164003060Y-67000000D01*
X164003060Y-67000000D02*
X153000000Y-67000000D01*
X153000000Y-67000000D02*
X151800000Y-68200000D01*
X151800000Y-68200000D02*
X151800000Y-69200000D01*
D15*
G04 #@! TO.N,/LPC1549/HEATER1*
X154834444Y-104749856D02*
X142956519Y-104749856D01*
X170334322Y-89249978D02*
X154834444Y-104749856D01*
X172800022Y-89249978D02*
X170334322Y-89249978D01*
X142956519Y-104749856D02*
X142886974Y-104819401D01*
X173850000Y-88200000D02*
X172800022Y-89249978D01*
X142886974Y-104819401D02*
X142486975Y-105219400D01*
G04 #@! TO.N,/LPC1549/HEATER2*
X181750000Y-88700000D02*
X181750000Y-88250000D01*
X180400000Y-90050000D02*
X181750000Y-88700000D01*
X170700000Y-90050000D02*
X180400000Y-90050000D01*
X155200000Y-105550000D02*
X170700000Y-90050000D01*
X143000000Y-106900000D02*
X144350000Y-105550000D01*
X144350000Y-105550000D02*
X155200000Y-105550000D01*
G04 #@! TD*
G04 #@! TO.N,GND*
G36*
X205391194Y-49664187D02*
X205750962Y-49827764D01*
X206050357Y-50085740D01*
X206265311Y-50417373D01*
X206384493Y-50815890D01*
X206399980Y-51024300D01*
X206399980Y-68139320D01*
X200782565Y-62521906D01*
X200740720Y-62459280D01*
X200492635Y-62293516D01*
X200273866Y-62250000D01*
X200273865Y-62250000D01*
X200200000Y-62235307D01*
X200126135Y-62250000D01*
X183312407Y-62250000D01*
X183534003Y-62028404D01*
X183809850Y-61362451D01*
X183809850Y-60641629D01*
X183534003Y-59975676D01*
X183024304Y-59465977D01*
X182358351Y-59190130D01*
X181637529Y-59190130D01*
X180971576Y-59465977D01*
X180461877Y-59975676D01*
X180186030Y-60641629D01*
X180186030Y-61362451D01*
X180461877Y-62028404D01*
X180683473Y-62250000D01*
X179314447Y-62250000D01*
X179536043Y-62028404D01*
X179811890Y-61362451D01*
X179811890Y-60641629D01*
X179536043Y-59975676D01*
X179026344Y-59465977D01*
X178360391Y-59190130D01*
X177639569Y-59190130D01*
X176973616Y-59465977D01*
X176463917Y-59975676D01*
X176188070Y-60641629D01*
X176188070Y-61362451D01*
X176463917Y-62028404D01*
X176973616Y-62538103D01*
X177274900Y-62662899D01*
X176635236Y-63302564D01*
X176358871Y-63188090D01*
X175638049Y-63188090D01*
X174972096Y-63463937D01*
X174462397Y-63973636D01*
X174186550Y-64639589D01*
X174186550Y-65360411D01*
X174462397Y-66026364D01*
X174972096Y-66536063D01*
X175638049Y-66811910D01*
X176358871Y-66811910D01*
X177024824Y-66536063D01*
X177534523Y-66026364D01*
X177810370Y-65360411D01*
X177810370Y-64639589D01*
X177695896Y-64363224D01*
X178309121Y-63750000D01*
X178686533Y-63750000D01*
X178462897Y-63973636D01*
X178187050Y-64639589D01*
X178187050Y-65360411D01*
X178462897Y-66026364D01*
X178972596Y-66536063D01*
X179638549Y-66811910D01*
X180359371Y-66811910D01*
X181025324Y-66536063D01*
X181535023Y-66026364D01*
X181649497Y-65750000D01*
X181780415Y-65750000D01*
X181854280Y-65764693D01*
X181928145Y-65750000D01*
X181928146Y-65750000D01*
X182146915Y-65706484D01*
X182395000Y-65540720D01*
X182436845Y-65478094D01*
X183264940Y-64650000D01*
X199689341Y-64650000D01*
X204750000Y-69710660D01*
X204750001Y-136489339D01*
X204489341Y-136750000D01*
X153750000Y-136750000D01*
X153750000Y-136522792D01*
X153762983Y-136509809D01*
X153829178Y-136350001D01*
X154426134Y-136350001D01*
X154499999Y-136364694D01*
X154573864Y-136350001D01*
X154573865Y-136350001D01*
X154792634Y-136306485D01*
X155040719Y-136140721D01*
X155082564Y-136078095D01*
X157478100Y-133682561D01*
X157540720Y-133640720D01*
X157706484Y-133392635D01*
X157750000Y-133173866D01*
X157750000Y-133173865D01*
X157764693Y-133100001D01*
X157750000Y-133026136D01*
X157750000Y-131703030D01*
X162190130Y-127262901D01*
X162190130Y-127358371D01*
X162465977Y-128024324D01*
X162975676Y-128534023D01*
X163641629Y-128809870D01*
X164362451Y-128809870D01*
X165028404Y-128534023D01*
X165538103Y-128024324D01*
X165813950Y-127358371D01*
X165813950Y-126637549D01*
X165538103Y-125971596D01*
X165216507Y-125650000D01*
X166785533Y-125650000D01*
X166463937Y-125971596D01*
X166188090Y-126637549D01*
X166188090Y-127358371D01*
X166463937Y-128024324D01*
X166889613Y-128450000D01*
X166722792Y-128450000D01*
X166609809Y-128337017D01*
X166279021Y-128200000D01*
X165920979Y-128200000D01*
X165590191Y-128337017D01*
X165337017Y-128590191D01*
X165200000Y-128920979D01*
X165200000Y-129279021D01*
X165337017Y-129609809D01*
X165590191Y-129862983D01*
X165920979Y-130000000D01*
X166279021Y-130000000D01*
X166515225Y-129902161D01*
X181199490Y-129902161D01*
X181199490Y-130697759D01*
X181503952Y-131432795D01*
X182066525Y-131995368D01*
X182801561Y-132299830D01*
X183597159Y-132299830D01*
X184332195Y-131995368D01*
X184894768Y-131432795D01*
X185199230Y-130697759D01*
X185199230Y-129902161D01*
X184894768Y-129167125D01*
X184332195Y-128604552D01*
X183597159Y-128300090D01*
X182801561Y-128300090D01*
X182066525Y-128604552D01*
X181503952Y-129167125D01*
X181199490Y-129902161D01*
X166515225Y-129902161D01*
X166609809Y-129862983D01*
X166722792Y-129750000D01*
X169831904Y-129750000D01*
X169895920Y-129762734D01*
X169959936Y-129750000D01*
X169959938Y-129750000D01*
X170149537Y-129712286D01*
X170364544Y-129568624D01*
X170400811Y-129514346D01*
X171261184Y-128653974D01*
X171637549Y-128809870D01*
X172358371Y-128809870D01*
X173024324Y-128534023D01*
X173534023Y-128024324D01*
X173809870Y-127358371D01*
X173809870Y-126637549D01*
X173534023Y-125971596D01*
X173024324Y-125461897D01*
X172358371Y-125186050D01*
X171637549Y-125186050D01*
X170971596Y-125461897D01*
X170461897Y-125971596D01*
X170186050Y-126637549D01*
X170186050Y-127358371D01*
X170341946Y-127734736D01*
X169626683Y-128450000D01*
X169110387Y-128450000D01*
X169536063Y-128024324D01*
X169811910Y-127358371D01*
X169811910Y-126637549D01*
X169536063Y-125971596D01*
X169026364Y-125461897D01*
X168723283Y-125336356D01*
X169362204Y-124697436D01*
X169638569Y-124811910D01*
X170359391Y-124811910D01*
X171025344Y-124536063D01*
X171535043Y-124026364D01*
X171810890Y-123360411D01*
X171810890Y-122639589D01*
X171535043Y-121973636D01*
X171025344Y-121463937D01*
X170359391Y-121188090D01*
X169638569Y-121188090D01*
X168972616Y-121463937D01*
X168462917Y-121973636D01*
X168187070Y-122639589D01*
X168187070Y-123360411D01*
X168301544Y-123636776D01*
X167788321Y-124150000D01*
X167413447Y-124150000D01*
X167537083Y-124026364D01*
X167812930Y-123360411D01*
X167812930Y-122639589D01*
X167537083Y-121973636D01*
X167027384Y-121463937D01*
X166361431Y-121188090D01*
X165640609Y-121188090D01*
X164974656Y-121463937D01*
X164464957Y-121973636D01*
X164350483Y-122250000D01*
X164219566Y-122250000D01*
X164145700Y-122235307D01*
X163853064Y-122293516D01*
X163764905Y-122352422D01*
X163604980Y-122459280D01*
X163563137Y-122521903D01*
X155721906Y-130363135D01*
X155659280Y-130404980D01*
X155493516Y-130653066D01*
X155454015Y-130851651D01*
X155435307Y-130945700D01*
X155450000Y-131019565D01*
X155450001Y-132489338D01*
X153889341Y-134050000D01*
X153022792Y-134050000D01*
X153009809Y-134037017D01*
X152679021Y-133900000D01*
X152320979Y-133900000D01*
X151990191Y-134037017D01*
X151737017Y-134290191D01*
X151600000Y-134620979D01*
X151600000Y-134639341D01*
X151321906Y-134917435D01*
X151259280Y-134959280D01*
X151093516Y-135207366D01*
X151050803Y-135422100D01*
X151035307Y-135500000D01*
X151050000Y-135573865D01*
X151050001Y-137226130D01*
X151035307Y-137300000D01*
X151078086Y-137515060D01*
X151093517Y-137592635D01*
X151259281Y-137840720D01*
X151321904Y-137882563D01*
X151841464Y-138402124D01*
X131042705Y-138402157D01*
X130608752Y-138340054D01*
X130249026Y-138176539D01*
X129949646Y-137918629D01*
X129734689Y-137587063D01*
X129615490Y-137188633D01*
X129599980Y-136979999D01*
X129599980Y-129902161D01*
X150800770Y-129902161D01*
X150800770Y-130697759D01*
X151105232Y-131432795D01*
X151667805Y-131995368D01*
X152402841Y-132299830D01*
X153198439Y-132299830D01*
X153933475Y-131995368D01*
X154496048Y-131432795D01*
X154800510Y-130697759D01*
X154800510Y-129902161D01*
X154496048Y-129167125D01*
X153933475Y-128604552D01*
X153198439Y-128300090D01*
X152402841Y-128300090D01*
X151667805Y-128604552D01*
X151105232Y-129167125D01*
X150800770Y-129902161D01*
X129599980Y-129902161D01*
X129599980Y-124220979D01*
X149000000Y-124220979D01*
X149000000Y-124579021D01*
X149137017Y-124909809D01*
X149300000Y-125072792D01*
X149300001Y-127927207D01*
X149237017Y-127990191D01*
X149100000Y-128320979D01*
X149100000Y-128679021D01*
X149237017Y-129009809D01*
X149490191Y-129262983D01*
X149820979Y-129400000D01*
X150179021Y-129400000D01*
X150509809Y-129262983D01*
X150762983Y-129009809D01*
X150900000Y-128679021D01*
X150900000Y-128391310D01*
X151209809Y-128262983D01*
X151462983Y-128009809D01*
X151600000Y-127679021D01*
X151600000Y-127320979D01*
X151462983Y-126990191D01*
X151300000Y-126827208D01*
X151300000Y-123881075D01*
X151311753Y-123821987D01*
X151305449Y-123790296D01*
X151330005Y-123731013D01*
X151330005Y-123372971D01*
X151192988Y-123042183D01*
X150939814Y-122789009D01*
X150609026Y-122651992D01*
X150250984Y-122651992D01*
X149920196Y-122789009D01*
X149667022Y-123042183D01*
X149530005Y-123372971D01*
X149530005Y-123579104D01*
X149390191Y-123637017D01*
X149137017Y-123890191D01*
X149000000Y-124220979D01*
X129599980Y-124220979D01*
X129599980Y-106720979D01*
X130250000Y-106720979D01*
X130250000Y-107079021D01*
X130387017Y-107409809D01*
X130640191Y-107662983D01*
X130850001Y-107749889D01*
X130850000Y-116375229D01*
X130838247Y-116434315D01*
X130850000Y-116493401D01*
X130850000Y-116493405D01*
X130884813Y-116668422D01*
X131017425Y-116866890D01*
X131067522Y-116900364D01*
X132378327Y-118211170D01*
X132250000Y-118520979D01*
X132250000Y-118879021D01*
X132387017Y-119209809D01*
X132640191Y-119462983D01*
X132970979Y-119600000D01*
X133000000Y-119600000D01*
X133000000Y-119679021D01*
X133137017Y-120009809D01*
X133390191Y-120262983D01*
X133720979Y-120400000D01*
X134079021Y-120400000D01*
X134409809Y-120262983D01*
X134662983Y-120009809D01*
X134800000Y-119679021D01*
X134800000Y-119320979D01*
X134662983Y-118990191D01*
X134500000Y-118827208D01*
X134500000Y-118449889D01*
X134620979Y-118500000D01*
X134979021Y-118500000D01*
X135309809Y-118362983D01*
X135562983Y-118109809D01*
X135700000Y-117779021D01*
X135700000Y-117690130D01*
X162180335Y-117690130D01*
X162180335Y-120313950D01*
X162219141Y-120509040D01*
X162329650Y-120674430D01*
X162495040Y-120784939D01*
X162690130Y-120823745D01*
X165313950Y-120823745D01*
X165509040Y-120784939D01*
X165674430Y-120674430D01*
X165784939Y-120509040D01*
X165823745Y-120313950D01*
X165823745Y-120237515D01*
X166799880Y-120237515D01*
X166934446Y-120511182D01*
X167593080Y-120804075D01*
X168313663Y-120822624D01*
X168986495Y-120564006D01*
X169065554Y-120511182D01*
X169200120Y-120237515D01*
X168000000Y-119037395D01*
X166799880Y-120237515D01*
X165823745Y-120237515D01*
X165823745Y-119315703D01*
X166179416Y-119315703D01*
X166438034Y-119988535D01*
X166490858Y-120067594D01*
X166764525Y-120202160D01*
X167964645Y-119002040D01*
X168035355Y-119002040D01*
X169235475Y-120202160D01*
X169509142Y-120067594D01*
X169802035Y-119408960D01*
X169820584Y-118688377D01*
X169802616Y-118641629D01*
X170186050Y-118641629D01*
X170186050Y-119362451D01*
X170461897Y-120028404D01*
X170971596Y-120538103D01*
X171637549Y-120813950D01*
X172358371Y-120813950D01*
X173024324Y-120538103D01*
X173534023Y-120028404D01*
X173809870Y-119362451D01*
X173809870Y-118641629D01*
X173534023Y-117975676D01*
X173024324Y-117465977D01*
X172358371Y-117190130D01*
X171637549Y-117190130D01*
X170971596Y-117465977D01*
X170461897Y-117975676D01*
X170186050Y-118641629D01*
X169802616Y-118641629D01*
X169561966Y-118015545D01*
X169509142Y-117936486D01*
X169235475Y-117801920D01*
X168035355Y-119002040D01*
X167964645Y-119002040D01*
X166764525Y-117801920D01*
X166490858Y-117936486D01*
X166197965Y-118595120D01*
X166179416Y-119315703D01*
X165823745Y-119315703D01*
X165823745Y-117766565D01*
X166799880Y-117766565D01*
X168000000Y-118966685D01*
X169200120Y-117766565D01*
X169065554Y-117492898D01*
X168406920Y-117200005D01*
X167686337Y-117181456D01*
X167013505Y-117440074D01*
X166934446Y-117492898D01*
X166799880Y-117766565D01*
X165823745Y-117766565D01*
X165823745Y-117690130D01*
X165784939Y-117495040D01*
X165674430Y-117329650D01*
X165509040Y-117219141D01*
X165313950Y-117180335D01*
X162690130Y-117180335D01*
X162495040Y-117219141D01*
X162329650Y-117329650D01*
X162219141Y-117495040D01*
X162180335Y-117690130D01*
X135700000Y-117690130D01*
X135700000Y-117420979D01*
X135699866Y-117420655D01*
X135959809Y-117312983D01*
X136212983Y-117059809D01*
X136350000Y-116729021D01*
X136350000Y-116552461D01*
X136690542Y-116552461D01*
X137021330Y-116415444D01*
X137274504Y-116162270D01*
X137411521Y-115831482D01*
X137411521Y-115473440D01*
X137274504Y-115142652D01*
X137021330Y-114889478D01*
X136690542Y-114752461D01*
X136630788Y-114752461D01*
X136554502Y-114568290D01*
X136612983Y-114509809D01*
X136750000Y-114179021D01*
X136750000Y-113820979D01*
X136612983Y-113490191D01*
X136359809Y-113237017D01*
X136029021Y-113100000D01*
X135798528Y-113100000D01*
X134500000Y-111801473D01*
X134500000Y-111370979D01*
X141750000Y-111370979D01*
X141750000Y-111729021D01*
X141887017Y-112059809D01*
X142140191Y-112312983D01*
X142470979Y-112450000D01*
X142829021Y-112450000D01*
X143159809Y-112312983D01*
X143322792Y-112150000D01*
X146674738Y-112150000D01*
X146740191Y-112215453D01*
X147070979Y-112352470D01*
X147429021Y-112352470D01*
X147759809Y-112215453D01*
X148012983Y-111962279D01*
X148078270Y-111804661D01*
X152301910Y-111804661D01*
X152301910Y-112600259D01*
X152606372Y-113335295D01*
X153168945Y-113897868D01*
X153903981Y-114202330D01*
X154699579Y-114202330D01*
X155434615Y-113897868D01*
X155997188Y-113335295D01*
X156301650Y-112600259D01*
X156301650Y-111804661D01*
X179698350Y-111804661D01*
X179698350Y-112600259D01*
X180002812Y-113335295D01*
X180565385Y-113897868D01*
X181300421Y-114202330D01*
X182096019Y-114202330D01*
X182831055Y-113897868D01*
X183393628Y-113335295D01*
X183698090Y-112600259D01*
X183698090Y-111804661D01*
X183393628Y-111069625D01*
X182831055Y-110507052D01*
X182096019Y-110202590D01*
X181300421Y-110202590D01*
X180565385Y-110507052D01*
X180002812Y-111069625D01*
X179698350Y-111804661D01*
X156301650Y-111804661D01*
X155997188Y-111069625D01*
X155434615Y-110507052D01*
X154699579Y-110202590D01*
X153903981Y-110202590D01*
X153168945Y-110507052D01*
X152606372Y-111069625D01*
X152301910Y-111804661D01*
X148078270Y-111804661D01*
X148150000Y-111631491D01*
X148150000Y-111273449D01*
X148012983Y-110942661D01*
X147759809Y-110689487D01*
X147429021Y-110552470D01*
X147070979Y-110552470D01*
X146740191Y-110689487D01*
X146487017Y-110942661D01*
X146483977Y-110950000D01*
X143322792Y-110950000D01*
X143159809Y-110787017D01*
X142829021Y-110650000D01*
X142470979Y-110650000D01*
X142140191Y-110787017D01*
X141887017Y-111040191D01*
X141750000Y-111370979D01*
X134500000Y-111370979D01*
X134500000Y-107342636D01*
X136799305Y-105043332D01*
X136849398Y-105009861D01*
X136982010Y-104811394D01*
X137016823Y-104636377D01*
X137016823Y-104636373D01*
X137020195Y-104619420D01*
X137179806Y-104459809D01*
X137316823Y-104129021D01*
X137316823Y-103770979D01*
X137179806Y-103440191D01*
X136926632Y-103187017D01*
X136595844Y-103050000D01*
X136237802Y-103050000D01*
X135907014Y-103187017D01*
X135653840Y-103440191D01*
X135539361Y-103716569D01*
X135309809Y-103487017D01*
X134979021Y-103350000D01*
X134849889Y-103350000D01*
X134762983Y-103140191D01*
X134509809Y-102887017D01*
X134498609Y-102882378D01*
X134500000Y-102879021D01*
X134500000Y-102520979D01*
X134362983Y-102190191D01*
X134109809Y-101937017D01*
X133779021Y-101800000D01*
X133420979Y-101800000D01*
X133090191Y-101937017D01*
X132837017Y-102190191D01*
X132700000Y-102520979D01*
X132700000Y-102768335D01*
X132634815Y-102865891D01*
X132588248Y-103099999D01*
X132600002Y-103159090D01*
X132600001Y-103700000D01*
X132570979Y-103700000D01*
X132240191Y-103837017D01*
X131987017Y-104090191D01*
X131850000Y-104420979D01*
X131850000Y-104643483D01*
X131833910Y-104667563D01*
X131833909Y-104667564D01*
X131734770Y-104815936D01*
X131713143Y-104924664D01*
X131629032Y-104889824D01*
X131270990Y-104889824D01*
X130940202Y-105026841D01*
X130687028Y-105280015D01*
X130550011Y-105610803D01*
X130550011Y-105968845D01*
X130625681Y-106151527D01*
X130387017Y-106390191D01*
X130250000Y-106720979D01*
X129599980Y-106720979D01*
X129599980Y-101420977D01*
X137200000Y-101420977D01*
X137200000Y-101779019D01*
X137337017Y-102109807D01*
X137509988Y-102282778D01*
X137419018Y-102502400D01*
X137419018Y-102860442D01*
X137518834Y-103101418D01*
X137453862Y-103166390D01*
X137316845Y-103497178D01*
X137316845Y-103855220D01*
X137453862Y-104186008D01*
X137707036Y-104439182D01*
X138037824Y-104576199D01*
X138395866Y-104576199D01*
X138697960Y-104451068D01*
X138818434Y-104741918D01*
X139071608Y-104995092D01*
X139402396Y-105132109D01*
X139717508Y-105132109D01*
X139717508Y-105401006D01*
X139854525Y-105731794D01*
X140107699Y-105984968D01*
X140438487Y-106121985D01*
X140509429Y-106121985D01*
X140616205Y-106379765D01*
X140869379Y-106632939D01*
X141200167Y-106769956D01*
X141558209Y-106769956D01*
X141888997Y-106632939D01*
X142142171Y-106379765D01*
X142258502Y-106098916D01*
X142307954Y-106119400D01*
X142532722Y-106119400D01*
X142490191Y-106137017D01*
X142237017Y-106390191D01*
X142100000Y-106720979D01*
X142100000Y-107079021D01*
X142237017Y-107409809D01*
X142490191Y-107662983D01*
X142820979Y-107800000D01*
X143179021Y-107800000D01*
X143509809Y-107662983D01*
X143762983Y-107409809D01*
X143900000Y-107079021D01*
X143900000Y-106848527D01*
X144598528Y-106150000D01*
X155140914Y-106150000D01*
X155200000Y-106161753D01*
X155259086Y-106150000D01*
X155259091Y-106150000D01*
X155434108Y-106115187D01*
X155632575Y-105982575D01*
X155666049Y-105932478D01*
X170948528Y-90650000D01*
X180340914Y-90650000D01*
X180400000Y-90661753D01*
X180459086Y-90650000D01*
X180459091Y-90650000D01*
X180634108Y-90615187D01*
X180832575Y-90482575D01*
X180866049Y-90432478D01*
X182132482Y-89166046D01*
X182182575Y-89132575D01*
X182267871Y-89004921D01*
X182512983Y-88759809D01*
X182650000Y-88429021D01*
X182650000Y-88070979D01*
X182512983Y-87740191D01*
X182259809Y-87487017D01*
X181929021Y-87350000D01*
X181570979Y-87350000D01*
X181240191Y-87487017D01*
X180987017Y-87740191D01*
X180850000Y-88070979D01*
X180850000Y-88429021D01*
X180944444Y-88657028D01*
X180151473Y-89450000D01*
X177887757Y-89450000D01*
X178000000Y-89179021D01*
X178000000Y-88820979D01*
X177862983Y-88490191D01*
X177609809Y-88237017D01*
X177279021Y-88100000D01*
X176920979Y-88100000D01*
X176590191Y-88237017D01*
X176337017Y-88490191D01*
X176200000Y-88820979D01*
X176200000Y-89049989D01*
X174149758Y-89049989D01*
X174359809Y-88962983D01*
X174612983Y-88709809D01*
X174750000Y-88379021D01*
X174750000Y-88020979D01*
X174612983Y-87690191D01*
X174359809Y-87437017D01*
X174029021Y-87300000D01*
X173670979Y-87300000D01*
X173340191Y-87437017D01*
X173087017Y-87690191D01*
X172950000Y-88020979D01*
X172950000Y-88251472D01*
X172551495Y-88649978D01*
X170393410Y-88649978D01*
X170334322Y-88638225D01*
X170275234Y-88649978D01*
X170275231Y-88649978D01*
X170100214Y-88684791D01*
X169901747Y-88817403D01*
X169868275Y-88867497D01*
X166800000Y-91935772D01*
X166800000Y-88872792D01*
X166962983Y-88709809D01*
X167100000Y-88379021D01*
X167100000Y-88020979D01*
X166962983Y-87690191D01*
X166709809Y-87437017D01*
X166379021Y-87300000D01*
X166020979Y-87300000D01*
X165690191Y-87437017D01*
X165600000Y-87527208D01*
X165559809Y-87487017D01*
X165229021Y-87350000D01*
X164870979Y-87350000D01*
X164540191Y-87487017D01*
X164287017Y-87740191D01*
X164150000Y-88070979D01*
X164150000Y-88429021D01*
X164287017Y-88759809D01*
X164540191Y-89012983D01*
X164870979Y-89150000D01*
X165101472Y-89150000D01*
X165200000Y-89248528D01*
X165200001Y-92404371D01*
X154254539Y-103349834D01*
X153414393Y-103349834D01*
X158632484Y-98131745D01*
X158682575Y-98098275D01*
X158716045Y-98048184D01*
X158716048Y-98048181D01*
X158815187Y-97899808D01*
X158850000Y-97724791D01*
X158850000Y-97724788D01*
X158850495Y-97722297D01*
X159012983Y-97559809D01*
X159150000Y-97229021D01*
X159150000Y-96870979D01*
X159012983Y-96540191D01*
X158759809Y-96287017D01*
X158429021Y-96150000D01*
X158070979Y-96150000D01*
X157740191Y-96287017D01*
X157487017Y-96540191D01*
X157418900Y-96704640D01*
X157342651Y-96520559D01*
X157089477Y-96267385D01*
X156758689Y-96130368D01*
X156400647Y-96130368D01*
X156069859Y-96267385D01*
X155816685Y-96520559D01*
X155679668Y-96851347D01*
X155679668Y-97209389D01*
X155816685Y-97540177D01*
X155979668Y-97703160D01*
X155979669Y-98521803D01*
X151951661Y-102549812D01*
X148064415Y-102549812D01*
X152382481Y-98231747D01*
X152432575Y-98198275D01*
X152477613Y-98130872D01*
X152532865Y-98048181D01*
X152565187Y-97999808D01*
X152588081Y-97884711D01*
X152762983Y-97709809D01*
X152900000Y-97379021D01*
X152900000Y-97020979D01*
X152762983Y-96690191D01*
X152509809Y-96437017D01*
X152179021Y-96300000D01*
X151820979Y-96300000D01*
X151490191Y-96437017D01*
X151237017Y-96690191D01*
X151114645Y-96985624D01*
X151012983Y-96740191D01*
X150759809Y-96487017D01*
X150429021Y-96350000D01*
X150070979Y-96350000D01*
X149740191Y-96487017D01*
X149487017Y-96740191D01*
X149350000Y-97070979D01*
X149350000Y-97429021D01*
X149487017Y-97759809D01*
X149650000Y-97922792D01*
X149650001Y-98701473D01*
X146601684Y-101749791D01*
X145814437Y-101749791D01*
X147182485Y-100381744D01*
X147232575Y-100348275D01*
X147266045Y-100298184D01*
X147266048Y-100298181D01*
X147365187Y-100149808D01*
X147368480Y-100133253D01*
X147400000Y-99974791D01*
X147400000Y-99974788D01*
X147411753Y-99915700D01*
X147400000Y-99856612D01*
X147400000Y-98153590D01*
X147562983Y-97990607D01*
X147700000Y-97659819D01*
X147700000Y-97301777D01*
X147562983Y-96970989D01*
X147309809Y-96717815D01*
X146979021Y-96580798D01*
X146620979Y-96580798D01*
X146390720Y-96676175D01*
X146313683Y-96490191D01*
X146060509Y-96237017D01*
X145729721Y-96100000D01*
X145371679Y-96100000D01*
X145040891Y-96237017D01*
X144787717Y-96490191D01*
X144650700Y-96820979D01*
X144650700Y-97179021D01*
X144787717Y-97509809D01*
X144950701Y-97672793D01*
X144950700Y-100350772D01*
X144401473Y-100900000D01*
X138672794Y-100900000D01*
X138609809Y-100837015D01*
X138279021Y-100699998D01*
X137920979Y-100699998D01*
X137590191Y-100837015D01*
X137337017Y-101090189D01*
X137200000Y-101420977D01*
X129599980Y-101420977D01*
X129599980Y-71902161D01*
X140800790Y-71902161D01*
X140800790Y-72697759D01*
X141105252Y-73432795D01*
X141667825Y-73995368D01*
X142402861Y-74299830D01*
X143198459Y-74299830D01*
X143933495Y-73995368D01*
X144496068Y-73432795D01*
X144800530Y-72697759D01*
X144800530Y-71902161D01*
X191199470Y-71902161D01*
X191199470Y-72697759D01*
X191503932Y-73432795D01*
X192066505Y-73995368D01*
X192801541Y-74299830D01*
X193597139Y-74299830D01*
X194332175Y-73995368D01*
X194894748Y-73432795D01*
X195199210Y-72697759D01*
X195199210Y-71902161D01*
X194894748Y-71167125D01*
X194332175Y-70604552D01*
X193597139Y-70300090D01*
X192801541Y-70300090D01*
X192066505Y-70604552D01*
X191503932Y-71167125D01*
X191199470Y-71902161D01*
X144800530Y-71902161D01*
X144496068Y-71167125D01*
X143933495Y-70604552D01*
X143198459Y-70300090D01*
X142402861Y-70300090D01*
X141667825Y-70604552D01*
X141105252Y-71167125D01*
X140800790Y-71902161D01*
X129599980Y-71902161D01*
X129599980Y-69020979D01*
X150900000Y-69020979D01*
X150900000Y-69379021D01*
X151037017Y-69709809D01*
X151290191Y-69962983D01*
X151620979Y-70100000D01*
X151979021Y-70100000D01*
X152309809Y-69962983D01*
X152402284Y-69870508D01*
X152465997Y-70024324D01*
X152975696Y-70534023D01*
X153641649Y-70809870D01*
X154362471Y-70809870D01*
X155028424Y-70534023D01*
X155538123Y-70024324D01*
X155813970Y-69358371D01*
X155813970Y-68637549D01*
X155538123Y-67971596D01*
X155316527Y-67750000D01*
X156685553Y-67750000D01*
X156463957Y-67971596D01*
X156188110Y-68637549D01*
X156188110Y-69358371D01*
X156463957Y-70024324D01*
X156973656Y-70534023D01*
X157639609Y-70809870D01*
X158360431Y-70809870D01*
X159026384Y-70534023D01*
X159536083Y-70024324D01*
X159811930Y-69358371D01*
X159811930Y-68637549D01*
X159536083Y-67971596D01*
X159314487Y-67750000D01*
X160686053Y-67750000D01*
X160464457Y-67971596D01*
X160188610Y-68637549D01*
X160188610Y-69358371D01*
X160464457Y-70024324D01*
X160974156Y-70534023D01*
X161640109Y-70809870D01*
X162360931Y-70809870D01*
X163026884Y-70534023D01*
X163536583Y-70024324D01*
X163812430Y-69358371D01*
X163812430Y-68637549D01*
X163536583Y-67971596D01*
X163314987Y-67750000D01*
X163692401Y-67750000D01*
X164303584Y-68361184D01*
X164189110Y-68637549D01*
X164189110Y-69358371D01*
X164464957Y-70024324D01*
X164974656Y-70534023D01*
X165640609Y-70809870D01*
X166361431Y-70809870D01*
X167027384Y-70534023D01*
X167537083Y-70024324D01*
X167812930Y-69358371D01*
X167812930Y-68637549D01*
X168187070Y-68637549D01*
X168187070Y-69358371D01*
X168462917Y-70024324D01*
X168972616Y-70534023D01*
X169638569Y-70809870D01*
X170359391Y-70809870D01*
X171025344Y-70534023D01*
X171535043Y-70024324D01*
X171810890Y-69358371D01*
X171810890Y-68637549D01*
X172187570Y-68637549D01*
X172187570Y-69358371D01*
X172463417Y-70024324D01*
X172973116Y-70534023D01*
X173639069Y-70809870D01*
X174359891Y-70809870D01*
X175025844Y-70534023D01*
X175535543Y-70024324D01*
X175811390Y-69358371D01*
X175811390Y-68637549D01*
X176188070Y-68637549D01*
X176188070Y-69358371D01*
X176463917Y-70024324D01*
X176973616Y-70534023D01*
X177639569Y-70809870D01*
X178360391Y-70809870D01*
X179026344Y-70534023D01*
X179536043Y-70024324D01*
X179811890Y-69358371D01*
X179811890Y-68637549D01*
X180186030Y-68637549D01*
X180186030Y-69358371D01*
X180461877Y-70024324D01*
X180971576Y-70534023D01*
X181637529Y-70809870D01*
X182358351Y-70809870D01*
X183024304Y-70534023D01*
X183534003Y-70024324D01*
X183809850Y-69358371D01*
X183809850Y-68637549D01*
X183534003Y-67971596D01*
X183024304Y-67461897D01*
X182358351Y-67186050D01*
X181637529Y-67186050D01*
X180971576Y-67461897D01*
X180461877Y-67971596D01*
X180186030Y-68637549D01*
X179811890Y-68637549D01*
X179536043Y-67971596D01*
X179026344Y-67461897D01*
X178360391Y-67186050D01*
X177639569Y-67186050D01*
X176973616Y-67461897D01*
X176463917Y-67971596D01*
X176188070Y-68637549D01*
X175811390Y-68637549D01*
X175535543Y-67971596D01*
X175025844Y-67461897D01*
X174359891Y-67186050D01*
X173639069Y-67186050D01*
X172973116Y-67461897D01*
X172463417Y-67971596D01*
X172187570Y-68637549D01*
X171810890Y-68637549D01*
X171535043Y-67971596D01*
X171025344Y-67461897D01*
X170359391Y-67186050D01*
X169638569Y-67186050D01*
X168972616Y-67461897D01*
X168462917Y-67971596D01*
X168187070Y-68637549D01*
X167812930Y-68637549D01*
X167537083Y-67971596D01*
X167027384Y-67461897D01*
X166361431Y-67186050D01*
X165640609Y-67186050D01*
X165364244Y-67300524D01*
X164725323Y-66661603D01*
X165028404Y-66536063D01*
X165538103Y-66026364D01*
X165813950Y-65360411D01*
X165813950Y-64639589D01*
X166188090Y-64639589D01*
X166188090Y-65360411D01*
X166463937Y-66026364D01*
X166973636Y-66536063D01*
X167639589Y-66811910D01*
X168360411Y-66811910D01*
X169026364Y-66536063D01*
X169326952Y-66235475D01*
X170797840Y-66235475D01*
X170932406Y-66509142D01*
X171591040Y-66802035D01*
X172311623Y-66820584D01*
X172984455Y-66561966D01*
X173063514Y-66509142D01*
X173198080Y-66235475D01*
X171997960Y-65035355D01*
X170797840Y-66235475D01*
X169326952Y-66235475D01*
X169536063Y-66026364D01*
X169811910Y-65360411D01*
X169811910Y-65313663D01*
X170177376Y-65313663D01*
X170435994Y-65986495D01*
X170488818Y-66065554D01*
X170762485Y-66200120D01*
X171962605Y-65000000D01*
X172033315Y-65000000D01*
X173233435Y-66200120D01*
X173507102Y-66065554D01*
X173799995Y-65406920D01*
X173818544Y-64686337D01*
X173559926Y-64013505D01*
X173507102Y-63934446D01*
X173233435Y-63799880D01*
X172033315Y-65000000D01*
X171962605Y-65000000D01*
X170762485Y-63799880D01*
X170488818Y-63934446D01*
X170195925Y-64593080D01*
X170177376Y-65313663D01*
X169811910Y-65313663D01*
X169811910Y-64639589D01*
X169536063Y-63973636D01*
X169326952Y-63764525D01*
X170797840Y-63764525D01*
X171997960Y-64964645D01*
X173198080Y-63764525D01*
X173063514Y-63490858D01*
X172404880Y-63197965D01*
X171684297Y-63179416D01*
X171011465Y-63438034D01*
X170932406Y-63490858D01*
X170797840Y-63764525D01*
X169326952Y-63764525D01*
X169026364Y-63463937D01*
X168360411Y-63188090D01*
X167639589Y-63188090D01*
X166973636Y-63463937D01*
X166463937Y-63973636D01*
X166188090Y-64639589D01*
X165813950Y-64639589D01*
X165538103Y-63973636D01*
X165028404Y-63463937D01*
X164362451Y-63188090D01*
X163641629Y-63188090D01*
X162975676Y-63463937D01*
X162465977Y-63973636D01*
X162190130Y-64639589D01*
X162190130Y-65360411D01*
X162465977Y-66026364D01*
X162689613Y-66250000D01*
X161313967Y-66250000D01*
X161537603Y-66026364D01*
X161813450Y-65360411D01*
X161813450Y-64639589D01*
X161537603Y-63973636D01*
X161027904Y-63463937D01*
X160361951Y-63188090D01*
X159641129Y-63188090D01*
X158975176Y-63463937D01*
X158465477Y-63973636D01*
X158189630Y-64639589D01*
X158189630Y-65360411D01*
X158465477Y-66026364D01*
X158689113Y-66250000D01*
X157313467Y-66250000D01*
X157537103Y-66026364D01*
X157812950Y-65360411D01*
X157812950Y-64639589D01*
X157537103Y-63973636D01*
X157027404Y-63463937D01*
X156361451Y-63188090D01*
X155640629Y-63188090D01*
X154974676Y-63463937D01*
X154464977Y-63973636D01*
X154189130Y-64639589D01*
X154189130Y-65360411D01*
X154464977Y-66026364D01*
X154688613Y-66250000D01*
X153073864Y-66250000D01*
X152999999Y-66235307D01*
X152926134Y-66250000D01*
X152707365Y-66293516D01*
X152459280Y-66459280D01*
X152417438Y-66521901D01*
X151321906Y-67617435D01*
X151259280Y-67659280D01*
X151093516Y-67907366D01*
X151080740Y-67971596D01*
X151035307Y-68200000D01*
X151050000Y-68273866D01*
X151050000Y-68677208D01*
X151037017Y-68690191D01*
X150900000Y-69020979D01*
X129599980Y-69020979D01*
X129599980Y-59690130D01*
X152180355Y-59690130D01*
X152180355Y-62313950D01*
X152219161Y-62509040D01*
X152329670Y-62674430D01*
X152495060Y-62784939D01*
X152690150Y-62823745D01*
X155313970Y-62823745D01*
X155509060Y-62784939D01*
X155674450Y-62674430D01*
X155784959Y-62509040D01*
X155823765Y-62313950D01*
X155823765Y-60641629D01*
X156188110Y-60641629D01*
X156188110Y-61362451D01*
X156463957Y-62028404D01*
X156973656Y-62538103D01*
X157639609Y-62813950D01*
X158360431Y-62813950D01*
X159026384Y-62538103D01*
X159536083Y-62028404D01*
X159811930Y-61362451D01*
X159811930Y-60641629D01*
X160188610Y-60641629D01*
X160188610Y-61362451D01*
X160464457Y-62028404D01*
X160974156Y-62538103D01*
X161640109Y-62813950D01*
X162360931Y-62813950D01*
X163026884Y-62538103D01*
X163536583Y-62028404D01*
X163812430Y-61362451D01*
X163812430Y-60641629D01*
X164189110Y-60641629D01*
X164189110Y-61362451D01*
X164464957Y-62028404D01*
X164974656Y-62538103D01*
X165640609Y-62813950D01*
X166361431Y-62813950D01*
X167027384Y-62538103D01*
X167537083Y-62028404D01*
X167812930Y-61362451D01*
X167812930Y-60641629D01*
X168187070Y-60641629D01*
X168187070Y-61362451D01*
X168462917Y-62028404D01*
X168972616Y-62538103D01*
X169638569Y-62813950D01*
X170359391Y-62813950D01*
X171025344Y-62538103D01*
X171535043Y-62028404D01*
X171810890Y-61362451D01*
X171810890Y-60641629D01*
X172187570Y-60641629D01*
X172187570Y-61362451D01*
X172463417Y-62028404D01*
X172973116Y-62538103D01*
X173639069Y-62813950D01*
X174359891Y-62813950D01*
X175025844Y-62538103D01*
X175535543Y-62028404D01*
X175811390Y-61362451D01*
X175811390Y-60641629D01*
X175535543Y-59975676D01*
X175025844Y-59465977D01*
X174359891Y-59190130D01*
X173639069Y-59190130D01*
X172973116Y-59465977D01*
X172463417Y-59975676D01*
X172187570Y-60641629D01*
X171810890Y-60641629D01*
X171535043Y-59975676D01*
X171025344Y-59465977D01*
X170359391Y-59190130D01*
X169638569Y-59190130D01*
X168972616Y-59465977D01*
X168462917Y-59975676D01*
X168187070Y-60641629D01*
X167812930Y-60641629D01*
X167537083Y-59975676D01*
X167027384Y-59465977D01*
X166361431Y-59190130D01*
X165640609Y-59190130D01*
X164974656Y-59465977D01*
X164464957Y-59975676D01*
X164189110Y-60641629D01*
X163812430Y-60641629D01*
X163536583Y-59975676D01*
X163026884Y-59465977D01*
X162360931Y-59190130D01*
X161640109Y-59190130D01*
X160974156Y-59465977D01*
X160464457Y-59975676D01*
X160188610Y-60641629D01*
X159811930Y-60641629D01*
X159536083Y-59975676D01*
X159026384Y-59465977D01*
X158360431Y-59190130D01*
X157639609Y-59190130D01*
X156973656Y-59465977D01*
X156463957Y-59975676D01*
X156188110Y-60641629D01*
X155823765Y-60641629D01*
X155823765Y-59690130D01*
X155784959Y-59495040D01*
X155674450Y-59329650D01*
X155509060Y-59219141D01*
X155313970Y-59180335D01*
X152690150Y-59180335D01*
X152495060Y-59219141D01*
X152329670Y-59329650D01*
X152219161Y-59495040D01*
X152180355Y-59690130D01*
X129599980Y-59690130D01*
X129599980Y-53804661D01*
X142301930Y-53804661D01*
X142301930Y-54600259D01*
X142606392Y-55335295D01*
X143168965Y-55897868D01*
X143904001Y-56202330D01*
X144699599Y-56202330D01*
X145434635Y-55897868D01*
X145997208Y-55335295D01*
X146301670Y-54600259D01*
X146301670Y-53804661D01*
X189698330Y-53804661D01*
X189698330Y-54600259D01*
X190002792Y-55335295D01*
X190565365Y-55897868D01*
X191300401Y-56202330D01*
X192095999Y-56202330D01*
X192831035Y-55897868D01*
X193393608Y-55335295D01*
X193698070Y-54600259D01*
X193698070Y-53804661D01*
X193393608Y-53069625D01*
X192831035Y-52507052D01*
X192095999Y-52202590D01*
X191300401Y-52202590D01*
X190565365Y-52507052D01*
X190002792Y-53069625D01*
X189698330Y-53804661D01*
X146301670Y-53804661D01*
X145997208Y-53069625D01*
X145434635Y-52507052D01*
X144699599Y-52202590D01*
X143904001Y-52202590D01*
X143168965Y-52507052D01*
X142606392Y-53069625D01*
X142301930Y-53804661D01*
X129599980Y-53804661D01*
X129599980Y-51044784D01*
X129662127Y-50610826D01*
X129825704Y-50251058D01*
X130083680Y-49951663D01*
X130415313Y-49736709D01*
X130813830Y-49617527D01*
X131022240Y-49602040D01*
X204957236Y-49602040D01*
X205391194Y-49664187D01*
X205391194Y-49664187D01*
G37*
X205391194Y-49664187D02*
X205750962Y-49827764D01*
X206050357Y-50085740D01*
X206265311Y-50417373D01*
X206384493Y-50815890D01*
X206399980Y-51024300D01*
X206399980Y-68139320D01*
X200782565Y-62521906D01*
X200740720Y-62459280D01*
X200492635Y-62293516D01*
X200273866Y-62250000D01*
X200273865Y-62250000D01*
X200200000Y-62235307D01*
X200126135Y-62250000D01*
X183312407Y-62250000D01*
X183534003Y-62028404D01*
X183809850Y-61362451D01*
X183809850Y-60641629D01*
X183534003Y-59975676D01*
X183024304Y-59465977D01*
X182358351Y-59190130D01*
X181637529Y-59190130D01*
X180971576Y-59465977D01*
X180461877Y-59975676D01*
X180186030Y-60641629D01*
X180186030Y-61362451D01*
X180461877Y-62028404D01*
X180683473Y-62250000D01*
X179314447Y-62250000D01*
X179536043Y-62028404D01*
X179811890Y-61362451D01*
X179811890Y-60641629D01*
X179536043Y-59975676D01*
X179026344Y-59465977D01*
X178360391Y-59190130D01*
X177639569Y-59190130D01*
X176973616Y-59465977D01*
X176463917Y-59975676D01*
X176188070Y-60641629D01*
X176188070Y-61362451D01*
X176463917Y-62028404D01*
X176973616Y-62538103D01*
X177274900Y-62662899D01*
X176635236Y-63302564D01*
X176358871Y-63188090D01*
X175638049Y-63188090D01*
X174972096Y-63463937D01*
X174462397Y-63973636D01*
X174186550Y-64639589D01*
X174186550Y-65360411D01*
X174462397Y-66026364D01*
X174972096Y-66536063D01*
X175638049Y-66811910D01*
X176358871Y-66811910D01*
X177024824Y-66536063D01*
X177534523Y-66026364D01*
X177810370Y-65360411D01*
X177810370Y-64639589D01*
X177695896Y-64363224D01*
X178309121Y-63750000D01*
X178686533Y-63750000D01*
X178462897Y-63973636D01*
X178187050Y-64639589D01*
X178187050Y-65360411D01*
X178462897Y-66026364D01*
X178972596Y-66536063D01*
X179638549Y-66811910D01*
X180359371Y-66811910D01*
X181025324Y-66536063D01*
X181535023Y-66026364D01*
X181649497Y-65750000D01*
X181780415Y-65750000D01*
X181854280Y-65764693D01*
X181928145Y-65750000D01*
X181928146Y-65750000D01*
X182146915Y-65706484D01*
X182395000Y-65540720D01*
X182436845Y-65478094D01*
X183264940Y-64650000D01*
X199689341Y-64650000D01*
X204750000Y-69710660D01*
X204750001Y-136489339D01*
X204489341Y-136750000D01*
X153750000Y-136750000D01*
X153750000Y-136522792D01*
X153762983Y-136509809D01*
X153829178Y-136350001D01*
X154426134Y-136350001D01*
X154499999Y-136364694D01*
X154573864Y-136350001D01*
X154573865Y-136350001D01*
X154792634Y-136306485D01*
X155040719Y-136140721D01*
X155082564Y-136078095D01*
X157478100Y-133682561D01*
X157540720Y-133640720D01*
X157706484Y-133392635D01*
X157750000Y-133173866D01*
X157750000Y-133173865D01*
X157764693Y-133100001D01*
X157750000Y-133026136D01*
X157750000Y-131703030D01*
X162190130Y-127262901D01*
X162190130Y-127358371D01*
X162465977Y-128024324D01*
X162975676Y-128534023D01*
X163641629Y-128809870D01*
X164362451Y-128809870D01*
X165028404Y-128534023D01*
X165538103Y-128024324D01*
X165813950Y-127358371D01*
X165813950Y-126637549D01*
X165538103Y-125971596D01*
X165216507Y-125650000D01*
X166785533Y-125650000D01*
X166463937Y-125971596D01*
X166188090Y-126637549D01*
X166188090Y-127358371D01*
X166463937Y-128024324D01*
X166889613Y-128450000D01*
X166722792Y-128450000D01*
X166609809Y-128337017D01*
X166279021Y-128200000D01*
X165920979Y-128200000D01*
X165590191Y-128337017D01*
X165337017Y-128590191D01*
X165200000Y-128920979D01*
X165200000Y-129279021D01*
X165337017Y-129609809D01*
X165590191Y-129862983D01*
X165920979Y-130000000D01*
X166279021Y-130000000D01*
X166515225Y-129902161D01*
X181199490Y-129902161D01*
X181199490Y-130697759D01*
X181503952Y-131432795D01*
X182066525Y-131995368D01*
X182801561Y-132299830D01*
X183597159Y-132299830D01*
X184332195Y-131995368D01*
X184894768Y-131432795D01*
X185199230Y-130697759D01*
X185199230Y-129902161D01*
X184894768Y-129167125D01*
X184332195Y-128604552D01*
X183597159Y-128300090D01*
X182801561Y-128300090D01*
X182066525Y-128604552D01*
X181503952Y-129167125D01*
X181199490Y-129902161D01*
X166515225Y-129902161D01*
X166609809Y-129862983D01*
X166722792Y-129750000D01*
X169831904Y-129750000D01*
X169895920Y-129762734D01*
X169959936Y-129750000D01*
X169959938Y-129750000D01*
X170149537Y-129712286D01*
X170364544Y-129568624D01*
X170400811Y-129514346D01*
X171261184Y-128653974D01*
X171637549Y-128809870D01*
X172358371Y-128809870D01*
X173024324Y-128534023D01*
X173534023Y-128024324D01*
X173809870Y-127358371D01*
X173809870Y-126637549D01*
X173534023Y-125971596D01*
X173024324Y-125461897D01*
X172358371Y-125186050D01*
X171637549Y-125186050D01*
X170971596Y-125461897D01*
X170461897Y-125971596D01*
X170186050Y-126637549D01*
X170186050Y-127358371D01*
X170341946Y-127734736D01*
X169626683Y-128450000D01*
X169110387Y-128450000D01*
X169536063Y-128024324D01*
X169811910Y-127358371D01*
X169811910Y-126637549D01*
X169536063Y-125971596D01*
X169026364Y-125461897D01*
X168723283Y-125336356D01*
X169362204Y-124697436D01*
X169638569Y-124811910D01*
X170359391Y-124811910D01*
X171025344Y-124536063D01*
X171535043Y-124026364D01*
X171810890Y-123360411D01*
X171810890Y-122639589D01*
X171535043Y-121973636D01*
X171025344Y-121463937D01*
X170359391Y-121188090D01*
X169638569Y-121188090D01*
X168972616Y-121463937D01*
X168462917Y-121973636D01*
X168187070Y-122639589D01*
X168187070Y-123360411D01*
X168301544Y-123636776D01*
X167788321Y-124150000D01*
X167413447Y-124150000D01*
X167537083Y-124026364D01*
X167812930Y-123360411D01*
X167812930Y-122639589D01*
X167537083Y-121973636D01*
X167027384Y-121463937D01*
X166361431Y-121188090D01*
X165640609Y-121188090D01*
X164974656Y-121463937D01*
X164464957Y-121973636D01*
X164350483Y-122250000D01*
X164219566Y-122250000D01*
X164145700Y-122235307D01*
X163853064Y-122293516D01*
X163764905Y-122352422D01*
X163604980Y-122459280D01*
X163563137Y-122521903D01*
X155721906Y-130363135D01*
X155659280Y-130404980D01*
X155493516Y-130653066D01*
X155454015Y-130851651D01*
X155435307Y-130945700D01*
X155450000Y-131019565D01*
X155450001Y-132489338D01*
X153889341Y-134050000D01*
X153022792Y-134050000D01*
X153009809Y-134037017D01*
X152679021Y-133900000D01*
X152320979Y-133900000D01*
X151990191Y-134037017D01*
X151737017Y-134290191D01*
X151600000Y-134620979D01*
X151600000Y-134639341D01*
X151321906Y-134917435D01*
X151259280Y-134959280D01*
X151093516Y-135207366D01*
X151050803Y-135422100D01*
X151035307Y-135500000D01*
X151050000Y-135573865D01*
X151050001Y-137226130D01*
X151035307Y-137300000D01*
X151078086Y-137515060D01*
X151093517Y-137592635D01*
X151259281Y-137840720D01*
X151321904Y-137882563D01*
X151841464Y-138402124D01*
X131042705Y-138402157D01*
X130608752Y-138340054D01*
X130249026Y-138176539D01*
X129949646Y-137918629D01*
X129734689Y-137587063D01*
X129615490Y-137188633D01*
X129599980Y-136979999D01*
X129599980Y-129902161D01*
X150800770Y-129902161D01*
X150800770Y-130697759D01*
X151105232Y-131432795D01*
X151667805Y-131995368D01*
X152402841Y-132299830D01*
X153198439Y-132299830D01*
X153933475Y-131995368D01*
X154496048Y-131432795D01*
X154800510Y-130697759D01*
X154800510Y-129902161D01*
X154496048Y-129167125D01*
X153933475Y-128604552D01*
X153198439Y-128300090D01*
X152402841Y-128300090D01*
X151667805Y-128604552D01*
X151105232Y-129167125D01*
X150800770Y-129902161D01*
X129599980Y-129902161D01*
X129599980Y-124220979D01*
X149000000Y-124220979D01*
X149000000Y-124579021D01*
X149137017Y-124909809D01*
X149300000Y-125072792D01*
X149300001Y-127927207D01*
X149237017Y-127990191D01*
X149100000Y-128320979D01*
X149100000Y-128679021D01*
X149237017Y-129009809D01*
X149490191Y-129262983D01*
X149820979Y-129400000D01*
X150179021Y-129400000D01*
X150509809Y-129262983D01*
X150762983Y-129009809D01*
X150900000Y-128679021D01*
X150900000Y-128391310D01*
X151209809Y-128262983D01*
X151462983Y-128009809D01*
X151600000Y-127679021D01*
X151600000Y-127320979D01*
X151462983Y-126990191D01*
X151300000Y-126827208D01*
X151300000Y-123881075D01*
X151311753Y-123821987D01*
X151305449Y-123790296D01*
X151330005Y-123731013D01*
X151330005Y-123372971D01*
X151192988Y-123042183D01*
X150939814Y-122789009D01*
X150609026Y-122651992D01*
X150250984Y-122651992D01*
X149920196Y-122789009D01*
X149667022Y-123042183D01*
X149530005Y-123372971D01*
X149530005Y-123579104D01*
X149390191Y-123637017D01*
X149137017Y-123890191D01*
X149000000Y-124220979D01*
X129599980Y-124220979D01*
X129599980Y-106720979D01*
X130250000Y-106720979D01*
X130250000Y-107079021D01*
X130387017Y-107409809D01*
X130640191Y-107662983D01*
X130850001Y-107749889D01*
X130850000Y-116375229D01*
X130838247Y-116434315D01*
X130850000Y-116493401D01*
X130850000Y-116493405D01*
X130884813Y-116668422D01*
X131017425Y-116866890D01*
X131067522Y-116900364D01*
X132378327Y-118211170D01*
X132250000Y-118520979D01*
X132250000Y-118879021D01*
X132387017Y-119209809D01*
X132640191Y-119462983D01*
X132970979Y-119600000D01*
X133000000Y-119600000D01*
X133000000Y-119679021D01*
X133137017Y-120009809D01*
X133390191Y-120262983D01*
X133720979Y-120400000D01*
X134079021Y-120400000D01*
X134409809Y-120262983D01*
X134662983Y-120009809D01*
X134800000Y-119679021D01*
X134800000Y-119320979D01*
X134662983Y-118990191D01*
X134500000Y-118827208D01*
X134500000Y-118449889D01*
X134620979Y-118500000D01*
X134979021Y-118500000D01*
X135309809Y-118362983D01*
X135562983Y-118109809D01*
X135700000Y-117779021D01*
X135700000Y-117690130D01*
X162180335Y-117690130D01*
X162180335Y-120313950D01*
X162219141Y-120509040D01*
X162329650Y-120674430D01*
X162495040Y-120784939D01*
X162690130Y-120823745D01*
X165313950Y-120823745D01*
X165509040Y-120784939D01*
X165674430Y-120674430D01*
X165784939Y-120509040D01*
X165823745Y-120313950D01*
X165823745Y-120237515D01*
X166799880Y-120237515D01*
X166934446Y-120511182D01*
X167593080Y-120804075D01*
X168313663Y-120822624D01*
X168986495Y-120564006D01*
X169065554Y-120511182D01*
X169200120Y-120237515D01*
X168000000Y-119037395D01*
X166799880Y-120237515D01*
X165823745Y-120237515D01*
X165823745Y-119315703D01*
X166179416Y-119315703D01*
X166438034Y-119988535D01*
X166490858Y-120067594D01*
X166764525Y-120202160D01*
X167964645Y-119002040D01*
X168035355Y-119002040D01*
X169235475Y-120202160D01*
X169509142Y-120067594D01*
X169802035Y-119408960D01*
X169820584Y-118688377D01*
X169802616Y-118641629D01*
X170186050Y-118641629D01*
X170186050Y-119362451D01*
X170461897Y-120028404D01*
X170971596Y-120538103D01*
X171637549Y-120813950D01*
X172358371Y-120813950D01*
X173024324Y-120538103D01*
X173534023Y-120028404D01*
X173809870Y-119362451D01*
X173809870Y-118641629D01*
X173534023Y-117975676D01*
X173024324Y-117465977D01*
X172358371Y-117190130D01*
X171637549Y-117190130D01*
X170971596Y-117465977D01*
X170461897Y-117975676D01*
X170186050Y-118641629D01*
X169802616Y-118641629D01*
X169561966Y-118015545D01*
X169509142Y-117936486D01*
X169235475Y-117801920D01*
X168035355Y-119002040D01*
X167964645Y-119002040D01*
X166764525Y-117801920D01*
X166490858Y-117936486D01*
X166197965Y-118595120D01*
X166179416Y-119315703D01*
X165823745Y-119315703D01*
X165823745Y-117766565D01*
X166799880Y-117766565D01*
X168000000Y-118966685D01*
X169200120Y-117766565D01*
X169065554Y-117492898D01*
X168406920Y-117200005D01*
X167686337Y-117181456D01*
X167013505Y-117440074D01*
X166934446Y-117492898D01*
X166799880Y-117766565D01*
X165823745Y-117766565D01*
X165823745Y-117690130D01*
X165784939Y-117495040D01*
X165674430Y-117329650D01*
X165509040Y-117219141D01*
X165313950Y-117180335D01*
X162690130Y-117180335D01*
X162495040Y-117219141D01*
X162329650Y-117329650D01*
X162219141Y-117495040D01*
X162180335Y-117690130D01*
X135700000Y-117690130D01*
X135700000Y-117420979D01*
X135699866Y-117420655D01*
X135959809Y-117312983D01*
X136212983Y-117059809D01*
X136350000Y-116729021D01*
X136350000Y-116552461D01*
X136690542Y-116552461D01*
X137021330Y-116415444D01*
X137274504Y-116162270D01*
X137411521Y-115831482D01*
X137411521Y-115473440D01*
X137274504Y-115142652D01*
X137021330Y-114889478D01*
X136690542Y-114752461D01*
X136630788Y-114752461D01*
X136554502Y-114568290D01*
X136612983Y-114509809D01*
X136750000Y-114179021D01*
X136750000Y-113820979D01*
X136612983Y-113490191D01*
X136359809Y-113237017D01*
X136029021Y-113100000D01*
X135798528Y-113100000D01*
X134500000Y-111801473D01*
X134500000Y-111370979D01*
X141750000Y-111370979D01*
X141750000Y-111729021D01*
X141887017Y-112059809D01*
X142140191Y-112312983D01*
X142470979Y-112450000D01*
X142829021Y-112450000D01*
X143159809Y-112312983D01*
X143322792Y-112150000D01*
X146674738Y-112150000D01*
X146740191Y-112215453D01*
X147070979Y-112352470D01*
X147429021Y-112352470D01*
X147759809Y-112215453D01*
X148012983Y-111962279D01*
X148078270Y-111804661D01*
X152301910Y-111804661D01*
X152301910Y-112600259D01*
X152606372Y-113335295D01*
X153168945Y-113897868D01*
X153903981Y-114202330D01*
X154699579Y-114202330D01*
X155434615Y-113897868D01*
X155997188Y-113335295D01*
X156301650Y-112600259D01*
X156301650Y-111804661D01*
X179698350Y-111804661D01*
X179698350Y-112600259D01*
X180002812Y-113335295D01*
X180565385Y-113897868D01*
X181300421Y-114202330D01*
X182096019Y-114202330D01*
X182831055Y-113897868D01*
X183393628Y-113335295D01*
X183698090Y-112600259D01*
X183698090Y-111804661D01*
X183393628Y-111069625D01*
X182831055Y-110507052D01*
X182096019Y-110202590D01*
X181300421Y-110202590D01*
X180565385Y-110507052D01*
X180002812Y-111069625D01*
X179698350Y-111804661D01*
X156301650Y-111804661D01*
X155997188Y-111069625D01*
X155434615Y-110507052D01*
X154699579Y-110202590D01*
X153903981Y-110202590D01*
X153168945Y-110507052D01*
X152606372Y-111069625D01*
X152301910Y-111804661D01*
X148078270Y-111804661D01*
X148150000Y-111631491D01*
X148150000Y-111273449D01*
X148012983Y-110942661D01*
X147759809Y-110689487D01*
X147429021Y-110552470D01*
X147070979Y-110552470D01*
X146740191Y-110689487D01*
X146487017Y-110942661D01*
X146483977Y-110950000D01*
X143322792Y-110950000D01*
X143159809Y-110787017D01*
X142829021Y-110650000D01*
X142470979Y-110650000D01*
X142140191Y-110787017D01*
X141887017Y-111040191D01*
X141750000Y-111370979D01*
X134500000Y-111370979D01*
X134500000Y-107342636D01*
X136799305Y-105043332D01*
X136849398Y-105009861D01*
X136982010Y-104811394D01*
X137016823Y-104636377D01*
X137016823Y-104636373D01*
X137020195Y-104619420D01*
X137179806Y-104459809D01*
X137316823Y-104129021D01*
X137316823Y-103770979D01*
X137179806Y-103440191D01*
X136926632Y-103187017D01*
X136595844Y-103050000D01*
X136237802Y-103050000D01*
X135907014Y-103187017D01*
X135653840Y-103440191D01*
X135539361Y-103716569D01*
X135309809Y-103487017D01*
X134979021Y-103350000D01*
X134849889Y-103350000D01*
X134762983Y-103140191D01*
X134509809Y-102887017D01*
X134498609Y-102882378D01*
X134500000Y-102879021D01*
X134500000Y-102520979D01*
X134362983Y-102190191D01*
X134109809Y-101937017D01*
X133779021Y-101800000D01*
X133420979Y-101800000D01*
X133090191Y-101937017D01*
X132837017Y-102190191D01*
X132700000Y-102520979D01*
X132700000Y-102768335D01*
X132634815Y-102865891D01*
X132588248Y-103099999D01*
X132600002Y-103159090D01*
X132600001Y-103700000D01*
X132570979Y-103700000D01*
X132240191Y-103837017D01*
X131987017Y-104090191D01*
X131850000Y-104420979D01*
X131850000Y-104643483D01*
X131833910Y-104667563D01*
X131833909Y-104667564D01*
X131734770Y-104815936D01*
X131713143Y-104924664D01*
X131629032Y-104889824D01*
X131270990Y-104889824D01*
X130940202Y-105026841D01*
X130687028Y-105280015D01*
X130550011Y-105610803D01*
X130550011Y-105968845D01*
X130625681Y-106151527D01*
X130387017Y-106390191D01*
X130250000Y-106720979D01*
X129599980Y-106720979D01*
X129599980Y-101420977D01*
X137200000Y-101420977D01*
X137200000Y-101779019D01*
X137337017Y-102109807D01*
X137509988Y-102282778D01*
X137419018Y-102502400D01*
X137419018Y-102860442D01*
X137518834Y-103101418D01*
X137453862Y-103166390D01*
X137316845Y-103497178D01*
X137316845Y-103855220D01*
X137453862Y-104186008D01*
X137707036Y-104439182D01*
X138037824Y-104576199D01*
X138395866Y-104576199D01*
X138697960Y-104451068D01*
X138818434Y-104741918D01*
X139071608Y-104995092D01*
X139402396Y-105132109D01*
X139717508Y-105132109D01*
X139717508Y-105401006D01*
X139854525Y-105731794D01*
X140107699Y-105984968D01*
X140438487Y-106121985D01*
X140509429Y-106121985D01*
X140616205Y-106379765D01*
X140869379Y-106632939D01*
X141200167Y-106769956D01*
X141558209Y-106769956D01*
X141888997Y-106632939D01*
X142142171Y-106379765D01*
X142258502Y-106098916D01*
X142307954Y-106119400D01*
X142532722Y-106119400D01*
X142490191Y-106137017D01*
X142237017Y-106390191D01*
X142100000Y-106720979D01*
X142100000Y-107079021D01*
X142237017Y-107409809D01*
X142490191Y-107662983D01*
X142820979Y-107800000D01*
X143179021Y-107800000D01*
X143509809Y-107662983D01*
X143762983Y-107409809D01*
X143900000Y-107079021D01*
X143900000Y-106848527D01*
X144598528Y-106150000D01*
X155140914Y-106150000D01*
X155200000Y-106161753D01*
X155259086Y-106150000D01*
X155259091Y-106150000D01*
X155434108Y-106115187D01*
X155632575Y-105982575D01*
X155666049Y-105932478D01*
X170948528Y-90650000D01*
X180340914Y-90650000D01*
X180400000Y-90661753D01*
X180459086Y-90650000D01*
X180459091Y-90650000D01*
X180634108Y-90615187D01*
X180832575Y-90482575D01*
X180866049Y-90432478D01*
X182132482Y-89166046D01*
X182182575Y-89132575D01*
X182267871Y-89004921D01*
X182512983Y-88759809D01*
X182650000Y-88429021D01*
X182650000Y-88070979D01*
X182512983Y-87740191D01*
X182259809Y-87487017D01*
X181929021Y-87350000D01*
X181570979Y-87350000D01*
X181240191Y-87487017D01*
X180987017Y-87740191D01*
X180850000Y-88070979D01*
X180850000Y-88429021D01*
X180944444Y-88657028D01*
X180151473Y-89450000D01*
X177887757Y-89450000D01*
X178000000Y-89179021D01*
X178000000Y-88820979D01*
X177862983Y-88490191D01*
X177609809Y-88237017D01*
X177279021Y-88100000D01*
X176920979Y-88100000D01*
X176590191Y-88237017D01*
X176337017Y-88490191D01*
X176200000Y-88820979D01*
X176200000Y-89049989D01*
X174149758Y-89049989D01*
X174359809Y-88962983D01*
X174612983Y-88709809D01*
X174750000Y-88379021D01*
X174750000Y-88020979D01*
X174612983Y-87690191D01*
X174359809Y-87437017D01*
X174029021Y-87300000D01*
X173670979Y-87300000D01*
X173340191Y-87437017D01*
X173087017Y-87690191D01*
X172950000Y-88020979D01*
X172950000Y-88251472D01*
X172551495Y-88649978D01*
X170393410Y-88649978D01*
X170334322Y-88638225D01*
X170275234Y-88649978D01*
X170275231Y-88649978D01*
X170100214Y-88684791D01*
X169901747Y-88817403D01*
X169868275Y-88867497D01*
X166800000Y-91935772D01*
X166800000Y-88872792D01*
X166962983Y-88709809D01*
X167100000Y-88379021D01*
X167100000Y-88020979D01*
X166962983Y-87690191D01*
X166709809Y-87437017D01*
X166379021Y-87300000D01*
X166020979Y-87300000D01*
X165690191Y-87437017D01*
X165600000Y-87527208D01*
X165559809Y-87487017D01*
X165229021Y-87350000D01*
X164870979Y-87350000D01*
X164540191Y-87487017D01*
X164287017Y-87740191D01*
X164150000Y-88070979D01*
X164150000Y-88429021D01*
X164287017Y-88759809D01*
X164540191Y-89012983D01*
X164870979Y-89150000D01*
X165101472Y-89150000D01*
X165200000Y-89248528D01*
X165200001Y-92404371D01*
X154254539Y-103349834D01*
X153414393Y-103349834D01*
X158632484Y-98131745D01*
X158682575Y-98098275D01*
X158716045Y-98048184D01*
X158716048Y-98048181D01*
X158815187Y-97899808D01*
X158850000Y-97724791D01*
X158850000Y-97724788D01*
X158850495Y-97722297D01*
X159012983Y-97559809D01*
X159150000Y-97229021D01*
X159150000Y-96870979D01*
X159012983Y-96540191D01*
X158759809Y-96287017D01*
X158429021Y-96150000D01*
X158070979Y-96150000D01*
X157740191Y-96287017D01*
X157487017Y-96540191D01*
X157418900Y-96704640D01*
X157342651Y-96520559D01*
X157089477Y-96267385D01*
X156758689Y-96130368D01*
X156400647Y-96130368D01*
X156069859Y-96267385D01*
X155816685Y-96520559D01*
X155679668Y-96851347D01*
X155679668Y-97209389D01*
X155816685Y-97540177D01*
X155979668Y-97703160D01*
X155979669Y-98521803D01*
X151951661Y-102549812D01*
X148064415Y-102549812D01*
X152382481Y-98231747D01*
X152432575Y-98198275D01*
X152477613Y-98130872D01*
X152532865Y-98048181D01*
X152565187Y-97999808D01*
X152588081Y-97884711D01*
X152762983Y-97709809D01*
X152900000Y-97379021D01*
X152900000Y-97020979D01*
X152762983Y-96690191D01*
X152509809Y-96437017D01*
X152179021Y-96300000D01*
X151820979Y-96300000D01*
X151490191Y-96437017D01*
X151237017Y-96690191D01*
X151114645Y-96985624D01*
X151012983Y-96740191D01*
X150759809Y-96487017D01*
X150429021Y-96350000D01*
X150070979Y-96350000D01*
X149740191Y-96487017D01*
X149487017Y-96740191D01*
X149350000Y-97070979D01*
X149350000Y-97429021D01*
X149487017Y-97759809D01*
X149650000Y-97922792D01*
X149650001Y-98701473D01*
X146601684Y-101749791D01*
X145814437Y-101749791D01*
X147182485Y-100381744D01*
X147232575Y-100348275D01*
X147266045Y-100298184D01*
X147266048Y-100298181D01*
X147365187Y-100149808D01*
X147368480Y-100133253D01*
X147400000Y-99974791D01*
X147400000Y-99974788D01*
X147411753Y-99915700D01*
X147400000Y-99856612D01*
X147400000Y-98153590D01*
X147562983Y-97990607D01*
X147700000Y-97659819D01*
X147700000Y-97301777D01*
X147562983Y-96970989D01*
X147309809Y-96717815D01*
X146979021Y-96580798D01*
X146620979Y-96580798D01*
X146390720Y-96676175D01*
X146313683Y-96490191D01*
X146060509Y-96237017D01*
X145729721Y-96100000D01*
X145371679Y-96100000D01*
X145040891Y-96237017D01*
X144787717Y-96490191D01*
X144650700Y-96820979D01*
X144650700Y-97179021D01*
X144787717Y-97509809D01*
X144950701Y-97672793D01*
X144950700Y-100350772D01*
X144401473Y-100900000D01*
X138672794Y-100900000D01*
X138609809Y-100837015D01*
X138279021Y-100699998D01*
X137920979Y-100699998D01*
X137590191Y-100837015D01*
X137337017Y-101090189D01*
X137200000Y-101420977D01*
X129599980Y-101420977D01*
X129599980Y-71902161D01*
X140800790Y-71902161D01*
X140800790Y-72697759D01*
X141105252Y-73432795D01*
X141667825Y-73995368D01*
X142402861Y-74299830D01*
X143198459Y-74299830D01*
X143933495Y-73995368D01*
X144496068Y-73432795D01*
X144800530Y-72697759D01*
X144800530Y-71902161D01*
X191199470Y-71902161D01*
X191199470Y-72697759D01*
X191503932Y-73432795D01*
X192066505Y-73995368D01*
X192801541Y-74299830D01*
X193597139Y-74299830D01*
X194332175Y-73995368D01*
X194894748Y-73432795D01*
X195199210Y-72697759D01*
X195199210Y-71902161D01*
X194894748Y-71167125D01*
X194332175Y-70604552D01*
X193597139Y-70300090D01*
X192801541Y-70300090D01*
X192066505Y-70604552D01*
X191503932Y-71167125D01*
X191199470Y-71902161D01*
X144800530Y-71902161D01*
X144496068Y-71167125D01*
X143933495Y-70604552D01*
X143198459Y-70300090D01*
X142402861Y-70300090D01*
X141667825Y-70604552D01*
X141105252Y-71167125D01*
X140800790Y-71902161D01*
X129599980Y-71902161D01*
X129599980Y-69020979D01*
X150900000Y-69020979D01*
X150900000Y-69379021D01*
X151037017Y-69709809D01*
X151290191Y-69962983D01*
X151620979Y-70100000D01*
X151979021Y-70100000D01*
X152309809Y-69962983D01*
X152402284Y-69870508D01*
X152465997Y-70024324D01*
X152975696Y-70534023D01*
X153641649Y-70809870D01*
X154362471Y-70809870D01*
X155028424Y-70534023D01*
X155538123Y-70024324D01*
X155813970Y-69358371D01*
X155813970Y-68637549D01*
X155538123Y-67971596D01*
X155316527Y-67750000D01*
X156685553Y-67750000D01*
X156463957Y-67971596D01*
X156188110Y-68637549D01*
X156188110Y-69358371D01*
X156463957Y-70024324D01*
X156973656Y-70534023D01*
X157639609Y-70809870D01*
X158360431Y-70809870D01*
X159026384Y-70534023D01*
X159536083Y-70024324D01*
X159811930Y-69358371D01*
X159811930Y-68637549D01*
X159536083Y-67971596D01*
X159314487Y-67750000D01*
X160686053Y-67750000D01*
X160464457Y-67971596D01*
X160188610Y-68637549D01*
X160188610Y-69358371D01*
X160464457Y-70024324D01*
X160974156Y-70534023D01*
X161640109Y-70809870D01*
X162360931Y-70809870D01*
X163026884Y-70534023D01*
X163536583Y-70024324D01*
X163812430Y-69358371D01*
X163812430Y-68637549D01*
X163536583Y-67971596D01*
X163314987Y-67750000D01*
X163692401Y-67750000D01*
X164303584Y-68361184D01*
X164189110Y-68637549D01*
X164189110Y-69358371D01*
X164464957Y-70024324D01*
X164974656Y-70534023D01*
X165640609Y-70809870D01*
X166361431Y-70809870D01*
X167027384Y-70534023D01*
X167537083Y-70024324D01*
X167812930Y-69358371D01*
X167812930Y-68637549D01*
X168187070Y-68637549D01*
X168187070Y-69358371D01*
X168462917Y-70024324D01*
X168972616Y-70534023D01*
X169638569Y-70809870D01*
X170359391Y-70809870D01*
X171025344Y-70534023D01*
X171535043Y-70024324D01*
X171810890Y-69358371D01*
X171810890Y-68637549D01*
X172187570Y-68637549D01*
X172187570Y-69358371D01*
X172463417Y-70024324D01*
X172973116Y-70534023D01*
X173639069Y-70809870D01*
X174359891Y-70809870D01*
X175025844Y-70534023D01*
X175535543Y-70024324D01*
X175811390Y-69358371D01*
X175811390Y-68637549D01*
X176188070Y-68637549D01*
X176188070Y-69358371D01*
X176463917Y-70024324D01*
X176973616Y-70534023D01*
X177639569Y-70809870D01*
X178360391Y-70809870D01*
X179026344Y-70534023D01*
X179536043Y-70024324D01*
X179811890Y-69358371D01*
X179811890Y-68637549D01*
X180186030Y-68637549D01*
X180186030Y-69358371D01*
X180461877Y-70024324D01*
X180971576Y-70534023D01*
X181637529Y-70809870D01*
X182358351Y-70809870D01*
X183024304Y-70534023D01*
X183534003Y-70024324D01*
X183809850Y-69358371D01*
X183809850Y-68637549D01*
X183534003Y-67971596D01*
X183024304Y-67461897D01*
X182358351Y-67186050D01*
X181637529Y-67186050D01*
X180971576Y-67461897D01*
X180461877Y-67971596D01*
X180186030Y-68637549D01*
X179811890Y-68637549D01*
X179536043Y-67971596D01*
X179026344Y-67461897D01*
X178360391Y-67186050D01*
X177639569Y-67186050D01*
X176973616Y-67461897D01*
X176463917Y-67971596D01*
X176188070Y-68637549D01*
X175811390Y-68637549D01*
X175535543Y-67971596D01*
X175025844Y-67461897D01*
X174359891Y-67186050D01*
X173639069Y-67186050D01*
X172973116Y-67461897D01*
X172463417Y-67971596D01*
X172187570Y-68637549D01*
X171810890Y-68637549D01*
X171535043Y-67971596D01*
X171025344Y-67461897D01*
X170359391Y-67186050D01*
X169638569Y-67186050D01*
X168972616Y-67461897D01*
X168462917Y-67971596D01*
X168187070Y-68637549D01*
X167812930Y-68637549D01*
X167537083Y-67971596D01*
X167027384Y-67461897D01*
X166361431Y-67186050D01*
X165640609Y-67186050D01*
X165364244Y-67300524D01*
X164725323Y-66661603D01*
X165028404Y-66536063D01*
X165538103Y-66026364D01*
X165813950Y-65360411D01*
X165813950Y-64639589D01*
X166188090Y-64639589D01*
X166188090Y-65360411D01*
X166463937Y-66026364D01*
X166973636Y-66536063D01*
X167639589Y-66811910D01*
X168360411Y-66811910D01*
X169026364Y-66536063D01*
X169326952Y-66235475D01*
X170797840Y-66235475D01*
X170932406Y-66509142D01*
X171591040Y-66802035D01*
X172311623Y-66820584D01*
X172984455Y-66561966D01*
X173063514Y-66509142D01*
X173198080Y-66235475D01*
X171997960Y-65035355D01*
X170797840Y-66235475D01*
X169326952Y-66235475D01*
X169536063Y-66026364D01*
X169811910Y-65360411D01*
X169811910Y-65313663D01*
X170177376Y-65313663D01*
X170435994Y-65986495D01*
X170488818Y-66065554D01*
X170762485Y-66200120D01*
X171962605Y-65000000D01*
X172033315Y-65000000D01*
X173233435Y-66200120D01*
X173507102Y-66065554D01*
X173799995Y-65406920D01*
X173818544Y-64686337D01*
X173559926Y-64013505D01*
X173507102Y-63934446D01*
X173233435Y-63799880D01*
X172033315Y-65000000D01*
X171962605Y-65000000D01*
X170762485Y-63799880D01*
X170488818Y-63934446D01*
X170195925Y-64593080D01*
X170177376Y-65313663D01*
X169811910Y-65313663D01*
X169811910Y-64639589D01*
X169536063Y-63973636D01*
X169326952Y-63764525D01*
X170797840Y-63764525D01*
X171997960Y-64964645D01*
X173198080Y-63764525D01*
X173063514Y-63490858D01*
X172404880Y-63197965D01*
X171684297Y-63179416D01*
X171011465Y-63438034D01*
X170932406Y-63490858D01*
X170797840Y-63764525D01*
X169326952Y-63764525D01*
X169026364Y-63463937D01*
X168360411Y-63188090D01*
X167639589Y-63188090D01*
X166973636Y-63463937D01*
X166463937Y-63973636D01*
X166188090Y-64639589D01*
X165813950Y-64639589D01*
X165538103Y-63973636D01*
X165028404Y-63463937D01*
X164362451Y-63188090D01*
X163641629Y-63188090D01*
X162975676Y-63463937D01*
X162465977Y-63973636D01*
X162190130Y-64639589D01*
X162190130Y-65360411D01*
X162465977Y-66026364D01*
X162689613Y-66250000D01*
X161313967Y-66250000D01*
X161537603Y-66026364D01*
X161813450Y-65360411D01*
X161813450Y-64639589D01*
X161537603Y-63973636D01*
X161027904Y-63463937D01*
X160361951Y-63188090D01*
X159641129Y-63188090D01*
X158975176Y-63463937D01*
X158465477Y-63973636D01*
X158189630Y-64639589D01*
X158189630Y-65360411D01*
X158465477Y-66026364D01*
X158689113Y-66250000D01*
X157313467Y-66250000D01*
X157537103Y-66026364D01*
X157812950Y-65360411D01*
X157812950Y-64639589D01*
X157537103Y-63973636D01*
X157027404Y-63463937D01*
X156361451Y-63188090D01*
X155640629Y-63188090D01*
X154974676Y-63463937D01*
X154464977Y-63973636D01*
X154189130Y-64639589D01*
X154189130Y-65360411D01*
X154464977Y-66026364D01*
X154688613Y-66250000D01*
X153073864Y-66250000D01*
X152999999Y-66235307D01*
X152926134Y-66250000D01*
X152707365Y-66293516D01*
X152459280Y-66459280D01*
X152417438Y-66521901D01*
X151321906Y-67617435D01*
X151259280Y-67659280D01*
X151093516Y-67907366D01*
X151080740Y-67971596D01*
X151035307Y-68200000D01*
X151050000Y-68273866D01*
X151050000Y-68677208D01*
X151037017Y-68690191D01*
X150900000Y-69020979D01*
X129599980Y-69020979D01*
X129599980Y-59690130D01*
X152180355Y-59690130D01*
X152180355Y-62313950D01*
X152219161Y-62509040D01*
X152329670Y-62674430D01*
X152495060Y-62784939D01*
X152690150Y-62823745D01*
X155313970Y-62823745D01*
X155509060Y-62784939D01*
X155674450Y-62674430D01*
X155784959Y-62509040D01*
X155823765Y-62313950D01*
X155823765Y-60641629D01*
X156188110Y-60641629D01*
X156188110Y-61362451D01*
X156463957Y-62028404D01*
X156973656Y-62538103D01*
X157639609Y-62813950D01*
X158360431Y-62813950D01*
X159026384Y-62538103D01*
X159536083Y-62028404D01*
X159811930Y-61362451D01*
X159811930Y-60641629D01*
X160188610Y-60641629D01*
X160188610Y-61362451D01*
X160464457Y-62028404D01*
X160974156Y-62538103D01*
X161640109Y-62813950D01*
X162360931Y-62813950D01*
X163026884Y-62538103D01*
X163536583Y-62028404D01*
X163812430Y-61362451D01*
X163812430Y-60641629D01*
X164189110Y-60641629D01*
X164189110Y-61362451D01*
X164464957Y-62028404D01*
X164974656Y-62538103D01*
X165640609Y-62813950D01*
X166361431Y-62813950D01*
X167027384Y-62538103D01*
X167537083Y-62028404D01*
X167812930Y-61362451D01*
X167812930Y-60641629D01*
X168187070Y-60641629D01*
X168187070Y-61362451D01*
X168462917Y-62028404D01*
X168972616Y-62538103D01*
X169638569Y-62813950D01*
X170359391Y-62813950D01*
X171025344Y-62538103D01*
X171535043Y-62028404D01*
X171810890Y-61362451D01*
X171810890Y-60641629D01*
X172187570Y-60641629D01*
X172187570Y-61362451D01*
X172463417Y-62028404D01*
X172973116Y-62538103D01*
X173639069Y-62813950D01*
X174359891Y-62813950D01*
X175025844Y-62538103D01*
X175535543Y-62028404D01*
X175811390Y-61362451D01*
X175811390Y-60641629D01*
X175535543Y-59975676D01*
X175025844Y-59465977D01*
X174359891Y-59190130D01*
X173639069Y-59190130D01*
X172973116Y-59465977D01*
X172463417Y-59975676D01*
X172187570Y-60641629D01*
X171810890Y-60641629D01*
X171535043Y-59975676D01*
X171025344Y-59465977D01*
X170359391Y-59190130D01*
X169638569Y-59190130D01*
X168972616Y-59465977D01*
X168462917Y-59975676D01*
X168187070Y-60641629D01*
X167812930Y-60641629D01*
X167537083Y-59975676D01*
X167027384Y-59465977D01*
X166361431Y-59190130D01*
X165640609Y-59190130D01*
X164974656Y-59465977D01*
X164464957Y-59975676D01*
X164189110Y-60641629D01*
X163812430Y-60641629D01*
X163536583Y-59975676D01*
X163026884Y-59465977D01*
X162360931Y-59190130D01*
X161640109Y-59190130D01*
X160974156Y-59465977D01*
X160464457Y-59975676D01*
X160188610Y-60641629D01*
X159811930Y-60641629D01*
X159536083Y-59975676D01*
X159026384Y-59465977D01*
X158360431Y-59190130D01*
X157639609Y-59190130D01*
X156973656Y-59465977D01*
X156463957Y-59975676D01*
X156188110Y-60641629D01*
X155823765Y-60641629D01*
X155823765Y-59690130D01*
X155784959Y-59495040D01*
X155674450Y-59329650D01*
X155509060Y-59219141D01*
X155313970Y-59180335D01*
X152690150Y-59180335D01*
X152495060Y-59219141D01*
X152329670Y-59329650D01*
X152219161Y-59495040D01*
X152180355Y-59690130D01*
X129599980Y-59690130D01*
X129599980Y-53804661D01*
X142301930Y-53804661D01*
X142301930Y-54600259D01*
X142606392Y-55335295D01*
X143168965Y-55897868D01*
X143904001Y-56202330D01*
X144699599Y-56202330D01*
X145434635Y-55897868D01*
X145997208Y-55335295D01*
X146301670Y-54600259D01*
X146301670Y-53804661D01*
X189698330Y-53804661D01*
X189698330Y-54600259D01*
X190002792Y-55335295D01*
X190565365Y-55897868D01*
X191300401Y-56202330D01*
X192095999Y-56202330D01*
X192831035Y-55897868D01*
X193393608Y-55335295D01*
X193698070Y-54600259D01*
X193698070Y-53804661D01*
X193393608Y-53069625D01*
X192831035Y-52507052D01*
X192095999Y-52202590D01*
X191300401Y-52202590D01*
X190565365Y-52507052D01*
X190002792Y-53069625D01*
X189698330Y-53804661D01*
X146301670Y-53804661D01*
X145997208Y-53069625D01*
X145434635Y-52507052D01*
X144699599Y-52202590D01*
X143904001Y-52202590D01*
X143168965Y-52507052D01*
X142606392Y-53069625D01*
X142301930Y-53804661D01*
X129599980Y-53804661D01*
X129599980Y-51044784D01*
X129662127Y-50610826D01*
X129825704Y-50251058D01*
X130083680Y-49951663D01*
X130415313Y-49736709D01*
X130813830Y-49617527D01*
X131022240Y-49602040D01*
X204957236Y-49602040D01*
X205391194Y-49664187D01*
G04 #@! TD*
M02*
