G04 #@! TF.GenerationSoftware,KiCad,Pcbnew,(5.0.0-rc2-dev-130-g0bdae22af-dirty)*
G04 #@! TF.CreationDate,2018-04-24T21:48:57+03:00*
G04 #@! TF.ProjectId,fsb,6673622E6B696361645F706362000000,rev?*
G04 #@! TF.SameCoordinates,Original*
G04 #@! TF.FileFunction,Soldermask,Top*
G04 #@! TF.FilePolarity,Negative*
%FSLAX46Y46*%
G04 Gerber Fmt 4.6, Leading zero omitted, Abs format (unit mm)*
G04 Created by KiCad (PCBNEW (5.0.0-rc2-dev-130-g0bdae22af-dirty)) date Tue Apr 24 21:48:57 2018*
%MOMM*%
%LPD*%
G01*
G04 APERTURE LIST*
%ADD10R,0.762000X0.939800*%
%ADD11R,0.650000X2.000000*%
%ADD12R,6.300000X6.100000*%
%ADD13R,2.179320X1.900000*%
%ADD14R,2.623820X2.623820*%
%ADD15C,2.623820*%
%ADD16C,2.999740*%
%ADD17R,1.297940X1.399540*%
%ADD18R,2.400000X2.700000*%
%ADD19R,0.939800X0.762000*%
%ADD20R,0.998220X1.899920*%
%ADD21R,0.635000X1.905000*%
%ADD22R,2.000000X2.800000*%
%ADD23R,0.700000X1.350000*%
%ADD24R,1.300000X2.000000*%
%ADD25R,0.700000X1.200000*%
%ADD26R,1.899920X0.998220*%
%ADD27R,0.398780X1.498600*%
%ADD28R,0.279400X1.498600*%
%ADD29R,1.498600X0.398780*%
%ADD30R,1.498600X0.279400*%
%ADD31R,0.600000X1.524000*%
%ADD32R,0.635000X1.524000*%
%ADD33R,0.400000X1.200000*%
%ADD34R,3.600000X1.900000*%
%ADD35R,1.524000X0.600000*%
%ADD36R,1.524000X0.635000*%
%ADD37R,1.900000X1.400000*%
%ADD38R,5.970000X6.100000*%
%ADD39R,0.998220X3.997960*%
%ADD40R,3.300000X2.400000*%
%ADD41R,1.400000X1.900000*%
%ADD42R,6.100000X5.970000*%
%ADD43R,1.000000X2.800000*%
%ADD44R,11.460000X8.900000*%
%ADD45R,2.100000X3.800000*%
G04 APERTURE END LIST*
D10*
X140938200Y-65600000D03*
X139261800Y-65600000D03*
D11*
X184350000Y-87100000D03*
X183500000Y-87100000D03*
X182650000Y-87100000D03*
X180950000Y-87100000D03*
X180100000Y-87100000D03*
X179250000Y-87100000D03*
D12*
X181800000Y-93670000D03*
D13*
X142250000Y-136850000D03*
X142250000Y-131850000D03*
D14*
X164002040Y-119002040D03*
D15*
X168000000Y-119002040D03*
X171997960Y-119002040D03*
X166001020Y-123000000D03*
X169998980Y-123000000D03*
X164002040Y-126997960D03*
X168000000Y-126997960D03*
X171997960Y-126997960D03*
D16*
X154301780Y-112202460D03*
X181698220Y-112202460D03*
X183199360Y-130299960D03*
X152800640Y-130299960D03*
D17*
X163765300Y-133000000D03*
X160234700Y-133000000D03*
D14*
X154002060Y-61002040D03*
D15*
X158000020Y-61002040D03*
X162000520Y-61002040D03*
X166001020Y-61002040D03*
X169998980Y-61002040D03*
X173999480Y-61002040D03*
X177999980Y-61002040D03*
X181997940Y-61002040D03*
X156001040Y-65000000D03*
X160001540Y-65000000D03*
X164002040Y-65000000D03*
X168000000Y-65000000D03*
X171997960Y-65000000D03*
X175998460Y-65000000D03*
X179998960Y-65000000D03*
X154002060Y-68997960D03*
X158000020Y-68997960D03*
X162000520Y-68997960D03*
X166001020Y-68997960D03*
X169998980Y-68997960D03*
X173999480Y-68997960D03*
X177999980Y-68997960D03*
X181997940Y-68997960D03*
D16*
X144301800Y-54202460D03*
X191698200Y-54202460D03*
X142800660Y-72299960D03*
X193199340Y-72299960D03*
D10*
X125961800Y-134000000D03*
X127638200Y-134000000D03*
X123561800Y-126200000D03*
X125238200Y-126200000D03*
D18*
X132400000Y-122000000D03*
X125600000Y-122000000D03*
D10*
X121561800Y-117000000D03*
X123238200Y-117000000D03*
D19*
X132600000Y-55561800D03*
X132600000Y-57238200D03*
D10*
X140938200Y-67400000D03*
X139261800Y-67400000D03*
X133361800Y-73000000D03*
X135038200Y-73000000D03*
D19*
X123000000Y-62038200D03*
X123000000Y-60361800D03*
X123000000Y-63600000D03*
X123000000Y-65276400D03*
D10*
X139161800Y-54800000D03*
X140838200Y-54800000D03*
X137038200Y-54800000D03*
X135361800Y-54800000D03*
X125361800Y-104400000D03*
X127038200Y-104400000D03*
D17*
X148765300Y-128500000D03*
X145234700Y-128500000D03*
X128034700Y-126000000D03*
X131565300Y-126000000D03*
D20*
X143298600Y-128900000D03*
X140301400Y-128900000D03*
D21*
X129340000Y-50660000D03*
X129340000Y-55740000D03*
X128070000Y-50660000D03*
X128070000Y-55740000D03*
X126800000Y-50660000D03*
X126800000Y-55740000D03*
X125530000Y-55740000D03*
X124260000Y-50660000D03*
X124260000Y-55740000D03*
D22*
X135650000Y-124650000D03*
X139450000Y-124650000D03*
D19*
X131200000Y-52238200D03*
X131200000Y-50561800D03*
X133000000Y-52238200D03*
X133000000Y-50561800D03*
D23*
X123200000Y-119100000D03*
X121200000Y-119100000D03*
X122200000Y-121700000D03*
D24*
X140622082Y-52014163D03*
X135542082Y-52014163D03*
D19*
X166600000Y-134938200D03*
X166600000Y-133261800D03*
D25*
X176770000Y-131077889D03*
X174230000Y-131077889D03*
X174230000Y-137477889D03*
X176770000Y-137477889D03*
D10*
X176338200Y-129500000D03*
X174661800Y-129500000D03*
D26*
X166000000Y-55201400D03*
X166000000Y-58198600D03*
D19*
X170000000Y-58138200D03*
X170000000Y-56461800D03*
X154000000Y-56461800D03*
X154000000Y-58138200D03*
X158000000Y-58138200D03*
X158000000Y-56461800D03*
X162000000Y-56461800D03*
X162000000Y-58138200D03*
X153950000Y-98038200D03*
X153950000Y-96361800D03*
X155550000Y-98038200D03*
X155550000Y-96361800D03*
X152350000Y-98038200D03*
X152350000Y-96361800D03*
X150750000Y-96361800D03*
X150750000Y-98038200D03*
D27*
X126990000Y-70997880D03*
D28*
X127551340Y-70997880D03*
X128051720Y-70997880D03*
X128552100Y-70997880D03*
X129052480Y-70997880D03*
X129550320Y-70997880D03*
X130050700Y-70997880D03*
X130551080Y-70997880D03*
X131048920Y-70997880D03*
X131549300Y-70997880D03*
X132049680Y-70997880D03*
X132547520Y-70997880D03*
X133047900Y-70997880D03*
X133548280Y-70997880D03*
X134048660Y-70997880D03*
D27*
X134610000Y-70997880D03*
D29*
X136697880Y-68910000D03*
D30*
X136697880Y-68348660D03*
X136697880Y-67848280D03*
X136697880Y-67347900D03*
X136697880Y-66847520D03*
X136697880Y-66349680D03*
X136697880Y-65849300D03*
X136697880Y-65348920D03*
X136697880Y-64851080D03*
X136697880Y-64350700D03*
X136697880Y-63850320D03*
X136697880Y-63352480D03*
X136697880Y-62852100D03*
X136697880Y-62351720D03*
X136697880Y-61851340D03*
D29*
X136697880Y-61290000D03*
D27*
X134610000Y-59202120D03*
D28*
X134048660Y-59202120D03*
X133548280Y-59202120D03*
X133047900Y-59202120D03*
X132547520Y-59202120D03*
X132049680Y-59202120D03*
X131549300Y-59202120D03*
X131048920Y-59202120D03*
X130551080Y-59202120D03*
X130050700Y-59202120D03*
X129550320Y-59202120D03*
X129052480Y-59202120D03*
X128552100Y-59202120D03*
X128051720Y-59202120D03*
X127551340Y-59202120D03*
D27*
X126990000Y-59202120D03*
D29*
X124902120Y-61290000D03*
D30*
X124902120Y-61851340D03*
X124902120Y-62351720D03*
X124902120Y-62852100D03*
X124902120Y-63352480D03*
X124902120Y-63850320D03*
X124902120Y-64350700D03*
X124902120Y-64851080D03*
X124902120Y-65348920D03*
X124902120Y-65849300D03*
X124902120Y-66349680D03*
X124902120Y-66847520D03*
X124902120Y-67347900D03*
X124902120Y-67848280D03*
X124902120Y-68348660D03*
D29*
X124902120Y-68910000D03*
D31*
X128305000Y-112321000D03*
X127035000Y-112321000D03*
X125765000Y-112321000D03*
X124495000Y-112321000D03*
X124495000Y-106479000D03*
X125765000Y-106479000D03*
D32*
X127000000Y-106479000D03*
D31*
X128305000Y-106479000D03*
D33*
X150850000Y-93900000D03*
X151650000Y-93900000D03*
X152450000Y-93900000D03*
X153250000Y-93900000D03*
X154050000Y-93900000D03*
X154850000Y-93900000D03*
X154850000Y-88300000D03*
X154050000Y-88300000D03*
X153250000Y-88300000D03*
X152450000Y-88300000D03*
X151650000Y-88300000D03*
X150850000Y-88300000D03*
D34*
X152850000Y-91100000D03*
D35*
X129121000Y-128295000D03*
X129121000Y-129565000D03*
X129121000Y-130835000D03*
X129121000Y-132105000D03*
X123279000Y-132105000D03*
X123279000Y-130835000D03*
D36*
X123279000Y-129600000D03*
D35*
X123279000Y-128295000D03*
D37*
X179165000Y-117710000D03*
X179165000Y-122290000D03*
D38*
X185250000Y-120000000D03*
D19*
X174000000Y-58238200D03*
X174000000Y-56561800D03*
X178100000Y-56561800D03*
X178100000Y-58238200D03*
D39*
X135150000Y-136348380D03*
X135150000Y-129251620D03*
D40*
X167950000Y-114000000D03*
X167950000Y-107400000D03*
D10*
X160311800Y-82950000D03*
X161988200Y-82950000D03*
X160024522Y-84650000D03*
X161700922Y-84650000D03*
D19*
X144250000Y-98038200D03*
X144250000Y-96361800D03*
X142650000Y-96361800D03*
X142650000Y-98038200D03*
X145850000Y-98038200D03*
X145850000Y-96361800D03*
X147450000Y-98038200D03*
X147450000Y-96361800D03*
D12*
X160800000Y-93720000D03*
D11*
X158250000Y-87150000D03*
X159100000Y-87150000D03*
X159950000Y-87150000D03*
X161650000Y-87150000D03*
X162500000Y-87150000D03*
X163350000Y-87150000D03*
D33*
X143250000Y-93900000D03*
X144050000Y-93900000D03*
X144850000Y-93900000D03*
X145650000Y-93900000D03*
X146450000Y-93900000D03*
X147250000Y-93900000D03*
X147250000Y-88300000D03*
X146450000Y-88300000D03*
X145650000Y-88300000D03*
X144850000Y-88300000D03*
X144050000Y-88300000D03*
X143250000Y-88300000D03*
D34*
X145250000Y-91100000D03*
D19*
X182000000Y-56550000D03*
X182000000Y-58226400D03*
D10*
X182838200Y-82850000D03*
X181161800Y-82850000D03*
X189111800Y-83100000D03*
X190788200Y-83100000D03*
X189111800Y-84900000D03*
X190788200Y-84900000D03*
X182488200Y-84650000D03*
X180811800Y-84650000D03*
D12*
X190200000Y-93720000D03*
D11*
X187650000Y-87150000D03*
X188500000Y-87150000D03*
X189350000Y-87150000D03*
X191050000Y-87150000D03*
X191900000Y-87150000D03*
X192750000Y-87150000D03*
D41*
X196310000Y-91285000D03*
X200890000Y-91285000D03*
D42*
X198600000Y-85200000D03*
D43*
X185398600Y-127000000D03*
X188398600Y-127000000D03*
D44*
X171250000Y-83600000D03*
D45*
X168710000Y-95050000D03*
X173790000Y-95050000D03*
D19*
X168750000Y-98161800D03*
X168750000Y-99838200D03*
D10*
X150738200Y-63800000D03*
X149061800Y-63800000D03*
X150738200Y-65600000D03*
X149061800Y-65600000D03*
M02*
