M48
;DRILL file {KiCad (5.0.2-dirty)} date to 13. elokuuta 2020 11.44.08
;FORMAT={-:-/ absolute / inch / decimal}
FMAT,2
INCH,TZ
T1C0.0157
T2C0.0688
T3C0.0787
%
G90
G05
T1
X5.1165Y-3.4665
X5.1165Y-3.9625
X5.124Y-2.3484
X5.1299Y-2.7185
X5.1358Y-1.9902
X5.1378Y-3.0551
X5.1535Y-5.1535
X5.1575Y-4.6181
X5.1634Y-4.2087
X5.1752Y-4.165
X5.185Y-4.7854
X5.2262Y-4.0459
X5.2264Y-4.1181
X5.2421Y-4.6732
X5.2717Y-4.7047
X5.2756Y-4.0807
X5.287Y-3.9654
X5.3071Y-4.1043
X5.3071Y-4.6299
X5.3338Y-4.5961
X5.3428Y-4.541
X5.3465Y-4.3189
X5.3484Y-4.502
X5.3728Y-3.8413
X5.3736Y-4.4449
X5.3795Y-4.5552
X5.3858Y-2.9488
X5.3957Y-2.565
X5.4157Y-4.4602
X5.4165Y-3.8429
X5.4232Y-4.3228
X5.4252Y-4.9252
X5.4266Y-4.0056
X5.4398Y-3.9181
X5.4416Y-4.0817
X5.4456Y-4.0426
X5.4531Y-3.261
X5.4953Y-4.1036
X5.5Y-4.7835
X5.5006Y-4.0646
X5.5035Y-4.3961
X5.5039Y-3.7827
X5.5118Y-1.9843
X5.528Y-3.3634
X5.5361Y-4.1426
X5.5433Y-5.1299
X5.5466Y-4.1037
X5.5531Y-5.4154
X5.5661Y-4.1681
X5.5689Y-4.3425
X5.5768Y-2.6673
X5.5925Y-4.5276
X5.6097Y-4.1425
X5.6161Y-4.3917
X5.6299Y-4.2087
X5.648Y-4.1516
X5.7028Y-4.2343
X5.7303Y-2.2539
X5.7303Y-3.8189
X5.737Y-3.465
X5.748Y-2.7894
X5.7795Y-3.8378
X5.7874Y-3.7827
X5.7972Y-4.3879
X5.8063Y-3.326
X5.8157Y-3.0713
X5.8346Y-4.5472
X5.8622Y-2.372
X5.9016Y-4.8976
X5.9055Y-5.0591
X5.9154Y-3.8287
X5.9213Y-4.3898
X5.9224Y-4.8643
X5.9331Y-5.0197
X5.937Y-2.9898
X5.9764Y-2.7244
X5.9843Y-3.8268
X6.0039Y-5.3071
X6.0197Y-3.4567
X6.0236Y-5.3543
X6.0276Y-1.9843
X6.0335Y-5.2539
X6.1024Y-3.8031
X6.124Y-2.7949
X6.124Y-4.9075
X6.126Y-5.3701
X6.128Y-5.0728
X6.1646Y-3.8201
X6.1811Y-3.1693
X6.2303Y-3.8209
X6.2382Y-5.2047
X6.4528Y-3.4724
X6.4815Y-3.9685
X6.498Y-3.4744
X6.5096Y-3.122
X6.5394Y-5.0827
X6.5433Y-3.4724
X6.5591Y-1.9783
X6.5866Y-3.4724
X6.6791Y-5.1969
X6.7559Y-3.4724
X6.8324Y-3.122
X6.8445Y-3.4724
X6.8898Y-3.4724
X6.9724Y-3.5039
X7.0256Y-1.9744
X7.0571Y-5.0512
X7.0591Y-3.4724
X7.1316Y-3.1142
X7.1555Y-3.4744
X7.1555Y-4.3012
X7.1831Y-4.0571
X7.1948Y-3.4723
X7.2638Y-5.3622
X7.3071Y-5.3622
X7.3189Y-2.5669
X7.3839Y-4.8996
X7.3957Y-5.2244
X7.4724Y-2.8287
X7.4764Y-3.3445
X7.4783Y-3.7933
X7.5571Y-1.9862
X7.624Y-2.4291
X7.6634Y-4.6969
X7.6713Y-5.3642
X7.6752Y-4.2146
X7.748Y-5.063
X7.7559Y-5.187
X7.872Y-5.
X7.9409Y-2.6594
X8.0295Y-4.9291
X8.0315Y-3.9469
X8.0335Y-2.9882
X8.0335Y-3.4665
X8.0354Y-4.5138
X8.0453Y-5.3642
X8.0827Y-2.
X8.0984Y-2.6122
T2
X6.0631Y-2.4017
X6.0631Y-2.7165
X6.1418Y-2.5591
X6.2205Y-2.4017
X6.2205Y-2.7165
X6.2993Y-2.5591
X6.378Y-2.4017
X6.378Y-2.7165
X6.4568Y-2.5591
X6.5355Y-2.4017
X6.5355Y-2.7165
X6.6142Y-2.5591
X6.6929Y-2.4017
X6.6929Y-2.7165
X6.7716Y-2.5591
X6.8504Y-2.4017
X6.8504Y-2.7165
X6.9291Y-2.5591
X7.0079Y-2.4017
X7.0079Y-2.7165
X7.0866Y-2.5591
X7.1653Y-2.4017
X7.1653Y-2.7165
X6.4568Y-4.6851
X6.4568Y-4.9999
X6.5355Y-4.8425
X6.6142Y-4.6851
X6.6142Y-4.9999
X6.6929Y-4.8425
X6.7716Y-4.6851
X6.7716Y-4.9999
T3
X5.6221Y-2.8465
X5.6812Y-2.134
X7.5472Y-2.134
X7.6063Y-2.8465
X6.0158Y-5.1299
X6.0749Y-4.4174
X7.1535Y-4.4174
X7.2126Y-5.1299
T0
M30
