G04 #@! TF.GenerationSoftware,KiCad,Pcbnew,(5.0.2-dirty)*
G04 #@! TF.CreationDate,2019-01-30T14:47:07+02:00*
G04 #@! TF.ProjectId,fsb,6673622e-6b69-4636-9164-5f7063625858,rev?*
G04 #@! TF.SameCoordinates,Original*
G04 #@! TF.FileFunction,Soldermask,Top*
G04 #@! TF.FilePolarity,Negative*
%FSLAX46Y46*%
G04 Gerber Fmt 4.6, Leading zero omitted, Abs format (unit mm)*
G04 Created by KiCad (PCBNEW (5.0.2-dirty)) date ke 30. tammikuuta 2019 14.47.07*
%MOMM*%
%LPD*%
G01*
G04 APERTURE LIST*
%ADD10C,0.100000*%
G04 APERTURE END LIST*
D10*
G36*
X193805000Y-138283000D02*
X193205000Y-138283000D01*
X193205000Y-136759000D01*
X193805000Y-136759000D01*
X193805000Y-138283000D01*
X193805000Y-138283000D01*
G37*
G36*
X192535000Y-138283000D02*
X191935000Y-138283000D01*
X191935000Y-136759000D01*
X192535000Y-136759000D01*
X192535000Y-138283000D01*
X192535000Y-138283000D01*
G37*
G36*
X191317500Y-138283000D02*
X190682500Y-138283000D01*
X190682500Y-136759000D01*
X191317500Y-136759000D01*
X191317500Y-138283000D01*
X191317500Y-138283000D01*
G37*
G36*
X189995000Y-138283000D02*
X189395000Y-138283000D01*
X189395000Y-136759000D01*
X189995000Y-136759000D01*
X189995000Y-138283000D01*
X189995000Y-138283000D01*
G37*
G36*
X186299770Y-138048970D02*
X184900230Y-138048970D01*
X184900230Y-136751030D01*
X186299770Y-136751030D01*
X186299770Y-138048970D01*
X186299770Y-138048970D01*
G37*
G36*
X151283000Y-137605000D02*
X149759000Y-137605000D01*
X149759000Y-137005000D01*
X151283000Y-137005000D01*
X151283000Y-137605000D01*
X151283000Y-137605000D01*
G37*
G36*
X145441000Y-137605000D02*
X143917000Y-137605000D01*
X143917000Y-137005000D01*
X145441000Y-137005000D01*
X145441000Y-137605000D01*
X145441000Y-137605000D01*
G37*
G36*
X179600000Y-137200000D02*
X177600000Y-137200000D01*
X177600000Y-134400000D01*
X179600000Y-134400000D01*
X179600000Y-137200000D01*
X179600000Y-137200000D01*
G37*
G36*
X183400000Y-137200000D02*
X181400000Y-137200000D01*
X181400000Y-134400000D01*
X183400000Y-134400000D01*
X183400000Y-137200000D01*
X183400000Y-137200000D01*
G37*
G36*
X175400000Y-136950000D02*
X173000000Y-136950000D01*
X173000000Y-134250000D01*
X175400000Y-134250000D01*
X175400000Y-136950000D01*
X175400000Y-136950000D01*
G37*
G36*
X168600000Y-136950000D02*
X166200000Y-136950000D01*
X166200000Y-134250000D01*
X168600000Y-134250000D01*
X168600000Y-136950000D01*
X168600000Y-136950000D01*
G37*
G36*
X161775000Y-136950000D02*
X160425000Y-136950000D01*
X160425000Y-136250000D01*
X161775000Y-136250000D01*
X161775000Y-136950000D01*
X161775000Y-136950000D01*
G37*
G36*
X188069900Y-136819200D02*
X187130100Y-136819200D01*
X187130100Y-136057200D01*
X188069900Y-136057200D01*
X188069900Y-136819200D01*
X188069900Y-136819200D01*
G37*
G36*
X143069900Y-136819200D02*
X142130100Y-136819200D01*
X142130100Y-136057200D01*
X143069900Y-136057200D01*
X143069900Y-136819200D01*
X143069900Y-136819200D01*
G37*
G36*
X159469900Y-136619200D02*
X158530100Y-136619200D01*
X158530100Y-135857200D01*
X159469900Y-135857200D01*
X159469900Y-136619200D01*
X159469900Y-136619200D01*
G37*
G36*
X145441000Y-136335000D02*
X143917000Y-136335000D01*
X143917000Y-135735000D01*
X145441000Y-135735000D01*
X145441000Y-136335000D01*
X145441000Y-136335000D01*
G37*
G36*
X151283000Y-136335000D02*
X149759000Y-136335000D01*
X149759000Y-135735000D01*
X151283000Y-135735000D01*
X151283000Y-136335000D01*
X151283000Y-136335000D01*
G37*
G36*
X202099110Y-136147360D02*
X201100890Y-136147360D01*
X201100890Y-132149400D01*
X202099110Y-132149400D01*
X202099110Y-136147360D01*
X202099110Y-136147360D01*
G37*
G36*
X164375000Y-135950000D02*
X163025000Y-135950000D01*
X163025000Y-135250000D01*
X164375000Y-135250000D01*
X164375000Y-135950000D01*
X164375000Y-135950000D01*
G37*
G36*
X195869900Y-135219200D02*
X194930100Y-135219200D01*
X194930100Y-134457200D01*
X195869900Y-134457200D01*
X195869900Y-135219200D01*
X195869900Y-135219200D01*
G37*
G36*
X143069900Y-135142800D02*
X142130100Y-135142800D01*
X142130100Y-134380800D01*
X143069900Y-134380800D01*
X143069900Y-135142800D01*
X143069900Y-135142800D01*
G37*
G36*
X188069900Y-135142800D02*
X187130100Y-135142800D01*
X187130100Y-134380800D01*
X188069900Y-134380800D01*
X188069900Y-135142800D01*
X188069900Y-135142800D01*
G37*
G36*
X145441000Y-135117500D02*
X143917000Y-135117500D01*
X143917000Y-134482500D01*
X145441000Y-134482500D01*
X145441000Y-135117500D01*
X145441000Y-135117500D01*
G37*
G36*
X151283000Y-135065000D02*
X149759000Y-135065000D01*
X149759000Y-134465000D01*
X151283000Y-134465000D01*
X151283000Y-135065000D01*
X151283000Y-135065000D01*
G37*
G36*
X161775000Y-134950000D02*
X160425000Y-134950000D01*
X160425000Y-134250000D01*
X161775000Y-134250000D01*
X161775000Y-134950000D01*
X161775000Y-134950000D01*
G37*
G36*
X159469900Y-134942800D02*
X158530100Y-134942800D01*
X158530100Y-134180800D01*
X159469900Y-134180800D01*
X159469900Y-134942800D01*
X159469900Y-134942800D01*
G37*
G36*
X186299770Y-134518370D02*
X184900230Y-134518370D01*
X184900230Y-133220430D01*
X186299770Y-133220430D01*
X186299770Y-134518370D01*
X186299770Y-134518370D01*
G37*
G36*
X145441000Y-133795000D02*
X143917000Y-133795000D01*
X143917000Y-133195000D01*
X145441000Y-133195000D01*
X145441000Y-133795000D01*
X145441000Y-133795000D01*
G37*
G36*
X151283000Y-133795000D02*
X149759000Y-133795000D01*
X149759000Y-133195000D01*
X151283000Y-133195000D01*
X151283000Y-133795000D01*
X151283000Y-133795000D01*
G37*
G36*
X195869900Y-133542800D02*
X194930100Y-133542800D01*
X194930100Y-132780800D01*
X195869900Y-132780800D01*
X195869900Y-133542800D01*
X195869900Y-133542800D01*
G37*
G36*
X191265000Y-132441000D02*
X190665000Y-132441000D01*
X190665000Y-130917000D01*
X191265000Y-130917000D01*
X191265000Y-132441000D01*
X191265000Y-132441000D01*
G37*
G36*
X192535000Y-132441000D02*
X191935000Y-132441000D01*
X191935000Y-130917000D01*
X192535000Y-130917000D01*
X192535000Y-132441000D01*
X192535000Y-132441000D01*
G37*
G36*
X189995000Y-132441000D02*
X189395000Y-132441000D01*
X189395000Y-130917000D01*
X189995000Y-130917000D01*
X189995000Y-132441000D01*
X189995000Y-132441000D01*
G37*
G36*
X193805000Y-132441000D02*
X193205000Y-132441000D01*
X193205000Y-130917000D01*
X193805000Y-130917000D01*
X193805000Y-132441000D01*
X193805000Y-132441000D01*
G37*
G36*
X145092500Y-131857500D02*
X143187500Y-131857500D01*
X143187500Y-131222500D01*
X145092500Y-131222500D01*
X145092500Y-131857500D01*
X145092500Y-131857500D01*
G37*
G36*
X140012500Y-131857500D02*
X138107500Y-131857500D01*
X138107500Y-131222500D01*
X140012500Y-131222500D01*
X140012500Y-131857500D01*
X140012500Y-131857500D01*
G37*
G36*
X153141545Y-128838516D02*
X153238136Y-128857729D01*
X153351199Y-128904562D01*
X153511094Y-128970792D01*
X153756754Y-129134937D01*
X153965663Y-129343846D01*
X154129808Y-129589506D01*
X154242871Y-129862465D01*
X154300510Y-130152234D01*
X154300510Y-130447686D01*
X154242871Y-130737455D01*
X154129808Y-131010414D01*
X153965663Y-131256074D01*
X153756754Y-131464983D01*
X153511094Y-131629128D01*
X153351199Y-131695358D01*
X153238136Y-131742191D01*
X153141545Y-131761404D01*
X152948366Y-131799830D01*
X152652914Y-131799830D01*
X152459735Y-131761404D01*
X152363144Y-131742191D01*
X152250081Y-131695358D01*
X152090186Y-131629128D01*
X151844526Y-131464983D01*
X151635617Y-131256074D01*
X151471472Y-131010414D01*
X151358409Y-130737455D01*
X151300770Y-130447686D01*
X151300770Y-130152234D01*
X151358409Y-129862465D01*
X151471472Y-129589506D01*
X151635617Y-129343846D01*
X151844526Y-129134937D01*
X152090186Y-128970792D01*
X152250081Y-128904562D01*
X152363144Y-128857729D01*
X152459735Y-128838516D01*
X152652914Y-128800090D01*
X152948366Y-128800090D01*
X153141545Y-128838516D01*
X153141545Y-128838516D01*
G37*
G36*
X183540265Y-128838516D02*
X183636856Y-128857729D01*
X183749919Y-128904562D01*
X183909814Y-128970792D01*
X184155474Y-129134937D01*
X184364383Y-129343846D01*
X184528528Y-129589506D01*
X184641591Y-129862465D01*
X184699230Y-130152234D01*
X184699230Y-130447686D01*
X184641591Y-130737455D01*
X184528528Y-131010414D01*
X184364383Y-131256074D01*
X184155474Y-131464983D01*
X183909814Y-131629128D01*
X183749919Y-131695358D01*
X183636856Y-131742191D01*
X183540265Y-131761404D01*
X183347086Y-131799830D01*
X183051634Y-131799830D01*
X182858455Y-131761404D01*
X182761864Y-131742191D01*
X182648801Y-131695358D01*
X182488906Y-131629128D01*
X182243246Y-131464983D01*
X182034337Y-131256074D01*
X181870192Y-131010414D01*
X181757129Y-130737455D01*
X181699490Y-130447686D01*
X181699490Y-130152234D01*
X181757129Y-129862465D01*
X181870192Y-129589506D01*
X182034337Y-129343846D01*
X182243246Y-129134937D01*
X182488906Y-128970792D01*
X182648801Y-128904562D01*
X182761864Y-128857729D01*
X182858455Y-128838516D01*
X183051634Y-128800090D01*
X183347086Y-128800090D01*
X183540265Y-128838516D01*
X183540265Y-128838516D01*
G37*
G36*
X145092500Y-130587500D02*
X143187500Y-130587500D01*
X143187500Y-129952500D01*
X145092500Y-129952500D01*
X145092500Y-130587500D01*
X145092500Y-130587500D01*
G37*
G36*
X195689660Y-129650000D02*
X193510340Y-129650000D01*
X193510340Y-127750000D01*
X195689660Y-127750000D01*
X195689660Y-129650000D01*
X195689660Y-129650000D01*
G37*
G36*
X140012500Y-129317500D02*
X138107500Y-129317500D01*
X138107500Y-128682500D01*
X140012500Y-128682500D01*
X140012500Y-129317500D01*
X140012500Y-129317500D01*
G37*
G36*
X145092500Y-129317500D02*
X143187500Y-129317500D01*
X143187500Y-128682500D01*
X145092500Y-128682500D01*
X145092500Y-129317500D01*
X145092500Y-129317500D01*
G37*
G36*
X132614163Y-129307918D02*
X130614163Y-129307918D01*
X130614163Y-128007918D01*
X132614163Y-128007918D01*
X132614163Y-129307918D01*
X132614163Y-129307918D01*
G37*
G36*
X134869900Y-129219200D02*
X133930100Y-129219200D01*
X133930100Y-128457200D01*
X134869900Y-128457200D01*
X134869900Y-129219200D01*
X134869900Y-129219200D01*
G37*
G36*
X202099110Y-129050600D02*
X201100890Y-129050600D01*
X201100890Y-125052640D01*
X202099110Y-125052640D01*
X202099110Y-129050600D01*
X202099110Y-129050600D01*
G37*
G36*
X191749960Y-128997710D02*
X189850040Y-128997710D01*
X189850040Y-127999490D01*
X191749960Y-127999490D01*
X191749960Y-128997710D01*
X191749960Y-128997710D01*
G37*
G36*
X147142800Y-128469900D02*
X146380800Y-128469900D01*
X146380800Y-127530100D01*
X147142800Y-127530100D01*
X147142800Y-128469900D01*
X147142800Y-128469900D01*
G37*
G36*
X148819200Y-128469900D02*
X148057200Y-128469900D01*
X148057200Y-127530100D01*
X148819200Y-127530100D01*
X148819200Y-128469900D01*
X148819200Y-128469900D01*
G37*
G36*
X168382667Y-125736465D02*
X168382669Y-125736466D01*
X168382670Y-125736466D01*
X168621423Y-125835360D01*
X168835324Y-125978285D01*
X168836297Y-125978935D01*
X169019025Y-126161663D01*
X169019027Y-126161666D01*
X169162600Y-126376537D01*
X169261494Y-126615290D01*
X169311910Y-126868748D01*
X169311910Y-127127172D01*
X169261494Y-127380630D01*
X169162600Y-127619383D01*
X169075324Y-127750000D01*
X169019025Y-127834257D01*
X168836297Y-128016985D01*
X168836294Y-128016987D01*
X168621423Y-128160560D01*
X168382670Y-128259454D01*
X168382669Y-128259454D01*
X168382667Y-128259455D01*
X168129213Y-128309870D01*
X167870787Y-128309870D01*
X167617333Y-128259455D01*
X167617331Y-128259454D01*
X167617330Y-128259454D01*
X167378577Y-128160560D01*
X167163706Y-128016987D01*
X167163703Y-128016985D01*
X166980975Y-127834257D01*
X166924676Y-127750000D01*
X166837400Y-127619383D01*
X166738506Y-127380630D01*
X166688090Y-127127172D01*
X166688090Y-126868748D01*
X166738506Y-126615290D01*
X166837400Y-126376537D01*
X166980973Y-126161666D01*
X166980975Y-126161663D01*
X167163703Y-125978935D01*
X167164676Y-125978285D01*
X167378577Y-125835360D01*
X167617330Y-125736466D01*
X167617331Y-125736466D01*
X167617333Y-125736465D01*
X167870787Y-125686050D01*
X168129213Y-125686050D01*
X168382667Y-125736465D01*
X168382667Y-125736465D01*
G37*
G36*
X172380627Y-125736465D02*
X172380629Y-125736466D01*
X172380630Y-125736466D01*
X172619383Y-125835360D01*
X172833284Y-125978285D01*
X172834257Y-125978935D01*
X173016985Y-126161663D01*
X173016987Y-126161666D01*
X173160560Y-126376537D01*
X173259454Y-126615290D01*
X173309870Y-126868748D01*
X173309870Y-127127172D01*
X173259454Y-127380630D01*
X173160560Y-127619383D01*
X173073284Y-127750000D01*
X173016985Y-127834257D01*
X172834257Y-128016985D01*
X172834254Y-128016987D01*
X172619383Y-128160560D01*
X172380630Y-128259454D01*
X172380629Y-128259454D01*
X172380627Y-128259455D01*
X172127173Y-128309870D01*
X171868747Y-128309870D01*
X171615293Y-128259455D01*
X171615291Y-128259454D01*
X171615290Y-128259454D01*
X171376537Y-128160560D01*
X171161666Y-128016987D01*
X171161663Y-128016985D01*
X170978935Y-127834257D01*
X170922636Y-127750000D01*
X170835360Y-127619383D01*
X170736466Y-127380630D01*
X170686050Y-127127172D01*
X170686050Y-126868748D01*
X170736466Y-126615290D01*
X170835360Y-126376537D01*
X170978933Y-126161666D01*
X170978935Y-126161663D01*
X171161663Y-125978935D01*
X171162636Y-125978285D01*
X171376537Y-125835360D01*
X171615290Y-125736466D01*
X171615291Y-125736466D01*
X171615293Y-125736465D01*
X171868747Y-125686050D01*
X172127173Y-125686050D01*
X172380627Y-125736465D01*
X172380627Y-125736465D01*
G37*
G36*
X164384707Y-125736465D02*
X164384709Y-125736466D01*
X164384710Y-125736466D01*
X164623463Y-125835360D01*
X164837364Y-125978285D01*
X164838337Y-125978935D01*
X165021065Y-126161663D01*
X165021067Y-126161666D01*
X165164640Y-126376537D01*
X165263534Y-126615290D01*
X165313950Y-126868748D01*
X165313950Y-127127172D01*
X165263534Y-127380630D01*
X165164640Y-127619383D01*
X165077364Y-127750000D01*
X165021065Y-127834257D01*
X164838337Y-128016985D01*
X164838334Y-128016987D01*
X164623463Y-128160560D01*
X164384710Y-128259454D01*
X164384709Y-128259454D01*
X164384707Y-128259455D01*
X164131253Y-128309870D01*
X163872827Y-128309870D01*
X163619373Y-128259455D01*
X163619371Y-128259454D01*
X163619370Y-128259454D01*
X163380617Y-128160560D01*
X163165746Y-128016987D01*
X163165743Y-128016985D01*
X162983015Y-127834257D01*
X162926716Y-127750000D01*
X162839440Y-127619383D01*
X162740546Y-127380630D01*
X162690130Y-127127172D01*
X162690130Y-126868748D01*
X162740546Y-126615290D01*
X162839440Y-126376537D01*
X162983013Y-126161666D01*
X162983015Y-126161663D01*
X163165743Y-125978935D01*
X163166716Y-125978285D01*
X163380617Y-125835360D01*
X163619370Y-125736466D01*
X163619371Y-125736466D01*
X163619373Y-125736465D01*
X163872827Y-125686050D01*
X164131253Y-125686050D01*
X164384707Y-125736465D01*
X164384707Y-125736465D01*
G37*
G36*
X140012500Y-128047500D02*
X138107500Y-128047500D01*
X138107500Y-127412500D01*
X140012500Y-127412500D01*
X140012500Y-128047500D01*
X140012500Y-128047500D01*
G37*
G36*
X145092500Y-128047500D02*
X143187500Y-128047500D01*
X143187500Y-127412500D01*
X145092500Y-127412500D01*
X145092500Y-128047500D01*
X145092500Y-128047500D01*
G37*
G36*
X134869900Y-127542800D02*
X133930100Y-127542800D01*
X133930100Y-126780800D01*
X134869900Y-126780800D01*
X134869900Y-127542800D01*
X134869900Y-127542800D01*
G37*
G36*
X182083670Y-127299770D02*
X180785730Y-127299770D01*
X180785730Y-125900230D01*
X182083670Y-125900230D01*
X182083670Y-127299770D01*
X182083670Y-127299770D01*
G37*
G36*
X185614270Y-127299770D02*
X184316330Y-127299770D01*
X184316330Y-125900230D01*
X185614270Y-125900230D01*
X185614270Y-127299770D01*
X185614270Y-127299770D01*
G37*
G36*
X145092500Y-126777500D02*
X143187500Y-126777500D01*
X143187500Y-126142500D01*
X145092500Y-126142500D01*
X145092500Y-126777500D01*
X145092500Y-126777500D01*
G37*
G36*
X140012500Y-126777500D02*
X138107500Y-126777500D01*
X138107500Y-126142500D01*
X140012500Y-126142500D01*
X140012500Y-126777500D01*
X140012500Y-126777500D01*
G37*
G36*
X147142800Y-126669900D02*
X146380800Y-126669900D01*
X146380800Y-125730100D01*
X147142800Y-125730100D01*
X147142800Y-126669900D01*
X147142800Y-126669900D01*
G37*
G36*
X148819200Y-126669900D02*
X148057200Y-126669900D01*
X148057200Y-125730100D01*
X148819200Y-125730100D01*
X148819200Y-126669900D01*
X148819200Y-126669900D01*
G37*
G36*
X191749960Y-126000510D02*
X189850040Y-126000510D01*
X189850040Y-125002290D01*
X191749960Y-125002290D01*
X191749960Y-126000510D01*
X191749960Y-126000510D01*
G37*
G36*
X134869900Y-125419200D02*
X133930100Y-125419200D01*
X133930100Y-124657200D01*
X134869900Y-124657200D01*
X134869900Y-125419200D01*
X134869900Y-125419200D01*
G37*
G36*
X185614270Y-125399770D02*
X184316330Y-125399770D01*
X184316330Y-124000230D01*
X185614270Y-124000230D01*
X185614270Y-125399770D01*
X185614270Y-125399770D01*
G37*
G36*
X182083670Y-125399770D02*
X180785730Y-125399770D01*
X180785730Y-124000230D01*
X182083670Y-124000230D01*
X182083670Y-125399770D01*
X182083670Y-125399770D01*
G37*
G36*
X195689660Y-124650000D02*
X193510340Y-124650000D01*
X193510340Y-122750000D01*
X195689660Y-122750000D01*
X195689660Y-124650000D01*
X195689660Y-124650000D01*
G37*
G36*
X170381647Y-121738505D02*
X170381649Y-121738506D01*
X170381650Y-121738506D01*
X170620403Y-121837400D01*
X170834304Y-121980325D01*
X170835277Y-121980975D01*
X171018005Y-122163703D01*
X171018007Y-122163706D01*
X171161580Y-122378577D01*
X171260474Y-122617330D01*
X171310890Y-122870788D01*
X171310890Y-123129212D01*
X171260474Y-123382670D01*
X171161580Y-123621423D01*
X171080478Y-123742800D01*
X171018005Y-123836297D01*
X170835277Y-124019025D01*
X170835274Y-124019027D01*
X170620403Y-124162600D01*
X170381650Y-124261494D01*
X170381649Y-124261494D01*
X170381647Y-124261495D01*
X170128193Y-124311910D01*
X169869767Y-124311910D01*
X169616313Y-124261495D01*
X169616311Y-124261494D01*
X169616310Y-124261494D01*
X169377557Y-124162600D01*
X169162686Y-124019027D01*
X169162683Y-124019025D01*
X168979955Y-123836297D01*
X168917482Y-123742800D01*
X168836380Y-123621423D01*
X168737486Y-123382670D01*
X168687070Y-123129212D01*
X168687070Y-122870788D01*
X168737486Y-122617330D01*
X168836380Y-122378577D01*
X168979953Y-122163706D01*
X168979955Y-122163703D01*
X169162683Y-121980975D01*
X169163656Y-121980325D01*
X169377557Y-121837400D01*
X169616310Y-121738506D01*
X169616311Y-121738506D01*
X169616313Y-121738505D01*
X169869767Y-121688090D01*
X170128193Y-121688090D01*
X170381647Y-121738505D01*
X170381647Y-121738505D01*
G37*
G36*
X166383687Y-121738505D02*
X166383689Y-121738506D01*
X166383690Y-121738506D01*
X166622443Y-121837400D01*
X166836344Y-121980325D01*
X166837317Y-121980975D01*
X167020045Y-122163703D01*
X167020047Y-122163706D01*
X167163620Y-122378577D01*
X167262514Y-122617330D01*
X167312930Y-122870788D01*
X167312930Y-123129212D01*
X167262514Y-123382670D01*
X167163620Y-123621423D01*
X167082518Y-123742800D01*
X167020045Y-123836297D01*
X166837317Y-124019025D01*
X166837314Y-124019027D01*
X166622443Y-124162600D01*
X166383690Y-124261494D01*
X166383689Y-124261494D01*
X166383687Y-124261495D01*
X166130233Y-124311910D01*
X165871807Y-124311910D01*
X165618353Y-124261495D01*
X165618351Y-124261494D01*
X165618350Y-124261494D01*
X165379597Y-124162600D01*
X165164726Y-124019027D01*
X165164723Y-124019025D01*
X164981995Y-123836297D01*
X164919522Y-123742800D01*
X164838420Y-123621423D01*
X164739526Y-123382670D01*
X164689110Y-123129212D01*
X164689110Y-122870788D01*
X164739526Y-122617330D01*
X164838420Y-122378577D01*
X164981993Y-122163706D01*
X164981995Y-122163703D01*
X165164723Y-121980975D01*
X165165696Y-121980325D01*
X165379597Y-121837400D01*
X165618350Y-121738506D01*
X165618351Y-121738506D01*
X165618353Y-121738505D01*
X165871807Y-121688090D01*
X166130233Y-121688090D01*
X166383687Y-121738505D01*
X166383687Y-121738505D01*
G37*
G36*
X132614163Y-124227918D02*
X130614163Y-124227918D01*
X130614163Y-122927918D01*
X132614163Y-122927918D01*
X132614163Y-124227918D01*
X132614163Y-124227918D01*
G37*
G36*
X154569200Y-124169900D02*
X153807200Y-124169900D01*
X153807200Y-123230100D01*
X154569200Y-123230100D01*
X154569200Y-124169900D01*
X154569200Y-124169900D01*
G37*
G36*
X152892800Y-124169900D02*
X152130800Y-124169900D01*
X152130800Y-123230100D01*
X152892800Y-123230100D01*
X152892800Y-124169900D01*
X152892800Y-124169900D01*
G37*
G36*
X137669900Y-124019200D02*
X136730100Y-124019200D01*
X136730100Y-123257200D01*
X137669900Y-123257200D01*
X137669900Y-124019200D01*
X137669900Y-124019200D01*
G37*
G36*
X147669900Y-123819200D02*
X146730100Y-123819200D01*
X146730100Y-123057200D01*
X147669900Y-123057200D01*
X147669900Y-123819200D01*
X147669900Y-123819200D01*
G37*
G36*
X134869900Y-123742800D02*
X133930100Y-123742800D01*
X133930100Y-122980800D01*
X134869900Y-122980800D01*
X134869900Y-123742800D01*
X134869900Y-123742800D01*
G37*
G36*
X188235000Y-123050000D02*
X182265000Y-123050000D01*
X182265000Y-116950000D01*
X188235000Y-116950000D01*
X188235000Y-123050000D01*
X188235000Y-123050000D01*
G37*
G36*
X180115000Y-122990000D02*
X178215000Y-122990000D01*
X178215000Y-121590000D01*
X180115000Y-121590000D01*
X180115000Y-122990000D01*
X180115000Y-122990000D01*
G37*
G36*
X137669900Y-122342800D02*
X136730100Y-122342800D01*
X136730100Y-121580800D01*
X137669900Y-121580800D01*
X137669900Y-122342800D01*
X137669900Y-122342800D01*
G37*
G36*
X147669900Y-122142800D02*
X146730100Y-122142800D01*
X146730100Y-121380800D01*
X147669900Y-121380800D01*
X147669900Y-122142800D01*
X147669900Y-122142800D01*
G37*
G36*
X143009390Y-120547180D02*
X134990610Y-120547180D01*
X134990610Y-119048580D01*
X143009390Y-119048580D01*
X143009390Y-120547180D01*
X143009390Y-120547180D01*
G37*
G36*
X172380627Y-117740545D02*
X172380629Y-117740546D01*
X172380630Y-117740546D01*
X172619383Y-117839440D01*
X172833284Y-117982365D01*
X172834257Y-117983015D01*
X173016985Y-118165743D01*
X173016987Y-118165746D01*
X173160560Y-118380617D01*
X173259454Y-118619370D01*
X173309870Y-118872828D01*
X173309870Y-119131252D01*
X173259454Y-119384710D01*
X173160560Y-119623463D01*
X173017635Y-119837364D01*
X173016985Y-119838337D01*
X172834257Y-120021065D01*
X172834254Y-120021067D01*
X172619383Y-120164640D01*
X172380630Y-120263534D01*
X172380629Y-120263534D01*
X172380627Y-120263535D01*
X172127173Y-120313950D01*
X171868747Y-120313950D01*
X171615293Y-120263535D01*
X171615291Y-120263534D01*
X171615290Y-120263534D01*
X171376537Y-120164640D01*
X171161666Y-120021067D01*
X171161663Y-120021065D01*
X170978935Y-119838337D01*
X170978285Y-119837364D01*
X170835360Y-119623463D01*
X170736466Y-119384710D01*
X170686050Y-119131252D01*
X170686050Y-118872828D01*
X170736466Y-118619370D01*
X170835360Y-118380617D01*
X170978933Y-118165746D01*
X170978935Y-118165743D01*
X171161663Y-117983015D01*
X171162636Y-117982365D01*
X171376537Y-117839440D01*
X171615290Y-117740546D01*
X171615291Y-117740546D01*
X171615293Y-117740545D01*
X171868747Y-117690130D01*
X172127173Y-117690130D01*
X172380627Y-117740545D01*
X172380627Y-117740545D01*
G37*
G36*
X168382667Y-117740545D02*
X168382669Y-117740546D01*
X168382670Y-117740546D01*
X168621423Y-117839440D01*
X168835324Y-117982365D01*
X168836297Y-117983015D01*
X169019025Y-118165743D01*
X169019027Y-118165746D01*
X169162600Y-118380617D01*
X169261494Y-118619370D01*
X169311910Y-118872828D01*
X169311910Y-119131252D01*
X169261494Y-119384710D01*
X169162600Y-119623463D01*
X169019675Y-119837364D01*
X169019025Y-119838337D01*
X168836297Y-120021065D01*
X168836294Y-120021067D01*
X168621423Y-120164640D01*
X168382670Y-120263534D01*
X168382669Y-120263534D01*
X168382667Y-120263535D01*
X168129213Y-120313950D01*
X167870787Y-120313950D01*
X167617333Y-120263535D01*
X167617331Y-120263534D01*
X167617330Y-120263534D01*
X167378577Y-120164640D01*
X167163706Y-120021067D01*
X167163703Y-120021065D01*
X166980975Y-119838337D01*
X166980325Y-119837364D01*
X166837400Y-119623463D01*
X166738506Y-119384710D01*
X166688090Y-119131252D01*
X166688090Y-118872828D01*
X166738506Y-118619370D01*
X166837400Y-118380617D01*
X166980973Y-118165746D01*
X166980975Y-118165743D01*
X167163703Y-117983015D01*
X167164676Y-117982365D01*
X167378577Y-117839440D01*
X167617330Y-117740546D01*
X167617331Y-117740546D01*
X167617333Y-117740545D01*
X167870787Y-117690130D01*
X168129213Y-117690130D01*
X168382667Y-117740545D01*
X168382667Y-117740545D01*
G37*
G36*
X165313950Y-120313950D02*
X162690130Y-120313950D01*
X162690130Y-117690130D01*
X165313950Y-117690130D01*
X165313950Y-120313950D01*
X165313950Y-120313950D01*
G37*
G36*
X147269900Y-119019200D02*
X146330100Y-119019200D01*
X146330100Y-118257200D01*
X147269900Y-118257200D01*
X147269900Y-119019200D01*
X147269900Y-119019200D01*
G37*
G36*
X180115000Y-118410000D02*
X178215000Y-118410000D01*
X178215000Y-117010000D01*
X180115000Y-117010000D01*
X180115000Y-118410000D01*
X180115000Y-118410000D01*
G37*
G36*
X133851420Y-117909390D02*
X132352820Y-117909390D01*
X132352820Y-109890610D01*
X133851420Y-109890610D01*
X133851420Y-117909390D01*
X133851420Y-117909390D01*
G37*
G36*
X145647180Y-117909390D02*
X144148580Y-117909390D01*
X144148580Y-109890610D01*
X145647180Y-109890610D01*
X145647180Y-117909390D01*
X145647180Y-117909390D01*
G37*
G36*
X147269900Y-117342800D02*
X146330100Y-117342800D01*
X146330100Y-116580800D01*
X147269900Y-116580800D01*
X147269900Y-117342800D01*
X147269900Y-117342800D01*
G37*
G36*
X147269900Y-115781000D02*
X146330100Y-115781000D01*
X146330100Y-115019000D01*
X147269900Y-115019000D01*
X147269900Y-115781000D01*
X147269900Y-115781000D01*
G37*
G36*
X169600000Y-115200000D02*
X166300000Y-115200000D01*
X166300000Y-112800000D01*
X169600000Y-112800000D01*
X169600000Y-115200000D01*
X169600000Y-115200000D01*
G37*
G36*
X131469900Y-115019200D02*
X130530100Y-115019200D01*
X130530100Y-114257200D01*
X131469900Y-114257200D01*
X131469900Y-115019200D01*
X131469900Y-115019200D01*
G37*
G36*
X163590000Y-114435000D02*
X162190000Y-114435000D01*
X162190000Y-112535000D01*
X163590000Y-112535000D01*
X163590000Y-114435000D01*
X163590000Y-114435000D01*
G37*
G36*
X159010000Y-114435000D02*
X157610000Y-114435000D01*
X157610000Y-112535000D01*
X159010000Y-112535000D01*
X159010000Y-114435000D01*
X159010000Y-114435000D01*
G37*
G36*
X173610000Y-114435000D02*
X172210000Y-114435000D01*
X172210000Y-112535000D01*
X173610000Y-112535000D01*
X173610000Y-114435000D01*
X173610000Y-114435000D01*
G37*
G36*
X178190000Y-114435000D02*
X176790000Y-114435000D01*
X176790000Y-112535000D01*
X178190000Y-112535000D01*
X178190000Y-114435000D01*
X178190000Y-114435000D01*
G37*
G36*
X147269900Y-114104600D02*
X146330100Y-114104600D01*
X146330100Y-113342600D01*
X147269900Y-113342600D01*
X147269900Y-114104600D01*
X147269900Y-114104600D01*
G37*
G36*
X182039125Y-110741016D02*
X182135716Y-110760229D01*
X182210100Y-110791040D01*
X182408674Y-110873292D01*
X182654334Y-111037437D01*
X182863243Y-111246346D01*
X183027388Y-111492006D01*
X183140451Y-111764965D01*
X183198090Y-112054734D01*
X183198090Y-112350186D01*
X183140451Y-112639955D01*
X183027388Y-112912914D01*
X182863243Y-113158574D01*
X182654334Y-113367483D01*
X182408674Y-113531628D01*
X182248779Y-113597858D01*
X182135716Y-113644691D01*
X182039125Y-113663904D01*
X181845946Y-113702330D01*
X181550494Y-113702330D01*
X181357315Y-113663904D01*
X181260724Y-113644691D01*
X181147661Y-113597858D01*
X180987766Y-113531628D01*
X180742106Y-113367483D01*
X180533197Y-113158574D01*
X180369052Y-112912914D01*
X180255989Y-112639955D01*
X180198350Y-112350186D01*
X180198350Y-112054734D01*
X180255989Y-111764965D01*
X180369052Y-111492006D01*
X180533197Y-111246346D01*
X180742106Y-111037437D01*
X180987766Y-110873292D01*
X181186340Y-110791040D01*
X181260724Y-110760229D01*
X181357315Y-110741016D01*
X181550494Y-110702590D01*
X181845946Y-110702590D01*
X182039125Y-110741016D01*
X182039125Y-110741016D01*
G37*
G36*
X154642685Y-110741016D02*
X154739276Y-110760229D01*
X154813660Y-110791040D01*
X155012234Y-110873292D01*
X155257894Y-111037437D01*
X155466803Y-111246346D01*
X155630948Y-111492006D01*
X155744011Y-111764965D01*
X155801650Y-112054734D01*
X155801650Y-112350186D01*
X155744011Y-112639955D01*
X155630948Y-112912914D01*
X155466803Y-113158574D01*
X155257894Y-113367483D01*
X155012234Y-113531628D01*
X154852339Y-113597858D01*
X154739276Y-113644691D01*
X154642685Y-113663904D01*
X154449506Y-113702330D01*
X154154054Y-113702330D01*
X153960875Y-113663904D01*
X153864284Y-113644691D01*
X153751221Y-113597858D01*
X153591326Y-113531628D01*
X153345666Y-113367483D01*
X153136757Y-113158574D01*
X152972612Y-112912914D01*
X152859549Y-112639955D01*
X152801910Y-112350186D01*
X152801910Y-112054734D01*
X152859549Y-111764965D01*
X152972612Y-111492006D01*
X153136757Y-111246346D01*
X153345666Y-111037437D01*
X153591326Y-110873292D01*
X153789900Y-110791040D01*
X153864284Y-110760229D01*
X153960875Y-110741016D01*
X154154054Y-110702590D01*
X154449506Y-110702590D01*
X154642685Y-110741016D01*
X154642685Y-110741016D01*
G37*
G36*
X131469900Y-113342800D02*
X130530100Y-113342800D01*
X130530100Y-112580800D01*
X131469900Y-112580800D01*
X131469900Y-113342800D01*
X131469900Y-113342800D01*
G37*
G36*
X131469900Y-111619200D02*
X130530100Y-111619200D01*
X130530100Y-110857200D01*
X131469900Y-110857200D01*
X131469900Y-111619200D01*
X131469900Y-111619200D01*
G37*
G36*
X163650000Y-110385000D02*
X157550000Y-110385000D01*
X157550000Y-104415000D01*
X163650000Y-104415000D01*
X163650000Y-110385000D01*
X163650000Y-110385000D01*
G37*
G36*
X178250000Y-110385000D02*
X172150000Y-110385000D01*
X172150000Y-104415000D01*
X178250000Y-104415000D01*
X178250000Y-110385000D01*
X178250000Y-110385000D01*
G37*
G36*
X131469900Y-109942800D02*
X130530100Y-109942800D01*
X130530100Y-109180800D01*
X131469900Y-109180800D01*
X131469900Y-109942800D01*
X131469900Y-109942800D01*
G37*
G36*
X143009390Y-108751420D02*
X134990610Y-108751420D01*
X134990610Y-107252820D01*
X143009390Y-107252820D01*
X143009390Y-108751420D01*
X143009390Y-108751420D01*
G37*
G36*
X169600000Y-108600000D02*
X166300000Y-108600000D01*
X166300000Y-106200000D01*
X169600000Y-106200000D01*
X169600000Y-108600000D01*
X169600000Y-108600000D01*
G37*
G36*
X136819200Y-106469900D02*
X136057200Y-106469900D01*
X136057200Y-105530100D01*
X136819200Y-105530100D01*
X136819200Y-106469900D01*
X136819200Y-106469900D01*
G37*
G36*
X135142800Y-106469900D02*
X134380800Y-106469900D01*
X134380800Y-105530100D01*
X135142800Y-105530100D01*
X135142800Y-106469900D01*
X135142800Y-106469900D01*
G37*
G36*
X162015000Y-100930000D02*
X161185000Y-100930000D01*
X161185000Y-100300000D01*
X162015000Y-100300000D01*
X162015000Y-100930000D01*
X162015000Y-100930000D01*
G37*
G36*
X158815000Y-100930000D02*
X157985000Y-100930000D01*
X157985000Y-100300000D01*
X158815000Y-100300000D01*
X158815000Y-100930000D01*
X158815000Y-100930000D01*
G37*
G36*
X152415000Y-100930000D02*
X151585000Y-100930000D01*
X151585000Y-100300000D01*
X152415000Y-100300000D01*
X152415000Y-100930000D01*
X152415000Y-100930000D01*
G37*
G36*
X149215000Y-100930000D02*
X148385000Y-100930000D01*
X148385000Y-100300000D01*
X149215000Y-100300000D01*
X149215000Y-100930000D01*
X149215000Y-100930000D01*
G37*
G36*
X155669900Y-100519200D02*
X154730100Y-100519200D01*
X154730100Y-99757200D01*
X155669900Y-99757200D01*
X155669900Y-100519200D01*
X155669900Y-100519200D01*
G37*
G36*
X144469900Y-100519200D02*
X143530100Y-100519200D01*
X143530100Y-99757200D01*
X144469900Y-99757200D01*
X144469900Y-100519200D01*
X144469900Y-100519200D01*
G37*
G36*
X146069900Y-100519200D02*
X145130100Y-100519200D01*
X145130100Y-99757200D01*
X146069900Y-99757200D01*
X146069900Y-100519200D01*
X146069900Y-100519200D01*
G37*
G36*
X147669900Y-100519200D02*
X146730100Y-100519200D01*
X146730100Y-99757200D01*
X147669900Y-99757200D01*
X147669900Y-100519200D01*
X147669900Y-100519200D01*
G37*
G36*
X150869900Y-100519200D02*
X149930100Y-100519200D01*
X149930100Y-99757200D01*
X150869900Y-99757200D01*
X150869900Y-100519200D01*
X150869900Y-100519200D01*
G37*
G36*
X154069900Y-100519200D02*
X153130100Y-100519200D01*
X153130100Y-99757200D01*
X154069900Y-99757200D01*
X154069900Y-100519200D01*
X154069900Y-100519200D01*
G37*
G36*
X157269900Y-100519200D02*
X156330100Y-100519200D01*
X156330100Y-99757200D01*
X157269900Y-99757200D01*
X157269900Y-100519200D01*
X157269900Y-100519200D01*
G37*
G36*
X160469900Y-100519200D02*
X159530100Y-100519200D01*
X159530100Y-99757200D01*
X160469900Y-99757200D01*
X160469900Y-100519200D01*
X160469900Y-100519200D01*
G37*
G36*
X150869900Y-98842800D02*
X149930100Y-98842800D01*
X149930100Y-98080800D01*
X150869900Y-98080800D01*
X150869900Y-98842800D01*
X150869900Y-98842800D01*
G37*
G36*
X160469900Y-98842800D02*
X159530100Y-98842800D01*
X159530100Y-98080800D01*
X160469900Y-98080800D01*
X160469900Y-98842800D01*
X160469900Y-98842800D01*
G37*
G36*
X157269900Y-98842800D02*
X156330100Y-98842800D01*
X156330100Y-98080800D01*
X157269900Y-98080800D01*
X157269900Y-98842800D01*
X157269900Y-98842800D01*
G37*
G36*
X146069900Y-98842800D02*
X145130100Y-98842800D01*
X145130100Y-98080800D01*
X146069900Y-98080800D01*
X146069900Y-98842800D01*
X146069900Y-98842800D01*
G37*
G36*
X154069900Y-98842800D02*
X153130100Y-98842800D01*
X153130100Y-98080800D01*
X154069900Y-98080800D01*
X154069900Y-98842800D01*
X154069900Y-98842800D01*
G37*
G36*
X144469900Y-98842800D02*
X143530100Y-98842800D01*
X143530100Y-98080800D01*
X144469900Y-98080800D01*
X144469900Y-98842800D01*
X144469900Y-98842800D01*
G37*
G36*
X147669900Y-98842800D02*
X146730100Y-98842800D01*
X146730100Y-98080800D01*
X147669900Y-98080800D01*
X147669900Y-98842800D01*
X147669900Y-98842800D01*
G37*
G36*
X155669900Y-98842800D02*
X154730100Y-98842800D01*
X154730100Y-98080800D01*
X155669900Y-98080800D01*
X155669900Y-98842800D01*
X155669900Y-98842800D01*
G37*
G36*
X152415000Y-98700000D02*
X151585000Y-98700000D01*
X151585000Y-98070000D01*
X152415000Y-98070000D01*
X152415000Y-98700000D01*
X152415000Y-98700000D01*
G37*
G36*
X158815000Y-98700000D02*
X157985000Y-98700000D01*
X157985000Y-98070000D01*
X158815000Y-98070000D01*
X158815000Y-98700000D01*
X158815000Y-98700000D01*
G37*
G36*
X149215000Y-98700000D02*
X148385000Y-98700000D01*
X148385000Y-98070000D01*
X149215000Y-98070000D01*
X149215000Y-98700000D01*
X149215000Y-98700000D01*
G37*
G36*
X162015000Y-98700000D02*
X161185000Y-98700000D01*
X161185000Y-98070000D01*
X162015000Y-98070000D01*
X162015000Y-98700000D01*
X162015000Y-98700000D01*
G37*
G36*
X184133095Y-96062500D02*
X177833095Y-96062500D01*
X177833095Y-89962500D01*
X184133095Y-89962500D01*
X184133095Y-96062500D01*
X184133095Y-96062500D01*
G37*
G36*
X176423095Y-96062500D02*
X170123095Y-96062500D01*
X170123095Y-89962500D01*
X176423095Y-89962500D01*
X176423095Y-96062500D01*
X176423095Y-96062500D01*
G37*
G36*
X168750000Y-96020000D02*
X162450000Y-96020000D01*
X162450000Y-89920000D01*
X168750000Y-89920000D01*
X168750000Y-96020000D01*
X168750000Y-96020000D01*
G37*
G36*
X155850000Y-95800000D02*
X155450000Y-95800000D01*
X155450000Y-94600000D01*
X155850000Y-94600000D01*
X155850000Y-95800000D01*
X155850000Y-95800000D01*
G37*
G36*
X152250000Y-95800000D02*
X151850000Y-95800000D01*
X151850000Y-94600000D01*
X152250000Y-94600000D01*
X152250000Y-95800000D01*
X152250000Y-95800000D01*
G37*
G36*
X150650000Y-95800000D02*
X150250000Y-95800000D01*
X150250000Y-94600000D01*
X150650000Y-94600000D01*
X150650000Y-95800000D01*
X150650000Y-95800000D01*
G37*
G36*
X148250000Y-95800000D02*
X147850000Y-95800000D01*
X147850000Y-94600000D01*
X148250000Y-94600000D01*
X148250000Y-95800000D01*
X148250000Y-95800000D01*
G37*
G36*
X149050000Y-95800000D02*
X148650000Y-95800000D01*
X148650000Y-94600000D01*
X149050000Y-94600000D01*
X149050000Y-95800000D01*
X149050000Y-95800000D01*
G37*
G36*
X156650000Y-95800000D02*
X156250000Y-95800000D01*
X156250000Y-94600000D01*
X156650000Y-94600000D01*
X156650000Y-95800000D01*
X156650000Y-95800000D01*
G37*
G36*
X157450000Y-95800000D02*
X157050000Y-95800000D01*
X157050000Y-94600000D01*
X157450000Y-94600000D01*
X157450000Y-95800000D01*
X157450000Y-95800000D01*
G37*
G36*
X158250000Y-95800000D02*
X157850000Y-95800000D01*
X157850000Y-94600000D01*
X158250000Y-94600000D01*
X158250000Y-95800000D01*
X158250000Y-95800000D01*
G37*
G36*
X159050000Y-95800000D02*
X158650000Y-95800000D01*
X158650000Y-94600000D01*
X159050000Y-94600000D01*
X159050000Y-95800000D01*
X159050000Y-95800000D01*
G37*
G36*
X159850000Y-95800000D02*
X159450000Y-95800000D01*
X159450000Y-94600000D01*
X159850000Y-94600000D01*
X159850000Y-95800000D01*
X159850000Y-95800000D01*
G37*
G36*
X151450000Y-95800000D02*
X151050000Y-95800000D01*
X151050000Y-94600000D01*
X151450000Y-94600000D01*
X151450000Y-95800000D01*
X151450000Y-95800000D01*
G37*
G36*
X149850000Y-95800000D02*
X149450000Y-95800000D01*
X149450000Y-94600000D01*
X149850000Y-94600000D01*
X149850000Y-95800000D01*
X149850000Y-95800000D01*
G37*
G36*
X151850000Y-93350000D02*
X148250000Y-93350000D01*
X148250000Y-91450000D01*
X151850000Y-91450000D01*
X151850000Y-93350000D01*
X151850000Y-93350000D01*
G37*
G36*
X159450000Y-93350000D02*
X155850000Y-93350000D01*
X155850000Y-91450000D01*
X159450000Y-91450000D01*
X159450000Y-93350000D01*
X159450000Y-93350000D01*
G37*
G36*
X148250000Y-90200000D02*
X147850000Y-90200000D01*
X147850000Y-89000000D01*
X148250000Y-89000000D01*
X148250000Y-90200000D01*
X148250000Y-90200000D01*
G37*
G36*
X149050000Y-90200000D02*
X148650000Y-90200000D01*
X148650000Y-89000000D01*
X149050000Y-89000000D01*
X149050000Y-90200000D01*
X149050000Y-90200000D01*
G37*
G36*
X149850000Y-90200000D02*
X149450000Y-90200000D01*
X149450000Y-89000000D01*
X149850000Y-89000000D01*
X149850000Y-90200000D01*
X149850000Y-90200000D01*
G37*
G36*
X150650000Y-90200000D02*
X150250000Y-90200000D01*
X150250000Y-89000000D01*
X150650000Y-89000000D01*
X150650000Y-90200000D01*
X150650000Y-90200000D01*
G37*
G36*
X151450000Y-90200000D02*
X151050000Y-90200000D01*
X151050000Y-89000000D01*
X151450000Y-89000000D01*
X151450000Y-90200000D01*
X151450000Y-90200000D01*
G37*
G36*
X152250000Y-90200000D02*
X151850000Y-90200000D01*
X151850000Y-89000000D01*
X152250000Y-89000000D01*
X152250000Y-90200000D01*
X152250000Y-90200000D01*
G37*
G36*
X158250000Y-90200000D02*
X157850000Y-90200000D01*
X157850000Y-89000000D01*
X158250000Y-89000000D01*
X158250000Y-90200000D01*
X158250000Y-90200000D01*
G37*
G36*
X159050000Y-90200000D02*
X158650000Y-90200000D01*
X158650000Y-89000000D01*
X159050000Y-89000000D01*
X159050000Y-90200000D01*
X159050000Y-90200000D01*
G37*
G36*
X159850000Y-90200000D02*
X159450000Y-90200000D01*
X159450000Y-89000000D01*
X159850000Y-89000000D01*
X159850000Y-90200000D01*
X159850000Y-90200000D01*
G37*
G36*
X156650000Y-90200000D02*
X156250000Y-90200000D01*
X156250000Y-89000000D01*
X156650000Y-89000000D01*
X156650000Y-90200000D01*
X156650000Y-90200000D01*
G37*
G36*
X155850000Y-90200000D02*
X155450000Y-90200000D01*
X155450000Y-89000000D01*
X155850000Y-89000000D01*
X155850000Y-90200000D01*
X155850000Y-90200000D01*
G37*
G36*
X157450000Y-90200000D02*
X157050000Y-90200000D01*
X157050000Y-89000000D01*
X157450000Y-89000000D01*
X157450000Y-90200000D01*
X157450000Y-90200000D01*
G37*
G36*
X180433095Y-87442500D02*
X178133095Y-87442500D01*
X178133095Y-85442500D01*
X180433095Y-85442500D01*
X180433095Y-87442500D01*
X180433095Y-87442500D01*
G37*
G36*
X176123095Y-87442500D02*
X173823095Y-87442500D01*
X173823095Y-85442500D01*
X176123095Y-85442500D01*
X176123095Y-87442500D01*
X176123095Y-87442500D01*
G37*
G36*
X172723095Y-87442500D02*
X170423095Y-87442500D01*
X170423095Y-85442500D01*
X172723095Y-85442500D01*
X172723095Y-87442500D01*
X172723095Y-87442500D01*
G37*
G36*
X183833095Y-87442500D02*
X181533095Y-87442500D01*
X181533095Y-85442500D01*
X183833095Y-85442500D01*
X183833095Y-87442500D01*
X183833095Y-87442500D01*
G37*
G36*
X168450000Y-87400000D02*
X166150000Y-87400000D01*
X166150000Y-85400000D01*
X168450000Y-85400000D01*
X168450000Y-87400000D01*
X168450000Y-87400000D01*
G37*
G36*
X165050000Y-87400000D02*
X162750000Y-87400000D01*
X162750000Y-85400000D01*
X165050000Y-85400000D01*
X165050000Y-87400000D01*
X165050000Y-87400000D01*
G37*
G36*
X165342800Y-84569900D02*
X164580800Y-84569900D01*
X164580800Y-83630100D01*
X165342800Y-83630100D01*
X165342800Y-84569900D01*
X165342800Y-84569900D01*
G37*
G36*
X167019200Y-84569900D02*
X166257200Y-84569900D01*
X166257200Y-83630100D01*
X167019200Y-83630100D01*
X167019200Y-84569900D01*
X167019200Y-84569900D01*
G37*
G36*
X174719200Y-84569900D02*
X173957200Y-84569900D01*
X173957200Y-83630100D01*
X174719200Y-83630100D01*
X174719200Y-84569900D01*
X174719200Y-84569900D01*
G37*
G36*
X173042800Y-84569900D02*
X172280800Y-84569900D01*
X172280800Y-83630100D01*
X173042800Y-83630100D01*
X173042800Y-84569900D01*
X173042800Y-84569900D01*
G37*
G36*
X182481000Y-84469900D02*
X181719000Y-84469900D01*
X181719000Y-83530100D01*
X182481000Y-83530100D01*
X182481000Y-84469900D01*
X182481000Y-84469900D01*
G37*
G36*
X180804600Y-84469900D02*
X180042600Y-84469900D01*
X180042600Y-83530100D01*
X180804600Y-83530100D01*
X180804600Y-84469900D01*
X180804600Y-84469900D01*
G37*
G36*
X174581000Y-82969900D02*
X173819000Y-82969900D01*
X173819000Y-82030100D01*
X174581000Y-82030100D01*
X174581000Y-82969900D01*
X174581000Y-82969900D01*
G37*
G36*
X172904600Y-82969900D02*
X172142600Y-82969900D01*
X172142600Y-82030100D01*
X172904600Y-82030100D01*
X172904600Y-82969900D01*
X172904600Y-82969900D01*
G37*
G36*
X166419200Y-82969900D02*
X165657200Y-82969900D01*
X165657200Y-82030100D01*
X166419200Y-82030100D01*
X166419200Y-82969900D01*
X166419200Y-82969900D01*
G37*
G36*
X164742800Y-82969900D02*
X163980800Y-82969900D01*
X163980800Y-82030100D01*
X164742800Y-82030100D01*
X164742800Y-82969900D01*
X164742800Y-82969900D01*
G37*
G36*
X180442800Y-82869900D02*
X179680800Y-82869900D01*
X179680800Y-81930100D01*
X180442800Y-81930100D01*
X180442800Y-82869900D01*
X180442800Y-82869900D01*
G37*
G36*
X182119200Y-82869900D02*
X181357200Y-82869900D01*
X181357200Y-81930100D01*
X182119200Y-81930100D01*
X182119200Y-82869900D01*
X182119200Y-82869900D01*
G37*
G36*
X175030000Y-81315000D02*
X174400000Y-81315000D01*
X174400000Y-80485000D01*
X175030000Y-80485000D01*
X175030000Y-81315000D01*
X175030000Y-81315000D01*
G37*
G36*
X172800000Y-81315000D02*
X172170000Y-81315000D01*
X172170000Y-80485000D01*
X172800000Y-80485000D01*
X172800000Y-81315000D01*
X172800000Y-81315000D01*
G37*
G36*
X164600000Y-81315000D02*
X163970000Y-81315000D01*
X163970000Y-80485000D01*
X164600000Y-80485000D01*
X164600000Y-81315000D01*
X164600000Y-81315000D01*
G37*
G36*
X166830000Y-81315000D02*
X166200000Y-81315000D01*
X166200000Y-80485000D01*
X166830000Y-80485000D01*
X166830000Y-81315000D01*
X166830000Y-81315000D01*
G37*
G36*
X180200000Y-81215000D02*
X179570000Y-81215000D01*
X179570000Y-80385000D01*
X180200000Y-80385000D01*
X180200000Y-81215000D01*
X180200000Y-81215000D01*
G37*
G36*
X182430000Y-81215000D02*
X181800000Y-81215000D01*
X181800000Y-80385000D01*
X182430000Y-80385000D01*
X182430000Y-81215000D01*
X182430000Y-81215000D01*
G37*
G36*
X172942800Y-79769900D02*
X172180800Y-79769900D01*
X172180800Y-78830100D01*
X172942800Y-78830100D01*
X172942800Y-79769900D01*
X172942800Y-79769900D01*
G37*
G36*
X174619200Y-79769900D02*
X173857200Y-79769900D01*
X173857200Y-78830100D01*
X174619200Y-78830100D01*
X174619200Y-79769900D01*
X174619200Y-79769900D01*
G37*
G36*
X164742800Y-79769900D02*
X163980800Y-79769900D01*
X163980800Y-78830100D01*
X164742800Y-78830100D01*
X164742800Y-79769900D01*
X164742800Y-79769900D01*
G37*
G36*
X166419200Y-79769900D02*
X165657200Y-79769900D01*
X165657200Y-78830100D01*
X166419200Y-78830100D01*
X166419200Y-79769900D01*
X166419200Y-79769900D01*
G37*
G36*
X182219200Y-79569900D02*
X181457200Y-79569900D01*
X181457200Y-78630100D01*
X182219200Y-78630100D01*
X182219200Y-79569900D01*
X182219200Y-79569900D01*
G37*
G36*
X180542800Y-79569900D02*
X179780800Y-79569900D01*
X179780800Y-78630100D01*
X180542800Y-78630100D01*
X180542800Y-79569900D01*
X180542800Y-79569900D01*
G37*
G36*
X143141565Y-70838516D02*
X143238156Y-70857729D01*
X143340207Y-70900000D01*
X143511114Y-70970792D01*
X143756774Y-71134937D01*
X143965683Y-71343846D01*
X144129828Y-71589506D01*
X144242891Y-71862465D01*
X144300530Y-72152234D01*
X144300530Y-72447686D01*
X144242891Y-72737455D01*
X144129828Y-73010414D01*
X143965683Y-73256074D01*
X143756774Y-73464983D01*
X143511114Y-73629128D01*
X143351219Y-73695358D01*
X143238156Y-73742191D01*
X143141565Y-73761404D01*
X142948386Y-73799830D01*
X142652934Y-73799830D01*
X142459755Y-73761404D01*
X142363164Y-73742191D01*
X142250101Y-73695358D01*
X142090206Y-73629128D01*
X141844546Y-73464983D01*
X141635637Y-73256074D01*
X141471492Y-73010414D01*
X141358429Y-72737455D01*
X141300790Y-72447686D01*
X141300790Y-72152234D01*
X141358429Y-71862465D01*
X141471492Y-71589506D01*
X141635637Y-71343846D01*
X141844546Y-71134937D01*
X142090206Y-70970792D01*
X142261113Y-70900000D01*
X142363164Y-70857729D01*
X142459755Y-70838516D01*
X142652934Y-70800090D01*
X142948386Y-70800090D01*
X143141565Y-70838516D01*
X143141565Y-70838516D01*
G37*
G36*
X193540245Y-70838516D02*
X193636836Y-70857729D01*
X193738887Y-70900000D01*
X193909794Y-70970792D01*
X194155454Y-71134937D01*
X194364363Y-71343846D01*
X194528508Y-71589506D01*
X194641571Y-71862465D01*
X194699210Y-72152234D01*
X194699210Y-72447686D01*
X194641571Y-72737455D01*
X194528508Y-73010414D01*
X194364363Y-73256074D01*
X194155454Y-73464983D01*
X193909794Y-73629128D01*
X193749899Y-73695358D01*
X193636836Y-73742191D01*
X193540245Y-73761404D01*
X193347066Y-73799830D01*
X193051614Y-73799830D01*
X192858435Y-73761404D01*
X192761844Y-73742191D01*
X192648781Y-73695358D01*
X192488886Y-73629128D01*
X192243226Y-73464983D01*
X192034317Y-73256074D01*
X191870172Y-73010414D01*
X191757109Y-72737455D01*
X191699470Y-72447686D01*
X191699470Y-72152234D01*
X191757109Y-71862465D01*
X191870172Y-71589506D01*
X192034317Y-71343846D01*
X192243226Y-71134937D01*
X192488886Y-70970792D01*
X192659793Y-70900000D01*
X192761844Y-70857729D01*
X192858435Y-70838516D01*
X193051614Y-70800090D01*
X193347066Y-70800090D01*
X193540245Y-70838516D01*
X193540245Y-70838516D01*
G37*
G36*
X188600000Y-70900000D02*
X185800000Y-70900000D01*
X185800000Y-69900000D01*
X188600000Y-69900000D01*
X188600000Y-70900000D01*
X188600000Y-70900000D01*
G37*
G36*
X154384727Y-67736465D02*
X154384729Y-67736466D01*
X154384730Y-67736466D01*
X154623483Y-67835360D01*
X154793505Y-67948966D01*
X154838357Y-67978935D01*
X155021085Y-68161663D01*
X155021087Y-68161666D01*
X155164660Y-68376537D01*
X155263554Y-68615290D01*
X155263555Y-68615293D01*
X155313970Y-68868747D01*
X155313970Y-69127172D01*
X155263554Y-69380630D01*
X155164660Y-69619383D01*
X155064087Y-69769900D01*
X155021085Y-69834257D01*
X154838357Y-70016985D01*
X154838354Y-70016987D01*
X154623483Y-70160560D01*
X154384730Y-70259454D01*
X154384729Y-70259454D01*
X154384727Y-70259455D01*
X154131273Y-70309870D01*
X153872847Y-70309870D01*
X153619393Y-70259455D01*
X153619391Y-70259454D01*
X153619390Y-70259454D01*
X153380637Y-70160560D01*
X153165766Y-70016987D01*
X153165763Y-70016985D01*
X152983035Y-69834257D01*
X152940033Y-69769900D01*
X152839460Y-69619383D01*
X152740566Y-69380630D01*
X152690150Y-69127172D01*
X152690150Y-68868747D01*
X152740565Y-68615293D01*
X152740566Y-68615290D01*
X152839460Y-68376537D01*
X152983033Y-68161666D01*
X152983035Y-68161663D01*
X153165763Y-67978935D01*
X153210615Y-67948966D01*
X153380637Y-67835360D01*
X153619390Y-67736466D01*
X153619391Y-67736466D01*
X153619393Y-67736465D01*
X153872847Y-67686050D01*
X154131273Y-67686050D01*
X154384727Y-67736465D01*
X154384727Y-67736465D01*
G37*
G36*
X158382687Y-67736465D02*
X158382689Y-67736466D01*
X158382690Y-67736466D01*
X158621443Y-67835360D01*
X158791465Y-67948966D01*
X158836317Y-67978935D01*
X159019045Y-68161663D01*
X159019047Y-68161666D01*
X159162620Y-68376537D01*
X159261514Y-68615290D01*
X159261515Y-68615293D01*
X159311930Y-68868747D01*
X159311930Y-69127172D01*
X159261514Y-69380630D01*
X159162620Y-69619383D01*
X159062047Y-69769900D01*
X159019045Y-69834257D01*
X158836317Y-70016985D01*
X158836314Y-70016987D01*
X158621443Y-70160560D01*
X158382690Y-70259454D01*
X158382689Y-70259454D01*
X158382687Y-70259455D01*
X158129233Y-70309870D01*
X157870807Y-70309870D01*
X157617353Y-70259455D01*
X157617351Y-70259454D01*
X157617350Y-70259454D01*
X157378597Y-70160560D01*
X157163726Y-70016987D01*
X157163723Y-70016985D01*
X156980995Y-69834257D01*
X156937993Y-69769900D01*
X156837420Y-69619383D01*
X156738526Y-69380630D01*
X156688110Y-69127172D01*
X156688110Y-68868747D01*
X156738525Y-68615293D01*
X156738526Y-68615290D01*
X156837420Y-68376537D01*
X156980993Y-68161666D01*
X156980995Y-68161663D01*
X157163723Y-67978935D01*
X157208575Y-67948966D01*
X157378597Y-67835360D01*
X157617350Y-67736466D01*
X157617351Y-67736466D01*
X157617353Y-67736465D01*
X157870807Y-67686050D01*
X158129233Y-67686050D01*
X158382687Y-67736465D01*
X158382687Y-67736465D01*
G37*
G36*
X162383187Y-67736465D02*
X162383189Y-67736466D01*
X162383190Y-67736466D01*
X162621943Y-67835360D01*
X162791965Y-67948966D01*
X162836817Y-67978935D01*
X163019545Y-68161663D01*
X163019547Y-68161666D01*
X163163120Y-68376537D01*
X163262014Y-68615290D01*
X163262015Y-68615293D01*
X163312430Y-68868747D01*
X163312430Y-69127172D01*
X163262014Y-69380630D01*
X163163120Y-69619383D01*
X163062547Y-69769900D01*
X163019545Y-69834257D01*
X162836817Y-70016985D01*
X162836814Y-70016987D01*
X162621943Y-70160560D01*
X162383190Y-70259454D01*
X162383189Y-70259454D01*
X162383187Y-70259455D01*
X162129733Y-70309870D01*
X161871307Y-70309870D01*
X161617853Y-70259455D01*
X161617851Y-70259454D01*
X161617850Y-70259454D01*
X161379097Y-70160560D01*
X161164226Y-70016987D01*
X161164223Y-70016985D01*
X160981495Y-69834257D01*
X160938493Y-69769900D01*
X160837920Y-69619383D01*
X160739026Y-69380630D01*
X160688610Y-69127172D01*
X160688610Y-68868747D01*
X160739025Y-68615293D01*
X160739026Y-68615290D01*
X160837920Y-68376537D01*
X160981493Y-68161666D01*
X160981495Y-68161663D01*
X161164223Y-67978935D01*
X161209075Y-67948966D01*
X161379097Y-67835360D01*
X161617850Y-67736466D01*
X161617851Y-67736466D01*
X161617853Y-67736465D01*
X161871307Y-67686050D01*
X162129733Y-67686050D01*
X162383187Y-67736465D01*
X162383187Y-67736465D01*
G37*
G36*
X170381647Y-67736465D02*
X170381649Y-67736466D01*
X170381650Y-67736466D01*
X170620403Y-67835360D01*
X170790425Y-67948966D01*
X170835277Y-67978935D01*
X171018005Y-68161663D01*
X171018007Y-68161666D01*
X171161580Y-68376537D01*
X171260474Y-68615290D01*
X171260475Y-68615293D01*
X171310890Y-68868747D01*
X171310890Y-69127172D01*
X171260474Y-69380630D01*
X171161580Y-69619383D01*
X171061007Y-69769900D01*
X171018005Y-69834257D01*
X170835277Y-70016985D01*
X170835274Y-70016987D01*
X170620403Y-70160560D01*
X170381650Y-70259454D01*
X170381649Y-70259454D01*
X170381647Y-70259455D01*
X170128193Y-70309870D01*
X169869767Y-70309870D01*
X169616313Y-70259455D01*
X169616311Y-70259454D01*
X169616310Y-70259454D01*
X169377557Y-70160560D01*
X169162686Y-70016987D01*
X169162683Y-70016985D01*
X168979955Y-69834257D01*
X168936953Y-69769900D01*
X168836380Y-69619383D01*
X168737486Y-69380630D01*
X168687070Y-69127172D01*
X168687070Y-68868747D01*
X168737485Y-68615293D01*
X168737486Y-68615290D01*
X168836380Y-68376537D01*
X168979953Y-68161666D01*
X168979955Y-68161663D01*
X169162683Y-67978935D01*
X169207535Y-67948966D01*
X169377557Y-67835360D01*
X169616310Y-67736466D01*
X169616311Y-67736466D01*
X169616313Y-67736465D01*
X169869767Y-67686050D01*
X170128193Y-67686050D01*
X170381647Y-67736465D01*
X170381647Y-67736465D01*
G37*
G36*
X178382647Y-67736465D02*
X178382649Y-67736466D01*
X178382650Y-67736466D01*
X178621403Y-67835360D01*
X178791425Y-67948966D01*
X178836277Y-67978935D01*
X179019005Y-68161663D01*
X179019007Y-68161666D01*
X179162580Y-68376537D01*
X179261474Y-68615290D01*
X179261475Y-68615293D01*
X179311890Y-68868747D01*
X179311890Y-69127172D01*
X179261474Y-69380630D01*
X179162580Y-69619383D01*
X179062007Y-69769900D01*
X179019005Y-69834257D01*
X178836277Y-70016985D01*
X178836274Y-70016987D01*
X178621403Y-70160560D01*
X178382650Y-70259454D01*
X178382649Y-70259454D01*
X178382647Y-70259455D01*
X178129193Y-70309870D01*
X177870767Y-70309870D01*
X177617313Y-70259455D01*
X177617311Y-70259454D01*
X177617310Y-70259454D01*
X177378557Y-70160560D01*
X177163686Y-70016987D01*
X177163683Y-70016985D01*
X176980955Y-69834257D01*
X176937953Y-69769900D01*
X176837380Y-69619383D01*
X176738486Y-69380630D01*
X176688070Y-69127172D01*
X176688070Y-68868747D01*
X176738485Y-68615293D01*
X176738486Y-68615290D01*
X176837380Y-68376537D01*
X176980953Y-68161666D01*
X176980955Y-68161663D01*
X177163683Y-67978935D01*
X177208535Y-67948966D01*
X177378557Y-67835360D01*
X177617310Y-67736466D01*
X177617311Y-67736466D01*
X177617313Y-67736465D01*
X177870767Y-67686050D01*
X178129193Y-67686050D01*
X178382647Y-67736465D01*
X178382647Y-67736465D01*
G37*
G36*
X174382147Y-67736465D02*
X174382149Y-67736466D01*
X174382150Y-67736466D01*
X174620903Y-67835360D01*
X174790925Y-67948966D01*
X174835777Y-67978935D01*
X175018505Y-68161663D01*
X175018507Y-68161666D01*
X175162080Y-68376537D01*
X175260974Y-68615290D01*
X175260975Y-68615293D01*
X175311390Y-68868747D01*
X175311390Y-69127172D01*
X175260974Y-69380630D01*
X175162080Y-69619383D01*
X175061507Y-69769900D01*
X175018505Y-69834257D01*
X174835777Y-70016985D01*
X174835774Y-70016987D01*
X174620903Y-70160560D01*
X174382150Y-70259454D01*
X174382149Y-70259454D01*
X174382147Y-70259455D01*
X174128693Y-70309870D01*
X173870267Y-70309870D01*
X173616813Y-70259455D01*
X173616811Y-70259454D01*
X173616810Y-70259454D01*
X173378057Y-70160560D01*
X173163186Y-70016987D01*
X173163183Y-70016985D01*
X172980455Y-69834257D01*
X172937453Y-69769900D01*
X172836880Y-69619383D01*
X172737986Y-69380630D01*
X172687570Y-69127172D01*
X172687570Y-68868747D01*
X172737985Y-68615293D01*
X172737986Y-68615290D01*
X172836880Y-68376537D01*
X172980453Y-68161666D01*
X172980455Y-68161663D01*
X173163183Y-67978935D01*
X173208035Y-67948966D01*
X173378057Y-67835360D01*
X173616810Y-67736466D01*
X173616811Y-67736466D01*
X173616813Y-67736465D01*
X173870267Y-67686050D01*
X174128693Y-67686050D01*
X174382147Y-67736465D01*
X174382147Y-67736465D01*
G37*
G36*
X166383687Y-67736465D02*
X166383689Y-67736466D01*
X166383690Y-67736466D01*
X166622443Y-67835360D01*
X166792465Y-67948966D01*
X166837317Y-67978935D01*
X167020045Y-68161663D01*
X167020047Y-68161666D01*
X167163620Y-68376537D01*
X167262514Y-68615290D01*
X167262515Y-68615293D01*
X167312930Y-68868747D01*
X167312930Y-69127172D01*
X167262514Y-69380630D01*
X167163620Y-69619383D01*
X167063047Y-69769900D01*
X167020045Y-69834257D01*
X166837317Y-70016985D01*
X166837314Y-70016987D01*
X166622443Y-70160560D01*
X166383690Y-70259454D01*
X166383689Y-70259454D01*
X166383687Y-70259455D01*
X166130233Y-70309870D01*
X165871807Y-70309870D01*
X165618353Y-70259455D01*
X165618351Y-70259454D01*
X165618350Y-70259454D01*
X165379597Y-70160560D01*
X165164726Y-70016987D01*
X165164723Y-70016985D01*
X164981995Y-69834257D01*
X164938993Y-69769900D01*
X164838420Y-69619383D01*
X164739526Y-69380630D01*
X164689110Y-69127172D01*
X164689110Y-68868747D01*
X164739525Y-68615293D01*
X164739526Y-68615290D01*
X164838420Y-68376537D01*
X164981993Y-68161666D01*
X164981995Y-68161663D01*
X165164723Y-67978935D01*
X165209575Y-67948966D01*
X165379597Y-67835360D01*
X165618350Y-67736466D01*
X165618351Y-67736466D01*
X165618353Y-67736465D01*
X165871807Y-67686050D01*
X166130233Y-67686050D01*
X166383687Y-67736465D01*
X166383687Y-67736465D01*
G37*
G36*
X182380607Y-67736465D02*
X182380609Y-67736466D01*
X182380610Y-67736466D01*
X182619363Y-67835360D01*
X182789385Y-67948966D01*
X182834237Y-67978935D01*
X183016965Y-68161663D01*
X183016967Y-68161666D01*
X183160540Y-68376537D01*
X183259434Y-68615290D01*
X183259435Y-68615293D01*
X183309850Y-68868747D01*
X183309850Y-69127172D01*
X183259434Y-69380630D01*
X183160540Y-69619383D01*
X183059967Y-69769900D01*
X183016965Y-69834257D01*
X182834237Y-70016985D01*
X182834234Y-70016987D01*
X182619363Y-70160560D01*
X182380610Y-70259454D01*
X182380609Y-70259454D01*
X182380607Y-70259455D01*
X182127153Y-70309870D01*
X181868727Y-70309870D01*
X181615273Y-70259455D01*
X181615271Y-70259454D01*
X181615270Y-70259454D01*
X181376517Y-70160560D01*
X181161646Y-70016987D01*
X181161643Y-70016985D01*
X180978915Y-69834257D01*
X180935913Y-69769900D01*
X180835340Y-69619383D01*
X180736446Y-69380630D01*
X180686030Y-69127172D01*
X180686030Y-68868747D01*
X180736445Y-68615293D01*
X180736446Y-68615290D01*
X180835340Y-68376537D01*
X180978913Y-68161666D01*
X180978915Y-68161663D01*
X181161643Y-67978935D01*
X181206495Y-67948966D01*
X181376517Y-67835360D01*
X181615270Y-67736466D01*
X181615271Y-67736466D01*
X181615273Y-67736465D01*
X181868727Y-67686050D01*
X182127153Y-67686050D01*
X182380607Y-67736465D01*
X182380607Y-67736465D01*
G37*
G36*
X151081000Y-69769900D02*
X150319000Y-69769900D01*
X150319000Y-68830100D01*
X151081000Y-68830100D01*
X151081000Y-69769900D01*
X151081000Y-69769900D01*
G37*
G36*
X149404600Y-69769900D02*
X148642600Y-69769900D01*
X148642600Y-68830100D01*
X149404600Y-68830100D01*
X149404600Y-69769900D01*
X149404600Y-69769900D01*
G37*
G36*
X149425201Y-67948966D02*
X148663201Y-67948966D01*
X148663201Y-67009166D01*
X149425201Y-67009166D01*
X149425201Y-67948966D01*
X149425201Y-67948966D01*
G37*
G36*
X151101601Y-67948966D02*
X150339601Y-67948966D01*
X150339601Y-67009166D01*
X151101601Y-67009166D01*
X151101601Y-67948966D01*
X151101601Y-67948966D01*
G37*
G36*
X188600000Y-67900000D02*
X185800000Y-67900000D01*
X185800000Y-66900000D01*
X188600000Y-66900000D01*
X188600000Y-67900000D01*
X188600000Y-67900000D01*
G37*
G36*
X160384207Y-63738505D02*
X160384209Y-63738506D01*
X160384210Y-63738506D01*
X160622963Y-63837400D01*
X160836864Y-63980325D01*
X160837837Y-63980975D01*
X161020565Y-64163703D01*
X161020567Y-64163706D01*
X161164140Y-64378577D01*
X161263034Y-64617330D01*
X161263035Y-64617333D01*
X161313450Y-64870787D01*
X161313450Y-65129213D01*
X161313274Y-65130100D01*
X161263034Y-65382670D01*
X161164140Y-65621423D01*
X161021215Y-65835324D01*
X161020565Y-65836297D01*
X160837837Y-66019025D01*
X160837834Y-66019027D01*
X160622963Y-66162600D01*
X160384210Y-66261494D01*
X160384209Y-66261494D01*
X160384207Y-66261495D01*
X160130753Y-66311910D01*
X159872327Y-66311910D01*
X159618873Y-66261495D01*
X159618871Y-66261494D01*
X159618870Y-66261494D01*
X159380117Y-66162600D01*
X159165246Y-66019027D01*
X159165243Y-66019025D01*
X158982515Y-65836297D01*
X158981865Y-65835324D01*
X158838940Y-65621423D01*
X158740046Y-65382670D01*
X158689807Y-65130100D01*
X158689630Y-65129213D01*
X158689630Y-64870787D01*
X158740045Y-64617333D01*
X158740046Y-64617330D01*
X158838940Y-64378577D01*
X158982513Y-64163706D01*
X158982515Y-64163703D01*
X159165243Y-63980975D01*
X159166216Y-63980325D01*
X159380117Y-63837400D01*
X159618870Y-63738506D01*
X159618871Y-63738506D01*
X159618873Y-63738505D01*
X159872327Y-63688090D01*
X160130753Y-63688090D01*
X160384207Y-63738505D01*
X160384207Y-63738505D01*
G37*
G36*
X172380627Y-63738505D02*
X172380629Y-63738506D01*
X172380630Y-63738506D01*
X172619383Y-63837400D01*
X172833284Y-63980325D01*
X172834257Y-63980975D01*
X173016985Y-64163703D01*
X173016987Y-64163706D01*
X173160560Y-64378577D01*
X173259454Y-64617330D01*
X173259455Y-64617333D01*
X173309870Y-64870787D01*
X173309870Y-65129213D01*
X173309694Y-65130100D01*
X173259454Y-65382670D01*
X173160560Y-65621423D01*
X173017635Y-65835324D01*
X173016985Y-65836297D01*
X172834257Y-66019025D01*
X172834254Y-66019027D01*
X172619383Y-66162600D01*
X172380630Y-66261494D01*
X172380629Y-66261494D01*
X172380627Y-66261495D01*
X172127173Y-66311910D01*
X171868747Y-66311910D01*
X171615293Y-66261495D01*
X171615291Y-66261494D01*
X171615290Y-66261494D01*
X171376537Y-66162600D01*
X171161666Y-66019027D01*
X171161663Y-66019025D01*
X170978935Y-65836297D01*
X170978285Y-65835324D01*
X170835360Y-65621423D01*
X170736466Y-65382670D01*
X170686227Y-65130100D01*
X170686050Y-65129213D01*
X170686050Y-64870787D01*
X170736465Y-64617333D01*
X170736466Y-64617330D01*
X170835360Y-64378577D01*
X170978933Y-64163706D01*
X170978935Y-64163703D01*
X171161663Y-63980975D01*
X171162636Y-63980325D01*
X171376537Y-63837400D01*
X171615290Y-63738506D01*
X171615291Y-63738506D01*
X171615293Y-63738505D01*
X171868747Y-63688090D01*
X172127173Y-63688090D01*
X172380627Y-63738505D01*
X172380627Y-63738505D01*
G37*
G36*
X176381127Y-63738505D02*
X176381129Y-63738506D01*
X176381130Y-63738506D01*
X176619883Y-63837400D01*
X176833784Y-63980325D01*
X176834757Y-63980975D01*
X177017485Y-64163703D01*
X177017487Y-64163706D01*
X177161060Y-64378577D01*
X177259954Y-64617330D01*
X177259955Y-64617333D01*
X177310370Y-64870787D01*
X177310370Y-65129213D01*
X177310194Y-65130100D01*
X177259954Y-65382670D01*
X177161060Y-65621423D01*
X177018135Y-65835324D01*
X177017485Y-65836297D01*
X176834757Y-66019025D01*
X176834754Y-66019027D01*
X176619883Y-66162600D01*
X176381130Y-66261494D01*
X176381129Y-66261494D01*
X176381127Y-66261495D01*
X176127673Y-66311910D01*
X175869247Y-66311910D01*
X175615793Y-66261495D01*
X175615791Y-66261494D01*
X175615790Y-66261494D01*
X175377037Y-66162600D01*
X175162166Y-66019027D01*
X175162163Y-66019025D01*
X174979435Y-65836297D01*
X174978785Y-65835324D01*
X174835860Y-65621423D01*
X174736966Y-65382670D01*
X174686727Y-65130100D01*
X174686550Y-65129213D01*
X174686550Y-64870787D01*
X174736965Y-64617333D01*
X174736966Y-64617330D01*
X174835860Y-64378577D01*
X174979433Y-64163706D01*
X174979435Y-64163703D01*
X175162163Y-63980975D01*
X175163136Y-63980325D01*
X175377037Y-63837400D01*
X175615790Y-63738506D01*
X175615791Y-63738506D01*
X175615793Y-63738505D01*
X175869247Y-63688090D01*
X176127673Y-63688090D01*
X176381127Y-63738505D01*
X176381127Y-63738505D01*
G37*
G36*
X180381627Y-63738505D02*
X180381629Y-63738506D01*
X180381630Y-63738506D01*
X180620383Y-63837400D01*
X180834284Y-63980325D01*
X180835257Y-63980975D01*
X181017985Y-64163703D01*
X181017987Y-64163706D01*
X181161560Y-64378577D01*
X181260454Y-64617330D01*
X181260455Y-64617333D01*
X181310870Y-64870787D01*
X181310870Y-65129213D01*
X181310694Y-65130100D01*
X181260454Y-65382670D01*
X181161560Y-65621423D01*
X181018635Y-65835324D01*
X181017985Y-65836297D01*
X180835257Y-66019025D01*
X180835254Y-66019027D01*
X180620383Y-66162600D01*
X180381630Y-66261494D01*
X180381629Y-66261494D01*
X180381627Y-66261495D01*
X180128173Y-66311910D01*
X179869747Y-66311910D01*
X179616293Y-66261495D01*
X179616291Y-66261494D01*
X179616290Y-66261494D01*
X179377537Y-66162600D01*
X179162666Y-66019027D01*
X179162663Y-66019025D01*
X178979935Y-65836297D01*
X178979285Y-65835324D01*
X178836360Y-65621423D01*
X178737466Y-65382670D01*
X178687227Y-65130100D01*
X178687050Y-65129213D01*
X178687050Y-64870787D01*
X178737465Y-64617333D01*
X178737466Y-64617330D01*
X178836360Y-64378577D01*
X178979933Y-64163706D01*
X178979935Y-64163703D01*
X179162663Y-63980975D01*
X179163636Y-63980325D01*
X179377537Y-63837400D01*
X179616290Y-63738506D01*
X179616291Y-63738506D01*
X179616293Y-63738505D01*
X179869747Y-63688090D01*
X180128173Y-63688090D01*
X180381627Y-63738505D01*
X180381627Y-63738505D01*
G37*
G36*
X168382667Y-63738505D02*
X168382669Y-63738506D01*
X168382670Y-63738506D01*
X168621423Y-63837400D01*
X168835324Y-63980325D01*
X168836297Y-63980975D01*
X169019025Y-64163703D01*
X169019027Y-64163706D01*
X169162600Y-64378577D01*
X169261494Y-64617330D01*
X169261495Y-64617333D01*
X169311910Y-64870787D01*
X169311910Y-65129213D01*
X169311734Y-65130100D01*
X169261494Y-65382670D01*
X169162600Y-65621423D01*
X169019675Y-65835324D01*
X169019025Y-65836297D01*
X168836297Y-66019025D01*
X168836294Y-66019027D01*
X168621423Y-66162600D01*
X168382670Y-66261494D01*
X168382669Y-66261494D01*
X168382667Y-66261495D01*
X168129213Y-66311910D01*
X167870787Y-66311910D01*
X167617333Y-66261495D01*
X167617331Y-66261494D01*
X167617330Y-66261494D01*
X167378577Y-66162600D01*
X167163706Y-66019027D01*
X167163703Y-66019025D01*
X166980975Y-65836297D01*
X166980325Y-65835324D01*
X166837400Y-65621423D01*
X166738506Y-65382670D01*
X166688267Y-65130100D01*
X166688090Y-65129213D01*
X166688090Y-64870787D01*
X166738505Y-64617333D01*
X166738506Y-64617330D01*
X166837400Y-64378577D01*
X166980973Y-64163706D01*
X166980975Y-64163703D01*
X167163703Y-63980975D01*
X167164676Y-63980325D01*
X167378577Y-63837400D01*
X167617330Y-63738506D01*
X167617331Y-63738506D01*
X167617333Y-63738505D01*
X167870787Y-63688090D01*
X168129213Y-63688090D01*
X168382667Y-63738505D01*
X168382667Y-63738505D01*
G37*
G36*
X164384707Y-63738505D02*
X164384709Y-63738506D01*
X164384710Y-63738506D01*
X164623463Y-63837400D01*
X164837364Y-63980325D01*
X164838337Y-63980975D01*
X165021065Y-64163703D01*
X165021067Y-64163706D01*
X165164640Y-64378577D01*
X165263534Y-64617330D01*
X165263535Y-64617333D01*
X165313950Y-64870787D01*
X165313950Y-65129213D01*
X165313774Y-65130100D01*
X165263534Y-65382670D01*
X165164640Y-65621423D01*
X165021715Y-65835324D01*
X165021065Y-65836297D01*
X164838337Y-66019025D01*
X164838334Y-66019027D01*
X164623463Y-66162600D01*
X164384710Y-66261494D01*
X164384709Y-66261494D01*
X164384707Y-66261495D01*
X164131253Y-66311910D01*
X163872827Y-66311910D01*
X163619373Y-66261495D01*
X163619371Y-66261494D01*
X163619370Y-66261494D01*
X163380617Y-66162600D01*
X163165746Y-66019027D01*
X163165743Y-66019025D01*
X162983015Y-65836297D01*
X162982365Y-65835324D01*
X162839440Y-65621423D01*
X162740546Y-65382670D01*
X162690307Y-65130100D01*
X162690130Y-65129213D01*
X162690130Y-64870787D01*
X162740545Y-64617333D01*
X162740546Y-64617330D01*
X162839440Y-64378577D01*
X162983013Y-64163706D01*
X162983015Y-64163703D01*
X163165743Y-63980975D01*
X163166716Y-63980325D01*
X163380617Y-63837400D01*
X163619370Y-63738506D01*
X163619371Y-63738506D01*
X163619373Y-63738505D01*
X163872827Y-63688090D01*
X164131253Y-63688090D01*
X164384707Y-63738505D01*
X164384707Y-63738505D01*
G37*
G36*
X156383707Y-63738505D02*
X156383709Y-63738506D01*
X156383710Y-63738506D01*
X156622463Y-63837400D01*
X156836364Y-63980325D01*
X156837337Y-63980975D01*
X157020065Y-64163703D01*
X157020067Y-64163706D01*
X157163640Y-64378577D01*
X157262534Y-64617330D01*
X157262535Y-64617333D01*
X157312950Y-64870787D01*
X157312950Y-65129213D01*
X157312774Y-65130100D01*
X157262534Y-65382670D01*
X157163640Y-65621423D01*
X157020715Y-65835324D01*
X157020065Y-65836297D01*
X156837337Y-66019025D01*
X156837334Y-66019027D01*
X156622463Y-66162600D01*
X156383710Y-66261494D01*
X156383709Y-66261494D01*
X156383707Y-66261495D01*
X156130253Y-66311910D01*
X155871827Y-66311910D01*
X155618373Y-66261495D01*
X155618371Y-66261494D01*
X155618370Y-66261494D01*
X155379617Y-66162600D01*
X155164746Y-66019027D01*
X155164743Y-66019025D01*
X154982015Y-65836297D01*
X154981365Y-65835324D01*
X154838440Y-65621423D01*
X154739546Y-65382670D01*
X154689307Y-65130100D01*
X154689130Y-65129213D01*
X154689130Y-64870787D01*
X154739545Y-64617333D01*
X154739546Y-64617330D01*
X154838440Y-64378577D01*
X154982013Y-64163706D01*
X154982015Y-64163703D01*
X155164743Y-63980975D01*
X155165716Y-63980325D01*
X155379617Y-63837400D01*
X155618370Y-63738506D01*
X155618371Y-63738506D01*
X155618373Y-63738505D01*
X155871827Y-63688090D01*
X156130253Y-63688090D01*
X156383707Y-63738505D01*
X156383707Y-63738505D01*
G37*
G36*
X149442800Y-66069900D02*
X148680800Y-66069900D01*
X148680800Y-65130100D01*
X149442800Y-65130100D01*
X149442800Y-66069900D01*
X149442800Y-66069900D01*
G37*
G36*
X151119200Y-66069900D02*
X150357200Y-66069900D01*
X150357200Y-65130100D01*
X151119200Y-65130100D01*
X151119200Y-66069900D01*
X151119200Y-66069900D01*
G37*
G36*
X151119200Y-64269900D02*
X150357200Y-64269900D01*
X150357200Y-63330100D01*
X151119200Y-63330100D01*
X151119200Y-64269900D01*
X151119200Y-64269900D01*
G37*
G36*
X149442800Y-64269900D02*
X148680800Y-64269900D01*
X148680800Y-63330100D01*
X149442800Y-63330100D01*
X149442800Y-64269900D01*
X149442800Y-64269900D01*
G37*
G36*
X158382687Y-59740545D02*
X158382689Y-59740546D01*
X158382690Y-59740546D01*
X158621443Y-59839440D01*
X158835344Y-59982365D01*
X158836317Y-59983015D01*
X159019045Y-60165743D01*
X159019047Y-60165746D01*
X159162620Y-60380617D01*
X159261514Y-60619370D01*
X159311930Y-60872828D01*
X159311930Y-61131252D01*
X159261514Y-61384710D01*
X159162620Y-61623463D01*
X159019695Y-61837364D01*
X159019045Y-61838337D01*
X158836317Y-62021065D01*
X158836314Y-62021067D01*
X158621443Y-62164640D01*
X158382690Y-62263534D01*
X158382689Y-62263534D01*
X158382687Y-62263535D01*
X158129233Y-62313950D01*
X157870807Y-62313950D01*
X157617353Y-62263535D01*
X157617351Y-62263534D01*
X157617350Y-62263534D01*
X157378597Y-62164640D01*
X157163726Y-62021067D01*
X157163723Y-62021065D01*
X156980995Y-61838337D01*
X156980345Y-61837364D01*
X156837420Y-61623463D01*
X156738526Y-61384710D01*
X156688110Y-61131252D01*
X156688110Y-60872828D01*
X156738526Y-60619370D01*
X156837420Y-60380617D01*
X156980993Y-60165746D01*
X156980995Y-60165743D01*
X157163723Y-59983015D01*
X157164696Y-59982365D01*
X157378597Y-59839440D01*
X157617350Y-59740546D01*
X157617351Y-59740546D01*
X157617353Y-59740545D01*
X157870807Y-59690130D01*
X158129233Y-59690130D01*
X158382687Y-59740545D01*
X158382687Y-59740545D01*
G37*
G36*
X162383187Y-59740545D02*
X162383189Y-59740546D01*
X162383190Y-59740546D01*
X162621943Y-59839440D01*
X162835844Y-59982365D01*
X162836817Y-59983015D01*
X163019545Y-60165743D01*
X163019547Y-60165746D01*
X163163120Y-60380617D01*
X163262014Y-60619370D01*
X163312430Y-60872828D01*
X163312430Y-61131252D01*
X163262014Y-61384710D01*
X163163120Y-61623463D01*
X163020195Y-61837364D01*
X163019545Y-61838337D01*
X162836817Y-62021065D01*
X162836814Y-62021067D01*
X162621943Y-62164640D01*
X162383190Y-62263534D01*
X162383189Y-62263534D01*
X162383187Y-62263535D01*
X162129733Y-62313950D01*
X161871307Y-62313950D01*
X161617853Y-62263535D01*
X161617851Y-62263534D01*
X161617850Y-62263534D01*
X161379097Y-62164640D01*
X161164226Y-62021067D01*
X161164223Y-62021065D01*
X160981495Y-61838337D01*
X160980845Y-61837364D01*
X160837920Y-61623463D01*
X160739026Y-61384710D01*
X160688610Y-61131252D01*
X160688610Y-60872828D01*
X160739026Y-60619370D01*
X160837920Y-60380617D01*
X160981493Y-60165746D01*
X160981495Y-60165743D01*
X161164223Y-59983015D01*
X161165196Y-59982365D01*
X161379097Y-59839440D01*
X161617850Y-59740546D01*
X161617851Y-59740546D01*
X161617853Y-59740545D01*
X161871307Y-59690130D01*
X162129733Y-59690130D01*
X162383187Y-59740545D01*
X162383187Y-59740545D01*
G37*
G36*
X166383687Y-59740545D02*
X166383689Y-59740546D01*
X166383690Y-59740546D01*
X166622443Y-59839440D01*
X166836344Y-59982365D01*
X166837317Y-59983015D01*
X167020045Y-60165743D01*
X167020047Y-60165746D01*
X167163620Y-60380617D01*
X167262514Y-60619370D01*
X167312930Y-60872828D01*
X167312930Y-61131252D01*
X167262514Y-61384710D01*
X167163620Y-61623463D01*
X167020695Y-61837364D01*
X167020045Y-61838337D01*
X166837317Y-62021065D01*
X166837314Y-62021067D01*
X166622443Y-62164640D01*
X166383690Y-62263534D01*
X166383689Y-62263534D01*
X166383687Y-62263535D01*
X166130233Y-62313950D01*
X165871807Y-62313950D01*
X165618353Y-62263535D01*
X165618351Y-62263534D01*
X165618350Y-62263534D01*
X165379597Y-62164640D01*
X165164726Y-62021067D01*
X165164723Y-62021065D01*
X164981995Y-61838337D01*
X164981345Y-61837364D01*
X164838420Y-61623463D01*
X164739526Y-61384710D01*
X164689110Y-61131252D01*
X164689110Y-60872828D01*
X164739526Y-60619370D01*
X164838420Y-60380617D01*
X164981993Y-60165746D01*
X164981995Y-60165743D01*
X165164723Y-59983015D01*
X165165696Y-59982365D01*
X165379597Y-59839440D01*
X165618350Y-59740546D01*
X165618351Y-59740546D01*
X165618353Y-59740545D01*
X165871807Y-59690130D01*
X166130233Y-59690130D01*
X166383687Y-59740545D01*
X166383687Y-59740545D01*
G37*
G36*
X170381647Y-59740545D02*
X170381649Y-59740546D01*
X170381650Y-59740546D01*
X170620403Y-59839440D01*
X170834304Y-59982365D01*
X170835277Y-59983015D01*
X171018005Y-60165743D01*
X171018007Y-60165746D01*
X171161580Y-60380617D01*
X171260474Y-60619370D01*
X171310890Y-60872828D01*
X171310890Y-61131252D01*
X171260474Y-61384710D01*
X171161580Y-61623463D01*
X171018655Y-61837364D01*
X171018005Y-61838337D01*
X170835277Y-62021065D01*
X170835274Y-62021067D01*
X170620403Y-62164640D01*
X170381650Y-62263534D01*
X170381649Y-62263534D01*
X170381647Y-62263535D01*
X170128193Y-62313950D01*
X169869767Y-62313950D01*
X169616313Y-62263535D01*
X169616311Y-62263534D01*
X169616310Y-62263534D01*
X169377557Y-62164640D01*
X169162686Y-62021067D01*
X169162683Y-62021065D01*
X168979955Y-61838337D01*
X168979305Y-61837364D01*
X168836380Y-61623463D01*
X168737486Y-61384710D01*
X168687070Y-61131252D01*
X168687070Y-60872828D01*
X168737486Y-60619370D01*
X168836380Y-60380617D01*
X168979953Y-60165746D01*
X168979955Y-60165743D01*
X169162683Y-59983015D01*
X169163656Y-59982365D01*
X169377557Y-59839440D01*
X169616310Y-59740546D01*
X169616311Y-59740546D01*
X169616313Y-59740545D01*
X169869767Y-59690130D01*
X170128193Y-59690130D01*
X170381647Y-59740545D01*
X170381647Y-59740545D01*
G37*
G36*
X174382147Y-59740545D02*
X174382149Y-59740546D01*
X174382150Y-59740546D01*
X174620903Y-59839440D01*
X174834804Y-59982365D01*
X174835777Y-59983015D01*
X175018505Y-60165743D01*
X175018507Y-60165746D01*
X175162080Y-60380617D01*
X175260974Y-60619370D01*
X175311390Y-60872828D01*
X175311390Y-61131252D01*
X175260974Y-61384710D01*
X175162080Y-61623463D01*
X175019155Y-61837364D01*
X175018505Y-61838337D01*
X174835777Y-62021065D01*
X174835774Y-62021067D01*
X174620903Y-62164640D01*
X174382150Y-62263534D01*
X174382149Y-62263534D01*
X174382147Y-62263535D01*
X174128693Y-62313950D01*
X173870267Y-62313950D01*
X173616813Y-62263535D01*
X173616811Y-62263534D01*
X173616810Y-62263534D01*
X173378057Y-62164640D01*
X173163186Y-62021067D01*
X173163183Y-62021065D01*
X172980455Y-61838337D01*
X172979805Y-61837364D01*
X172836880Y-61623463D01*
X172737986Y-61384710D01*
X172687570Y-61131252D01*
X172687570Y-60872828D01*
X172737986Y-60619370D01*
X172836880Y-60380617D01*
X172980453Y-60165746D01*
X172980455Y-60165743D01*
X173163183Y-59983015D01*
X173164156Y-59982365D01*
X173378057Y-59839440D01*
X173616810Y-59740546D01*
X173616811Y-59740546D01*
X173616813Y-59740545D01*
X173870267Y-59690130D01*
X174128693Y-59690130D01*
X174382147Y-59740545D01*
X174382147Y-59740545D01*
G37*
G36*
X178382647Y-59740545D02*
X178382649Y-59740546D01*
X178382650Y-59740546D01*
X178621403Y-59839440D01*
X178835304Y-59982365D01*
X178836277Y-59983015D01*
X179019005Y-60165743D01*
X179019007Y-60165746D01*
X179162580Y-60380617D01*
X179261474Y-60619370D01*
X179311890Y-60872828D01*
X179311890Y-61131252D01*
X179261474Y-61384710D01*
X179162580Y-61623463D01*
X179019655Y-61837364D01*
X179019005Y-61838337D01*
X178836277Y-62021065D01*
X178836274Y-62021067D01*
X178621403Y-62164640D01*
X178382650Y-62263534D01*
X178382649Y-62263534D01*
X178382647Y-62263535D01*
X178129193Y-62313950D01*
X177870767Y-62313950D01*
X177617313Y-62263535D01*
X177617311Y-62263534D01*
X177617310Y-62263534D01*
X177378557Y-62164640D01*
X177163686Y-62021067D01*
X177163683Y-62021065D01*
X176980955Y-61838337D01*
X176980305Y-61837364D01*
X176837380Y-61623463D01*
X176738486Y-61384710D01*
X176688070Y-61131252D01*
X176688070Y-60872828D01*
X176738486Y-60619370D01*
X176837380Y-60380617D01*
X176980953Y-60165746D01*
X176980955Y-60165743D01*
X177163683Y-59983015D01*
X177164656Y-59982365D01*
X177378557Y-59839440D01*
X177617310Y-59740546D01*
X177617311Y-59740546D01*
X177617313Y-59740545D01*
X177870767Y-59690130D01*
X178129193Y-59690130D01*
X178382647Y-59740545D01*
X178382647Y-59740545D01*
G37*
G36*
X182380607Y-59740545D02*
X182380609Y-59740546D01*
X182380610Y-59740546D01*
X182619363Y-59839440D01*
X182833264Y-59982365D01*
X182834237Y-59983015D01*
X183016965Y-60165743D01*
X183016967Y-60165746D01*
X183160540Y-60380617D01*
X183259434Y-60619370D01*
X183309850Y-60872828D01*
X183309850Y-61131252D01*
X183259434Y-61384710D01*
X183160540Y-61623463D01*
X183017615Y-61837364D01*
X183016965Y-61838337D01*
X182834237Y-62021065D01*
X182834234Y-62021067D01*
X182619363Y-62164640D01*
X182380610Y-62263534D01*
X182380609Y-62263534D01*
X182380607Y-62263535D01*
X182127153Y-62313950D01*
X181868727Y-62313950D01*
X181615273Y-62263535D01*
X181615271Y-62263534D01*
X181615270Y-62263534D01*
X181376517Y-62164640D01*
X181161646Y-62021067D01*
X181161643Y-62021065D01*
X180978915Y-61838337D01*
X180978265Y-61837364D01*
X180835340Y-61623463D01*
X180736446Y-61384710D01*
X180686030Y-61131252D01*
X180686030Y-60872828D01*
X180736446Y-60619370D01*
X180835340Y-60380617D01*
X180978913Y-60165746D01*
X180978915Y-60165743D01*
X181161643Y-59983015D01*
X181162616Y-59982365D01*
X181376517Y-59839440D01*
X181615270Y-59740546D01*
X181615271Y-59740546D01*
X181615273Y-59740545D01*
X181868727Y-59690130D01*
X182127153Y-59690130D01*
X182380607Y-59740545D01*
X182380607Y-59740545D01*
G37*
G36*
X155313970Y-62313950D02*
X152690150Y-62313950D01*
X152690150Y-59690130D01*
X155313970Y-59690130D01*
X155313970Y-62313950D01*
X155313970Y-62313950D01*
G37*
G36*
X166949960Y-58697710D02*
X165050040Y-58697710D01*
X165050040Y-57699490D01*
X166949960Y-57699490D01*
X166949960Y-58697710D01*
X166949960Y-58697710D01*
G37*
G36*
X178569900Y-58619200D02*
X177630100Y-58619200D01*
X177630100Y-57857200D01*
X178569900Y-57857200D01*
X178569900Y-58619200D01*
X178569900Y-58619200D01*
G37*
G36*
X174469900Y-58619200D02*
X173530100Y-58619200D01*
X173530100Y-57857200D01*
X174469900Y-57857200D01*
X174469900Y-58619200D01*
X174469900Y-58619200D01*
G37*
G36*
X182469900Y-58607400D02*
X181530100Y-58607400D01*
X181530100Y-57845400D01*
X182469900Y-57845400D01*
X182469900Y-58607400D01*
X182469900Y-58607400D01*
G37*
G36*
X158469900Y-58519200D02*
X157530100Y-58519200D01*
X157530100Y-57757200D01*
X158469900Y-57757200D01*
X158469900Y-58519200D01*
X158469900Y-58519200D01*
G37*
G36*
X154469900Y-58519200D02*
X153530100Y-58519200D01*
X153530100Y-57757200D01*
X154469900Y-57757200D01*
X154469900Y-58519200D01*
X154469900Y-58519200D01*
G37*
G36*
X162469900Y-58519200D02*
X161530100Y-58519200D01*
X161530100Y-57757200D01*
X162469900Y-57757200D01*
X162469900Y-58519200D01*
X162469900Y-58519200D01*
G37*
G36*
X170469900Y-58519200D02*
X169530100Y-58519200D01*
X169530100Y-57757200D01*
X170469900Y-57757200D01*
X170469900Y-58519200D01*
X170469900Y-58519200D01*
G37*
G36*
X178569900Y-56942800D02*
X177630100Y-56942800D01*
X177630100Y-56180800D01*
X178569900Y-56180800D01*
X178569900Y-56942800D01*
X178569900Y-56942800D01*
G37*
G36*
X174469900Y-56942800D02*
X173530100Y-56942800D01*
X173530100Y-56180800D01*
X174469900Y-56180800D01*
X174469900Y-56942800D01*
X174469900Y-56942800D01*
G37*
G36*
X182469900Y-56931000D02*
X181530100Y-56931000D01*
X181530100Y-56169000D01*
X182469900Y-56169000D01*
X182469900Y-56931000D01*
X182469900Y-56931000D01*
G37*
G36*
X162469900Y-56842800D02*
X161530100Y-56842800D01*
X161530100Y-56080800D01*
X162469900Y-56080800D01*
X162469900Y-56842800D01*
X162469900Y-56842800D01*
G37*
G36*
X158469900Y-56842800D02*
X157530100Y-56842800D01*
X157530100Y-56080800D01*
X158469900Y-56080800D01*
X158469900Y-56842800D01*
X158469900Y-56842800D01*
G37*
G36*
X154469900Y-56842800D02*
X153530100Y-56842800D01*
X153530100Y-56080800D01*
X154469900Y-56080800D01*
X154469900Y-56842800D01*
X154469900Y-56842800D01*
G37*
G36*
X170469900Y-56842800D02*
X169530100Y-56842800D01*
X169530100Y-56080800D01*
X170469900Y-56080800D01*
X170469900Y-56842800D01*
X170469900Y-56842800D01*
G37*
G36*
X192039105Y-52741016D02*
X192135696Y-52760229D01*
X192248759Y-52807062D01*
X192408654Y-52873292D01*
X192654314Y-53037437D01*
X192863223Y-53246346D01*
X193027368Y-53492006D01*
X193140431Y-53764965D01*
X193198070Y-54054734D01*
X193198070Y-54350186D01*
X193140431Y-54639955D01*
X193027368Y-54912914D01*
X192863223Y-55158574D01*
X192654314Y-55367483D01*
X192408654Y-55531628D01*
X192248759Y-55597858D01*
X192135696Y-55644691D01*
X192039105Y-55663904D01*
X191845926Y-55702330D01*
X191550474Y-55702330D01*
X191357295Y-55663904D01*
X191260704Y-55644691D01*
X191147641Y-55597858D01*
X190987746Y-55531628D01*
X190742086Y-55367483D01*
X190533177Y-55158574D01*
X190369032Y-54912914D01*
X190255969Y-54639955D01*
X190198330Y-54350186D01*
X190198330Y-54054734D01*
X190255969Y-53764965D01*
X190369032Y-53492006D01*
X190533177Y-53246346D01*
X190742086Y-53037437D01*
X190987746Y-52873292D01*
X191147641Y-52807062D01*
X191260704Y-52760229D01*
X191357295Y-52741016D01*
X191550474Y-52702590D01*
X191845926Y-52702590D01*
X192039105Y-52741016D01*
X192039105Y-52741016D01*
G37*
G36*
X144642705Y-52741016D02*
X144739296Y-52760229D01*
X144852359Y-52807062D01*
X145012254Y-52873292D01*
X145257914Y-53037437D01*
X145466823Y-53246346D01*
X145630968Y-53492006D01*
X145744031Y-53764965D01*
X145801670Y-54054734D01*
X145801670Y-54350186D01*
X145744031Y-54639955D01*
X145630968Y-54912914D01*
X145466823Y-55158574D01*
X145257914Y-55367483D01*
X145012254Y-55531628D01*
X144852359Y-55597858D01*
X144739296Y-55644691D01*
X144642705Y-55663904D01*
X144449526Y-55702330D01*
X144154074Y-55702330D01*
X143960895Y-55663904D01*
X143864304Y-55644691D01*
X143751241Y-55597858D01*
X143591346Y-55531628D01*
X143345686Y-55367483D01*
X143136777Y-55158574D01*
X142972632Y-54912914D01*
X142859569Y-54639955D01*
X142801930Y-54350186D01*
X142801930Y-54054734D01*
X142859569Y-53764965D01*
X142972632Y-53492006D01*
X143136777Y-53246346D01*
X143345686Y-53037437D01*
X143591346Y-52873292D01*
X143751241Y-52807062D01*
X143864304Y-52760229D01*
X143960895Y-52741016D01*
X144154074Y-52702590D01*
X144449526Y-52702590D01*
X144642705Y-52741016D01*
X144642705Y-52741016D01*
G37*
G36*
X166949960Y-55700510D02*
X165050040Y-55700510D01*
X165050040Y-54702290D01*
X166949960Y-54702290D01*
X166949960Y-55700510D01*
X166949960Y-55700510D01*
G37*
M02*
