G04 #@! TF.GenerationSoftware,KiCad,Pcbnew,(2017-01-11 revision e99b79cb2)-master*
G04 #@! TF.CreationDate,2017-11-18T14:04:46+02:00*
G04 #@! TF.ProjectId,fsb,6673622E6B696361645F706362000000,rev?*
G04 #@! TF.FileFunction,Copper,L2,Bot,Signal*
G04 #@! TF.FilePolarity,Positive*
%FSLAX46Y46*%
G04 Gerber Fmt 4.6, Leading zero omitted, Abs format (unit mm)*
G04 Created by KiCad (PCBNEW (2017-01-11 revision e99b79cb2)-master) date Sat Nov 18 14:04:46 2017*
%MOMM*%
%LPD*%
G01*
G04 APERTURE LIST*
%ADD10C,0.100000*%
%ADD11R,2.623820X2.623820*%
%ADD12C,2.623820*%
%ADD13C,2.999740*%
%ADD14C,0.800000*%
%ADD15C,0.200000*%
%ADD16C,0.900000*%
%ADD17C,0.500000*%
G04 APERTURE END LIST*
D10*
D11*
X164002040Y-119002040D03*
D12*
X168000000Y-119002040D03*
X171997960Y-119002040D03*
X166001020Y-123000000D03*
X169998980Y-123000000D03*
X164002040Y-126997960D03*
X168000000Y-126997960D03*
X171997960Y-126997960D03*
D13*
X154301780Y-112202460D03*
X181698220Y-112202460D03*
X183199360Y-130299960D03*
X152800640Y-130299960D03*
D11*
X154002060Y-61002040D03*
D12*
X158000020Y-61002040D03*
X162000520Y-61002040D03*
X166001020Y-61002040D03*
X169998980Y-61002040D03*
X173999480Y-61002040D03*
X177999980Y-61002040D03*
X181997940Y-61002040D03*
X156001040Y-65000000D03*
X160001540Y-65000000D03*
X164002040Y-65000000D03*
X168000000Y-65000000D03*
X171997960Y-65000000D03*
X175998460Y-65000000D03*
X179998960Y-65000000D03*
X154002060Y-68997960D03*
X158000020Y-68997960D03*
X162000520Y-68997960D03*
X166001020Y-68997960D03*
X169998980Y-68997960D03*
X173999480Y-68997960D03*
X177999980Y-68997960D03*
X181997940Y-68997960D03*
D13*
X144301800Y-54202460D03*
X191698200Y-54202460D03*
X142800660Y-72299960D03*
X193199340Y-72299960D03*
D14*
X135150000Y-122500000D03*
X126200000Y-130850000D03*
X138700000Y-121400000D03*
X137400000Y-118000000D03*
X119950000Y-86550000D03*
X122300000Y-86900000D03*
X120300000Y-66700000D03*
X122750000Y-69450000D03*
X130750000Y-76550000D03*
X127550000Y-82950000D03*
X131150000Y-92050000D03*
X127950000Y-93900000D03*
X137450000Y-103550000D03*
X139600000Y-101100000D03*
X147400000Y-93300000D03*
X151450000Y-89100000D03*
X186300000Y-102900000D03*
X186300000Y-98850000D03*
X200550000Y-98550000D03*
X206900000Y-98250000D03*
X213550000Y-97400000D03*
X213750000Y-101800000D03*
X206600000Y-113350000D03*
X206550000Y-102350000D03*
X201100000Y-102000000D03*
X201100000Y-111050000D03*
X194400000Y-119250000D03*
X197450000Y-137400000D03*
X170350000Y-129000000D03*
X167050000Y-131450000D03*
X155900000Y-130300000D03*
X154549990Y-93819660D03*
X138321113Y-64050010D03*
X181950000Y-83900000D03*
X167400000Y-98800000D03*
X159250000Y-98850000D03*
X161950000Y-94000000D03*
X173850000Y-83950000D03*
X134000000Y-67300000D03*
X140250000Y-66500000D03*
X134900000Y-63900000D03*
X130500000Y-60900000D03*
X130300000Y-57400000D03*
X214000000Y-115400000D03*
X199400000Y-121900000D03*
X208100000Y-124800000D03*
X203200000Y-128700000D03*
X217000000Y-132700000D03*
X216400000Y-122900000D03*
X211900000Y-137200000D03*
X182900000Y-137400000D03*
X126605018Y-102994982D03*
X119200000Y-114900000D03*
X119300000Y-120300000D03*
X119800000Y-131100000D03*
X121000000Y-122000000D03*
X124300000Y-135500000D03*
X133800000Y-132300000D03*
X180000000Y-131100000D03*
X179000000Y-136400000D03*
X156700000Y-136400000D03*
X146800000Y-134700000D03*
X144200000Y-134800000D03*
X133000000Y-54199998D03*
X138100000Y-54800000D03*
X121900000Y-63600000D03*
X127500000Y-64500000D03*
X133900000Y-69500000D03*
X125500000Y-50700000D03*
X125700000Y-119300000D03*
X126400000Y-125400000D03*
X121905018Y-101694982D03*
X125400000Y-110300000D03*
X128300000Y-114900000D03*
X121900000Y-114000000D03*
X215200000Y-67000000D03*
X214650000Y-56900000D03*
X203250000Y-51500000D03*
X197150000Y-61100000D03*
X184700000Y-60800000D03*
X188450000Y-51300000D03*
X169950000Y-51900000D03*
X163650000Y-50300000D03*
X146750000Y-52100000D03*
X151950000Y-56900000D03*
X143350000Y-58500000D03*
X144350000Y-63400000D03*
X139600000Y-70000000D03*
X136800000Y-76350000D03*
X146700000Y-86250000D03*
X149550000Y-74000000D03*
X152300000Y-75550000D03*
X158150000Y-71600000D03*
X158150000Y-78050000D03*
X154600000Y-86550000D03*
X159150000Y-84850000D03*
X164200000Y-83650000D03*
X163400000Y-81250000D03*
X163600000Y-78750000D03*
X163400000Y-72300000D03*
X167050000Y-71700000D03*
X176800000Y-74000000D03*
X186750000Y-68150000D03*
X198100000Y-68150000D03*
X201000000Y-65300000D03*
X214200000Y-71650000D03*
X214200000Y-80900000D03*
X206200000Y-83800000D03*
X202500000Y-83800000D03*
X195050000Y-87650000D03*
X186450000Y-89050000D03*
X169000000Y-88050000D03*
X166200000Y-53100000D03*
X182000000Y-100500000D03*
X145655017Y-125344983D03*
X196100000Y-120750000D03*
X146499990Y-126248701D03*
X197500000Y-120850000D03*
X154500000Y-96461800D03*
X146650000Y-91800000D03*
X146968695Y-90373024D03*
X156100000Y-96461800D03*
X175119201Y-85695802D03*
X151850000Y-82600000D03*
X152484224Y-81799990D03*
X172761800Y-85500000D03*
X148837999Y-90578514D03*
X159300000Y-96461800D03*
X147866148Y-90814161D03*
X157700000Y-96461800D03*
X155338756Y-79699990D03*
X183650000Y-83400000D03*
X183084702Y-85716316D03*
X191400000Y-85800000D03*
X154650000Y-80500000D03*
X180803118Y-85750000D03*
X189100000Y-85850000D03*
X149750000Y-89450000D03*
X165800000Y-96461800D03*
X148650000Y-89400000D03*
X164200000Y-96461800D03*
D15*
X135150000Y-122500000D02*
X133800000Y-123850000D01*
X133800000Y-123850000D02*
X133800000Y-132300000D01*
X135150000Y-122500000D02*
X136800000Y-122500000D01*
X136800000Y-122500000D02*
X137900000Y-121400000D01*
X137900000Y-121400000D02*
X138700000Y-121400000D01*
X132300000Y-130800000D02*
X133800000Y-132300000D01*
X126200000Y-130850000D02*
X126250000Y-130800000D01*
X126250000Y-130800000D02*
X132300000Y-130800000D01*
X137400000Y-118000000D02*
X138700000Y-119300000D01*
X138700000Y-119300000D02*
X138700000Y-121400000D01*
X137450000Y-103550000D02*
X137450000Y-117950000D01*
X137450000Y-117950000D02*
X137400000Y-118000000D01*
X119950000Y-86550000D02*
X136950000Y-103550000D01*
X136950000Y-103550000D02*
X137450000Y-103550000D01*
X122300000Y-86900000D02*
X120300000Y-86900000D01*
X120300000Y-86900000D02*
X119950000Y-86550000D01*
X120300000Y-66700000D02*
X120300000Y-84900000D01*
X120300000Y-84900000D02*
X122300000Y-86900000D01*
X122750000Y-69450000D02*
X120300000Y-67000000D01*
X120300000Y-67000000D02*
X120300000Y-66700000D01*
X130750000Y-76550000D02*
X123650000Y-69450000D01*
X123650000Y-69450000D02*
X122750000Y-69450000D01*
X127550000Y-82950000D02*
X127550000Y-79750000D01*
X127550000Y-79750000D02*
X130750000Y-76550000D01*
X131150000Y-92050000D02*
X127550000Y-88450000D01*
X127550000Y-88450000D02*
X127550000Y-82950000D01*
X127950000Y-93900000D02*
X129300000Y-93900000D01*
X129300000Y-93900000D02*
X131150000Y-92050000D01*
X137450000Y-103550000D02*
X127950000Y-94050000D01*
X127950000Y-94050000D02*
X127950000Y-93900000D01*
X139600000Y-101100000D02*
X137450000Y-103250000D01*
X137450000Y-103250000D02*
X137450000Y-103550000D01*
X147400000Y-93300000D02*
X139600000Y-101100000D01*
X175200000Y-113500000D02*
X175200000Y-94250000D01*
X175200000Y-113500000D02*
X173502040Y-113500000D01*
X173502040Y-113500000D02*
X168000000Y-119002040D01*
X186300000Y-104550000D02*
X177350000Y-113500000D01*
X177350000Y-113500000D02*
X175200000Y-113500000D01*
X186300000Y-102900000D02*
X186300000Y-104550000D01*
X200550000Y-98550000D02*
X186600000Y-98550000D01*
X186600000Y-98550000D02*
X186300000Y-98850000D01*
X206900000Y-98250000D02*
X200850000Y-98250000D01*
X200850000Y-98250000D02*
X200550000Y-98550000D01*
X213550000Y-97400000D02*
X212700000Y-98250000D01*
X212700000Y-98250000D02*
X206900000Y-98250000D01*
X206600000Y-113350000D02*
X213750000Y-106200000D01*
X213750000Y-106200000D02*
X213750000Y-101800000D01*
X206550000Y-102350000D02*
X206550000Y-113300000D01*
X206550000Y-113300000D02*
X206600000Y-113350000D01*
X201100000Y-102000000D02*
X206200000Y-102000000D01*
X206200000Y-102000000D02*
X206550000Y-102350000D01*
X201100000Y-111050000D02*
X201100000Y-102000000D01*
X194400000Y-119250000D02*
X194400000Y-117750000D01*
X194400000Y-117750000D02*
X201100000Y-111050000D01*
X199400000Y-120450000D02*
X198200000Y-119250000D01*
X198200000Y-119250000D02*
X194400000Y-119250000D01*
X199400000Y-121900000D02*
X199400000Y-120450000D01*
X182900000Y-137400000D02*
X197450000Y-137400000D01*
X197450000Y-137400000D02*
X211700000Y-137400000D01*
X175250000Y-133900000D02*
X193950000Y-133900000D01*
X193950000Y-133900000D02*
X197450000Y-137400000D01*
X170350000Y-129000000D02*
X175250000Y-133900000D01*
X167050000Y-131450000D02*
X167900000Y-131450000D01*
X167900000Y-131450000D02*
X170350000Y-129000000D01*
X155900000Y-130300000D02*
X157050000Y-131450000D01*
X157050000Y-131450000D02*
X167050000Y-131450000D01*
X141800000Y-136900000D02*
X149300000Y-136900000D01*
X149300000Y-136900000D02*
X155900000Y-130300000D01*
X209400000Y-110800000D02*
X209400000Y-105665685D01*
X214000000Y-115400000D02*
X209400000Y-110800000D01*
X199400000Y-121900000D02*
X205900000Y-115400000D01*
X205900000Y-115400000D02*
X214000000Y-115400000D01*
X208100000Y-124800000D02*
X202300000Y-124800000D01*
X202300000Y-124800000D02*
X199400000Y-121900000D01*
X203200000Y-128700000D02*
X207100000Y-124800000D01*
X207100000Y-124800000D02*
X208100000Y-124800000D01*
X216400000Y-122900000D02*
X209000000Y-122900000D01*
X209000000Y-122900000D02*
X203200000Y-128700000D01*
X216400000Y-122900000D02*
X216400000Y-132100000D01*
X216600001Y-133099999D02*
X217000000Y-132700000D01*
X212500000Y-137200000D02*
X216600001Y-133099999D01*
X216400000Y-132100000D02*
X216600001Y-132300001D01*
X211900000Y-137200000D02*
X212500000Y-137200000D01*
X216600001Y-132300001D02*
X217000000Y-132700000D01*
X211700000Y-137400000D02*
X211900000Y-137200000D01*
X119200000Y-114900000D02*
X120100000Y-114000000D01*
X125700000Y-119300000D02*
X120300000Y-119300000D01*
X120300000Y-119300000D02*
X119300000Y-120300000D01*
X119800000Y-131100000D02*
X124200000Y-135500000D01*
X124200000Y-135500000D02*
X124300000Y-135500000D01*
X124300000Y-135500000D02*
X121000000Y-132200000D01*
X121000000Y-132200000D02*
X121000000Y-122000000D01*
X139400000Y-134700000D02*
X136200000Y-134700000D01*
X136200000Y-134700000D02*
X133800000Y-132300000D01*
X165900000Y-128800000D02*
X160000000Y-134700000D01*
X160000000Y-134700000D02*
X146800000Y-134700000D01*
X169900000Y-129100000D02*
X166200000Y-129100000D01*
X166200000Y-129100000D02*
X165900000Y-128800000D01*
X178300000Y-132800000D02*
X173600000Y-132800000D01*
X173600000Y-132800000D02*
X169900000Y-129100000D01*
X180000000Y-131100000D02*
X178300000Y-132800000D01*
X156700000Y-136400000D02*
X179000000Y-136400000D01*
X144200000Y-134800000D02*
X146700000Y-134800000D01*
X146700000Y-134800000D02*
X146800000Y-134700000D01*
X125400000Y-105189964D02*
X122305017Y-102094981D01*
X125400000Y-110300000D02*
X125400000Y-105189964D01*
X124000000Y-99600000D02*
X122305017Y-101294983D01*
X122305017Y-102094981D02*
X121905018Y-101694982D01*
X122305017Y-101294983D02*
X121905018Y-101694982D01*
X128300000Y-114900000D02*
X125400000Y-112000000D01*
X125400000Y-112000000D02*
X125400000Y-110300000D01*
X121900000Y-114000000D02*
X127400000Y-114000000D01*
X127400000Y-114000000D02*
X128300000Y-114900000D01*
X120100000Y-114000000D02*
X121900000Y-114000000D01*
X169000000Y-88050000D02*
X152500000Y-88050000D01*
X152500000Y-88050000D02*
X151450000Y-89100000D01*
X215200000Y-67000000D02*
X215200000Y-70650000D01*
X215200000Y-70650000D02*
X214200000Y-71650000D01*
X214650000Y-56900000D02*
X215200000Y-57450000D01*
X215200000Y-57450000D02*
X215200000Y-67000000D01*
X203250000Y-51500000D02*
X209250000Y-51500000D01*
X209250000Y-51500000D02*
X214650000Y-56900000D01*
X197150000Y-61100000D02*
X203250000Y-55000000D01*
X203250000Y-55000000D02*
X203250000Y-51500000D01*
X184700000Y-60800000D02*
X196850000Y-60800000D01*
X196850000Y-60800000D02*
X197150000Y-61100000D01*
X188450000Y-51300000D02*
X188450000Y-57050000D01*
X188450000Y-57050000D02*
X184700000Y-60800000D01*
X169950000Y-51900000D02*
X170550000Y-51300000D01*
X170550000Y-51300000D02*
X188450000Y-51300000D01*
X146750000Y-52100000D02*
X161850000Y-52100000D01*
X161850000Y-52100000D02*
X163650000Y-50300000D01*
X151950000Y-56900000D02*
X147150000Y-52100000D01*
X147150000Y-52100000D02*
X146750000Y-52100000D01*
X143350000Y-58500000D02*
X144950000Y-56900000D01*
X144950000Y-56900000D02*
X151950000Y-56900000D01*
X144350000Y-63400000D02*
X144350000Y-59500000D01*
X144350000Y-59500000D02*
X143350000Y-58500000D01*
X139600000Y-70000000D02*
X144350000Y-65250000D01*
X144350000Y-65250000D02*
X144350000Y-63400000D01*
X136800000Y-76350000D02*
X136800000Y-72800000D01*
X136800000Y-72800000D02*
X139600000Y-70000000D01*
X146700000Y-86250000D02*
X136800000Y-76350000D01*
X149550000Y-74000000D02*
X149550000Y-83400000D01*
X149550000Y-83400000D02*
X146700000Y-86250000D01*
X152300000Y-75550000D02*
X150750000Y-74000000D01*
X150750000Y-74000000D02*
X149550000Y-74000000D01*
X158150000Y-71600000D02*
X156250000Y-71600000D01*
X156250000Y-71600000D02*
X152300000Y-75550000D01*
X158150000Y-78050000D02*
X158150000Y-71600000D01*
X159150000Y-84850000D02*
X157450000Y-86550000D01*
X157450000Y-86550000D02*
X154600000Y-86550000D01*
X164200000Y-83650000D02*
X160350000Y-83650000D01*
X160350000Y-83650000D02*
X159150000Y-84850000D01*
X163400000Y-72300000D02*
X163400000Y-78550000D01*
X163400000Y-78550000D02*
X163600000Y-78750000D01*
X167050000Y-71700000D02*
X166450000Y-72300000D01*
X166450000Y-72300000D02*
X163400000Y-72300000D01*
X176800000Y-74000000D02*
X169350000Y-74000000D01*
X169350000Y-74000000D02*
X167050000Y-71700000D01*
X186750000Y-70700000D02*
X183450000Y-74000000D01*
X183450000Y-74000000D02*
X176800000Y-74000000D01*
X186750000Y-68150000D02*
X186750000Y-70700000D01*
X198100000Y-68150000D02*
X186750000Y-68150000D01*
X201000000Y-65300000D02*
X198150000Y-68150000D01*
X198150000Y-68150000D02*
X198100000Y-68150000D01*
X214200000Y-71650000D02*
X207350000Y-71650000D01*
X207350000Y-71650000D02*
X201000000Y-65300000D01*
X214200000Y-80900000D02*
X214200000Y-71650000D01*
X206200000Y-83800000D02*
X211300000Y-83800000D01*
X211300000Y-83800000D02*
X214200000Y-80900000D01*
X202500000Y-83800000D02*
X206200000Y-83800000D01*
X195050000Y-87650000D02*
X198900000Y-83800000D01*
X198900000Y-83800000D02*
X202500000Y-83800000D01*
X186450000Y-89050000D02*
X193650000Y-89050000D01*
X193650000Y-89050000D02*
X195050000Y-87650000D01*
X169000000Y-88050000D02*
X170000000Y-89050000D01*
X170000000Y-89050000D02*
X186450000Y-89050000D01*
X175200000Y-94250000D02*
X169000000Y-88050000D01*
D16*
X182000000Y-100500000D02*
X213600000Y-100500000D01*
X216700000Y-97400000D02*
X216700000Y-56950000D01*
X213600000Y-100500000D02*
X216700000Y-97400000D01*
X216700000Y-56950000D02*
X209750000Y-50000000D01*
X209750000Y-50000000D02*
X169300000Y-50000000D01*
X169300000Y-50000000D02*
X166599999Y-52700001D01*
X166599999Y-52700001D02*
X166200000Y-53100000D01*
D17*
X146055016Y-124944984D02*
X145655017Y-125344983D01*
X148000000Y-123000000D02*
X146055016Y-124944984D01*
X166001020Y-123000000D02*
X148000000Y-123000000D01*
X167951020Y-121050000D02*
X195800000Y-121050000D01*
X195800000Y-121050000D02*
X196100000Y-120750000D01*
X166001020Y-123000000D02*
X167951020Y-121050000D01*
X147748691Y-125000000D02*
X146899989Y-125848702D01*
X169998980Y-123000000D02*
X167998980Y-125000000D01*
X146899989Y-125848702D02*
X146499990Y-126248701D01*
X167998980Y-125000000D02*
X147748691Y-125000000D01*
X169998980Y-123000000D02*
X195350000Y-123000000D01*
X195350000Y-123000000D02*
X197500000Y-120850000D01*
D15*
X146650000Y-91800000D02*
X147100055Y-92250055D01*
X147100055Y-92250055D02*
X154900055Y-92250055D01*
X154900055Y-92250055D02*
X155650000Y-93000000D01*
X155650000Y-93000000D02*
X155650000Y-94730800D01*
X155650000Y-94730800D02*
X154500000Y-95880800D01*
X154500000Y-95880800D02*
X154500000Y-96461800D01*
X146968695Y-90938709D02*
X146968695Y-90373024D01*
X155065744Y-91850044D02*
X147880030Y-91850044D01*
X156100000Y-92884300D02*
X155065744Y-91850044D01*
X156100000Y-96461800D02*
X156100000Y-92884300D01*
X147880030Y-91850044D02*
X146968695Y-90938709D01*
X151950000Y-82500000D02*
X168550000Y-82500000D01*
X172450000Y-86400000D02*
X174415003Y-86400000D01*
X151850000Y-82600000D02*
X151950000Y-82500000D01*
X168550000Y-82500000D02*
X172450000Y-86400000D01*
X174415003Y-86400000D02*
X174719202Y-86095801D01*
X174719202Y-86095801D02*
X175119201Y-85695802D01*
X172761800Y-85500000D02*
X172150000Y-85500000D01*
X168749989Y-82099989D02*
X153349908Y-82099989D01*
X172150000Y-85500000D02*
X168749989Y-82099989D01*
X153349908Y-82099989D02*
X153049909Y-81799990D01*
X153049909Y-81799990D02*
X152484224Y-81799990D01*
X159300000Y-96461800D02*
X157000000Y-94161800D01*
X157000000Y-94161800D02*
X157000000Y-92652900D01*
X157000000Y-92652900D02*
X155397122Y-91050022D01*
X155397122Y-91050022D02*
X149309507Y-91050022D01*
X149309507Y-91050022D02*
X149237998Y-90978513D01*
X149237998Y-90978513D02*
X148837999Y-90578514D01*
X157700000Y-96461800D02*
X156550000Y-95311800D01*
X156550000Y-95311800D02*
X156550000Y-92768600D01*
X156550000Y-92768600D02*
X155231433Y-91450033D01*
X155231433Y-91450033D02*
X148502020Y-91450033D01*
X148502020Y-91450033D02*
X148266147Y-91214160D01*
X148266147Y-91214160D02*
X147866148Y-90814161D01*
X156254451Y-80050000D02*
X155904441Y-79699990D01*
X180300000Y-80050000D02*
X156254451Y-80050000D01*
X183650000Y-83400000D02*
X180300000Y-80050000D01*
X155904441Y-79699990D02*
X155338756Y-79699990D01*
X189950000Y-85550000D02*
X190050000Y-85650000D01*
X189499999Y-85099999D02*
X189950000Y-85550000D01*
X190200000Y-85800000D02*
X191400000Y-85800000D01*
X189950000Y-85550000D02*
X190200000Y-85800000D01*
X188650001Y-85099999D02*
X189499999Y-85099999D01*
X183084702Y-85716316D02*
X188033684Y-85716316D01*
X188033684Y-85716316D02*
X188650001Y-85099999D01*
X155215685Y-80500000D02*
X154650000Y-80500000D01*
X175553118Y-80500000D02*
X155215685Y-80500000D01*
X180803118Y-85750000D02*
X175553118Y-80500000D01*
X182716317Y-86466317D02*
X188483683Y-86466317D01*
X188483683Y-86466317D02*
X189100000Y-85850000D01*
X180803118Y-85750000D02*
X182000000Y-85750000D01*
X182000000Y-85750000D02*
X182716317Y-86466317D01*
X165800000Y-96461800D02*
X164650000Y-95311800D01*
X164650000Y-95311800D02*
X164650000Y-92800000D01*
X150150000Y-90250000D02*
X149750000Y-89850000D01*
X149750000Y-89850000D02*
X149750000Y-89450000D01*
X164650000Y-92800000D02*
X162100000Y-90250000D01*
X162100000Y-90250000D02*
X150150000Y-90250000D01*
X164200000Y-96461800D02*
X164200000Y-92950000D01*
X164200000Y-92950000D02*
X161900011Y-90650011D01*
X149900011Y-90650011D02*
X149049999Y-89799999D01*
X161900011Y-90650011D02*
X149900011Y-90650011D01*
X149049999Y-89799999D02*
X148650000Y-89400000D01*
G36*
X165528249Y-52428249D02*
X165322314Y-52736450D01*
X165250001Y-53100000D01*
X165322314Y-53463550D01*
X165528249Y-53771751D01*
X165836450Y-53977686D01*
X166200000Y-54049999D01*
X166563550Y-53977686D01*
X166871751Y-53771751D01*
X169693502Y-50950000D01*
X209356498Y-50950000D01*
X215750000Y-57343503D01*
X215750000Y-97006498D01*
X213206498Y-99550000D01*
X182000000Y-99550000D01*
X181636451Y-99622314D01*
X181328249Y-99828249D01*
X181122314Y-100136451D01*
X181050000Y-100500000D01*
X181122314Y-100863549D01*
X181328249Y-101171751D01*
X181636451Y-101377686D01*
X182000000Y-101450000D01*
X213600000Y-101450000D01*
X213903233Y-101389683D01*
X213963550Y-101377686D01*
X214271751Y-101171751D01*
X217371751Y-98071751D01*
X217450000Y-97954644D01*
X217450000Y-133548626D01*
X215979283Y-133841170D01*
X215781019Y-133923293D01*
X215781017Y-133923295D01*
X214158906Y-135007155D01*
X214158902Y-135007157D01*
X214083030Y-135083030D01*
X214007157Y-135158902D01*
X214007155Y-135158906D01*
X212923296Y-136781016D01*
X212923293Y-136781019D01*
X212841170Y-136979283D01*
X212548626Y-138450000D01*
X123451374Y-138450000D01*
X123158830Y-136979283D01*
X123076707Y-136781019D01*
X123076705Y-136781017D01*
X121992845Y-135158906D01*
X121992843Y-135158902D01*
X121916970Y-135083030D01*
X121841098Y-135007157D01*
X121841094Y-135007155D01*
X120218984Y-133923296D01*
X120218981Y-133923293D01*
X120020717Y-133841170D01*
X118550000Y-133548626D01*
X118550000Y-130696014D01*
X150800423Y-130696014D01*
X151104244Y-131431316D01*
X151666325Y-131994379D01*
X152401096Y-132299482D01*
X153196694Y-132300177D01*
X153931996Y-131996356D01*
X154495059Y-131434275D01*
X154800162Y-130699504D01*
X154800165Y-130696014D01*
X181199143Y-130696014D01*
X181502964Y-131431316D01*
X182065045Y-131994379D01*
X182799816Y-132299482D01*
X183595414Y-132300177D01*
X184330716Y-131996356D01*
X184893779Y-131434275D01*
X185198882Y-130699504D01*
X185199577Y-129903906D01*
X184895756Y-129168604D01*
X184333675Y-128605541D01*
X183598904Y-128300438D01*
X182803306Y-128299743D01*
X182068004Y-128603564D01*
X181504941Y-129165645D01*
X181199838Y-129900416D01*
X181199143Y-130696014D01*
X154800165Y-130696014D01*
X154800857Y-129903906D01*
X154497036Y-129168604D01*
X153934955Y-128605541D01*
X153200184Y-128300438D01*
X152404586Y-128299743D01*
X151669284Y-128603564D01*
X151106221Y-129165645D01*
X150801118Y-129900416D01*
X150800423Y-130696014D01*
X118550000Y-130696014D01*
X118550000Y-125523219D01*
X144754861Y-125523219D01*
X144891589Y-125854126D01*
X145144542Y-126107521D01*
X145475211Y-126244826D01*
X145599993Y-126244935D01*
X145599834Y-126426937D01*
X145736562Y-126757844D01*
X145989515Y-127011239D01*
X146320184Y-127148544D01*
X146678226Y-127148857D01*
X147009133Y-127012129D01*
X147262528Y-126759176D01*
X147399833Y-126428507D01*
X147399850Y-126409501D01*
X148059351Y-125750000D01*
X162687514Y-125750000D01*
X162466873Y-125970256D01*
X162190446Y-126635968D01*
X162189817Y-127356790D01*
X162465082Y-128022983D01*
X162974336Y-128533127D01*
X163640048Y-128809554D01*
X164360870Y-128810183D01*
X165027063Y-128534918D01*
X165537207Y-128025664D01*
X165813634Y-127359952D01*
X165814263Y-126639130D01*
X165538998Y-125972937D01*
X165316450Y-125750000D01*
X166685474Y-125750000D01*
X166464833Y-125970256D01*
X166188406Y-126635968D01*
X166187777Y-127356790D01*
X166463042Y-128022983D01*
X166972296Y-128533127D01*
X167638008Y-128809554D01*
X168358830Y-128810183D01*
X169025023Y-128534918D01*
X169535167Y-128025664D01*
X169811594Y-127359952D01*
X169811596Y-127356790D01*
X170185737Y-127356790D01*
X170461002Y-128022983D01*
X170970256Y-128533127D01*
X171635968Y-128809554D01*
X172356790Y-128810183D01*
X173022983Y-128534918D01*
X173533127Y-128025664D01*
X173809554Y-127359952D01*
X173810183Y-126639130D01*
X173534918Y-125972937D01*
X173025664Y-125462793D01*
X172359952Y-125186366D01*
X171639130Y-125185737D01*
X170972937Y-125461002D01*
X170462793Y-125970256D01*
X170186366Y-126635968D01*
X170185737Y-127356790D01*
X169811596Y-127356790D01*
X169812223Y-126639130D01*
X169536958Y-125972937D01*
X169027704Y-125462793D01*
X168723262Y-125336378D01*
X169362163Y-124697477D01*
X169636988Y-124811594D01*
X170357810Y-124812223D01*
X171024003Y-124536958D01*
X171534147Y-124027704D01*
X171649459Y-123750000D01*
X195350000Y-123750000D01*
X195637013Y-123692910D01*
X195880330Y-123530330D01*
X197660519Y-121750141D01*
X197678236Y-121750156D01*
X198009143Y-121613428D01*
X198262538Y-121360475D01*
X198399843Y-121029806D01*
X198400156Y-120671764D01*
X198263428Y-120340857D01*
X198010475Y-120087462D01*
X197679806Y-119950157D01*
X197321764Y-119949844D01*
X196990857Y-120086572D01*
X196849889Y-120227294D01*
X196610475Y-119987462D01*
X196279806Y-119850157D01*
X195921764Y-119849844D01*
X195590857Y-119986572D01*
X195337462Y-120239525D01*
X195312351Y-120300000D01*
X173262399Y-120300000D01*
X173533127Y-120029744D01*
X173809554Y-119364032D01*
X173810183Y-118643210D01*
X173534918Y-117977017D01*
X173025664Y-117466873D01*
X172359952Y-117190446D01*
X171639130Y-117189817D01*
X170972937Y-117465082D01*
X170462793Y-117974336D01*
X170186366Y-118640048D01*
X170185737Y-119360870D01*
X170461002Y-120027063D01*
X170733463Y-120300000D01*
X169311898Y-120300000D01*
X169322608Y-120289290D01*
X169235477Y-120202159D01*
X169509142Y-120067594D01*
X169802035Y-119408960D01*
X169820584Y-118688377D01*
X169561966Y-118015545D01*
X169509142Y-117936486D01*
X169235475Y-117801920D01*
X168035355Y-119002040D01*
X168049498Y-119016183D01*
X168014143Y-119051538D01*
X168000000Y-119037395D01*
X166799880Y-120237515D01*
X166934446Y-120511182D01*
X167276893Y-120663467D01*
X166637837Y-121302523D01*
X166363012Y-121188406D01*
X165642190Y-121187777D01*
X164975997Y-121463042D01*
X164465853Y-121972296D01*
X164350541Y-122250000D01*
X148000000Y-122250000D01*
X147712987Y-122307090D01*
X147469670Y-122469670D01*
X145494498Y-124444842D01*
X145476781Y-124444827D01*
X145145874Y-124581555D01*
X144892479Y-124834508D01*
X144755174Y-125165177D01*
X144754861Y-125523219D01*
X118550000Y-125523219D01*
X118550000Y-117690130D01*
X162180335Y-117690130D01*
X162180335Y-120313950D01*
X162219141Y-120509040D01*
X162329650Y-120674430D01*
X162495040Y-120784939D01*
X162690130Y-120823745D01*
X165313950Y-120823745D01*
X165509040Y-120784939D01*
X165674430Y-120674430D01*
X165784939Y-120509040D01*
X165823745Y-120313950D01*
X165823745Y-119315703D01*
X166179416Y-119315703D01*
X166438034Y-119988535D01*
X166490858Y-120067594D01*
X166764525Y-120202160D01*
X167964645Y-119002040D01*
X166764525Y-117801920D01*
X166490858Y-117936486D01*
X166197965Y-118595120D01*
X166179416Y-119315703D01*
X165823745Y-119315703D01*
X165823745Y-117766565D01*
X166799880Y-117766565D01*
X168000000Y-118966685D01*
X169200120Y-117766565D01*
X169065554Y-117492898D01*
X168406920Y-117200005D01*
X167686337Y-117181456D01*
X167013505Y-117440074D01*
X166934446Y-117492898D01*
X166799880Y-117766565D01*
X165823745Y-117766565D01*
X165823745Y-117690130D01*
X165784939Y-117495040D01*
X165674430Y-117329650D01*
X165509040Y-117219141D01*
X165313950Y-117180335D01*
X162690130Y-117180335D01*
X162495040Y-117219141D01*
X162329650Y-117329650D01*
X162219141Y-117495040D01*
X162180335Y-117690130D01*
X118550000Y-117690130D01*
X118550000Y-112598514D01*
X152301563Y-112598514D01*
X152605384Y-113333816D01*
X153167465Y-113896879D01*
X153902236Y-114201982D01*
X154697834Y-114202677D01*
X155433136Y-113898856D01*
X155996199Y-113336775D01*
X156301302Y-112602004D01*
X156301305Y-112598514D01*
X179698003Y-112598514D01*
X180001824Y-113333816D01*
X180563905Y-113896879D01*
X181298676Y-114201982D01*
X182094274Y-114202677D01*
X182829576Y-113898856D01*
X183392639Y-113336775D01*
X183697742Y-112602004D01*
X183698437Y-111806406D01*
X183394616Y-111071104D01*
X182832535Y-110508041D01*
X182097764Y-110202938D01*
X181302166Y-110202243D01*
X180566864Y-110506064D01*
X180003801Y-111068145D01*
X179698698Y-111802916D01*
X179698003Y-112598514D01*
X156301305Y-112598514D01*
X156301997Y-111806406D01*
X155998176Y-111071104D01*
X155436095Y-110508041D01*
X154701324Y-110202938D01*
X153905726Y-110202243D01*
X153170424Y-110506064D01*
X152607361Y-111068145D01*
X152302258Y-111802916D01*
X152301563Y-112598514D01*
X118550000Y-112598514D01*
X118550000Y-91978236D01*
X145749844Y-91978236D01*
X145886572Y-92309143D01*
X146139525Y-92562538D01*
X146470194Y-92699843D01*
X146714310Y-92700056D01*
X146870445Y-92804383D01*
X147100055Y-92850055D01*
X154651527Y-92850055D01*
X155050000Y-93248528D01*
X155050000Y-94482272D01*
X154075736Y-95456536D01*
X153945672Y-95651190D01*
X153922767Y-95766344D01*
X153737462Y-95951325D01*
X153600157Y-96281994D01*
X153599844Y-96640036D01*
X153736572Y-96970943D01*
X153989525Y-97224338D01*
X154320194Y-97361643D01*
X154678236Y-97361956D01*
X155009143Y-97225228D01*
X155262538Y-96972275D01*
X155299922Y-96882244D01*
X155336572Y-96970943D01*
X155589525Y-97224338D01*
X155920194Y-97361643D01*
X156278236Y-97361956D01*
X156609143Y-97225228D01*
X156862538Y-96972275D01*
X156899922Y-96882244D01*
X156936572Y-96970943D01*
X157189525Y-97224338D01*
X157520194Y-97361643D01*
X157878236Y-97361956D01*
X158209143Y-97225228D01*
X158462538Y-96972275D01*
X158499922Y-96882244D01*
X158536572Y-96970943D01*
X158789525Y-97224338D01*
X159120194Y-97361643D01*
X159478236Y-97361956D01*
X159809143Y-97225228D01*
X160062538Y-96972275D01*
X160199843Y-96641606D01*
X160200156Y-96283564D01*
X160063428Y-95952657D01*
X159810475Y-95699262D01*
X159479806Y-95561957D01*
X159248483Y-95561755D01*
X157600000Y-93913272D01*
X157600000Y-92652900D01*
X157554328Y-92423290D01*
X157424264Y-92228636D01*
X156445639Y-91250011D01*
X161651483Y-91250011D01*
X163600000Y-93198528D01*
X163600000Y-95789071D01*
X163437462Y-95951325D01*
X163300157Y-96281994D01*
X163299844Y-96640036D01*
X163436572Y-96970943D01*
X163689525Y-97224338D01*
X164020194Y-97361643D01*
X164378236Y-97361956D01*
X164709143Y-97225228D01*
X164962538Y-96972275D01*
X164999922Y-96882244D01*
X165036572Y-96970943D01*
X165289525Y-97224338D01*
X165620194Y-97361643D01*
X165978236Y-97361956D01*
X166309143Y-97225228D01*
X166562538Y-96972275D01*
X166699843Y-96641606D01*
X166700156Y-96283564D01*
X166563428Y-95952657D01*
X166310475Y-95699262D01*
X165979806Y-95561957D01*
X165748483Y-95561755D01*
X165250000Y-95063272D01*
X165250000Y-92800000D01*
X165204328Y-92570390D01*
X165074264Y-92375736D01*
X162524264Y-89825736D01*
X162329610Y-89695672D01*
X162100000Y-89650000D01*
X150641458Y-89650000D01*
X150649843Y-89629806D01*
X150650156Y-89271764D01*
X150513428Y-88940857D01*
X150260475Y-88687462D01*
X149929806Y-88550157D01*
X149571764Y-88549844D01*
X149240857Y-88686572D01*
X149225151Y-88702251D01*
X149160475Y-88637462D01*
X148829806Y-88500157D01*
X148471764Y-88499844D01*
X148140857Y-88636572D01*
X147887462Y-88889525D01*
X147750157Y-89220194D01*
X147749844Y-89578236D01*
X147886572Y-89909143D01*
X147891603Y-89914183D01*
X147752857Y-89914062D01*
X147732123Y-89863881D01*
X147479170Y-89610486D01*
X147148501Y-89473181D01*
X146790459Y-89472868D01*
X146459552Y-89609596D01*
X146206157Y-89862549D01*
X146068852Y-90193218D01*
X146068539Y-90551260D01*
X146205267Y-90882167D01*
X146295583Y-90972641D01*
X146140857Y-91036572D01*
X145887462Y-91289525D01*
X145750157Y-91620194D01*
X145749844Y-91978236D01*
X118550000Y-91978236D01*
X118550000Y-82778236D01*
X150949844Y-82778236D01*
X151086572Y-83109143D01*
X151339525Y-83362538D01*
X151670194Y-83499843D01*
X152028236Y-83500156D01*
X152359143Y-83363428D01*
X152612538Y-83110475D01*
X152616888Y-83100000D01*
X168301472Y-83100000D01*
X172025736Y-86824264D01*
X172220390Y-86954328D01*
X172450000Y-87000000D01*
X174415003Y-87000000D01*
X174644613Y-86954328D01*
X174839267Y-86824264D01*
X175067774Y-86595757D01*
X175297437Y-86595958D01*
X175628344Y-86459230D01*
X175881739Y-86206277D01*
X176019044Y-85875608D01*
X176019357Y-85517566D01*
X175882629Y-85186659D01*
X175629676Y-84933264D01*
X175299007Y-84795959D01*
X174940965Y-84795646D01*
X174610058Y-84932374D01*
X174356663Y-85185327D01*
X174219358Y-85515996D01*
X174219156Y-85747319D01*
X174166475Y-85800000D01*
X173611734Y-85800000D01*
X173661643Y-85679806D01*
X173661956Y-85321764D01*
X173525228Y-84990857D01*
X173272275Y-84737462D01*
X172941606Y-84600157D01*
X172583564Y-84599844D01*
X172252657Y-84736572D01*
X172243871Y-84745343D01*
X169174253Y-81675725D01*
X168979599Y-81545661D01*
X168749989Y-81499989D01*
X153598436Y-81499989D01*
X153474173Y-81375726D01*
X153279519Y-81245662D01*
X153183475Y-81226558D01*
X152994699Y-81037452D01*
X152664030Y-80900147D01*
X152305988Y-80899834D01*
X151975081Y-81036562D01*
X151721686Y-81289515D01*
X151584381Y-81620184D01*
X151584280Y-81735992D01*
X151340857Y-81836572D01*
X151087462Y-82089525D01*
X150950157Y-82420194D01*
X150949844Y-82778236D01*
X118550000Y-82778236D01*
X118550000Y-80678236D01*
X153749844Y-80678236D01*
X153886572Y-81009143D01*
X154139525Y-81262538D01*
X154470194Y-81399843D01*
X154828236Y-81400156D01*
X155159143Y-81263428D01*
X155322857Y-81100000D01*
X175304590Y-81100000D01*
X179903163Y-85698573D01*
X179902962Y-85928236D01*
X180039690Y-86259143D01*
X180292643Y-86512538D01*
X180623312Y-86649843D01*
X180981354Y-86650156D01*
X181312261Y-86513428D01*
X181475975Y-86350000D01*
X181751472Y-86350000D01*
X182292053Y-86890581D01*
X182486707Y-87020645D01*
X182716317Y-87066317D01*
X188483683Y-87066317D01*
X188713293Y-87020645D01*
X188907947Y-86890581D01*
X189048573Y-86749955D01*
X189278236Y-86750156D01*
X189609143Y-86613428D01*
X189862538Y-86360475D01*
X189887960Y-86299251D01*
X189970389Y-86354328D01*
X190200000Y-86400000D01*
X190727271Y-86400000D01*
X190889525Y-86562538D01*
X191220194Y-86699843D01*
X191578236Y-86700156D01*
X191909143Y-86563428D01*
X192162538Y-86310475D01*
X192299843Y-85979806D01*
X192300156Y-85621764D01*
X192163428Y-85290857D01*
X191910475Y-85037462D01*
X191579806Y-84900157D01*
X191221764Y-84899844D01*
X190890857Y-85036572D01*
X190727143Y-85200000D01*
X190448528Y-85200000D01*
X189924263Y-84675735D01*
X189729609Y-84545671D01*
X189499999Y-84499999D01*
X188650001Y-84499999D01*
X188420391Y-84545671D01*
X188225737Y-84675735D01*
X187785156Y-85116316D01*
X183757431Y-85116316D01*
X183595177Y-84953778D01*
X183264508Y-84816473D01*
X182906466Y-84816160D01*
X182575559Y-84952888D01*
X182322164Y-85205841D01*
X182305368Y-85246292D01*
X182229610Y-85195672D01*
X182000000Y-85150000D01*
X181475847Y-85150000D01*
X181313593Y-84987462D01*
X180982924Y-84850157D01*
X180751601Y-84849955D01*
X176551646Y-80650000D01*
X180051472Y-80650000D01*
X182750045Y-83348573D01*
X182749844Y-83578236D01*
X182886572Y-83909143D01*
X183139525Y-84162538D01*
X183470194Y-84299843D01*
X183828236Y-84300156D01*
X184159143Y-84163428D01*
X184412538Y-83910475D01*
X184549843Y-83579806D01*
X184550156Y-83221764D01*
X184413428Y-82890857D01*
X184160475Y-82637462D01*
X183829806Y-82500157D01*
X183598483Y-82499955D01*
X180724264Y-79625736D01*
X180529610Y-79495672D01*
X180300000Y-79450000D01*
X156502979Y-79450000D01*
X156328705Y-79275726D01*
X156134051Y-79145662D01*
X156038007Y-79126558D01*
X155849231Y-78937452D01*
X155518562Y-78800147D01*
X155160520Y-78799834D01*
X154829613Y-78936562D01*
X154576218Y-79189515D01*
X154438913Y-79520184D01*
X154438831Y-79613451D01*
X154140857Y-79736572D01*
X153887462Y-79989525D01*
X153750157Y-80320194D01*
X153749844Y-80678236D01*
X118550000Y-80678236D01*
X118550000Y-72696014D01*
X140800443Y-72696014D01*
X141104264Y-73431316D01*
X141666345Y-73994379D01*
X142401116Y-74299482D01*
X143196714Y-74300177D01*
X143932016Y-73996356D01*
X144495079Y-73434275D01*
X144800182Y-72699504D01*
X144800185Y-72696014D01*
X191199123Y-72696014D01*
X191502944Y-73431316D01*
X192065025Y-73994379D01*
X192799796Y-74299482D01*
X193595394Y-74300177D01*
X194330696Y-73996356D01*
X194893759Y-73434275D01*
X195198862Y-72699504D01*
X195199557Y-71903906D01*
X194895736Y-71168604D01*
X194333655Y-70605541D01*
X193598884Y-70300438D01*
X192803286Y-70299743D01*
X192067984Y-70603564D01*
X191504921Y-71165645D01*
X191199818Y-71900416D01*
X191199123Y-72696014D01*
X144800185Y-72696014D01*
X144800877Y-71903906D01*
X144497056Y-71168604D01*
X143934975Y-70605541D01*
X143200204Y-70300438D01*
X142404606Y-70299743D01*
X141669304Y-70603564D01*
X141106241Y-71165645D01*
X140801138Y-71900416D01*
X140800443Y-72696014D01*
X118550000Y-72696014D01*
X118550000Y-69356790D01*
X152189837Y-69356790D01*
X152465102Y-70022983D01*
X152974356Y-70533127D01*
X153640068Y-70809554D01*
X154360890Y-70810183D01*
X155027083Y-70534918D01*
X155537227Y-70025664D01*
X155813654Y-69359952D01*
X155813656Y-69356790D01*
X156187797Y-69356790D01*
X156463062Y-70022983D01*
X156972316Y-70533127D01*
X157638028Y-70809554D01*
X158358850Y-70810183D01*
X159025043Y-70534918D01*
X159535187Y-70025664D01*
X159811614Y-69359952D01*
X159811616Y-69356790D01*
X160188297Y-69356790D01*
X160463562Y-70022983D01*
X160972816Y-70533127D01*
X161638528Y-70809554D01*
X162359350Y-70810183D01*
X163025543Y-70534918D01*
X163535687Y-70025664D01*
X163812114Y-69359952D01*
X163812116Y-69356790D01*
X164188797Y-69356790D01*
X164464062Y-70022983D01*
X164973316Y-70533127D01*
X165639028Y-70809554D01*
X166359850Y-70810183D01*
X167026043Y-70534918D01*
X167536187Y-70025664D01*
X167812614Y-69359952D01*
X167812616Y-69356790D01*
X168186757Y-69356790D01*
X168462022Y-70022983D01*
X168971276Y-70533127D01*
X169636988Y-70809554D01*
X170357810Y-70810183D01*
X171024003Y-70534918D01*
X171534147Y-70025664D01*
X171810574Y-69359952D01*
X171810576Y-69356790D01*
X172187257Y-69356790D01*
X172462522Y-70022983D01*
X172971776Y-70533127D01*
X173637488Y-70809554D01*
X174358310Y-70810183D01*
X175024503Y-70534918D01*
X175534647Y-70025664D01*
X175811074Y-69359952D01*
X175811076Y-69356790D01*
X176187757Y-69356790D01*
X176463022Y-70022983D01*
X176972276Y-70533127D01*
X177637988Y-70809554D01*
X178358810Y-70810183D01*
X179025003Y-70534918D01*
X179535147Y-70025664D01*
X179811574Y-69359952D01*
X179811576Y-69356790D01*
X180185717Y-69356790D01*
X180460982Y-70022983D01*
X180970236Y-70533127D01*
X181635948Y-70809554D01*
X182356770Y-70810183D01*
X183022963Y-70534918D01*
X183533107Y-70025664D01*
X183809534Y-69359952D01*
X183810163Y-68639130D01*
X183534898Y-67972937D01*
X183025644Y-67462793D01*
X182359932Y-67186366D01*
X181639110Y-67185737D01*
X180972917Y-67461002D01*
X180462773Y-67970256D01*
X180186346Y-68635968D01*
X180185717Y-69356790D01*
X179811576Y-69356790D01*
X179812203Y-68639130D01*
X179536938Y-67972937D01*
X179027684Y-67462793D01*
X178361972Y-67186366D01*
X177641150Y-67185737D01*
X176974957Y-67461002D01*
X176464813Y-67970256D01*
X176188386Y-68635968D01*
X176187757Y-69356790D01*
X175811076Y-69356790D01*
X175811703Y-68639130D01*
X175536438Y-67972937D01*
X175027184Y-67462793D01*
X174361472Y-67186366D01*
X173640650Y-67185737D01*
X172974457Y-67461002D01*
X172464313Y-67970256D01*
X172187886Y-68635968D01*
X172187257Y-69356790D01*
X171810576Y-69356790D01*
X171811203Y-68639130D01*
X171535938Y-67972937D01*
X171026684Y-67462793D01*
X170360972Y-67186366D01*
X169640150Y-67185737D01*
X168973957Y-67461002D01*
X168463813Y-67970256D01*
X168187386Y-68635968D01*
X168186757Y-69356790D01*
X167812616Y-69356790D01*
X167813243Y-68639130D01*
X167537978Y-67972937D01*
X167028724Y-67462793D01*
X166363012Y-67186366D01*
X165642190Y-67185737D01*
X164975997Y-67461002D01*
X164465853Y-67970256D01*
X164189426Y-68635968D01*
X164188797Y-69356790D01*
X163812116Y-69356790D01*
X163812743Y-68639130D01*
X163537478Y-67972937D01*
X163028224Y-67462793D01*
X162362512Y-67186366D01*
X161641690Y-67185737D01*
X160975497Y-67461002D01*
X160465353Y-67970256D01*
X160188926Y-68635968D01*
X160188297Y-69356790D01*
X159811616Y-69356790D01*
X159812243Y-68639130D01*
X159536978Y-67972937D01*
X159027724Y-67462793D01*
X158362012Y-67186366D01*
X157641190Y-67185737D01*
X156974997Y-67461002D01*
X156464853Y-67970256D01*
X156188426Y-68635968D01*
X156187797Y-69356790D01*
X155813656Y-69356790D01*
X155814283Y-68639130D01*
X155539018Y-67972937D01*
X155029764Y-67462793D01*
X154364052Y-67186366D01*
X153643230Y-67185737D01*
X152977037Y-67461002D01*
X152466893Y-67970256D01*
X152190466Y-68635968D01*
X152189837Y-69356790D01*
X118550000Y-69356790D01*
X118550000Y-65358830D01*
X154188817Y-65358830D01*
X154464082Y-66025023D01*
X154973336Y-66535167D01*
X155639048Y-66811594D01*
X156359870Y-66812223D01*
X157026063Y-66536958D01*
X157536207Y-66027704D01*
X157812634Y-65361992D01*
X157812636Y-65358830D01*
X158189317Y-65358830D01*
X158464582Y-66025023D01*
X158973836Y-66535167D01*
X159639548Y-66811594D01*
X160360370Y-66812223D01*
X161026563Y-66536958D01*
X161536707Y-66027704D01*
X161813134Y-65361992D01*
X161813136Y-65358830D01*
X162189817Y-65358830D01*
X162465082Y-66025023D01*
X162974336Y-66535167D01*
X163640048Y-66811594D01*
X164360870Y-66812223D01*
X165027063Y-66536958D01*
X165537207Y-66027704D01*
X165813634Y-65361992D01*
X165813636Y-65358830D01*
X166187777Y-65358830D01*
X166463042Y-66025023D01*
X166972296Y-66535167D01*
X167638008Y-66811594D01*
X168358830Y-66812223D01*
X169025023Y-66536958D01*
X169327032Y-66235475D01*
X170797840Y-66235475D01*
X170932406Y-66509142D01*
X171591040Y-66802035D01*
X172311623Y-66820584D01*
X172984455Y-66561966D01*
X173063514Y-66509142D01*
X173198080Y-66235475D01*
X171997960Y-65035355D01*
X170797840Y-66235475D01*
X169327032Y-66235475D01*
X169535167Y-66027704D01*
X169811594Y-65361992D01*
X169811636Y-65313663D01*
X170177376Y-65313663D01*
X170435994Y-65986495D01*
X170488818Y-66065554D01*
X170762485Y-66200120D01*
X171962605Y-65000000D01*
X172033315Y-65000000D01*
X173233435Y-66200120D01*
X173507102Y-66065554D01*
X173799995Y-65406920D01*
X173801232Y-65358830D01*
X174186237Y-65358830D01*
X174461502Y-66025023D01*
X174970756Y-66535167D01*
X175636468Y-66811594D01*
X176357290Y-66812223D01*
X177023483Y-66536958D01*
X177533627Y-66027704D01*
X177810054Y-65361992D01*
X177810056Y-65358830D01*
X178186737Y-65358830D01*
X178462002Y-66025023D01*
X178971256Y-66535167D01*
X179636968Y-66811594D01*
X180357790Y-66812223D01*
X181023983Y-66536958D01*
X181534127Y-66027704D01*
X181810554Y-65361992D01*
X181811183Y-64641170D01*
X181535918Y-63974977D01*
X181026664Y-63464833D01*
X180360952Y-63188406D01*
X179640130Y-63187777D01*
X178973937Y-63463042D01*
X178463793Y-63972296D01*
X178187366Y-64638008D01*
X178186737Y-65358830D01*
X177810056Y-65358830D01*
X177810683Y-64641170D01*
X177535418Y-63974977D01*
X177026164Y-63464833D01*
X176360452Y-63188406D01*
X175639630Y-63187777D01*
X174973437Y-63463042D01*
X174463293Y-63972296D01*
X174186866Y-64638008D01*
X174186237Y-65358830D01*
X173801232Y-65358830D01*
X173818544Y-64686337D01*
X173559926Y-64013505D01*
X173507102Y-63934446D01*
X173233435Y-63799880D01*
X172033315Y-65000000D01*
X171962605Y-65000000D01*
X170762485Y-63799880D01*
X170488818Y-63934446D01*
X170195925Y-64593080D01*
X170177376Y-65313663D01*
X169811636Y-65313663D01*
X169812223Y-64641170D01*
X169536958Y-63974977D01*
X169326874Y-63764525D01*
X170797840Y-63764525D01*
X171997960Y-64964645D01*
X173198080Y-63764525D01*
X173063514Y-63490858D01*
X172404880Y-63197965D01*
X171684297Y-63179416D01*
X171011465Y-63438034D01*
X170932406Y-63490858D01*
X170797840Y-63764525D01*
X169326874Y-63764525D01*
X169027704Y-63464833D01*
X168361992Y-63188406D01*
X167641170Y-63187777D01*
X166974977Y-63463042D01*
X166464833Y-63972296D01*
X166188406Y-64638008D01*
X166187777Y-65358830D01*
X165813636Y-65358830D01*
X165814263Y-64641170D01*
X165538998Y-63974977D01*
X165029744Y-63464833D01*
X164364032Y-63188406D01*
X163643210Y-63187777D01*
X162977017Y-63463042D01*
X162466873Y-63972296D01*
X162190446Y-64638008D01*
X162189817Y-65358830D01*
X161813136Y-65358830D01*
X161813763Y-64641170D01*
X161538498Y-63974977D01*
X161029244Y-63464833D01*
X160363532Y-63188406D01*
X159642710Y-63187777D01*
X158976517Y-63463042D01*
X158466373Y-63972296D01*
X158189946Y-64638008D01*
X158189317Y-65358830D01*
X157812636Y-65358830D01*
X157813263Y-64641170D01*
X157537998Y-63974977D01*
X157028744Y-63464833D01*
X156363032Y-63188406D01*
X155642210Y-63187777D01*
X154976017Y-63463042D01*
X154465873Y-63972296D01*
X154189446Y-64638008D01*
X154188817Y-65358830D01*
X118550000Y-65358830D01*
X118550000Y-59690130D01*
X152180355Y-59690130D01*
X152180355Y-62313950D01*
X152219161Y-62509040D01*
X152329670Y-62674430D01*
X152495060Y-62784939D01*
X152690150Y-62823745D01*
X155313970Y-62823745D01*
X155509060Y-62784939D01*
X155674450Y-62674430D01*
X155784959Y-62509040D01*
X155823765Y-62313950D01*
X155823765Y-61360870D01*
X156187797Y-61360870D01*
X156463062Y-62027063D01*
X156972316Y-62537207D01*
X157638028Y-62813634D01*
X158358850Y-62814263D01*
X159025043Y-62538998D01*
X159535187Y-62029744D01*
X159811614Y-61364032D01*
X159811616Y-61360870D01*
X160188297Y-61360870D01*
X160463562Y-62027063D01*
X160972816Y-62537207D01*
X161638528Y-62813634D01*
X162359350Y-62814263D01*
X163025543Y-62538998D01*
X163535687Y-62029744D01*
X163812114Y-61364032D01*
X163812116Y-61360870D01*
X164188797Y-61360870D01*
X164464062Y-62027063D01*
X164973316Y-62537207D01*
X165639028Y-62813634D01*
X166359850Y-62814263D01*
X167026043Y-62538998D01*
X167536187Y-62029744D01*
X167812614Y-61364032D01*
X167812616Y-61360870D01*
X168186757Y-61360870D01*
X168462022Y-62027063D01*
X168971276Y-62537207D01*
X169636988Y-62813634D01*
X170357810Y-62814263D01*
X171024003Y-62538998D01*
X171534147Y-62029744D01*
X171810574Y-61364032D01*
X171810576Y-61360870D01*
X172187257Y-61360870D01*
X172462522Y-62027063D01*
X172971776Y-62537207D01*
X173637488Y-62813634D01*
X174358310Y-62814263D01*
X175024503Y-62538998D01*
X175534647Y-62029744D01*
X175811074Y-61364032D01*
X175811076Y-61360870D01*
X176187757Y-61360870D01*
X176463022Y-62027063D01*
X176972276Y-62537207D01*
X177637988Y-62813634D01*
X178358810Y-62814263D01*
X179025003Y-62538998D01*
X179535147Y-62029744D01*
X179811574Y-61364032D01*
X179811576Y-61360870D01*
X180185717Y-61360870D01*
X180460982Y-62027063D01*
X180970236Y-62537207D01*
X181635948Y-62813634D01*
X182356770Y-62814263D01*
X183022963Y-62538998D01*
X183533107Y-62029744D01*
X183809534Y-61364032D01*
X183810163Y-60643210D01*
X183534898Y-59977017D01*
X183025644Y-59466873D01*
X182359932Y-59190446D01*
X181639110Y-59189817D01*
X180972917Y-59465082D01*
X180462773Y-59974336D01*
X180186346Y-60640048D01*
X180185717Y-61360870D01*
X179811576Y-61360870D01*
X179812203Y-60643210D01*
X179536938Y-59977017D01*
X179027684Y-59466873D01*
X178361972Y-59190446D01*
X177641150Y-59189817D01*
X176974957Y-59465082D01*
X176464813Y-59974336D01*
X176188386Y-60640048D01*
X176187757Y-61360870D01*
X175811076Y-61360870D01*
X175811703Y-60643210D01*
X175536438Y-59977017D01*
X175027184Y-59466873D01*
X174361472Y-59190446D01*
X173640650Y-59189817D01*
X172974457Y-59465082D01*
X172464313Y-59974336D01*
X172187886Y-60640048D01*
X172187257Y-61360870D01*
X171810576Y-61360870D01*
X171811203Y-60643210D01*
X171535938Y-59977017D01*
X171026684Y-59466873D01*
X170360972Y-59190446D01*
X169640150Y-59189817D01*
X168973957Y-59465082D01*
X168463813Y-59974336D01*
X168187386Y-60640048D01*
X168186757Y-61360870D01*
X167812616Y-61360870D01*
X167813243Y-60643210D01*
X167537978Y-59977017D01*
X167028724Y-59466873D01*
X166363012Y-59190446D01*
X165642190Y-59189817D01*
X164975997Y-59465082D01*
X164465853Y-59974336D01*
X164189426Y-60640048D01*
X164188797Y-61360870D01*
X163812116Y-61360870D01*
X163812743Y-60643210D01*
X163537478Y-59977017D01*
X163028224Y-59466873D01*
X162362512Y-59190446D01*
X161641690Y-59189817D01*
X160975497Y-59465082D01*
X160465353Y-59974336D01*
X160188926Y-60640048D01*
X160188297Y-61360870D01*
X159811616Y-61360870D01*
X159812243Y-60643210D01*
X159536978Y-59977017D01*
X159027724Y-59466873D01*
X158362012Y-59190446D01*
X157641190Y-59189817D01*
X156974997Y-59465082D01*
X156464853Y-59974336D01*
X156188426Y-60640048D01*
X156187797Y-61360870D01*
X155823765Y-61360870D01*
X155823765Y-59690130D01*
X155784959Y-59495040D01*
X155674450Y-59329650D01*
X155509060Y-59219141D01*
X155313970Y-59180335D01*
X152690150Y-59180335D01*
X152495060Y-59219141D01*
X152329670Y-59329650D01*
X152219161Y-59495040D01*
X152180355Y-59690130D01*
X118550000Y-59690130D01*
X118550000Y-54598514D01*
X142301583Y-54598514D01*
X142605404Y-55333816D01*
X143167485Y-55896879D01*
X143902256Y-56201982D01*
X144697854Y-56202677D01*
X145433156Y-55898856D01*
X145996219Y-55336775D01*
X146301322Y-54602004D01*
X146301325Y-54598514D01*
X189697983Y-54598514D01*
X190001804Y-55333816D01*
X190563885Y-55896879D01*
X191298656Y-56201982D01*
X192094254Y-56202677D01*
X192829556Y-55898856D01*
X193392619Y-55336775D01*
X193697722Y-54602004D01*
X193698417Y-53806406D01*
X193394596Y-53071104D01*
X192832515Y-52508041D01*
X192097744Y-52202938D01*
X191302146Y-52202243D01*
X190566844Y-52506064D01*
X190003781Y-53068145D01*
X189698678Y-53802916D01*
X189697983Y-54598514D01*
X146301325Y-54598514D01*
X146302017Y-53806406D01*
X145998196Y-53071104D01*
X145436115Y-52508041D01*
X144701344Y-52202938D01*
X143905746Y-52202243D01*
X143170444Y-52506064D01*
X142607381Y-53068145D01*
X142302278Y-53802916D01*
X142301583Y-54598514D01*
X118550000Y-54598514D01*
X118550000Y-54451374D01*
X120020717Y-54158830D01*
X120218981Y-54076707D01*
X120218984Y-54076704D01*
X121841094Y-52992845D01*
X121841098Y-52992843D01*
X121916970Y-52916970D01*
X121992843Y-52841098D01*
X121992845Y-52841094D01*
X123076705Y-51218983D01*
X123076707Y-51218981D01*
X123158830Y-51020717D01*
X123451374Y-49550000D01*
X168406498Y-49550000D01*
X165528249Y-52428249D01*
X165528249Y-52428249D01*
G37*
X165528249Y-52428249D02*
X165322314Y-52736450D01*
X165250001Y-53100000D01*
X165322314Y-53463550D01*
X165528249Y-53771751D01*
X165836450Y-53977686D01*
X166200000Y-54049999D01*
X166563550Y-53977686D01*
X166871751Y-53771751D01*
X169693502Y-50950000D01*
X209356498Y-50950000D01*
X215750000Y-57343503D01*
X215750000Y-97006498D01*
X213206498Y-99550000D01*
X182000000Y-99550000D01*
X181636451Y-99622314D01*
X181328249Y-99828249D01*
X181122314Y-100136451D01*
X181050000Y-100500000D01*
X181122314Y-100863549D01*
X181328249Y-101171751D01*
X181636451Y-101377686D01*
X182000000Y-101450000D01*
X213600000Y-101450000D01*
X213903233Y-101389683D01*
X213963550Y-101377686D01*
X214271751Y-101171751D01*
X217371751Y-98071751D01*
X217450000Y-97954644D01*
X217450000Y-133548626D01*
X215979283Y-133841170D01*
X215781019Y-133923293D01*
X215781017Y-133923295D01*
X214158906Y-135007155D01*
X214158902Y-135007157D01*
X214083030Y-135083030D01*
X214007157Y-135158902D01*
X214007155Y-135158906D01*
X212923296Y-136781016D01*
X212923293Y-136781019D01*
X212841170Y-136979283D01*
X212548626Y-138450000D01*
X123451374Y-138450000D01*
X123158830Y-136979283D01*
X123076707Y-136781019D01*
X123076705Y-136781017D01*
X121992845Y-135158906D01*
X121992843Y-135158902D01*
X121916970Y-135083030D01*
X121841098Y-135007157D01*
X121841094Y-135007155D01*
X120218984Y-133923296D01*
X120218981Y-133923293D01*
X120020717Y-133841170D01*
X118550000Y-133548626D01*
X118550000Y-130696014D01*
X150800423Y-130696014D01*
X151104244Y-131431316D01*
X151666325Y-131994379D01*
X152401096Y-132299482D01*
X153196694Y-132300177D01*
X153931996Y-131996356D01*
X154495059Y-131434275D01*
X154800162Y-130699504D01*
X154800165Y-130696014D01*
X181199143Y-130696014D01*
X181502964Y-131431316D01*
X182065045Y-131994379D01*
X182799816Y-132299482D01*
X183595414Y-132300177D01*
X184330716Y-131996356D01*
X184893779Y-131434275D01*
X185198882Y-130699504D01*
X185199577Y-129903906D01*
X184895756Y-129168604D01*
X184333675Y-128605541D01*
X183598904Y-128300438D01*
X182803306Y-128299743D01*
X182068004Y-128603564D01*
X181504941Y-129165645D01*
X181199838Y-129900416D01*
X181199143Y-130696014D01*
X154800165Y-130696014D01*
X154800857Y-129903906D01*
X154497036Y-129168604D01*
X153934955Y-128605541D01*
X153200184Y-128300438D01*
X152404586Y-128299743D01*
X151669284Y-128603564D01*
X151106221Y-129165645D01*
X150801118Y-129900416D01*
X150800423Y-130696014D01*
X118550000Y-130696014D01*
X118550000Y-125523219D01*
X144754861Y-125523219D01*
X144891589Y-125854126D01*
X145144542Y-126107521D01*
X145475211Y-126244826D01*
X145599993Y-126244935D01*
X145599834Y-126426937D01*
X145736562Y-126757844D01*
X145989515Y-127011239D01*
X146320184Y-127148544D01*
X146678226Y-127148857D01*
X147009133Y-127012129D01*
X147262528Y-126759176D01*
X147399833Y-126428507D01*
X147399850Y-126409501D01*
X148059351Y-125750000D01*
X162687514Y-125750000D01*
X162466873Y-125970256D01*
X162190446Y-126635968D01*
X162189817Y-127356790D01*
X162465082Y-128022983D01*
X162974336Y-128533127D01*
X163640048Y-128809554D01*
X164360870Y-128810183D01*
X165027063Y-128534918D01*
X165537207Y-128025664D01*
X165813634Y-127359952D01*
X165814263Y-126639130D01*
X165538998Y-125972937D01*
X165316450Y-125750000D01*
X166685474Y-125750000D01*
X166464833Y-125970256D01*
X166188406Y-126635968D01*
X166187777Y-127356790D01*
X166463042Y-128022983D01*
X166972296Y-128533127D01*
X167638008Y-128809554D01*
X168358830Y-128810183D01*
X169025023Y-128534918D01*
X169535167Y-128025664D01*
X169811594Y-127359952D01*
X169811596Y-127356790D01*
X170185737Y-127356790D01*
X170461002Y-128022983D01*
X170970256Y-128533127D01*
X171635968Y-128809554D01*
X172356790Y-128810183D01*
X173022983Y-128534918D01*
X173533127Y-128025664D01*
X173809554Y-127359952D01*
X173810183Y-126639130D01*
X173534918Y-125972937D01*
X173025664Y-125462793D01*
X172359952Y-125186366D01*
X171639130Y-125185737D01*
X170972937Y-125461002D01*
X170462793Y-125970256D01*
X170186366Y-126635968D01*
X170185737Y-127356790D01*
X169811596Y-127356790D01*
X169812223Y-126639130D01*
X169536958Y-125972937D01*
X169027704Y-125462793D01*
X168723262Y-125336378D01*
X169362163Y-124697477D01*
X169636988Y-124811594D01*
X170357810Y-124812223D01*
X171024003Y-124536958D01*
X171534147Y-124027704D01*
X171649459Y-123750000D01*
X195350000Y-123750000D01*
X195637013Y-123692910D01*
X195880330Y-123530330D01*
X197660519Y-121750141D01*
X197678236Y-121750156D01*
X198009143Y-121613428D01*
X198262538Y-121360475D01*
X198399843Y-121029806D01*
X198400156Y-120671764D01*
X198263428Y-120340857D01*
X198010475Y-120087462D01*
X197679806Y-119950157D01*
X197321764Y-119949844D01*
X196990857Y-120086572D01*
X196849889Y-120227294D01*
X196610475Y-119987462D01*
X196279806Y-119850157D01*
X195921764Y-119849844D01*
X195590857Y-119986572D01*
X195337462Y-120239525D01*
X195312351Y-120300000D01*
X173262399Y-120300000D01*
X173533127Y-120029744D01*
X173809554Y-119364032D01*
X173810183Y-118643210D01*
X173534918Y-117977017D01*
X173025664Y-117466873D01*
X172359952Y-117190446D01*
X171639130Y-117189817D01*
X170972937Y-117465082D01*
X170462793Y-117974336D01*
X170186366Y-118640048D01*
X170185737Y-119360870D01*
X170461002Y-120027063D01*
X170733463Y-120300000D01*
X169311898Y-120300000D01*
X169322608Y-120289290D01*
X169235477Y-120202159D01*
X169509142Y-120067594D01*
X169802035Y-119408960D01*
X169820584Y-118688377D01*
X169561966Y-118015545D01*
X169509142Y-117936486D01*
X169235475Y-117801920D01*
X168035355Y-119002040D01*
X168049498Y-119016183D01*
X168014143Y-119051538D01*
X168000000Y-119037395D01*
X166799880Y-120237515D01*
X166934446Y-120511182D01*
X167276893Y-120663467D01*
X166637837Y-121302523D01*
X166363012Y-121188406D01*
X165642190Y-121187777D01*
X164975997Y-121463042D01*
X164465853Y-121972296D01*
X164350541Y-122250000D01*
X148000000Y-122250000D01*
X147712987Y-122307090D01*
X147469670Y-122469670D01*
X145494498Y-124444842D01*
X145476781Y-124444827D01*
X145145874Y-124581555D01*
X144892479Y-124834508D01*
X144755174Y-125165177D01*
X144754861Y-125523219D01*
X118550000Y-125523219D01*
X118550000Y-117690130D01*
X162180335Y-117690130D01*
X162180335Y-120313950D01*
X162219141Y-120509040D01*
X162329650Y-120674430D01*
X162495040Y-120784939D01*
X162690130Y-120823745D01*
X165313950Y-120823745D01*
X165509040Y-120784939D01*
X165674430Y-120674430D01*
X165784939Y-120509040D01*
X165823745Y-120313950D01*
X165823745Y-119315703D01*
X166179416Y-119315703D01*
X166438034Y-119988535D01*
X166490858Y-120067594D01*
X166764525Y-120202160D01*
X167964645Y-119002040D01*
X166764525Y-117801920D01*
X166490858Y-117936486D01*
X166197965Y-118595120D01*
X166179416Y-119315703D01*
X165823745Y-119315703D01*
X165823745Y-117766565D01*
X166799880Y-117766565D01*
X168000000Y-118966685D01*
X169200120Y-117766565D01*
X169065554Y-117492898D01*
X168406920Y-117200005D01*
X167686337Y-117181456D01*
X167013505Y-117440074D01*
X166934446Y-117492898D01*
X166799880Y-117766565D01*
X165823745Y-117766565D01*
X165823745Y-117690130D01*
X165784939Y-117495040D01*
X165674430Y-117329650D01*
X165509040Y-117219141D01*
X165313950Y-117180335D01*
X162690130Y-117180335D01*
X162495040Y-117219141D01*
X162329650Y-117329650D01*
X162219141Y-117495040D01*
X162180335Y-117690130D01*
X118550000Y-117690130D01*
X118550000Y-112598514D01*
X152301563Y-112598514D01*
X152605384Y-113333816D01*
X153167465Y-113896879D01*
X153902236Y-114201982D01*
X154697834Y-114202677D01*
X155433136Y-113898856D01*
X155996199Y-113336775D01*
X156301302Y-112602004D01*
X156301305Y-112598514D01*
X179698003Y-112598514D01*
X180001824Y-113333816D01*
X180563905Y-113896879D01*
X181298676Y-114201982D01*
X182094274Y-114202677D01*
X182829576Y-113898856D01*
X183392639Y-113336775D01*
X183697742Y-112602004D01*
X183698437Y-111806406D01*
X183394616Y-111071104D01*
X182832535Y-110508041D01*
X182097764Y-110202938D01*
X181302166Y-110202243D01*
X180566864Y-110506064D01*
X180003801Y-111068145D01*
X179698698Y-111802916D01*
X179698003Y-112598514D01*
X156301305Y-112598514D01*
X156301997Y-111806406D01*
X155998176Y-111071104D01*
X155436095Y-110508041D01*
X154701324Y-110202938D01*
X153905726Y-110202243D01*
X153170424Y-110506064D01*
X152607361Y-111068145D01*
X152302258Y-111802916D01*
X152301563Y-112598514D01*
X118550000Y-112598514D01*
X118550000Y-91978236D01*
X145749844Y-91978236D01*
X145886572Y-92309143D01*
X146139525Y-92562538D01*
X146470194Y-92699843D01*
X146714310Y-92700056D01*
X146870445Y-92804383D01*
X147100055Y-92850055D01*
X154651527Y-92850055D01*
X155050000Y-93248528D01*
X155050000Y-94482272D01*
X154075736Y-95456536D01*
X153945672Y-95651190D01*
X153922767Y-95766344D01*
X153737462Y-95951325D01*
X153600157Y-96281994D01*
X153599844Y-96640036D01*
X153736572Y-96970943D01*
X153989525Y-97224338D01*
X154320194Y-97361643D01*
X154678236Y-97361956D01*
X155009143Y-97225228D01*
X155262538Y-96972275D01*
X155299922Y-96882244D01*
X155336572Y-96970943D01*
X155589525Y-97224338D01*
X155920194Y-97361643D01*
X156278236Y-97361956D01*
X156609143Y-97225228D01*
X156862538Y-96972275D01*
X156899922Y-96882244D01*
X156936572Y-96970943D01*
X157189525Y-97224338D01*
X157520194Y-97361643D01*
X157878236Y-97361956D01*
X158209143Y-97225228D01*
X158462538Y-96972275D01*
X158499922Y-96882244D01*
X158536572Y-96970943D01*
X158789525Y-97224338D01*
X159120194Y-97361643D01*
X159478236Y-97361956D01*
X159809143Y-97225228D01*
X160062538Y-96972275D01*
X160199843Y-96641606D01*
X160200156Y-96283564D01*
X160063428Y-95952657D01*
X159810475Y-95699262D01*
X159479806Y-95561957D01*
X159248483Y-95561755D01*
X157600000Y-93913272D01*
X157600000Y-92652900D01*
X157554328Y-92423290D01*
X157424264Y-92228636D01*
X156445639Y-91250011D01*
X161651483Y-91250011D01*
X163600000Y-93198528D01*
X163600000Y-95789071D01*
X163437462Y-95951325D01*
X163300157Y-96281994D01*
X163299844Y-96640036D01*
X163436572Y-96970943D01*
X163689525Y-97224338D01*
X164020194Y-97361643D01*
X164378236Y-97361956D01*
X164709143Y-97225228D01*
X164962538Y-96972275D01*
X164999922Y-96882244D01*
X165036572Y-96970943D01*
X165289525Y-97224338D01*
X165620194Y-97361643D01*
X165978236Y-97361956D01*
X166309143Y-97225228D01*
X166562538Y-96972275D01*
X166699843Y-96641606D01*
X166700156Y-96283564D01*
X166563428Y-95952657D01*
X166310475Y-95699262D01*
X165979806Y-95561957D01*
X165748483Y-95561755D01*
X165250000Y-95063272D01*
X165250000Y-92800000D01*
X165204328Y-92570390D01*
X165074264Y-92375736D01*
X162524264Y-89825736D01*
X162329610Y-89695672D01*
X162100000Y-89650000D01*
X150641458Y-89650000D01*
X150649843Y-89629806D01*
X150650156Y-89271764D01*
X150513428Y-88940857D01*
X150260475Y-88687462D01*
X149929806Y-88550157D01*
X149571764Y-88549844D01*
X149240857Y-88686572D01*
X149225151Y-88702251D01*
X149160475Y-88637462D01*
X148829806Y-88500157D01*
X148471764Y-88499844D01*
X148140857Y-88636572D01*
X147887462Y-88889525D01*
X147750157Y-89220194D01*
X147749844Y-89578236D01*
X147886572Y-89909143D01*
X147891603Y-89914183D01*
X147752857Y-89914062D01*
X147732123Y-89863881D01*
X147479170Y-89610486D01*
X147148501Y-89473181D01*
X146790459Y-89472868D01*
X146459552Y-89609596D01*
X146206157Y-89862549D01*
X146068852Y-90193218D01*
X146068539Y-90551260D01*
X146205267Y-90882167D01*
X146295583Y-90972641D01*
X146140857Y-91036572D01*
X145887462Y-91289525D01*
X145750157Y-91620194D01*
X145749844Y-91978236D01*
X118550000Y-91978236D01*
X118550000Y-82778236D01*
X150949844Y-82778236D01*
X151086572Y-83109143D01*
X151339525Y-83362538D01*
X151670194Y-83499843D01*
X152028236Y-83500156D01*
X152359143Y-83363428D01*
X152612538Y-83110475D01*
X152616888Y-83100000D01*
X168301472Y-83100000D01*
X172025736Y-86824264D01*
X172220390Y-86954328D01*
X172450000Y-87000000D01*
X174415003Y-87000000D01*
X174644613Y-86954328D01*
X174839267Y-86824264D01*
X175067774Y-86595757D01*
X175297437Y-86595958D01*
X175628344Y-86459230D01*
X175881739Y-86206277D01*
X176019044Y-85875608D01*
X176019357Y-85517566D01*
X175882629Y-85186659D01*
X175629676Y-84933264D01*
X175299007Y-84795959D01*
X174940965Y-84795646D01*
X174610058Y-84932374D01*
X174356663Y-85185327D01*
X174219358Y-85515996D01*
X174219156Y-85747319D01*
X174166475Y-85800000D01*
X173611734Y-85800000D01*
X173661643Y-85679806D01*
X173661956Y-85321764D01*
X173525228Y-84990857D01*
X173272275Y-84737462D01*
X172941606Y-84600157D01*
X172583564Y-84599844D01*
X172252657Y-84736572D01*
X172243871Y-84745343D01*
X169174253Y-81675725D01*
X168979599Y-81545661D01*
X168749989Y-81499989D01*
X153598436Y-81499989D01*
X153474173Y-81375726D01*
X153279519Y-81245662D01*
X153183475Y-81226558D01*
X152994699Y-81037452D01*
X152664030Y-80900147D01*
X152305988Y-80899834D01*
X151975081Y-81036562D01*
X151721686Y-81289515D01*
X151584381Y-81620184D01*
X151584280Y-81735992D01*
X151340857Y-81836572D01*
X151087462Y-82089525D01*
X150950157Y-82420194D01*
X150949844Y-82778236D01*
X118550000Y-82778236D01*
X118550000Y-80678236D01*
X153749844Y-80678236D01*
X153886572Y-81009143D01*
X154139525Y-81262538D01*
X154470194Y-81399843D01*
X154828236Y-81400156D01*
X155159143Y-81263428D01*
X155322857Y-81100000D01*
X175304590Y-81100000D01*
X179903163Y-85698573D01*
X179902962Y-85928236D01*
X180039690Y-86259143D01*
X180292643Y-86512538D01*
X180623312Y-86649843D01*
X180981354Y-86650156D01*
X181312261Y-86513428D01*
X181475975Y-86350000D01*
X181751472Y-86350000D01*
X182292053Y-86890581D01*
X182486707Y-87020645D01*
X182716317Y-87066317D01*
X188483683Y-87066317D01*
X188713293Y-87020645D01*
X188907947Y-86890581D01*
X189048573Y-86749955D01*
X189278236Y-86750156D01*
X189609143Y-86613428D01*
X189862538Y-86360475D01*
X189887960Y-86299251D01*
X189970389Y-86354328D01*
X190200000Y-86400000D01*
X190727271Y-86400000D01*
X190889525Y-86562538D01*
X191220194Y-86699843D01*
X191578236Y-86700156D01*
X191909143Y-86563428D01*
X192162538Y-86310475D01*
X192299843Y-85979806D01*
X192300156Y-85621764D01*
X192163428Y-85290857D01*
X191910475Y-85037462D01*
X191579806Y-84900157D01*
X191221764Y-84899844D01*
X190890857Y-85036572D01*
X190727143Y-85200000D01*
X190448528Y-85200000D01*
X189924263Y-84675735D01*
X189729609Y-84545671D01*
X189499999Y-84499999D01*
X188650001Y-84499999D01*
X188420391Y-84545671D01*
X188225737Y-84675735D01*
X187785156Y-85116316D01*
X183757431Y-85116316D01*
X183595177Y-84953778D01*
X183264508Y-84816473D01*
X182906466Y-84816160D01*
X182575559Y-84952888D01*
X182322164Y-85205841D01*
X182305368Y-85246292D01*
X182229610Y-85195672D01*
X182000000Y-85150000D01*
X181475847Y-85150000D01*
X181313593Y-84987462D01*
X180982924Y-84850157D01*
X180751601Y-84849955D01*
X176551646Y-80650000D01*
X180051472Y-80650000D01*
X182750045Y-83348573D01*
X182749844Y-83578236D01*
X182886572Y-83909143D01*
X183139525Y-84162538D01*
X183470194Y-84299843D01*
X183828236Y-84300156D01*
X184159143Y-84163428D01*
X184412538Y-83910475D01*
X184549843Y-83579806D01*
X184550156Y-83221764D01*
X184413428Y-82890857D01*
X184160475Y-82637462D01*
X183829806Y-82500157D01*
X183598483Y-82499955D01*
X180724264Y-79625736D01*
X180529610Y-79495672D01*
X180300000Y-79450000D01*
X156502979Y-79450000D01*
X156328705Y-79275726D01*
X156134051Y-79145662D01*
X156038007Y-79126558D01*
X155849231Y-78937452D01*
X155518562Y-78800147D01*
X155160520Y-78799834D01*
X154829613Y-78936562D01*
X154576218Y-79189515D01*
X154438913Y-79520184D01*
X154438831Y-79613451D01*
X154140857Y-79736572D01*
X153887462Y-79989525D01*
X153750157Y-80320194D01*
X153749844Y-80678236D01*
X118550000Y-80678236D01*
X118550000Y-72696014D01*
X140800443Y-72696014D01*
X141104264Y-73431316D01*
X141666345Y-73994379D01*
X142401116Y-74299482D01*
X143196714Y-74300177D01*
X143932016Y-73996356D01*
X144495079Y-73434275D01*
X144800182Y-72699504D01*
X144800185Y-72696014D01*
X191199123Y-72696014D01*
X191502944Y-73431316D01*
X192065025Y-73994379D01*
X192799796Y-74299482D01*
X193595394Y-74300177D01*
X194330696Y-73996356D01*
X194893759Y-73434275D01*
X195198862Y-72699504D01*
X195199557Y-71903906D01*
X194895736Y-71168604D01*
X194333655Y-70605541D01*
X193598884Y-70300438D01*
X192803286Y-70299743D01*
X192067984Y-70603564D01*
X191504921Y-71165645D01*
X191199818Y-71900416D01*
X191199123Y-72696014D01*
X144800185Y-72696014D01*
X144800877Y-71903906D01*
X144497056Y-71168604D01*
X143934975Y-70605541D01*
X143200204Y-70300438D01*
X142404606Y-70299743D01*
X141669304Y-70603564D01*
X141106241Y-71165645D01*
X140801138Y-71900416D01*
X140800443Y-72696014D01*
X118550000Y-72696014D01*
X118550000Y-69356790D01*
X152189837Y-69356790D01*
X152465102Y-70022983D01*
X152974356Y-70533127D01*
X153640068Y-70809554D01*
X154360890Y-70810183D01*
X155027083Y-70534918D01*
X155537227Y-70025664D01*
X155813654Y-69359952D01*
X155813656Y-69356790D01*
X156187797Y-69356790D01*
X156463062Y-70022983D01*
X156972316Y-70533127D01*
X157638028Y-70809554D01*
X158358850Y-70810183D01*
X159025043Y-70534918D01*
X159535187Y-70025664D01*
X159811614Y-69359952D01*
X159811616Y-69356790D01*
X160188297Y-69356790D01*
X160463562Y-70022983D01*
X160972816Y-70533127D01*
X161638528Y-70809554D01*
X162359350Y-70810183D01*
X163025543Y-70534918D01*
X163535687Y-70025664D01*
X163812114Y-69359952D01*
X163812116Y-69356790D01*
X164188797Y-69356790D01*
X164464062Y-70022983D01*
X164973316Y-70533127D01*
X165639028Y-70809554D01*
X166359850Y-70810183D01*
X167026043Y-70534918D01*
X167536187Y-70025664D01*
X167812614Y-69359952D01*
X167812616Y-69356790D01*
X168186757Y-69356790D01*
X168462022Y-70022983D01*
X168971276Y-70533127D01*
X169636988Y-70809554D01*
X170357810Y-70810183D01*
X171024003Y-70534918D01*
X171534147Y-70025664D01*
X171810574Y-69359952D01*
X171810576Y-69356790D01*
X172187257Y-69356790D01*
X172462522Y-70022983D01*
X172971776Y-70533127D01*
X173637488Y-70809554D01*
X174358310Y-70810183D01*
X175024503Y-70534918D01*
X175534647Y-70025664D01*
X175811074Y-69359952D01*
X175811076Y-69356790D01*
X176187757Y-69356790D01*
X176463022Y-70022983D01*
X176972276Y-70533127D01*
X177637988Y-70809554D01*
X178358810Y-70810183D01*
X179025003Y-70534918D01*
X179535147Y-70025664D01*
X179811574Y-69359952D01*
X179811576Y-69356790D01*
X180185717Y-69356790D01*
X180460982Y-70022983D01*
X180970236Y-70533127D01*
X181635948Y-70809554D01*
X182356770Y-70810183D01*
X183022963Y-70534918D01*
X183533107Y-70025664D01*
X183809534Y-69359952D01*
X183810163Y-68639130D01*
X183534898Y-67972937D01*
X183025644Y-67462793D01*
X182359932Y-67186366D01*
X181639110Y-67185737D01*
X180972917Y-67461002D01*
X180462773Y-67970256D01*
X180186346Y-68635968D01*
X180185717Y-69356790D01*
X179811576Y-69356790D01*
X179812203Y-68639130D01*
X179536938Y-67972937D01*
X179027684Y-67462793D01*
X178361972Y-67186366D01*
X177641150Y-67185737D01*
X176974957Y-67461002D01*
X176464813Y-67970256D01*
X176188386Y-68635968D01*
X176187757Y-69356790D01*
X175811076Y-69356790D01*
X175811703Y-68639130D01*
X175536438Y-67972937D01*
X175027184Y-67462793D01*
X174361472Y-67186366D01*
X173640650Y-67185737D01*
X172974457Y-67461002D01*
X172464313Y-67970256D01*
X172187886Y-68635968D01*
X172187257Y-69356790D01*
X171810576Y-69356790D01*
X171811203Y-68639130D01*
X171535938Y-67972937D01*
X171026684Y-67462793D01*
X170360972Y-67186366D01*
X169640150Y-67185737D01*
X168973957Y-67461002D01*
X168463813Y-67970256D01*
X168187386Y-68635968D01*
X168186757Y-69356790D01*
X167812616Y-69356790D01*
X167813243Y-68639130D01*
X167537978Y-67972937D01*
X167028724Y-67462793D01*
X166363012Y-67186366D01*
X165642190Y-67185737D01*
X164975997Y-67461002D01*
X164465853Y-67970256D01*
X164189426Y-68635968D01*
X164188797Y-69356790D01*
X163812116Y-69356790D01*
X163812743Y-68639130D01*
X163537478Y-67972937D01*
X163028224Y-67462793D01*
X162362512Y-67186366D01*
X161641690Y-67185737D01*
X160975497Y-67461002D01*
X160465353Y-67970256D01*
X160188926Y-68635968D01*
X160188297Y-69356790D01*
X159811616Y-69356790D01*
X159812243Y-68639130D01*
X159536978Y-67972937D01*
X159027724Y-67462793D01*
X158362012Y-67186366D01*
X157641190Y-67185737D01*
X156974997Y-67461002D01*
X156464853Y-67970256D01*
X156188426Y-68635968D01*
X156187797Y-69356790D01*
X155813656Y-69356790D01*
X155814283Y-68639130D01*
X155539018Y-67972937D01*
X155029764Y-67462793D01*
X154364052Y-67186366D01*
X153643230Y-67185737D01*
X152977037Y-67461002D01*
X152466893Y-67970256D01*
X152190466Y-68635968D01*
X152189837Y-69356790D01*
X118550000Y-69356790D01*
X118550000Y-65358830D01*
X154188817Y-65358830D01*
X154464082Y-66025023D01*
X154973336Y-66535167D01*
X155639048Y-66811594D01*
X156359870Y-66812223D01*
X157026063Y-66536958D01*
X157536207Y-66027704D01*
X157812634Y-65361992D01*
X157812636Y-65358830D01*
X158189317Y-65358830D01*
X158464582Y-66025023D01*
X158973836Y-66535167D01*
X159639548Y-66811594D01*
X160360370Y-66812223D01*
X161026563Y-66536958D01*
X161536707Y-66027704D01*
X161813134Y-65361992D01*
X161813136Y-65358830D01*
X162189817Y-65358830D01*
X162465082Y-66025023D01*
X162974336Y-66535167D01*
X163640048Y-66811594D01*
X164360870Y-66812223D01*
X165027063Y-66536958D01*
X165537207Y-66027704D01*
X165813634Y-65361992D01*
X165813636Y-65358830D01*
X166187777Y-65358830D01*
X166463042Y-66025023D01*
X166972296Y-66535167D01*
X167638008Y-66811594D01*
X168358830Y-66812223D01*
X169025023Y-66536958D01*
X169327032Y-66235475D01*
X170797840Y-66235475D01*
X170932406Y-66509142D01*
X171591040Y-66802035D01*
X172311623Y-66820584D01*
X172984455Y-66561966D01*
X173063514Y-66509142D01*
X173198080Y-66235475D01*
X171997960Y-65035355D01*
X170797840Y-66235475D01*
X169327032Y-66235475D01*
X169535167Y-66027704D01*
X169811594Y-65361992D01*
X169811636Y-65313663D01*
X170177376Y-65313663D01*
X170435994Y-65986495D01*
X170488818Y-66065554D01*
X170762485Y-66200120D01*
X171962605Y-65000000D01*
X172033315Y-65000000D01*
X173233435Y-66200120D01*
X173507102Y-66065554D01*
X173799995Y-65406920D01*
X173801232Y-65358830D01*
X174186237Y-65358830D01*
X174461502Y-66025023D01*
X174970756Y-66535167D01*
X175636468Y-66811594D01*
X176357290Y-66812223D01*
X177023483Y-66536958D01*
X177533627Y-66027704D01*
X177810054Y-65361992D01*
X177810056Y-65358830D01*
X178186737Y-65358830D01*
X178462002Y-66025023D01*
X178971256Y-66535167D01*
X179636968Y-66811594D01*
X180357790Y-66812223D01*
X181023983Y-66536958D01*
X181534127Y-66027704D01*
X181810554Y-65361992D01*
X181811183Y-64641170D01*
X181535918Y-63974977D01*
X181026664Y-63464833D01*
X180360952Y-63188406D01*
X179640130Y-63187777D01*
X178973937Y-63463042D01*
X178463793Y-63972296D01*
X178187366Y-64638008D01*
X178186737Y-65358830D01*
X177810056Y-65358830D01*
X177810683Y-64641170D01*
X177535418Y-63974977D01*
X177026164Y-63464833D01*
X176360452Y-63188406D01*
X175639630Y-63187777D01*
X174973437Y-63463042D01*
X174463293Y-63972296D01*
X174186866Y-64638008D01*
X174186237Y-65358830D01*
X173801232Y-65358830D01*
X173818544Y-64686337D01*
X173559926Y-64013505D01*
X173507102Y-63934446D01*
X173233435Y-63799880D01*
X172033315Y-65000000D01*
X171962605Y-65000000D01*
X170762485Y-63799880D01*
X170488818Y-63934446D01*
X170195925Y-64593080D01*
X170177376Y-65313663D01*
X169811636Y-65313663D01*
X169812223Y-64641170D01*
X169536958Y-63974977D01*
X169326874Y-63764525D01*
X170797840Y-63764525D01*
X171997960Y-64964645D01*
X173198080Y-63764525D01*
X173063514Y-63490858D01*
X172404880Y-63197965D01*
X171684297Y-63179416D01*
X171011465Y-63438034D01*
X170932406Y-63490858D01*
X170797840Y-63764525D01*
X169326874Y-63764525D01*
X169027704Y-63464833D01*
X168361992Y-63188406D01*
X167641170Y-63187777D01*
X166974977Y-63463042D01*
X166464833Y-63972296D01*
X166188406Y-64638008D01*
X166187777Y-65358830D01*
X165813636Y-65358830D01*
X165814263Y-64641170D01*
X165538998Y-63974977D01*
X165029744Y-63464833D01*
X164364032Y-63188406D01*
X163643210Y-63187777D01*
X162977017Y-63463042D01*
X162466873Y-63972296D01*
X162190446Y-64638008D01*
X162189817Y-65358830D01*
X161813136Y-65358830D01*
X161813763Y-64641170D01*
X161538498Y-63974977D01*
X161029244Y-63464833D01*
X160363532Y-63188406D01*
X159642710Y-63187777D01*
X158976517Y-63463042D01*
X158466373Y-63972296D01*
X158189946Y-64638008D01*
X158189317Y-65358830D01*
X157812636Y-65358830D01*
X157813263Y-64641170D01*
X157537998Y-63974977D01*
X157028744Y-63464833D01*
X156363032Y-63188406D01*
X155642210Y-63187777D01*
X154976017Y-63463042D01*
X154465873Y-63972296D01*
X154189446Y-64638008D01*
X154188817Y-65358830D01*
X118550000Y-65358830D01*
X118550000Y-59690130D01*
X152180355Y-59690130D01*
X152180355Y-62313950D01*
X152219161Y-62509040D01*
X152329670Y-62674430D01*
X152495060Y-62784939D01*
X152690150Y-62823745D01*
X155313970Y-62823745D01*
X155509060Y-62784939D01*
X155674450Y-62674430D01*
X155784959Y-62509040D01*
X155823765Y-62313950D01*
X155823765Y-61360870D01*
X156187797Y-61360870D01*
X156463062Y-62027063D01*
X156972316Y-62537207D01*
X157638028Y-62813634D01*
X158358850Y-62814263D01*
X159025043Y-62538998D01*
X159535187Y-62029744D01*
X159811614Y-61364032D01*
X159811616Y-61360870D01*
X160188297Y-61360870D01*
X160463562Y-62027063D01*
X160972816Y-62537207D01*
X161638528Y-62813634D01*
X162359350Y-62814263D01*
X163025543Y-62538998D01*
X163535687Y-62029744D01*
X163812114Y-61364032D01*
X163812116Y-61360870D01*
X164188797Y-61360870D01*
X164464062Y-62027063D01*
X164973316Y-62537207D01*
X165639028Y-62813634D01*
X166359850Y-62814263D01*
X167026043Y-62538998D01*
X167536187Y-62029744D01*
X167812614Y-61364032D01*
X167812616Y-61360870D01*
X168186757Y-61360870D01*
X168462022Y-62027063D01*
X168971276Y-62537207D01*
X169636988Y-62813634D01*
X170357810Y-62814263D01*
X171024003Y-62538998D01*
X171534147Y-62029744D01*
X171810574Y-61364032D01*
X171810576Y-61360870D01*
X172187257Y-61360870D01*
X172462522Y-62027063D01*
X172971776Y-62537207D01*
X173637488Y-62813634D01*
X174358310Y-62814263D01*
X175024503Y-62538998D01*
X175534647Y-62029744D01*
X175811074Y-61364032D01*
X175811076Y-61360870D01*
X176187757Y-61360870D01*
X176463022Y-62027063D01*
X176972276Y-62537207D01*
X177637988Y-62813634D01*
X178358810Y-62814263D01*
X179025003Y-62538998D01*
X179535147Y-62029744D01*
X179811574Y-61364032D01*
X179811576Y-61360870D01*
X180185717Y-61360870D01*
X180460982Y-62027063D01*
X180970236Y-62537207D01*
X181635948Y-62813634D01*
X182356770Y-62814263D01*
X183022963Y-62538998D01*
X183533107Y-62029744D01*
X183809534Y-61364032D01*
X183810163Y-60643210D01*
X183534898Y-59977017D01*
X183025644Y-59466873D01*
X182359932Y-59190446D01*
X181639110Y-59189817D01*
X180972917Y-59465082D01*
X180462773Y-59974336D01*
X180186346Y-60640048D01*
X180185717Y-61360870D01*
X179811576Y-61360870D01*
X179812203Y-60643210D01*
X179536938Y-59977017D01*
X179027684Y-59466873D01*
X178361972Y-59190446D01*
X177641150Y-59189817D01*
X176974957Y-59465082D01*
X176464813Y-59974336D01*
X176188386Y-60640048D01*
X176187757Y-61360870D01*
X175811076Y-61360870D01*
X175811703Y-60643210D01*
X175536438Y-59977017D01*
X175027184Y-59466873D01*
X174361472Y-59190446D01*
X173640650Y-59189817D01*
X172974457Y-59465082D01*
X172464313Y-59974336D01*
X172187886Y-60640048D01*
X172187257Y-61360870D01*
X171810576Y-61360870D01*
X171811203Y-60643210D01*
X171535938Y-59977017D01*
X171026684Y-59466873D01*
X170360972Y-59190446D01*
X169640150Y-59189817D01*
X168973957Y-59465082D01*
X168463813Y-59974336D01*
X168187386Y-60640048D01*
X168186757Y-61360870D01*
X167812616Y-61360870D01*
X167813243Y-60643210D01*
X167537978Y-59977017D01*
X167028724Y-59466873D01*
X166363012Y-59190446D01*
X165642190Y-59189817D01*
X164975997Y-59465082D01*
X164465853Y-59974336D01*
X164189426Y-60640048D01*
X164188797Y-61360870D01*
X163812116Y-61360870D01*
X163812743Y-60643210D01*
X163537478Y-59977017D01*
X163028224Y-59466873D01*
X162362512Y-59190446D01*
X161641690Y-59189817D01*
X160975497Y-59465082D01*
X160465353Y-59974336D01*
X160188926Y-60640048D01*
X160188297Y-61360870D01*
X159811616Y-61360870D01*
X159812243Y-60643210D01*
X159536978Y-59977017D01*
X159027724Y-59466873D01*
X158362012Y-59190446D01*
X157641190Y-59189817D01*
X156974997Y-59465082D01*
X156464853Y-59974336D01*
X156188426Y-60640048D01*
X156187797Y-61360870D01*
X155823765Y-61360870D01*
X155823765Y-59690130D01*
X155784959Y-59495040D01*
X155674450Y-59329650D01*
X155509060Y-59219141D01*
X155313970Y-59180335D01*
X152690150Y-59180335D01*
X152495060Y-59219141D01*
X152329670Y-59329650D01*
X152219161Y-59495040D01*
X152180355Y-59690130D01*
X118550000Y-59690130D01*
X118550000Y-54598514D01*
X142301583Y-54598514D01*
X142605404Y-55333816D01*
X143167485Y-55896879D01*
X143902256Y-56201982D01*
X144697854Y-56202677D01*
X145433156Y-55898856D01*
X145996219Y-55336775D01*
X146301322Y-54602004D01*
X146301325Y-54598514D01*
X189697983Y-54598514D01*
X190001804Y-55333816D01*
X190563885Y-55896879D01*
X191298656Y-56201982D01*
X192094254Y-56202677D01*
X192829556Y-55898856D01*
X193392619Y-55336775D01*
X193697722Y-54602004D01*
X193698417Y-53806406D01*
X193394596Y-53071104D01*
X192832515Y-52508041D01*
X192097744Y-52202938D01*
X191302146Y-52202243D01*
X190566844Y-52506064D01*
X190003781Y-53068145D01*
X189698678Y-53802916D01*
X189697983Y-54598514D01*
X146301325Y-54598514D01*
X146302017Y-53806406D01*
X145998196Y-53071104D01*
X145436115Y-52508041D01*
X144701344Y-52202938D01*
X143905746Y-52202243D01*
X143170444Y-52506064D01*
X142607381Y-53068145D01*
X142302278Y-53802916D01*
X142301583Y-54598514D01*
X118550000Y-54598514D01*
X118550000Y-54451374D01*
X120020717Y-54158830D01*
X120218981Y-54076707D01*
X120218984Y-54076704D01*
X121841094Y-52992845D01*
X121841098Y-52992843D01*
X121916970Y-52916970D01*
X121992843Y-52841098D01*
X121992845Y-52841094D01*
X123076705Y-51218983D01*
X123076707Y-51218981D01*
X123158830Y-51020717D01*
X123451374Y-49550000D01*
X168406498Y-49550000D01*
X165528249Y-52428249D01*
M02*
