G04 #@! TF.GenerationSoftware,KiCad,Pcbnew,(2017-01-11 revision e99b79cb2)-master*
G04 #@! TF.CreationDate,2017-12-19T18:49:03+02:00*
G04 #@! TF.ProjectId,fsb,6673622E6B696361645F706362000000,rev?*
G04 #@! TF.FileFunction,Soldermask,Top*
G04 #@! TF.FilePolarity,Negative*
%FSLAX46Y46*%
G04 Gerber Fmt 4.6, Leading zero omitted, Abs format (unit mm)*
G04 Created by KiCad (PCBNEW (2017-01-11 revision e99b79cb2)-master) date Tue Dec 19 18:49:03 2017*
%MOMM*%
%LPD*%
G01*
G04 APERTURE LIST*
%ADD10C,0.100000*%
%ADD11R,2.179320X1.900000*%
%ADD12R,2.623820X2.623820*%
%ADD13C,2.623820*%
%ADD14C,2.999740*%
%ADD15R,1.297940X1.399540*%
%ADD16R,0.762000X0.939800*%
%ADD17R,2.400000X2.700000*%
%ADD18R,0.939800X0.762000*%
%ADD19R,0.998220X1.899920*%
%ADD20R,0.635000X1.905000*%
%ADD21R,2.000000X2.800000*%
%ADD22R,0.700000X1.350000*%
%ADD23R,1.300000X2.000000*%
%ADD24R,0.700000X1.200000*%
%ADD25R,1.400000X1.900000*%
%ADD26R,6.100000X5.970000*%
%ADD27R,5.970000X6.100000*%
%ADD28R,1.900000X1.400000*%
%ADD29R,1.899920X0.998220*%
%ADD30R,0.398780X1.498600*%
%ADD31R,0.279400X1.498600*%
%ADD32R,1.498600X0.398780*%
%ADD33R,1.498600X0.279400*%
%ADD34R,0.600000X1.524000*%
%ADD35R,0.635000X1.524000*%
%ADD36R,0.400000X1.200000*%
%ADD37R,3.600000X1.900000*%
%ADD38R,1.524000X0.600000*%
%ADD39R,1.524000X0.635000*%
%ADD40R,0.998220X3.997960*%
%ADD41R,3.300000X2.400000*%
%ADD42R,6.300000X6.100000*%
%ADD43R,0.650000X2.000000*%
G04 APERTURE END LIST*
D10*
D11*
X142250000Y-136850000D03*
X142250000Y-131850000D03*
D12*
X164002040Y-119002040D03*
D13*
X168000000Y-119002040D03*
X171997960Y-119002040D03*
X166001020Y-123000000D03*
X169998980Y-123000000D03*
X164002040Y-126997960D03*
X168000000Y-126997960D03*
X171997960Y-126997960D03*
D14*
X154301780Y-112202460D03*
X181698220Y-112202460D03*
X183199360Y-130299960D03*
X152800640Y-130299960D03*
D15*
X163765300Y-133000000D03*
X160234700Y-133000000D03*
D12*
X154002060Y-61002040D03*
D13*
X158000020Y-61002040D03*
X162000520Y-61002040D03*
X166001020Y-61002040D03*
X169998980Y-61002040D03*
X173999480Y-61002040D03*
X177999980Y-61002040D03*
X181997940Y-61002040D03*
X156001040Y-65000000D03*
X160001540Y-65000000D03*
X164002040Y-65000000D03*
X168000000Y-65000000D03*
X171997960Y-65000000D03*
X175998460Y-65000000D03*
X179998960Y-65000000D03*
X154002060Y-68997960D03*
X158000020Y-68997960D03*
X162000520Y-68997960D03*
X166001020Y-68997960D03*
X169998980Y-68997960D03*
X173999480Y-68997960D03*
X177999980Y-68997960D03*
X181997940Y-68997960D03*
D14*
X144301800Y-54202460D03*
X191698200Y-54202460D03*
X142800660Y-72299960D03*
X193199340Y-72299960D03*
D16*
X125961800Y-134000000D03*
X127638200Y-134000000D03*
X123561800Y-126200000D03*
X125238200Y-126200000D03*
D17*
X132400000Y-122000000D03*
X125600000Y-122000000D03*
D16*
X121561800Y-117000000D03*
X123238200Y-117000000D03*
D18*
X132600000Y-55561800D03*
X132600000Y-57238200D03*
D16*
X140238200Y-67400000D03*
X138561800Y-67400000D03*
X133361800Y-73000000D03*
X135038200Y-73000000D03*
X140238200Y-65600000D03*
X138561800Y-65600000D03*
D18*
X123000000Y-62038200D03*
X123000000Y-60361800D03*
X123000000Y-63600000D03*
X123000000Y-65276400D03*
D16*
X139161800Y-54800000D03*
X140838200Y-54800000D03*
X137038200Y-54800000D03*
X135361800Y-54800000D03*
X125361800Y-104400000D03*
X127038200Y-104400000D03*
D15*
X148765300Y-128500000D03*
X145234700Y-128500000D03*
X128034700Y-126000000D03*
X131565300Y-126000000D03*
D19*
X143298600Y-128900000D03*
X140301400Y-128900000D03*
D20*
X129340000Y-50660000D03*
X129340000Y-55740000D03*
X128070000Y-50660000D03*
X128070000Y-55740000D03*
X126800000Y-50660000D03*
X126800000Y-55740000D03*
X125530000Y-55740000D03*
X124260000Y-50660000D03*
X124260000Y-55740000D03*
D21*
X135650000Y-124650000D03*
X139450000Y-124650000D03*
D18*
X131200000Y-52238200D03*
X131200000Y-50561800D03*
X133000000Y-52238200D03*
X133000000Y-50561800D03*
D22*
X123200000Y-119100000D03*
X121200000Y-119100000D03*
X122200000Y-121700000D03*
D23*
X140622082Y-52014163D03*
X135542082Y-52014163D03*
D18*
X166600000Y-134938200D03*
X166600000Y-133261800D03*
D19*
X185400000Y-127000000D03*
X188397200Y-127000000D03*
D24*
X176770000Y-131077889D03*
X174230000Y-131077889D03*
X174230000Y-137477889D03*
X176770000Y-137477889D03*
D16*
X176338200Y-129500000D03*
X174661800Y-129500000D03*
D25*
X172750000Y-113200000D03*
X177330000Y-113200000D03*
D26*
X175040000Y-107115000D03*
D27*
X150065000Y-119810000D03*
D28*
X156150000Y-117520000D03*
X156150000Y-122100000D03*
D29*
X166000000Y-55201400D03*
X166000000Y-58198600D03*
D18*
X170000000Y-58138200D03*
X170000000Y-56461800D03*
X154000000Y-56461800D03*
X154000000Y-58138200D03*
X158000000Y-58138200D03*
X158000000Y-56461800D03*
X162000000Y-56461800D03*
X162000000Y-58138200D03*
X165800000Y-98138200D03*
X165800000Y-96461800D03*
X167400000Y-98138200D03*
X167400000Y-96461800D03*
X164200000Y-98138200D03*
X164200000Y-96461800D03*
X162600000Y-96461800D03*
X162600000Y-98138200D03*
D30*
X126990000Y-70997880D03*
D31*
X127551340Y-70997880D03*
X128051720Y-70997880D03*
X128552100Y-70997880D03*
X129052480Y-70997880D03*
X129550320Y-70997880D03*
X130050700Y-70997880D03*
X130551080Y-70997880D03*
X131048920Y-70997880D03*
X131549300Y-70997880D03*
X132049680Y-70997880D03*
X132547520Y-70997880D03*
X133047900Y-70997880D03*
X133548280Y-70997880D03*
X134048660Y-70997880D03*
D30*
X134610000Y-70997880D03*
D32*
X136697880Y-68910000D03*
D33*
X136697880Y-68348660D03*
X136697880Y-67848280D03*
X136697880Y-67347900D03*
X136697880Y-66847520D03*
X136697880Y-66349680D03*
X136697880Y-65849300D03*
X136697880Y-65348920D03*
X136697880Y-64851080D03*
X136697880Y-64350700D03*
X136697880Y-63850320D03*
X136697880Y-63352480D03*
X136697880Y-62852100D03*
X136697880Y-62351720D03*
X136697880Y-61851340D03*
D32*
X136697880Y-61290000D03*
D30*
X134610000Y-59202120D03*
D31*
X134048660Y-59202120D03*
X133548280Y-59202120D03*
X133047900Y-59202120D03*
X132547520Y-59202120D03*
X132049680Y-59202120D03*
X131549300Y-59202120D03*
X131048920Y-59202120D03*
X130551080Y-59202120D03*
X130050700Y-59202120D03*
X129550320Y-59202120D03*
X129052480Y-59202120D03*
X128552100Y-59202120D03*
X128051720Y-59202120D03*
X127551340Y-59202120D03*
D30*
X126990000Y-59202120D03*
D32*
X124902120Y-61290000D03*
D33*
X124902120Y-61851340D03*
X124902120Y-62351720D03*
X124902120Y-62852100D03*
X124902120Y-63352480D03*
X124902120Y-63850320D03*
X124902120Y-64350700D03*
X124902120Y-64851080D03*
X124902120Y-65348920D03*
X124902120Y-65849300D03*
X124902120Y-66349680D03*
X124902120Y-66847520D03*
X124902120Y-67347900D03*
X124902120Y-67848280D03*
X124902120Y-68348660D03*
D32*
X124902120Y-68910000D03*
D34*
X128305000Y-112321000D03*
X127035000Y-112321000D03*
X125765000Y-112321000D03*
X124495000Y-112321000D03*
X124495000Y-106479000D03*
X125765000Y-106479000D03*
D35*
X127000000Y-106479000D03*
D34*
X128305000Y-106479000D03*
D36*
X162700000Y-94000000D03*
X163500000Y-94000000D03*
X164300000Y-94000000D03*
X165100000Y-94000000D03*
X165900000Y-94000000D03*
X166700000Y-94000000D03*
X166700000Y-88400000D03*
X165900000Y-88400000D03*
X165100000Y-88400000D03*
X164300000Y-88400000D03*
X163500000Y-88400000D03*
X162700000Y-88400000D03*
D37*
X164700000Y-91200000D03*
D38*
X129121000Y-128295000D03*
X129121000Y-129565000D03*
X129121000Y-130835000D03*
X129121000Y-132105000D03*
X123279000Y-132105000D03*
X123279000Y-130835000D03*
D39*
X123279000Y-129600000D03*
D38*
X123279000Y-128295000D03*
D28*
X179165000Y-117710000D03*
X179165000Y-122290000D03*
D27*
X185250000Y-120000000D03*
D18*
X174000000Y-58238200D03*
X174000000Y-56561800D03*
X178100000Y-56561800D03*
X178100000Y-58238200D03*
D40*
X135150000Y-136348380D03*
X135150000Y-129251620D03*
D41*
X167950000Y-115450000D03*
X167950000Y-108850000D03*
D16*
X173061800Y-82950000D03*
X174738200Y-82950000D03*
X172774522Y-84650000D03*
X174450922Y-84650000D03*
D18*
X156100000Y-98138200D03*
X156100000Y-96461800D03*
X154500000Y-96461800D03*
X154500000Y-98138200D03*
X157700000Y-98138200D03*
X157700000Y-96461800D03*
X159300000Y-98138200D03*
X159300000Y-96461800D03*
D42*
X173550000Y-93720000D03*
D43*
X171000000Y-87150000D03*
X171850000Y-87150000D03*
X172700000Y-87150000D03*
X174400000Y-87150000D03*
X175250000Y-87150000D03*
X176100000Y-87150000D03*
D36*
X155100000Y-94000000D03*
X155900000Y-94000000D03*
X156700000Y-94000000D03*
X157500000Y-94000000D03*
X158300000Y-94000000D03*
X159100000Y-94000000D03*
X159100000Y-88400000D03*
X158300000Y-88400000D03*
X157500000Y-88400000D03*
X156700000Y-88400000D03*
X155900000Y-88400000D03*
X155100000Y-88400000D03*
D37*
X157100000Y-91200000D03*
D18*
X182000000Y-56550000D03*
X182000000Y-58226400D03*
D16*
X182838200Y-82850000D03*
X181161800Y-82850000D03*
X189111800Y-83100000D03*
X190788200Y-83100000D03*
X189111800Y-84900000D03*
X190788200Y-84900000D03*
X182488200Y-84650000D03*
X180811800Y-84650000D03*
D43*
X184350000Y-87100000D03*
X183500000Y-87100000D03*
X182650000Y-87100000D03*
X180950000Y-87100000D03*
X180100000Y-87100000D03*
X179250000Y-87100000D03*
D42*
X181800000Y-93670000D03*
X190200000Y-93720000D03*
D43*
X187650000Y-87150000D03*
X188500000Y-87150000D03*
X189350000Y-87150000D03*
X191050000Y-87150000D03*
X191900000Y-87150000D03*
X192750000Y-87150000D03*
D25*
X196310000Y-91285000D03*
X200890000Y-91285000D03*
D26*
X198600000Y-85200000D03*
M02*
