G04 #@! TF.GenerationSoftware,KiCad,Pcbnew,(2017-01-11 revision e99b79cb2)-master*
G04 #@! TF.CreationDate,2017-09-05T10:55:28+03:00*
G04 #@! TF.ProjectId,fsb,6673622E6B696361645F706362000000,rev?*
G04 #@! TF.FileFunction,Copper,L2,Bot,Signal*
G04 #@! TF.FilePolarity,Positive*
%FSLAX46Y46*%
G04 Gerber Fmt 4.6, Leading zero omitted, Abs format (unit mm)*
G04 Created by KiCad (PCBNEW (2017-01-11 revision e99b79cb2)-master) date Tue Sep  5 10:55:28 2017*
%MOMM*%
%LPD*%
G01*
G04 APERTURE LIST*
%ADD10C,0.100000*%
%ADD11R,2.623820X2.623820*%
%ADD12C,2.623820*%
%ADD13C,2.999740*%
%ADD14C,0.800000*%
%ADD15C,0.200000*%
%ADD16C,0.500000*%
%ADD17C,0.900000*%
%ADD18C,1.300000*%
%ADD19C,0.300000*%
G04 APERTURE END LIST*
D10*
D11*
X164002040Y-119002040D03*
D12*
X168000000Y-119002040D03*
X171997960Y-119002040D03*
X166001020Y-123000000D03*
X169998980Y-123000000D03*
X164002040Y-126997960D03*
X168000000Y-126997960D03*
X171997960Y-126997960D03*
D13*
X154301780Y-112202460D03*
X181698220Y-112202460D03*
X183199360Y-130299960D03*
X152800640Y-130299960D03*
D11*
X154002060Y-61002040D03*
D12*
X158000020Y-61002040D03*
X162000520Y-61002040D03*
X166001020Y-61002040D03*
X169998980Y-61002040D03*
X173999480Y-61002040D03*
X177999980Y-61002040D03*
X181997940Y-61002040D03*
X156001040Y-65000000D03*
X160001540Y-65000000D03*
X164002040Y-65000000D03*
X168000000Y-65000000D03*
X171997960Y-65000000D03*
X175998460Y-65000000D03*
X179998960Y-65000000D03*
X154002060Y-68997960D03*
X158000020Y-68997960D03*
X162000520Y-68997960D03*
X166001020Y-68997960D03*
X169998980Y-68997960D03*
X173999480Y-68997960D03*
X177999980Y-68997960D03*
X181997940Y-68997960D03*
D13*
X144301800Y-54202460D03*
X191698200Y-54202460D03*
X142800660Y-72299960D03*
X193199340Y-72299960D03*
D14*
X141260000Y-96490000D03*
X196660000Y-93230000D03*
X193580000Y-102460000D03*
X194770000Y-107720000D03*
X137799990Y-105499589D03*
X141700010Y-104500000D03*
X141700010Y-98400000D03*
X122500000Y-84500000D03*
X190659341Y-88012764D03*
X126605018Y-102994982D03*
X121905018Y-101694982D03*
X187200000Y-98900000D03*
X179500000Y-108700000D03*
X180600000Y-105800000D03*
X147300000Y-81800000D03*
X154200000Y-87100000D03*
X167000000Y-51400000D03*
X176100000Y-58800000D03*
X177300000Y-51600000D03*
X194800000Y-51800000D03*
X209400000Y-51800000D03*
X214000000Y-65300000D03*
X199000000Y-60800000D03*
X185700000Y-61100000D03*
X183700000Y-65000000D03*
X193600000Y-65100000D03*
X208900000Y-66600000D03*
X189600000Y-76700000D03*
X195100000Y-74600000D03*
X214200000Y-74900000D03*
X206800000Y-86300000D03*
X206100000Y-91200000D03*
X204000000Y-99500000D03*
X198300000Y-82900000D03*
X184700000Y-94900000D03*
X200800000Y-102400000D03*
X200000000Y-108200000D03*
X188600000Y-116500000D03*
X191200000Y-109300000D03*
X195200000Y-112900000D03*
X214400000Y-98600000D03*
X209400000Y-105100000D03*
X214000000Y-115400000D03*
X199400000Y-121900000D03*
X208100000Y-124800000D03*
X203200000Y-128700000D03*
X217000000Y-132700000D03*
X216400000Y-122900000D03*
X211900000Y-137200000D03*
X182900000Y-137400000D03*
X188300000Y-128900000D03*
X189900000Y-125300000D03*
X182700000Y-117300000D03*
X185400000Y-115100000D03*
X187500000Y-109000000D03*
X187400000Y-105700000D03*
X179800000Y-102100000D03*
X158900000Y-102100000D03*
X155200000Y-105800000D03*
X147300000Y-96300000D03*
X137100000Y-121000000D03*
X143500000Y-129100000D03*
X141600000Y-131400000D03*
X137100000Y-124500000D03*
X145500000Y-87000000D03*
X139200000Y-80500000D03*
X137200000Y-76300000D03*
X154100000Y-77600000D03*
X151000000Y-71600000D03*
X144800000Y-65200000D03*
X152100000Y-65700000D03*
X138900000Y-61400000D03*
X137300000Y-58900000D03*
X155800000Y-58400000D03*
X163700000Y-58800000D03*
X163700000Y-50100000D03*
X146100000Y-50100000D03*
X134700000Y-50100000D03*
X122700000Y-58300000D03*
X127200000Y-68900000D03*
X124200000Y-73000000D03*
X120200000Y-66600000D03*
X120000000Y-90300000D03*
X122300000Y-78900000D03*
X127000000Y-85600000D03*
X129800000Y-81200000D03*
X133200000Y-80400000D03*
X133200000Y-93400000D03*
X129700000Y-99600000D03*
X125400000Y-110300000D03*
X128300000Y-114900000D03*
X121900000Y-114000000D03*
X119200000Y-114900000D03*
X119300000Y-120300000D03*
X119800000Y-131100000D03*
X121000000Y-122000000D03*
X124300000Y-135500000D03*
X126900000Y-130800000D03*
X133800000Y-132300000D03*
X165900000Y-128800000D03*
X169900000Y-129100000D03*
X180000000Y-131100000D03*
X179000000Y-136400000D03*
X156700000Y-136400000D03*
X146800000Y-134700000D03*
X144200000Y-134800000D03*
X133700000Y-100600000D03*
X138321113Y-64037122D03*
X132500000Y-106000000D03*
X132300000Y-109900000D03*
X132100000Y-113600000D03*
X131000000Y-118600000D03*
X184200000Y-122800000D03*
X179700000Y-98000000D03*
X181600000Y-97000000D03*
X202600000Y-111300000D03*
X202700000Y-114500000D03*
X213100000Y-95500000D03*
X133000000Y-54199998D03*
X138100000Y-54800000D03*
X121900000Y-63600000D03*
X127500000Y-64500000D03*
X133900000Y-69500000D03*
X140300000Y-66500000D03*
X135050356Y-67159679D03*
X134900000Y-63900000D03*
X130500000Y-60900000D03*
X130300000Y-57400000D03*
X125500000Y-50700000D03*
X125700000Y-119300000D03*
X131000000Y-135500000D03*
X141800000Y-136900000D03*
X139400000Y-134700000D03*
X126400000Y-125400000D03*
X168600000Y-134200000D03*
X135500011Y-116009210D03*
X121561800Y-117000000D03*
X185779374Y-122383794D03*
X191193924Y-122419156D03*
X185600000Y-121400000D03*
X190800000Y-121500000D03*
X166000000Y-50100000D03*
X206165300Y-103000000D03*
X197700000Y-119000000D03*
X199100000Y-119000000D03*
X145900000Y-125100000D03*
X146800000Y-126000000D03*
X140377472Y-106876501D03*
X137500000Y-107900000D03*
X149000000Y-105900000D03*
X139675371Y-106164407D03*
X136900000Y-107000000D03*
X144200000Y-105900000D03*
X138400000Y-110200000D03*
X166200000Y-105900000D03*
X138089240Y-109106020D03*
X161600000Y-105900000D03*
X195549612Y-89199990D03*
X171100000Y-90000000D03*
X195674497Y-90662694D03*
X173635000Y-90000000D03*
X192027751Y-107021005D03*
X175400000Y-105900000D03*
X191749201Y-108059266D03*
X170800000Y-105900000D03*
X140000000Y-89200000D03*
X157635000Y-90000000D03*
X140000000Y-91800012D03*
X155100000Y-90000000D03*
X139500000Y-94200000D03*
X165635000Y-90000000D03*
X138300000Y-97200000D03*
X163100000Y-90000000D03*
X143000000Y-99100000D03*
X188600000Y-104000000D03*
X151200000Y-62900000D03*
X172000000Y-59500000D03*
X139300000Y-117900000D03*
X139300000Y-121300000D03*
X153200000Y-72199990D03*
X190600000Y-74600000D03*
X189600000Y-74700000D03*
X152400000Y-73200000D03*
X194400000Y-104600000D03*
X144700000Y-97700000D03*
X191300000Y-103499979D03*
X145600000Y-97200000D03*
X193500000Y-105600000D03*
X143900000Y-98500000D03*
X212061800Y-89800000D03*
X207700000Y-92400000D03*
X207899998Y-89900000D03*
X212061800Y-87900000D03*
X124338200Y-89700000D03*
X126100000Y-91000000D03*
X124338200Y-95300000D03*
X126000000Y-93600000D03*
X126300000Y-96100000D03*
X124338200Y-97200000D03*
D15*
X141700010Y-98400000D02*
X141700010Y-96930010D01*
X141700010Y-96930010D02*
X141260000Y-96490000D01*
X184700000Y-94900000D02*
X194990000Y-94900000D01*
X194990000Y-94900000D02*
X196260001Y-93629999D01*
X196260001Y-93629999D02*
X196660000Y-93230000D01*
X193640000Y-102400000D02*
X193580000Y-102460000D01*
X200800000Y-102400000D02*
X193640000Y-102400000D01*
X192580000Y-106150000D02*
X194150000Y-107720000D01*
X194150000Y-107720000D02*
X194770000Y-107720000D01*
X190760000Y-106150000D02*
X192580000Y-106150000D01*
X190310000Y-105700000D02*
X190760000Y-106150000D01*
X187400000Y-105700000D02*
X190310000Y-105700000D01*
X139099997Y-88963999D02*
X139099997Y-89636001D01*
X139099997Y-89636001D02*
X139099999Y-89636003D01*
X141063996Y-87000000D02*
X139099997Y-88963999D01*
X145500000Y-87000000D02*
X141063996Y-87000000D01*
X139099999Y-89636003D02*
X139099999Y-93563999D01*
X137499998Y-97436002D02*
X138463996Y-98400000D01*
X139099999Y-93563999D02*
X137499998Y-95164000D01*
X141134325Y-98400000D02*
X141700010Y-98400000D01*
X137499998Y-95164000D02*
X137499998Y-97436002D01*
X138463996Y-98400000D02*
X141134325Y-98400000D01*
X137100000Y-121000000D02*
X137100000Y-108536002D01*
X138799579Y-104500000D02*
X138199989Y-105099590D01*
X136199998Y-107636000D02*
X136199998Y-106533896D01*
X136199998Y-106533896D02*
X137234305Y-105499589D01*
X141700010Y-104500000D02*
X138799579Y-104500000D01*
X138199989Y-105099590D02*
X137799990Y-105499589D01*
X137234305Y-105499589D02*
X137799990Y-105499589D01*
X137100000Y-108536002D02*
X136199998Y-107636000D01*
X141700010Y-98965685D02*
X141700010Y-104500000D01*
X141700010Y-98400000D02*
X141700010Y-98965685D01*
X155200000Y-105800000D02*
X153900000Y-104500000D01*
X153900000Y-104500000D02*
X142265695Y-104500000D01*
X142265695Y-104500000D02*
X141700010Y-104500000D01*
X122899999Y-84899999D02*
X122500000Y-84500000D01*
X123600000Y-85600000D02*
X122899999Y-84899999D01*
X127000000Y-85600000D02*
X123600000Y-85600000D01*
X184700000Y-94900000D02*
X193536002Y-94900000D01*
X196500001Y-91936001D02*
X196500001Y-89116192D01*
X196500001Y-89116192D02*
X195447469Y-88063660D01*
X193536002Y-94900000D02*
X196500001Y-91936001D01*
X195447469Y-88063660D02*
X191216812Y-88063660D01*
X190710237Y-88063660D02*
X190659341Y-88012764D01*
X193136340Y-88063660D02*
X191216812Y-88063660D01*
X191216812Y-88063660D02*
X190710237Y-88063660D01*
X198300000Y-82900000D02*
X193136340Y-88063660D01*
X125400000Y-105189964D02*
X122305017Y-102094981D01*
X125400000Y-110300000D02*
X125400000Y-105189964D01*
X124000000Y-99600000D02*
X122305017Y-101294983D01*
X122305017Y-102094981D02*
X121905018Y-101694982D01*
X122305017Y-101294983D02*
X121905018Y-101694982D01*
X129700000Y-99600000D02*
X124000000Y-99600000D01*
X187400000Y-105700000D02*
X180700000Y-105700000D01*
X180700000Y-105700000D02*
X180600000Y-105800000D01*
X154200000Y-87100000D02*
X148900000Y-81800000D01*
X148900000Y-81800000D02*
X147300000Y-81800000D01*
X177300000Y-51600000D02*
X176100000Y-52800000D01*
X176100000Y-52800000D02*
X176100000Y-58800000D01*
X209400000Y-51800000D02*
X194800000Y-51800000D01*
X210500000Y-60800000D02*
X214000000Y-64300000D01*
X214000000Y-64300000D02*
X214000000Y-65300000D01*
X199000000Y-60800000D02*
X210500000Y-60800000D01*
X183700000Y-65000000D02*
X185700000Y-63000000D01*
X185700000Y-63000000D02*
X185700000Y-61100000D01*
X193600000Y-65100000D02*
X183800000Y-65100000D01*
X183800000Y-65100000D02*
X183700000Y-65000000D01*
X189600000Y-76700000D02*
X198800000Y-76700000D01*
X198800000Y-76700000D02*
X208900000Y-66600000D01*
X195100000Y-74600000D02*
X193000000Y-76700000D01*
X193000000Y-76700000D02*
X189600000Y-76700000D01*
X214200000Y-74900000D02*
X195400000Y-74900000D01*
X195400000Y-74900000D02*
X195100000Y-74600000D01*
X206100000Y-91200000D02*
X206800000Y-90500000D01*
X206800000Y-90500000D02*
X206800000Y-86300000D01*
X204000000Y-99500000D02*
X204000000Y-93300000D01*
X204000000Y-93300000D02*
X206100000Y-91200000D01*
X198300000Y-82900000D02*
X204000000Y-88600000D01*
X204000000Y-88600000D02*
X204000000Y-99500000D01*
X200000000Y-108200000D02*
X200000000Y-103200000D01*
X200000000Y-103200000D02*
X200800000Y-102400000D01*
X188600000Y-116500000D02*
X196900000Y-108200000D01*
X196900000Y-108200000D02*
X200000000Y-108200000D01*
X191200000Y-109300000D02*
X191200000Y-113900000D01*
X191200000Y-113900000D02*
X188600000Y-116500000D01*
X195200000Y-112900000D02*
X191600000Y-109300000D01*
X191600000Y-109300000D02*
X191200000Y-109300000D01*
X202600000Y-111300000D02*
X196800000Y-111300000D01*
X196800000Y-111300000D02*
X195200000Y-112900000D01*
X209400000Y-105100000D02*
X214400000Y-100100000D01*
X214400000Y-100100000D02*
X214400000Y-98600000D01*
X214000000Y-115400000D02*
X214000000Y-109700000D01*
X214000000Y-109700000D02*
X209400000Y-105100000D01*
X199400000Y-121900000D02*
X205900000Y-115400000D01*
X205900000Y-115400000D02*
X214000000Y-115400000D01*
X208100000Y-124800000D02*
X202300000Y-124800000D01*
X202300000Y-124800000D02*
X199400000Y-121900000D01*
X203200000Y-128700000D02*
X207100000Y-124800000D01*
X207100000Y-124800000D02*
X208100000Y-124800000D01*
X216400000Y-122900000D02*
X209000000Y-122900000D01*
X209000000Y-122900000D02*
X203200000Y-128700000D01*
X216400000Y-122900000D02*
X216400000Y-132100000D01*
X216600001Y-133099999D02*
X217000000Y-132700000D01*
X212500000Y-137200000D02*
X216600001Y-133099999D01*
X216400000Y-132100000D02*
X216600001Y-132300001D01*
X211900000Y-137200000D02*
X212500000Y-137200000D01*
X216600001Y-132300001D02*
X217000000Y-132700000D01*
X182900000Y-137400000D02*
X211700000Y-137400000D01*
X211700000Y-137400000D02*
X211900000Y-137200000D01*
X188300000Y-128900000D02*
X182900000Y-134300000D01*
X182900000Y-134300000D02*
X182900000Y-137400000D01*
X189900000Y-125300000D02*
X189900000Y-127300000D01*
X189900000Y-127300000D02*
X188300000Y-128900000D01*
X184200000Y-123900000D02*
X185600000Y-125300000D01*
X185600000Y-125300000D02*
X189900000Y-125300000D01*
X184200000Y-122800000D02*
X184200000Y-123900000D01*
X185400000Y-115100000D02*
X183200000Y-117300000D01*
X183200000Y-117300000D02*
X182700000Y-117300000D01*
X187500000Y-109000000D02*
X185400000Y-111100000D01*
X185400000Y-111100000D02*
X185400000Y-115100000D01*
X158900000Y-102100000D02*
X179800000Y-102100000D01*
X137100000Y-121000000D02*
X137100000Y-124500000D01*
X143500000Y-129100000D02*
X143500000Y-127400000D01*
X143500000Y-127400000D02*
X137100000Y-121000000D01*
X141600000Y-131400000D02*
X143500000Y-129500000D01*
X143500000Y-129500000D02*
X143500000Y-129100000D01*
X137100000Y-124500000D02*
X137100000Y-126900000D01*
X137100000Y-126900000D02*
X141600000Y-131400000D01*
X139200000Y-80500000D02*
X145500000Y-86800000D01*
X145500000Y-86800000D02*
X145500000Y-87000000D01*
X137200000Y-76300000D02*
X137200000Y-78500000D01*
X137200000Y-78500000D02*
X139200000Y-80500000D01*
X154100000Y-77600000D02*
X152800000Y-76300000D01*
X152800000Y-76300000D02*
X137200000Y-76300000D01*
X151000000Y-71600000D02*
X151000000Y-74500000D01*
X151000000Y-74500000D02*
X154100000Y-77600000D01*
X144800000Y-65200000D02*
X151000000Y-71400000D01*
X151000000Y-71400000D02*
X151000000Y-71600000D01*
X152100000Y-65700000D02*
X145300000Y-65700000D01*
X145300000Y-65700000D02*
X144800000Y-65200000D01*
X138900000Y-61400000D02*
X143200000Y-65700000D01*
X143200000Y-65700000D02*
X152100000Y-65700000D01*
X137300000Y-58900000D02*
X137300000Y-59800000D01*
X137300000Y-59800000D02*
X138900000Y-61400000D01*
X155800000Y-58400000D02*
X155300000Y-58900000D01*
X155300000Y-58900000D02*
X137300000Y-58900000D01*
X163700000Y-58800000D02*
X156200000Y-58800000D01*
X156200000Y-58800000D02*
X155800000Y-58400000D01*
X163700000Y-50100000D02*
X163700000Y-58800000D01*
X134700000Y-50100000D02*
X146100000Y-50100000D01*
X122700000Y-58300000D02*
X126500000Y-58300000D01*
X126500000Y-58300000D02*
X134700000Y-50100000D01*
X127200000Y-68900000D02*
X122700000Y-64400000D01*
X122700000Y-64400000D02*
X122700000Y-58300000D01*
X124200000Y-73000000D02*
X124200000Y-71900000D01*
X124200000Y-71900000D02*
X127200000Y-68900000D01*
X120200000Y-66600000D02*
X124200000Y-70600000D01*
X124200000Y-70600000D02*
X124200000Y-73000000D01*
X120000000Y-90300000D02*
X120000000Y-66800000D01*
X120000000Y-66800000D02*
X120200000Y-66600000D01*
X122300000Y-78900000D02*
X120000000Y-81200000D01*
X120000000Y-81200000D02*
X120000000Y-90300000D01*
X129800000Y-81200000D02*
X127000000Y-84000000D01*
X127000000Y-84000000D02*
X127000000Y-85600000D01*
X133200000Y-80400000D02*
X130600000Y-80400000D01*
X130600000Y-80400000D02*
X129800000Y-81200000D01*
X133200000Y-93400000D02*
X133200000Y-80400000D01*
X129700000Y-99600000D02*
X129700000Y-96900000D01*
X129700000Y-96900000D02*
X133200000Y-93400000D01*
X128300000Y-114900000D02*
X125400000Y-112000000D01*
X125400000Y-112000000D02*
X125400000Y-110300000D01*
X121900000Y-114000000D02*
X127400000Y-114000000D01*
X127400000Y-114000000D02*
X128300000Y-114900000D01*
X119200000Y-114900000D02*
X120100000Y-114000000D01*
X120100000Y-114000000D02*
X121900000Y-114000000D01*
X125700000Y-119300000D02*
X120300000Y-119300000D01*
X120300000Y-119300000D02*
X119300000Y-120300000D01*
X119800000Y-131100000D02*
X124200000Y-135500000D01*
X124200000Y-135500000D02*
X124300000Y-135500000D01*
X124300000Y-135500000D02*
X121000000Y-132200000D01*
X121000000Y-132200000D02*
X121000000Y-122000000D01*
X133800000Y-132300000D02*
X132300000Y-130800000D01*
X132300000Y-130800000D02*
X126900000Y-130800000D01*
X139400000Y-134700000D02*
X136200000Y-134700000D01*
X136200000Y-134700000D02*
X133800000Y-132300000D01*
X165900000Y-128800000D02*
X160000000Y-134700000D01*
X160000000Y-134700000D02*
X146800000Y-134700000D01*
X169900000Y-129100000D02*
X166200000Y-129100000D01*
X166200000Y-129100000D02*
X165900000Y-128800000D01*
X178300000Y-132800000D02*
X173600000Y-132800000D01*
X173600000Y-132800000D02*
X169900000Y-129100000D01*
X180000000Y-131100000D02*
X178300000Y-132800000D01*
X156700000Y-136400000D02*
X179000000Y-136400000D01*
X144200000Y-134800000D02*
X146700000Y-134800000D01*
X146700000Y-134800000D02*
X146800000Y-134700000D01*
D16*
X135100012Y-116409209D02*
X135500011Y-116009210D01*
X134509221Y-117000000D02*
X135100012Y-116409209D01*
X121561800Y-117000000D02*
X134509221Y-117000000D01*
X191193924Y-122419156D02*
X185814736Y-122419156D01*
X185814736Y-122419156D02*
X185779374Y-122383794D01*
X190800000Y-121500000D02*
X185700000Y-121500000D01*
X185700000Y-121500000D02*
X185600000Y-121400000D01*
D17*
X210000000Y-50100000D02*
X166000000Y-50100000D01*
X216200000Y-56300000D02*
X210000000Y-50100000D01*
X216200000Y-94514270D02*
X216200000Y-56300000D01*
X206165300Y-103000000D02*
X207714270Y-103000000D01*
X207714270Y-103000000D02*
X216200000Y-94514270D01*
D18*
X199100000Y-119000000D02*
X197700000Y-119000000D01*
X188300000Y-119000000D02*
X197700000Y-119000000D01*
X173855320Y-119000000D02*
X188300000Y-119000000D01*
X171997960Y-119002040D02*
X173853280Y-119002040D01*
X173853280Y-119002040D02*
X173855320Y-119000000D01*
D19*
X158000000Y-124400000D02*
X164601020Y-124400000D01*
X164601020Y-124400000D02*
X166001020Y-123000000D01*
X157300000Y-125100000D02*
X158000000Y-124400000D01*
X145900000Y-125100000D02*
X157300000Y-125100000D01*
X158300000Y-125000000D02*
X167998980Y-125000000D01*
X167998980Y-125000000D02*
X169998980Y-123000000D01*
X157300000Y-126000000D02*
X158300000Y-125000000D01*
X146800000Y-126000000D02*
X157300000Y-126000000D01*
D15*
X146400022Y-106699978D02*
X141119680Y-106699978D01*
X139353973Y-107900000D02*
X139977473Y-107276500D01*
X140943157Y-106876501D02*
X140377472Y-106876501D01*
X139977473Y-107276500D02*
X140377472Y-106876501D01*
X149000000Y-105900000D02*
X147200000Y-105900000D01*
X137500000Y-107900000D02*
X139353973Y-107900000D01*
X141119680Y-106699978D02*
X140943157Y-106876501D01*
X147200000Y-105900000D02*
X146400022Y-106699978D01*
X138839778Y-107000000D02*
X139275372Y-106564406D01*
X139275372Y-106564406D02*
X139675371Y-106164407D01*
X136900000Y-107000000D02*
X138839778Y-107000000D01*
X144200000Y-105900000D02*
X139939778Y-105900000D01*
X139939778Y-105900000D02*
X139675371Y-106164407D01*
X166200000Y-105900000D02*
X164600000Y-107500000D01*
X141665685Y-107500000D02*
X138965685Y-110200000D01*
X164600000Y-107500000D02*
X141665685Y-107500000D01*
X138965685Y-110200000D02*
X138400000Y-110200000D01*
X139393980Y-109106020D02*
X138654925Y-109106020D01*
X141400011Y-107099989D02*
X139393980Y-109106020D01*
X159800000Y-105900000D02*
X158600011Y-107099989D01*
X158600011Y-107099989D02*
X141400011Y-107099989D01*
X138654925Y-109106020D02*
X138089240Y-109106020D01*
X161600000Y-105900000D02*
X159800000Y-105900000D01*
D19*
X171100000Y-90000000D02*
X171725000Y-90000000D01*
X172925009Y-88799991D02*
X195149613Y-88799991D01*
X195149613Y-88799991D02*
X195549612Y-89199990D01*
X171725000Y-90000000D02*
X172925009Y-88799991D01*
X195274498Y-90262695D02*
X195674497Y-90662694D01*
X195011803Y-90000000D02*
X195274498Y-90262695D01*
X173635000Y-90000000D02*
X195011803Y-90000000D01*
D15*
X175400000Y-105900000D02*
X176521005Y-107021005D01*
X176521005Y-107021005D02*
X191462066Y-107021005D01*
X191462066Y-107021005D02*
X192027751Y-107021005D01*
X170800000Y-105900000D02*
X174363996Y-105900000D01*
X174363996Y-105900000D02*
X175963996Y-107500000D01*
X175963996Y-107500000D02*
X190624250Y-107500000D01*
X190624250Y-107500000D02*
X191183516Y-108059266D01*
X191183516Y-108059266D02*
X191749201Y-108059266D01*
D19*
X157635000Y-90000000D02*
X157635000Y-89955000D01*
X157635000Y-89955000D02*
X155579999Y-87899999D01*
X155579999Y-87899999D02*
X141300001Y-87899999D01*
X140399999Y-88800001D02*
X140000000Y-89200000D01*
X141300001Y-87899999D02*
X140399999Y-88800001D01*
X140399999Y-91400013D02*
X140000000Y-91800012D01*
X141800012Y-90000000D02*
X140399999Y-91400013D01*
X155100000Y-90000000D02*
X141800012Y-90000000D01*
X140065685Y-94200000D02*
X139500000Y-94200000D01*
X162700000Y-88900000D02*
X157400000Y-94200000D01*
X163910000Y-88900000D02*
X162700000Y-88900000D01*
X165635000Y-90000000D02*
X165010000Y-90000000D01*
X165010000Y-90000000D02*
X163910000Y-88900000D01*
X157400000Y-94200000D02*
X140065685Y-94200000D01*
X139999999Y-95500001D02*
X138699999Y-96800001D01*
X156974999Y-95500001D02*
X139999999Y-95500001D01*
X163100000Y-90000000D02*
X162475000Y-90000000D01*
X138699999Y-96800001D02*
X138300000Y-97200000D01*
X162475000Y-90000000D02*
X156974999Y-95500001D01*
D15*
X188600000Y-104000000D02*
X188600000Y-103100000D01*
X186600000Y-101100000D02*
X145400000Y-101100000D01*
X188600000Y-103100000D02*
X186600000Y-101100000D01*
X145400000Y-101100000D02*
X143400000Y-99100000D01*
X143400000Y-99100000D02*
X143000000Y-99100000D01*
D19*
X172000000Y-62100000D02*
X171200000Y-62900000D01*
X171200000Y-62900000D02*
X151200000Y-62900000D01*
X172000000Y-59500000D02*
X172000000Y-62100000D01*
D15*
X139300000Y-121300000D02*
X139300000Y-117900000D01*
X190600000Y-74600000D02*
X188400000Y-72400000D01*
X188400000Y-72400000D02*
X153965695Y-72400000D01*
X153965695Y-72400000D02*
X153765685Y-72199990D01*
X153765685Y-72199990D02*
X153200000Y-72199990D01*
X152400000Y-73200000D02*
X153700000Y-73200000D01*
X154000000Y-72900000D02*
X188100000Y-72900000D01*
X153700000Y-73200000D02*
X154000000Y-72900000D01*
X188100000Y-72900000D02*
X189600000Y-74400000D01*
X189600000Y-74400000D02*
X189600000Y-74700000D01*
X193834315Y-104600000D02*
X194400000Y-104600000D01*
X191265700Y-104600000D02*
X193834315Y-104600000D01*
X186965678Y-100299978D02*
X191265700Y-104600000D01*
X145999978Y-100299978D02*
X186965678Y-100299978D01*
X144700000Y-99000000D02*
X145999978Y-100299978D01*
X144700000Y-97700000D02*
X144700000Y-99000000D01*
X145600000Y-97200000D02*
X145600000Y-99300000D01*
X145600000Y-99300000D02*
X146199967Y-99899967D01*
X146199967Y-99899967D02*
X187199967Y-99899967D01*
X187199967Y-99899967D02*
X190399980Y-103099980D01*
X190399980Y-103099980D02*
X190900001Y-103099980D01*
X190900001Y-103099980D02*
X191300000Y-103499979D01*
X192934315Y-105600000D02*
X193500000Y-105600000D01*
X144299999Y-99199999D02*
X145799989Y-100699989D01*
X143900000Y-98500000D02*
X144299999Y-98899999D01*
X144299999Y-98899999D02*
X144299999Y-99199999D01*
X191675892Y-105600000D02*
X192934315Y-105600000D01*
X186775881Y-100699989D02*
X191675892Y-105600000D01*
X145799989Y-100699989D02*
X186775881Y-100699989D01*
X207700000Y-92400000D02*
X210300000Y-89800000D01*
X210300000Y-89800000D02*
X212061800Y-89800000D01*
X208299997Y-89500001D02*
X207899998Y-89900000D01*
X209899998Y-87900000D02*
X208299997Y-89500001D01*
X212061800Y-87900000D02*
X209899998Y-87900000D01*
X126100000Y-91000000D02*
X124800000Y-89700000D01*
X124800000Y-89700000D02*
X124338200Y-89700000D01*
X126000000Y-93600000D02*
X124338200Y-95261800D01*
X124338200Y-95261800D02*
X124338200Y-95300000D01*
X125900001Y-96499999D02*
X126300000Y-96100000D01*
X125200000Y-97200000D02*
X125900001Y-96499999D01*
X124338200Y-97200000D02*
X125200000Y-97200000D01*
G36*
X165122314Y-49736451D02*
X165050000Y-50100000D01*
X165122314Y-50463549D01*
X165328249Y-50771751D01*
X165636451Y-50977686D01*
X166000000Y-51050000D01*
X209606498Y-51050000D01*
X215250000Y-56693503D01*
X215250000Y-94120767D01*
X207320768Y-102050000D01*
X206165300Y-102050000D01*
X205801751Y-102122314D01*
X205493549Y-102328249D01*
X205287614Y-102636451D01*
X205215300Y-103000000D01*
X205287614Y-103363549D01*
X205493549Y-103671751D01*
X205801751Y-103877686D01*
X206165300Y-103950000D01*
X207714270Y-103950000D01*
X208017503Y-103889683D01*
X208077820Y-103877686D01*
X208386021Y-103671751D01*
X216871751Y-95186022D01*
X217077685Y-94877820D01*
X217077686Y-94877819D01*
X217150000Y-94514270D01*
X217150000Y-56300000D01*
X217077686Y-55936451D01*
X217077686Y-55936450D01*
X216871751Y-55628248D01*
X214392289Y-53148786D01*
X215781017Y-54076705D01*
X215781019Y-54076707D01*
X215979283Y-54158830D01*
X217450000Y-54451374D01*
X217450000Y-133548626D01*
X215979283Y-133841170D01*
X215781019Y-133923293D01*
X215781017Y-133923295D01*
X214158906Y-135007155D01*
X214158902Y-135007157D01*
X214083030Y-135083030D01*
X214007157Y-135158902D01*
X214007155Y-135158906D01*
X212923296Y-136781016D01*
X212923293Y-136781019D01*
X212841170Y-136979283D01*
X212548626Y-138450000D01*
X123451374Y-138450000D01*
X123158830Y-136979283D01*
X123076707Y-136781019D01*
X123076705Y-136781017D01*
X121992845Y-135158906D01*
X121992843Y-135158902D01*
X121916970Y-135083030D01*
X121841098Y-135007157D01*
X121841094Y-135007155D01*
X120218984Y-133923296D01*
X120218981Y-133923293D01*
X120020717Y-133841170D01*
X118550000Y-133548626D01*
X118550000Y-130696014D01*
X150800423Y-130696014D01*
X151104244Y-131431316D01*
X151666325Y-131994379D01*
X152401096Y-132299482D01*
X153196694Y-132300177D01*
X153931996Y-131996356D01*
X154495059Y-131434275D01*
X154800162Y-130699504D01*
X154800165Y-130696014D01*
X181199143Y-130696014D01*
X181502964Y-131431316D01*
X182065045Y-131994379D01*
X182799816Y-132299482D01*
X183595414Y-132300177D01*
X184330716Y-131996356D01*
X184893779Y-131434275D01*
X185198882Y-130699504D01*
X185199577Y-129903906D01*
X184895756Y-129168604D01*
X184333675Y-128605541D01*
X183598904Y-128300438D01*
X182803306Y-128299743D01*
X182068004Y-128603564D01*
X181504941Y-129165645D01*
X181199838Y-129900416D01*
X181199143Y-130696014D01*
X154800165Y-130696014D01*
X154800857Y-129903906D01*
X154497036Y-129168604D01*
X153934955Y-128605541D01*
X153200184Y-128300438D01*
X152404586Y-128299743D01*
X151669284Y-128603564D01*
X151106221Y-129165645D01*
X150801118Y-129900416D01*
X150800423Y-130696014D01*
X118550000Y-130696014D01*
X118550000Y-125278236D01*
X144999844Y-125278236D01*
X145136572Y-125609143D01*
X145389525Y-125862538D01*
X145720194Y-125999843D01*
X145900000Y-126000000D01*
X145899844Y-126178236D01*
X146036572Y-126509143D01*
X146289525Y-126762538D01*
X146620194Y-126899843D01*
X146978236Y-126900156D01*
X147309143Y-126763428D01*
X147422769Y-126650000D01*
X157300000Y-126650000D01*
X157507476Y-126608731D01*
X157548745Y-126600522D01*
X157759619Y-126459619D01*
X158569239Y-125650000D01*
X162787689Y-125650000D01*
X162466873Y-125970256D01*
X162190446Y-126635968D01*
X162189817Y-127356790D01*
X162465082Y-128022983D01*
X162974336Y-128533127D01*
X163640048Y-128809554D01*
X164360870Y-128810183D01*
X165027063Y-128534918D01*
X165537207Y-128025664D01*
X165813634Y-127359952D01*
X165814263Y-126639130D01*
X165538998Y-125972937D01*
X165216624Y-125650000D01*
X166785649Y-125650000D01*
X166464833Y-125970256D01*
X166188406Y-126635968D01*
X166187777Y-127356790D01*
X166463042Y-128022983D01*
X166972296Y-128533127D01*
X167638008Y-128809554D01*
X168358830Y-128810183D01*
X169025023Y-128534918D01*
X169535167Y-128025664D01*
X169811594Y-127359952D01*
X169811596Y-127356790D01*
X170185737Y-127356790D01*
X170461002Y-128022983D01*
X170970256Y-128533127D01*
X171635968Y-128809554D01*
X172356790Y-128810183D01*
X173022983Y-128534918D01*
X173533127Y-128025664D01*
X173809554Y-127359952D01*
X173810183Y-126639130D01*
X173534918Y-125972937D01*
X173025664Y-125462793D01*
X172359952Y-125186366D01*
X171639130Y-125185737D01*
X170972937Y-125461002D01*
X170462793Y-125970256D01*
X170186366Y-126635968D01*
X170185737Y-127356790D01*
X169811596Y-127356790D01*
X169812223Y-126639130D01*
X169536958Y-125972937D01*
X169027704Y-125462793D01*
X168623334Y-125294884D01*
X169262235Y-124655983D01*
X169636988Y-124811594D01*
X170357810Y-124812223D01*
X171024003Y-124536958D01*
X171534147Y-124027704D01*
X171810574Y-123361992D01*
X171811203Y-122641170D01*
X171535938Y-121974977D01*
X171139890Y-121578236D01*
X184699844Y-121578236D01*
X184836572Y-121909143D01*
X184953375Y-122026150D01*
X184879531Y-122203988D01*
X184879218Y-122562030D01*
X185015946Y-122892937D01*
X185268899Y-123146332D01*
X185599568Y-123283637D01*
X185957610Y-123283950D01*
X186235433Y-123169156D01*
X190670933Y-123169156D01*
X190683449Y-123181694D01*
X191014118Y-123318999D01*
X191372160Y-123319312D01*
X191703067Y-123182584D01*
X191956462Y-122929631D01*
X192093767Y-122598962D01*
X192094080Y-122240920D01*
X191957352Y-121910013D01*
X191704399Y-121656618D01*
X191699865Y-121654735D01*
X191700156Y-121321764D01*
X191563428Y-120990857D01*
X191310475Y-120737462D01*
X190979806Y-120600157D01*
X190621764Y-120599844D01*
X190290857Y-120736572D01*
X190277406Y-120750000D01*
X186222817Y-120750000D01*
X186110475Y-120637462D01*
X185779806Y-120500157D01*
X185421764Y-120499844D01*
X185090857Y-120636572D01*
X184837462Y-120889525D01*
X184700157Y-121220194D01*
X184699844Y-121578236D01*
X171139890Y-121578236D01*
X171026684Y-121464833D01*
X170360972Y-121188406D01*
X169640150Y-121187777D01*
X168973957Y-121463042D01*
X168463813Y-121972296D01*
X168187386Y-122638008D01*
X168186757Y-123358830D01*
X168342934Y-123736808D01*
X167729742Y-124350000D01*
X167213328Y-124350000D01*
X167536187Y-124027704D01*
X167812614Y-123361992D01*
X167813243Y-122641170D01*
X167537978Y-121974977D01*
X167028724Y-121464833D01*
X166363012Y-121188406D01*
X165642190Y-121187777D01*
X164975997Y-121463042D01*
X164465853Y-121972296D01*
X164189426Y-122638008D01*
X164188797Y-123358830D01*
X164344974Y-123736808D01*
X164331782Y-123750000D01*
X158000000Y-123750000D01*
X157751256Y-123799478D01*
X157751254Y-123799479D01*
X157751255Y-123799479D01*
X157540380Y-123940381D01*
X157030762Y-124450000D01*
X146522817Y-124450000D01*
X146410475Y-124337462D01*
X146079806Y-124200157D01*
X145721764Y-124199844D01*
X145390857Y-124336572D01*
X145137462Y-124589525D01*
X145000157Y-124920194D01*
X144999844Y-125278236D01*
X118550000Y-125278236D01*
X118550000Y-118078236D01*
X138399844Y-118078236D01*
X138536572Y-118409143D01*
X138700000Y-118572857D01*
X138700000Y-120627271D01*
X138537462Y-120789525D01*
X138400157Y-121120194D01*
X138399844Y-121478236D01*
X138536572Y-121809143D01*
X138789525Y-122062538D01*
X139120194Y-122199843D01*
X139478236Y-122200156D01*
X139809143Y-122063428D01*
X140062538Y-121810475D01*
X140199843Y-121479806D01*
X140200156Y-121121764D01*
X140063428Y-120790857D01*
X139900000Y-120627143D01*
X139900000Y-118572729D01*
X140062538Y-118410475D01*
X140199843Y-118079806D01*
X140200156Y-117721764D01*
X140187086Y-117690130D01*
X162180335Y-117690130D01*
X162180335Y-120313950D01*
X162219141Y-120509040D01*
X162329650Y-120674430D01*
X162495040Y-120784939D01*
X162690130Y-120823745D01*
X165313950Y-120823745D01*
X165509040Y-120784939D01*
X165674430Y-120674430D01*
X165784939Y-120509040D01*
X165823745Y-120313950D01*
X165823745Y-120237515D01*
X166799880Y-120237515D01*
X166934446Y-120511182D01*
X167593080Y-120804075D01*
X168313663Y-120822624D01*
X168986495Y-120564006D01*
X169065554Y-120511182D01*
X169200120Y-120237515D01*
X168000000Y-119037395D01*
X166799880Y-120237515D01*
X165823745Y-120237515D01*
X165823745Y-119315703D01*
X166179416Y-119315703D01*
X166438034Y-119988535D01*
X166490858Y-120067594D01*
X166764525Y-120202160D01*
X167964645Y-119002040D01*
X168035355Y-119002040D01*
X169235475Y-120202160D01*
X169509142Y-120067594D01*
X169802035Y-119408960D01*
X169803272Y-119360870D01*
X170185737Y-119360870D01*
X170461002Y-120027063D01*
X170970256Y-120537207D01*
X171635968Y-120813634D01*
X172356790Y-120814263D01*
X173022983Y-120538998D01*
X173410617Y-120152040D01*
X173853280Y-120152040D01*
X173863536Y-120150000D01*
X199100000Y-120150000D01*
X199540086Y-120062461D01*
X199913173Y-119813173D01*
X200162461Y-119440086D01*
X200250000Y-119000000D01*
X200162461Y-118559914D01*
X199913173Y-118186827D01*
X199540086Y-117937539D01*
X199100000Y-117850000D01*
X173855320Y-117850000D01*
X173845064Y-117852040D01*
X173410159Y-117852040D01*
X173025664Y-117466873D01*
X172359952Y-117190446D01*
X171639130Y-117189817D01*
X170972937Y-117465082D01*
X170462793Y-117974336D01*
X170186366Y-118640048D01*
X170185737Y-119360870D01*
X169803272Y-119360870D01*
X169820584Y-118688377D01*
X169561966Y-118015545D01*
X169509142Y-117936486D01*
X169235475Y-117801920D01*
X168035355Y-119002040D01*
X167964645Y-119002040D01*
X166764525Y-117801920D01*
X166490858Y-117936486D01*
X166197965Y-118595120D01*
X166179416Y-119315703D01*
X165823745Y-119315703D01*
X165823745Y-117766565D01*
X166799880Y-117766565D01*
X168000000Y-118966685D01*
X169200120Y-117766565D01*
X169065554Y-117492898D01*
X168406920Y-117200005D01*
X167686337Y-117181456D01*
X167013505Y-117440074D01*
X166934446Y-117492898D01*
X166799880Y-117766565D01*
X165823745Y-117766565D01*
X165823745Y-117690130D01*
X165784939Y-117495040D01*
X165674430Y-117329650D01*
X165509040Y-117219141D01*
X165313950Y-117180335D01*
X162690130Y-117180335D01*
X162495040Y-117219141D01*
X162329650Y-117329650D01*
X162219141Y-117495040D01*
X162180335Y-117690130D01*
X140187086Y-117690130D01*
X140063428Y-117390857D01*
X139810475Y-117137462D01*
X139479806Y-117000157D01*
X139121764Y-116999844D01*
X138790857Y-117136572D01*
X138537462Y-117389525D01*
X138400157Y-117720194D01*
X138399844Y-118078236D01*
X118550000Y-118078236D01*
X118550000Y-117178236D01*
X120661644Y-117178236D01*
X120798372Y-117509143D01*
X121051325Y-117762538D01*
X121381994Y-117899843D01*
X121740036Y-117900156D01*
X122070943Y-117763428D01*
X122084394Y-117750000D01*
X134509221Y-117750000D01*
X134796234Y-117692910D01*
X135039551Y-117530330D01*
X135660530Y-116909351D01*
X135678247Y-116909366D01*
X136009154Y-116772638D01*
X136262549Y-116519685D01*
X136399854Y-116189016D01*
X136400167Y-115830974D01*
X136263439Y-115500067D01*
X136010486Y-115246672D01*
X135679817Y-115109367D01*
X135321775Y-115109054D01*
X134990868Y-115245782D01*
X134737473Y-115498735D01*
X134600168Y-115829404D01*
X134600151Y-115848410D01*
X134198561Y-116250000D01*
X122084791Y-116250000D01*
X122072275Y-116237462D01*
X121741606Y-116100157D01*
X121383564Y-116099844D01*
X121052657Y-116236572D01*
X120799262Y-116489525D01*
X120661957Y-116820194D01*
X120661644Y-117178236D01*
X118550000Y-117178236D01*
X118550000Y-112598514D01*
X152301563Y-112598514D01*
X152605384Y-113333816D01*
X153167465Y-113896879D01*
X153902236Y-114201982D01*
X154697834Y-114202677D01*
X155433136Y-113898856D01*
X155996199Y-113336775D01*
X156301302Y-112602004D01*
X156301305Y-112598514D01*
X179698003Y-112598514D01*
X180001824Y-113333816D01*
X180563905Y-113896879D01*
X181298676Y-114201982D01*
X182094274Y-114202677D01*
X182829576Y-113898856D01*
X183392639Y-113336775D01*
X183697742Y-112602004D01*
X183698437Y-111806406D01*
X183394616Y-111071104D01*
X182832535Y-110508041D01*
X182097764Y-110202938D01*
X181302166Y-110202243D01*
X180566864Y-110506064D01*
X180003801Y-111068145D01*
X179698698Y-111802916D01*
X179698003Y-112598514D01*
X156301305Y-112598514D01*
X156301997Y-111806406D01*
X155998176Y-111071104D01*
X155436095Y-110508041D01*
X154701324Y-110202938D01*
X153905726Y-110202243D01*
X153170424Y-110506064D01*
X152607361Y-111068145D01*
X152302258Y-111802916D01*
X152301563Y-112598514D01*
X118550000Y-112598514D01*
X118550000Y-107178236D01*
X135999844Y-107178236D01*
X136136572Y-107509143D01*
X136389525Y-107762538D01*
X136600044Y-107849952D01*
X136599844Y-108078236D01*
X136736572Y-108409143D01*
X136989525Y-108662538D01*
X137253389Y-108772103D01*
X137189397Y-108926214D01*
X137189084Y-109284256D01*
X137325812Y-109615163D01*
X137567717Y-109857491D01*
X137500157Y-110020194D01*
X137499844Y-110378236D01*
X137636572Y-110709143D01*
X137889525Y-110962538D01*
X138220194Y-111099843D01*
X138578236Y-111100156D01*
X138909143Y-110963428D01*
X139099525Y-110773378D01*
X139195295Y-110754328D01*
X139389949Y-110624264D01*
X141914213Y-108100000D01*
X164600000Y-108100000D01*
X164829610Y-108054328D01*
X165024264Y-107924264D01*
X166148573Y-106799955D01*
X166378236Y-106800156D01*
X166709143Y-106663428D01*
X166962538Y-106410475D01*
X167099843Y-106079806D01*
X167100156Y-105721764D01*
X166963428Y-105390857D01*
X166710475Y-105137462D01*
X166379806Y-105000157D01*
X166021764Y-104999844D01*
X165690857Y-105136572D01*
X165437462Y-105389525D01*
X165300157Y-105720194D01*
X165299955Y-105951517D01*
X164351472Y-106900000D01*
X159648528Y-106900000D01*
X160048528Y-106500000D01*
X160927271Y-106500000D01*
X161089525Y-106662538D01*
X161420194Y-106799843D01*
X161778236Y-106800156D01*
X162109143Y-106663428D01*
X162362538Y-106410475D01*
X162499843Y-106079806D01*
X162500156Y-105721764D01*
X162363428Y-105390857D01*
X162110475Y-105137462D01*
X161779806Y-105000157D01*
X161421764Y-104999844D01*
X161090857Y-105136572D01*
X160927143Y-105300000D01*
X159800000Y-105300000D01*
X159570390Y-105345672D01*
X159375736Y-105475736D01*
X158351483Y-106499989D01*
X149672868Y-106499989D01*
X149762538Y-106410475D01*
X149899843Y-106079806D01*
X149900156Y-105721764D01*
X149763428Y-105390857D01*
X149510475Y-105137462D01*
X149179806Y-105000157D01*
X148821764Y-104999844D01*
X148490857Y-105136572D01*
X148327143Y-105300000D01*
X147200000Y-105300000D01*
X146970390Y-105345672D01*
X146775736Y-105475736D01*
X146151494Y-106099978D01*
X145091467Y-106099978D01*
X145099843Y-106079806D01*
X145100156Y-105721764D01*
X144963428Y-105390857D01*
X144710475Y-105137462D01*
X144379806Y-105000157D01*
X144021764Y-104999844D01*
X143690857Y-105136572D01*
X143527143Y-105300000D01*
X139940517Y-105300000D01*
X139855177Y-105264564D01*
X139497135Y-105264251D01*
X139166228Y-105400979D01*
X138912833Y-105653932D01*
X138775528Y-105984601D01*
X138775326Y-106215924D01*
X138591250Y-106400000D01*
X137572729Y-106400000D01*
X137410475Y-106237462D01*
X137079806Y-106100157D01*
X136721764Y-106099844D01*
X136390857Y-106236572D01*
X136137462Y-106489525D01*
X136000157Y-106820194D01*
X135999844Y-107178236D01*
X118550000Y-107178236D01*
X118550000Y-99278236D01*
X142099844Y-99278236D01*
X142236572Y-99609143D01*
X142489525Y-99862538D01*
X142820194Y-99999843D01*
X143178236Y-100000156D01*
X143371693Y-99920221D01*
X144975736Y-101524264D01*
X145170390Y-101654328D01*
X145400000Y-101700000D01*
X186351472Y-101700000D01*
X187989362Y-103337890D01*
X187837462Y-103489525D01*
X187700157Y-103820194D01*
X187699844Y-104178236D01*
X187836572Y-104509143D01*
X188089525Y-104762538D01*
X188420194Y-104899843D01*
X188778236Y-104900156D01*
X189109143Y-104763428D01*
X189362538Y-104510475D01*
X189472652Y-104245288D01*
X191251628Y-106024264D01*
X191446282Y-106154328D01*
X191663784Y-106197592D01*
X191518608Y-106257577D01*
X191354894Y-106421005D01*
X176769533Y-106421005D01*
X176299955Y-105951427D01*
X176300156Y-105721764D01*
X176163428Y-105390857D01*
X175910475Y-105137462D01*
X175579806Y-105000157D01*
X175221764Y-104999844D01*
X174890857Y-105136572D01*
X174646193Y-105380809D01*
X174593606Y-105345672D01*
X174363996Y-105300000D01*
X171472729Y-105300000D01*
X171310475Y-105137462D01*
X170979806Y-105000157D01*
X170621764Y-104999844D01*
X170290857Y-105136572D01*
X170037462Y-105389525D01*
X169900157Y-105720194D01*
X169899844Y-106078236D01*
X170036572Y-106409143D01*
X170289525Y-106662538D01*
X170620194Y-106799843D01*
X170978236Y-106800156D01*
X171309143Y-106663428D01*
X171472857Y-106500000D01*
X174115468Y-106500000D01*
X175539732Y-107924264D01*
X175734386Y-108054328D01*
X175963996Y-108100000D01*
X190375722Y-108100000D01*
X190759252Y-108483530D01*
X190953906Y-108613594D01*
X191049950Y-108632698D01*
X191238726Y-108821804D01*
X191569395Y-108959109D01*
X191927437Y-108959422D01*
X192258344Y-108822694D01*
X192511739Y-108569741D01*
X192649044Y-108239072D01*
X192649357Y-107881030D01*
X192588258Y-107733159D01*
X192790289Y-107531480D01*
X192927594Y-107200811D01*
X192927907Y-106842769D01*
X192791179Y-106511862D01*
X192538226Y-106258467D01*
X192397421Y-106200000D01*
X192827271Y-106200000D01*
X192989525Y-106362538D01*
X193320194Y-106499843D01*
X193678236Y-106500156D01*
X194009143Y-106363428D01*
X194262538Y-106110475D01*
X194399843Y-105779806D01*
X194400088Y-105500000D01*
X194578236Y-105500156D01*
X194909143Y-105363428D01*
X195162538Y-105110475D01*
X195299843Y-104779806D01*
X195300156Y-104421764D01*
X195163428Y-104090857D01*
X194910475Y-103837462D01*
X194579806Y-103700157D01*
X194221764Y-103699844D01*
X193890857Y-103836572D01*
X193727143Y-104000000D01*
X192066879Y-104000000D01*
X192199843Y-103679785D01*
X192200156Y-103321743D01*
X192063428Y-102990836D01*
X191810475Y-102737441D01*
X191479806Y-102600136D01*
X191210800Y-102599901D01*
X191129611Y-102545652D01*
X190900001Y-102499980D01*
X190648508Y-102499980D01*
X187624231Y-99475703D01*
X187429577Y-99345639D01*
X187199967Y-99299967D01*
X146448495Y-99299967D01*
X146200000Y-99051472D01*
X146200000Y-97872729D01*
X146362538Y-97710475D01*
X146499843Y-97379806D01*
X146500156Y-97021764D01*
X146363428Y-96690857D01*
X146110475Y-96437462D01*
X145779806Y-96300157D01*
X145421764Y-96299844D01*
X145090857Y-96436572D01*
X144837462Y-96689525D01*
X144791556Y-96800080D01*
X144521764Y-96799844D01*
X144190857Y-96936572D01*
X143937462Y-97189525D01*
X143800157Y-97520194D01*
X143800087Y-97599912D01*
X143721764Y-97599844D01*
X143390857Y-97736572D01*
X143137462Y-97989525D01*
X143050048Y-98200044D01*
X142821764Y-98199844D01*
X142490857Y-98336572D01*
X142237462Y-98589525D01*
X142100157Y-98920194D01*
X142099844Y-99278236D01*
X118550000Y-99278236D01*
X118550000Y-97378236D01*
X123438044Y-97378236D01*
X123574772Y-97709143D01*
X123827725Y-97962538D01*
X124158394Y-98099843D01*
X124516436Y-98100156D01*
X124847343Y-97963428D01*
X125011057Y-97800000D01*
X125200000Y-97800000D01*
X125429610Y-97754328D01*
X125624264Y-97624264D01*
X125870292Y-97378236D01*
X137399844Y-97378236D01*
X137536572Y-97709143D01*
X137789525Y-97962538D01*
X138120194Y-98099843D01*
X138478236Y-98100156D01*
X138809143Y-97963428D01*
X139062538Y-97710475D01*
X139199843Y-97379806D01*
X139199983Y-97219255D01*
X140269238Y-96150001D01*
X156974999Y-96150001D01*
X157182475Y-96108732D01*
X157223744Y-96100523D01*
X157434618Y-95959620D01*
X160816002Y-92578236D01*
X206799844Y-92578236D01*
X206936572Y-92909143D01*
X207189525Y-93162538D01*
X207520194Y-93299843D01*
X207878236Y-93300156D01*
X208209143Y-93163428D01*
X208462538Y-92910475D01*
X208599843Y-92579806D01*
X208600045Y-92348483D01*
X210548528Y-90400000D01*
X211389071Y-90400000D01*
X211551325Y-90562538D01*
X211881994Y-90699843D01*
X212240036Y-90700156D01*
X212570943Y-90563428D01*
X212824338Y-90310475D01*
X212961643Y-89979806D01*
X212961956Y-89621764D01*
X212825228Y-89290857D01*
X212572275Y-89037462D01*
X212241606Y-88900157D01*
X211883564Y-88899844D01*
X211552657Y-89036572D01*
X211388943Y-89200000D01*
X210300000Y-89200000D01*
X210070390Y-89245672D01*
X209875736Y-89375736D01*
X207751427Y-91500045D01*
X207521764Y-91499844D01*
X207190857Y-91636572D01*
X206937462Y-91889525D01*
X206800157Y-92220194D01*
X206799844Y-92578236D01*
X160816002Y-92578236D01*
X162619326Y-90774912D01*
X162920194Y-90899843D01*
X163278236Y-90900156D01*
X163609143Y-90763428D01*
X163862538Y-90510475D01*
X163999843Y-90179806D01*
X164000079Y-89909317D01*
X164550381Y-90459619D01*
X164761255Y-90600522D01*
X164802524Y-90608731D01*
X165010000Y-90650000D01*
X165012183Y-90650000D01*
X165124525Y-90762538D01*
X165455194Y-90899843D01*
X165813236Y-90900156D01*
X166144143Y-90763428D01*
X166397538Y-90510475D01*
X166534843Y-90179806D01*
X166534844Y-90178236D01*
X170199844Y-90178236D01*
X170336572Y-90509143D01*
X170589525Y-90762538D01*
X170920194Y-90899843D01*
X171278236Y-90900156D01*
X171609143Y-90763428D01*
X171722769Y-90650000D01*
X171725000Y-90650000D01*
X171932476Y-90608731D01*
X171973745Y-90600522D01*
X172184619Y-90459619D01*
X172735079Y-89909159D01*
X172734844Y-90178236D01*
X172871572Y-90509143D01*
X173124525Y-90762538D01*
X173455194Y-90899843D01*
X173813236Y-90900156D01*
X174144143Y-90763428D01*
X174257769Y-90650000D01*
X194742564Y-90650000D01*
X194774480Y-90681916D01*
X194774341Y-90840930D01*
X194911069Y-91171837D01*
X195164022Y-91425232D01*
X195494691Y-91562537D01*
X195852733Y-91562850D01*
X196183640Y-91426122D01*
X196437035Y-91173169D01*
X196574340Y-90842500D01*
X196574653Y-90484458D01*
X196437925Y-90153551D01*
X196362742Y-90078236D01*
X206999842Y-90078236D01*
X207136570Y-90409143D01*
X207389523Y-90662538D01*
X207720192Y-90799843D01*
X208078234Y-90800156D01*
X208409141Y-90663428D01*
X208662536Y-90410475D01*
X208799841Y-90079806D01*
X208800043Y-89848483D01*
X210148526Y-88500000D01*
X211389071Y-88500000D01*
X211551325Y-88662538D01*
X211881994Y-88799843D01*
X212240036Y-88800156D01*
X212570943Y-88663428D01*
X212824338Y-88410475D01*
X212961643Y-88079806D01*
X212961956Y-87721764D01*
X212825228Y-87390857D01*
X212572275Y-87137462D01*
X212241606Y-87000157D01*
X211883564Y-86999844D01*
X211552657Y-87136572D01*
X211388943Y-87300000D01*
X209899998Y-87300000D01*
X209670388Y-87345672D01*
X209475734Y-87475736D01*
X207951425Y-89000045D01*
X207721762Y-88999844D01*
X207390855Y-89136572D01*
X207137460Y-89389525D01*
X207000155Y-89720194D01*
X206999842Y-90078236D01*
X196362742Y-90078236D01*
X196184972Y-89900156D01*
X196140589Y-89881727D01*
X196312150Y-89710465D01*
X196449455Y-89379796D01*
X196449768Y-89021754D01*
X196313040Y-88690847D01*
X196060087Y-88437452D01*
X195729418Y-88300147D01*
X195548795Y-88299989D01*
X195398358Y-88199469D01*
X195357089Y-88191260D01*
X195149613Y-88149991D01*
X172925009Y-88149991D01*
X172717533Y-88191260D01*
X172676264Y-88199469D01*
X172465390Y-88340372D01*
X171580674Y-89225088D01*
X171279806Y-89100157D01*
X170921764Y-89099844D01*
X170590857Y-89236572D01*
X170337462Y-89489525D01*
X170200157Y-89820194D01*
X170199844Y-90178236D01*
X166534844Y-90178236D01*
X166535156Y-89821764D01*
X166398428Y-89490857D01*
X166145475Y-89237462D01*
X165814806Y-89100157D01*
X165456764Y-89099844D01*
X165154128Y-89224890D01*
X164369619Y-88440381D01*
X164158745Y-88299478D01*
X164117476Y-88291269D01*
X163910000Y-88250000D01*
X162700000Y-88250000D01*
X162451255Y-88299478D01*
X162240381Y-88440381D01*
X157130762Y-93550000D01*
X140122817Y-93550000D01*
X140010475Y-93437462D01*
X139679806Y-93300157D01*
X139321764Y-93299844D01*
X138990857Y-93436572D01*
X138737462Y-93689525D01*
X138600157Y-94020194D01*
X138599844Y-94378236D01*
X138736572Y-94709143D01*
X138989525Y-94962538D01*
X139320194Y-95099843D01*
X139480778Y-95099983D01*
X138280779Y-96299983D01*
X138121764Y-96299844D01*
X137790857Y-96436572D01*
X137537462Y-96689525D01*
X137400157Y-97020194D01*
X137399844Y-97378236D01*
X125870292Y-97378236D01*
X126248573Y-96999955D01*
X126478236Y-97000156D01*
X126809143Y-96863428D01*
X127062538Y-96610475D01*
X127199843Y-96279806D01*
X127200156Y-95921764D01*
X127063428Y-95590857D01*
X126810475Y-95337462D01*
X126479806Y-95200157D01*
X126121764Y-95199844D01*
X125790857Y-95336572D01*
X125537462Y-95589525D01*
X125400157Y-95920194D01*
X125399955Y-96151517D01*
X124981227Y-96570245D01*
X124848675Y-96437462D01*
X124518006Y-96300157D01*
X124159964Y-96299844D01*
X123829057Y-96436572D01*
X123575662Y-96689525D01*
X123438357Y-97020194D01*
X123438044Y-97378236D01*
X118550000Y-97378236D01*
X118550000Y-95478236D01*
X123438044Y-95478236D01*
X123574772Y-95809143D01*
X123827725Y-96062538D01*
X124158394Y-96199843D01*
X124516436Y-96200156D01*
X124847343Y-96063428D01*
X125100738Y-95810475D01*
X125238043Y-95479806D01*
X125238279Y-95210249D01*
X125948573Y-94499955D01*
X126178236Y-94500156D01*
X126509143Y-94363428D01*
X126762538Y-94110475D01*
X126899843Y-93779806D01*
X126900156Y-93421764D01*
X126763428Y-93090857D01*
X126510475Y-92837462D01*
X126179806Y-92700157D01*
X125821764Y-92699844D01*
X125490857Y-92836572D01*
X125237462Y-93089525D01*
X125100157Y-93420194D01*
X125099955Y-93651517D01*
X124351461Y-94400011D01*
X124159964Y-94399844D01*
X123829057Y-94536572D01*
X123575662Y-94789525D01*
X123438357Y-95120194D01*
X123438044Y-95478236D01*
X118550000Y-95478236D01*
X118550000Y-91978248D01*
X139099844Y-91978248D01*
X139236572Y-92309155D01*
X139489525Y-92562550D01*
X139820194Y-92699855D01*
X140178236Y-92700168D01*
X140509143Y-92563440D01*
X140762538Y-92310487D01*
X140899843Y-91979818D01*
X140899983Y-91819267D01*
X142069251Y-90650000D01*
X154477183Y-90650000D01*
X154589525Y-90762538D01*
X154920194Y-90899843D01*
X155278236Y-90900156D01*
X155609143Y-90763428D01*
X155862538Y-90510475D01*
X155999843Y-90179806D01*
X156000156Y-89821764D01*
X155863428Y-89490857D01*
X155610475Y-89237462D01*
X155279806Y-89100157D01*
X154921764Y-89099844D01*
X154590857Y-89236572D01*
X154477231Y-89350000D01*
X141800012Y-89350000D01*
X141551268Y-89399478D01*
X141481295Y-89446233D01*
X141340392Y-89540381D01*
X139980779Y-90899995D01*
X139821764Y-90899856D01*
X139490857Y-91036584D01*
X139237462Y-91289537D01*
X139100157Y-91620206D01*
X139099844Y-91978248D01*
X118550000Y-91978248D01*
X118550000Y-89878236D01*
X123438044Y-89878236D01*
X123574772Y-90209143D01*
X123827725Y-90462538D01*
X124158394Y-90599843D01*
X124516436Y-90600156D01*
X124753624Y-90502152D01*
X125200045Y-90948573D01*
X125199844Y-91178236D01*
X125336572Y-91509143D01*
X125589525Y-91762538D01*
X125920194Y-91899843D01*
X126278236Y-91900156D01*
X126609143Y-91763428D01*
X126862538Y-91510475D01*
X126999843Y-91179806D01*
X127000156Y-90821764D01*
X126863428Y-90490857D01*
X126610475Y-90237462D01*
X126279806Y-90100157D01*
X126048483Y-90099955D01*
X125326764Y-89378236D01*
X139099844Y-89378236D01*
X139236572Y-89709143D01*
X139489525Y-89962538D01*
X139820194Y-90099843D01*
X140178236Y-90100156D01*
X140509143Y-89963428D01*
X140762538Y-89710475D01*
X140899843Y-89379806D01*
X140899983Y-89219255D01*
X141569239Y-88549999D01*
X155310761Y-88549999D01*
X156735022Y-89974261D01*
X156734844Y-90178236D01*
X156871572Y-90509143D01*
X157124525Y-90762538D01*
X157455194Y-90899843D01*
X157813236Y-90900156D01*
X158144143Y-90763428D01*
X158397538Y-90510475D01*
X158534843Y-90179806D01*
X158535156Y-89821764D01*
X158398428Y-89490857D01*
X158145475Y-89237462D01*
X157814806Y-89100157D01*
X157699295Y-89100056D01*
X156039618Y-87440380D01*
X155828744Y-87299477D01*
X155787475Y-87291268D01*
X155579999Y-87249999D01*
X141300001Y-87249999D01*
X141092525Y-87291268D01*
X141051256Y-87299477D01*
X140840382Y-87440380D01*
X139980779Y-88299983D01*
X139821764Y-88299844D01*
X139490857Y-88436572D01*
X139237462Y-88689525D01*
X139100157Y-89020194D01*
X139099844Y-89378236D01*
X125326764Y-89378236D01*
X125224264Y-89275736D01*
X125103304Y-89194913D01*
X125101628Y-89190857D01*
X124848675Y-88937462D01*
X124518006Y-88800157D01*
X124159964Y-88799844D01*
X123829057Y-88936572D01*
X123575662Y-89189525D01*
X123438357Y-89520194D01*
X123438044Y-89878236D01*
X118550000Y-89878236D01*
X118550000Y-72696014D01*
X140800443Y-72696014D01*
X141104264Y-73431316D01*
X141666345Y-73994379D01*
X142401116Y-74299482D01*
X143196714Y-74300177D01*
X143932016Y-73996356D01*
X144495079Y-73434275D01*
X144518348Y-73378236D01*
X151499844Y-73378236D01*
X151636572Y-73709143D01*
X151889525Y-73962538D01*
X152220194Y-74099843D01*
X152578236Y-74100156D01*
X152909143Y-73963428D01*
X153072857Y-73800000D01*
X153700000Y-73800000D01*
X153929610Y-73754328D01*
X154124264Y-73624264D01*
X154248528Y-73500000D01*
X187851472Y-73500000D01*
X188750478Y-74399006D01*
X188700157Y-74520194D01*
X188699844Y-74878236D01*
X188836572Y-75209143D01*
X189089525Y-75462538D01*
X189420194Y-75599843D01*
X189778236Y-75600156D01*
X190109143Y-75463428D01*
X190174756Y-75397929D01*
X190420194Y-75499843D01*
X190778236Y-75500156D01*
X191109143Y-75363428D01*
X191362538Y-75110475D01*
X191499843Y-74779806D01*
X191500156Y-74421764D01*
X191363428Y-74090857D01*
X191110475Y-73837462D01*
X190779806Y-73700157D01*
X190548483Y-73699955D01*
X189544542Y-72696014D01*
X191199123Y-72696014D01*
X191502944Y-73431316D01*
X192065025Y-73994379D01*
X192799796Y-74299482D01*
X193595394Y-74300177D01*
X194330696Y-73996356D01*
X194893759Y-73434275D01*
X195198862Y-72699504D01*
X195199557Y-71903906D01*
X194895736Y-71168604D01*
X194333655Y-70605541D01*
X193598884Y-70300438D01*
X192803286Y-70299743D01*
X192067984Y-70603564D01*
X191504921Y-71165645D01*
X191199818Y-71900416D01*
X191199123Y-72696014D01*
X189544542Y-72696014D01*
X188824264Y-71975736D01*
X188629610Y-71845672D01*
X188400000Y-71800000D01*
X154214223Y-71800000D01*
X154189949Y-71775726D01*
X153995295Y-71645662D01*
X153899251Y-71626558D01*
X153710475Y-71437452D01*
X153379806Y-71300147D01*
X153021764Y-71299834D01*
X152690857Y-71436562D01*
X152437462Y-71689515D01*
X152300157Y-72020184D01*
X152299912Y-72299912D01*
X152221764Y-72299844D01*
X151890857Y-72436572D01*
X151637462Y-72689525D01*
X151500157Y-73020194D01*
X151499844Y-73378236D01*
X144518348Y-73378236D01*
X144800182Y-72699504D01*
X144800877Y-71903906D01*
X144497056Y-71168604D01*
X143934975Y-70605541D01*
X143200204Y-70300438D01*
X142404606Y-70299743D01*
X141669304Y-70603564D01*
X141106241Y-71165645D01*
X140801138Y-71900416D01*
X140800443Y-72696014D01*
X118550000Y-72696014D01*
X118550000Y-69356790D01*
X152189837Y-69356790D01*
X152465102Y-70022983D01*
X152974356Y-70533127D01*
X153640068Y-70809554D01*
X154360890Y-70810183D01*
X155027083Y-70534918D01*
X155537227Y-70025664D01*
X155813654Y-69359952D01*
X155813656Y-69356790D01*
X156187797Y-69356790D01*
X156463062Y-70022983D01*
X156972316Y-70533127D01*
X157638028Y-70809554D01*
X158358850Y-70810183D01*
X159025043Y-70534918D01*
X159535187Y-70025664D01*
X159811614Y-69359952D01*
X159811616Y-69356790D01*
X160188297Y-69356790D01*
X160463562Y-70022983D01*
X160972816Y-70533127D01*
X161638528Y-70809554D01*
X162359350Y-70810183D01*
X163025543Y-70534918D01*
X163535687Y-70025664D01*
X163812114Y-69359952D01*
X163812116Y-69356790D01*
X164188797Y-69356790D01*
X164464062Y-70022983D01*
X164973316Y-70533127D01*
X165639028Y-70809554D01*
X166359850Y-70810183D01*
X167026043Y-70534918D01*
X167536187Y-70025664D01*
X167812614Y-69359952D01*
X167812616Y-69356790D01*
X168186757Y-69356790D01*
X168462022Y-70022983D01*
X168971276Y-70533127D01*
X169636988Y-70809554D01*
X170357810Y-70810183D01*
X171024003Y-70534918D01*
X171534147Y-70025664D01*
X171810574Y-69359952D01*
X171810576Y-69356790D01*
X172187257Y-69356790D01*
X172462522Y-70022983D01*
X172971776Y-70533127D01*
X173637488Y-70809554D01*
X174358310Y-70810183D01*
X175024503Y-70534918D01*
X175534647Y-70025664D01*
X175811074Y-69359952D01*
X175811076Y-69356790D01*
X176187757Y-69356790D01*
X176463022Y-70022983D01*
X176972276Y-70533127D01*
X177637988Y-70809554D01*
X178358810Y-70810183D01*
X179025003Y-70534918D01*
X179535147Y-70025664D01*
X179811574Y-69359952D01*
X179811576Y-69356790D01*
X180185717Y-69356790D01*
X180460982Y-70022983D01*
X180970236Y-70533127D01*
X181635948Y-70809554D01*
X182356770Y-70810183D01*
X183022963Y-70534918D01*
X183533107Y-70025664D01*
X183809534Y-69359952D01*
X183810163Y-68639130D01*
X183534898Y-67972937D01*
X183025644Y-67462793D01*
X182359932Y-67186366D01*
X181639110Y-67185737D01*
X180972917Y-67461002D01*
X180462773Y-67970256D01*
X180186346Y-68635968D01*
X180185717Y-69356790D01*
X179811576Y-69356790D01*
X179812203Y-68639130D01*
X179536938Y-67972937D01*
X179027684Y-67462793D01*
X178361972Y-67186366D01*
X177641150Y-67185737D01*
X176974957Y-67461002D01*
X176464813Y-67970256D01*
X176188386Y-68635968D01*
X176187757Y-69356790D01*
X175811076Y-69356790D01*
X175811703Y-68639130D01*
X175536438Y-67972937D01*
X175027184Y-67462793D01*
X174361472Y-67186366D01*
X173640650Y-67185737D01*
X172974457Y-67461002D01*
X172464313Y-67970256D01*
X172187886Y-68635968D01*
X172187257Y-69356790D01*
X171810576Y-69356790D01*
X171811203Y-68639130D01*
X171535938Y-67972937D01*
X171026684Y-67462793D01*
X170360972Y-67186366D01*
X169640150Y-67185737D01*
X168973957Y-67461002D01*
X168463813Y-67970256D01*
X168187386Y-68635968D01*
X168186757Y-69356790D01*
X167812616Y-69356790D01*
X167813243Y-68639130D01*
X167537978Y-67972937D01*
X167028724Y-67462793D01*
X166363012Y-67186366D01*
X165642190Y-67185737D01*
X164975997Y-67461002D01*
X164465853Y-67970256D01*
X164189426Y-68635968D01*
X164188797Y-69356790D01*
X163812116Y-69356790D01*
X163812743Y-68639130D01*
X163537478Y-67972937D01*
X163028224Y-67462793D01*
X162362512Y-67186366D01*
X161641690Y-67185737D01*
X160975497Y-67461002D01*
X160465353Y-67970256D01*
X160188926Y-68635968D01*
X160188297Y-69356790D01*
X159811616Y-69356790D01*
X159812243Y-68639130D01*
X159536978Y-67972937D01*
X159027724Y-67462793D01*
X158362012Y-67186366D01*
X157641190Y-67185737D01*
X156974997Y-67461002D01*
X156464853Y-67970256D01*
X156188426Y-68635968D01*
X156187797Y-69356790D01*
X155813656Y-69356790D01*
X155814283Y-68639130D01*
X155539018Y-67972937D01*
X155029764Y-67462793D01*
X154364052Y-67186366D01*
X153643230Y-67185737D01*
X152977037Y-67461002D01*
X152466893Y-67970256D01*
X152190466Y-68635968D01*
X152189837Y-69356790D01*
X118550000Y-69356790D01*
X118550000Y-63078236D01*
X150299844Y-63078236D01*
X150436572Y-63409143D01*
X150689525Y-63662538D01*
X151020194Y-63799843D01*
X151378236Y-63800156D01*
X151709143Y-63663428D01*
X151822769Y-63550000D01*
X154888907Y-63550000D01*
X154465873Y-63972296D01*
X154189446Y-64638008D01*
X154188817Y-65358830D01*
X154464082Y-66025023D01*
X154973336Y-66535167D01*
X155639048Y-66811594D01*
X156359870Y-66812223D01*
X157026063Y-66536958D01*
X157536207Y-66027704D01*
X157812634Y-65361992D01*
X157813263Y-64641170D01*
X157537998Y-63974977D01*
X157113762Y-63550000D01*
X158889407Y-63550000D01*
X158466373Y-63972296D01*
X158189946Y-64638008D01*
X158189317Y-65358830D01*
X158464582Y-66025023D01*
X158973836Y-66535167D01*
X159639548Y-66811594D01*
X160360370Y-66812223D01*
X161026563Y-66536958D01*
X161536707Y-66027704D01*
X161813134Y-65361992D01*
X161813763Y-64641170D01*
X161538498Y-63974977D01*
X161114262Y-63550000D01*
X162889907Y-63550000D01*
X162466873Y-63972296D01*
X162190446Y-64638008D01*
X162189817Y-65358830D01*
X162465082Y-66025023D01*
X162974336Y-66535167D01*
X163640048Y-66811594D01*
X164360870Y-66812223D01*
X165027063Y-66536958D01*
X165537207Y-66027704D01*
X165813634Y-65361992D01*
X165814263Y-64641170D01*
X165538998Y-63974977D01*
X165114762Y-63550000D01*
X166887867Y-63550000D01*
X166464833Y-63972296D01*
X166188406Y-64638008D01*
X166187777Y-65358830D01*
X166463042Y-66025023D01*
X166972296Y-66535167D01*
X167638008Y-66811594D01*
X168358830Y-66812223D01*
X169025023Y-66536958D01*
X169535167Y-66027704D01*
X169811594Y-65361992D01*
X169812223Y-64641170D01*
X169536958Y-63974977D01*
X169112722Y-63550000D01*
X170885827Y-63550000D01*
X170462793Y-63972296D01*
X170186366Y-64638008D01*
X170185737Y-65358830D01*
X170461002Y-66025023D01*
X170970256Y-66535167D01*
X171635968Y-66811594D01*
X172356790Y-66812223D01*
X173022983Y-66536958D01*
X173533127Y-66027704D01*
X173809554Y-65361992D01*
X173809556Y-65358830D01*
X174186237Y-65358830D01*
X174461502Y-66025023D01*
X174970756Y-66535167D01*
X175636468Y-66811594D01*
X176357290Y-66812223D01*
X177023483Y-66536958D01*
X177533627Y-66027704D01*
X177810054Y-65361992D01*
X177810056Y-65358830D01*
X178186737Y-65358830D01*
X178462002Y-66025023D01*
X178971256Y-66535167D01*
X179636968Y-66811594D01*
X180357790Y-66812223D01*
X181023983Y-66536958D01*
X181534127Y-66027704D01*
X181810554Y-65361992D01*
X181811183Y-64641170D01*
X181535918Y-63974977D01*
X181026664Y-63464833D01*
X180360952Y-63188406D01*
X179640130Y-63187777D01*
X178973937Y-63463042D01*
X178463793Y-63972296D01*
X178187366Y-64638008D01*
X178186737Y-65358830D01*
X177810056Y-65358830D01*
X177810683Y-64641170D01*
X177535418Y-63974977D01*
X177026164Y-63464833D01*
X176360452Y-63188406D01*
X175639630Y-63187777D01*
X174973437Y-63463042D01*
X174463293Y-63972296D01*
X174186866Y-64638008D01*
X174186237Y-65358830D01*
X173809556Y-65358830D01*
X173810183Y-64641170D01*
X173534918Y-63974977D01*
X173025664Y-63464833D01*
X172359952Y-63188406D01*
X171831294Y-63187945D01*
X172459620Y-62559619D01*
X172600522Y-62348745D01*
X172630948Y-62195783D01*
X172971776Y-62537207D01*
X173637488Y-62813634D01*
X174358310Y-62814263D01*
X175024503Y-62538998D01*
X175534647Y-62029744D01*
X175811074Y-61364032D01*
X175811076Y-61360870D01*
X176187757Y-61360870D01*
X176463022Y-62027063D01*
X176972276Y-62537207D01*
X177637988Y-62813634D01*
X178358810Y-62814263D01*
X179025003Y-62538998D01*
X179535147Y-62029744D01*
X179811574Y-61364032D01*
X179811576Y-61360870D01*
X180185717Y-61360870D01*
X180460982Y-62027063D01*
X180970236Y-62537207D01*
X181635948Y-62813634D01*
X182356770Y-62814263D01*
X183022963Y-62538998D01*
X183533107Y-62029744D01*
X183809534Y-61364032D01*
X183810163Y-60643210D01*
X183534898Y-59977017D01*
X183025644Y-59466873D01*
X182359932Y-59190446D01*
X181639110Y-59189817D01*
X180972917Y-59465082D01*
X180462773Y-59974336D01*
X180186346Y-60640048D01*
X180185717Y-61360870D01*
X179811576Y-61360870D01*
X179812203Y-60643210D01*
X179536938Y-59977017D01*
X179027684Y-59466873D01*
X178361972Y-59190446D01*
X177641150Y-59189817D01*
X176974957Y-59465082D01*
X176464813Y-59974336D01*
X176188386Y-60640048D01*
X176187757Y-61360870D01*
X175811076Y-61360870D01*
X175811703Y-60643210D01*
X175536438Y-59977017D01*
X175027184Y-59466873D01*
X174361472Y-59190446D01*
X173640650Y-59189817D01*
X172974457Y-59465082D01*
X172899966Y-59539443D01*
X172900156Y-59321764D01*
X172763428Y-58990857D01*
X172510475Y-58737462D01*
X172179806Y-58600157D01*
X171821764Y-58599844D01*
X171490857Y-58736572D01*
X171237462Y-58989525D01*
X171100157Y-59320194D01*
X171099965Y-59540282D01*
X171026684Y-59466873D01*
X170360972Y-59190446D01*
X169640150Y-59189817D01*
X168973957Y-59465082D01*
X168463813Y-59974336D01*
X168187386Y-60640048D01*
X168186757Y-61360870D01*
X168462022Y-62027063D01*
X168684570Y-62250000D01*
X167315546Y-62250000D01*
X167536187Y-62029744D01*
X167812614Y-61364032D01*
X167813243Y-60643210D01*
X167537978Y-59977017D01*
X167028724Y-59466873D01*
X166363012Y-59190446D01*
X165642190Y-59189817D01*
X164975997Y-59465082D01*
X164465853Y-59974336D01*
X164189426Y-60640048D01*
X164188797Y-61360870D01*
X164464062Y-62027063D01*
X164686610Y-62250000D01*
X163315046Y-62250000D01*
X163535687Y-62029744D01*
X163812114Y-61364032D01*
X163812743Y-60643210D01*
X163537478Y-59977017D01*
X163028224Y-59466873D01*
X162362512Y-59190446D01*
X161641690Y-59189817D01*
X160975497Y-59465082D01*
X160465353Y-59974336D01*
X160188926Y-60640048D01*
X160188297Y-61360870D01*
X160463562Y-62027063D01*
X160686110Y-62250000D01*
X159314546Y-62250000D01*
X159535187Y-62029744D01*
X159811614Y-61364032D01*
X159812243Y-60643210D01*
X159536978Y-59977017D01*
X159027724Y-59466873D01*
X158362012Y-59190446D01*
X157641190Y-59189817D01*
X156974997Y-59465082D01*
X156464853Y-59974336D01*
X156188426Y-60640048D01*
X156187797Y-61360870D01*
X156463062Y-62027063D01*
X156685610Y-62250000D01*
X155823765Y-62250000D01*
X155823765Y-59690130D01*
X155784959Y-59495040D01*
X155674450Y-59329650D01*
X155509060Y-59219141D01*
X155313970Y-59180335D01*
X152690150Y-59180335D01*
X152495060Y-59219141D01*
X152329670Y-59329650D01*
X152219161Y-59495040D01*
X152180355Y-59690130D01*
X152180355Y-62250000D01*
X151822817Y-62250000D01*
X151710475Y-62137462D01*
X151379806Y-62000157D01*
X151021764Y-61999844D01*
X150690857Y-62136572D01*
X150437462Y-62389525D01*
X150300157Y-62720194D01*
X150299844Y-63078236D01*
X118550000Y-63078236D01*
X118550000Y-54598514D01*
X142301583Y-54598514D01*
X142605404Y-55333816D01*
X143167485Y-55896879D01*
X143902256Y-56201982D01*
X144697854Y-56202677D01*
X145433156Y-55898856D01*
X145996219Y-55336775D01*
X146301322Y-54602004D01*
X146301325Y-54598514D01*
X189697983Y-54598514D01*
X190001804Y-55333816D01*
X190563885Y-55896879D01*
X191298656Y-56201982D01*
X192094254Y-56202677D01*
X192829556Y-55898856D01*
X193392619Y-55336775D01*
X193697722Y-54602004D01*
X193698417Y-53806406D01*
X193394596Y-53071104D01*
X192832515Y-52508041D01*
X192097744Y-52202938D01*
X191302146Y-52202243D01*
X190566844Y-52506064D01*
X190003781Y-53068145D01*
X189698678Y-53802916D01*
X189697983Y-54598514D01*
X146301325Y-54598514D01*
X146302017Y-53806406D01*
X145998196Y-53071104D01*
X145436115Y-52508041D01*
X144701344Y-52202938D01*
X143905746Y-52202243D01*
X143170444Y-52506064D01*
X142607381Y-53068145D01*
X142302278Y-53802916D01*
X142301583Y-54598514D01*
X118550000Y-54598514D01*
X118550000Y-54451374D01*
X120020717Y-54158830D01*
X120218981Y-54076707D01*
X120218984Y-54076704D01*
X121841094Y-52992845D01*
X121841098Y-52992843D01*
X121916970Y-52916970D01*
X121992843Y-52841098D01*
X121992845Y-52841094D01*
X123076705Y-51218983D01*
X123076707Y-51218981D01*
X123158830Y-51020717D01*
X123451374Y-49550000D01*
X165246897Y-49550000D01*
X165122314Y-49736451D01*
X165122314Y-49736451D01*
G37*
X165122314Y-49736451D02*
X165050000Y-50100000D01*
X165122314Y-50463549D01*
X165328249Y-50771751D01*
X165636451Y-50977686D01*
X166000000Y-51050000D01*
X209606498Y-51050000D01*
X215250000Y-56693503D01*
X215250000Y-94120767D01*
X207320768Y-102050000D01*
X206165300Y-102050000D01*
X205801751Y-102122314D01*
X205493549Y-102328249D01*
X205287614Y-102636451D01*
X205215300Y-103000000D01*
X205287614Y-103363549D01*
X205493549Y-103671751D01*
X205801751Y-103877686D01*
X206165300Y-103950000D01*
X207714270Y-103950000D01*
X208017503Y-103889683D01*
X208077820Y-103877686D01*
X208386021Y-103671751D01*
X216871751Y-95186022D01*
X217077685Y-94877820D01*
X217077686Y-94877819D01*
X217150000Y-94514270D01*
X217150000Y-56300000D01*
X217077686Y-55936451D01*
X217077686Y-55936450D01*
X216871751Y-55628248D01*
X214392289Y-53148786D01*
X215781017Y-54076705D01*
X215781019Y-54076707D01*
X215979283Y-54158830D01*
X217450000Y-54451374D01*
X217450000Y-133548626D01*
X215979283Y-133841170D01*
X215781019Y-133923293D01*
X215781017Y-133923295D01*
X214158906Y-135007155D01*
X214158902Y-135007157D01*
X214083030Y-135083030D01*
X214007157Y-135158902D01*
X214007155Y-135158906D01*
X212923296Y-136781016D01*
X212923293Y-136781019D01*
X212841170Y-136979283D01*
X212548626Y-138450000D01*
X123451374Y-138450000D01*
X123158830Y-136979283D01*
X123076707Y-136781019D01*
X123076705Y-136781017D01*
X121992845Y-135158906D01*
X121992843Y-135158902D01*
X121916970Y-135083030D01*
X121841098Y-135007157D01*
X121841094Y-135007155D01*
X120218984Y-133923296D01*
X120218981Y-133923293D01*
X120020717Y-133841170D01*
X118550000Y-133548626D01*
X118550000Y-130696014D01*
X150800423Y-130696014D01*
X151104244Y-131431316D01*
X151666325Y-131994379D01*
X152401096Y-132299482D01*
X153196694Y-132300177D01*
X153931996Y-131996356D01*
X154495059Y-131434275D01*
X154800162Y-130699504D01*
X154800165Y-130696014D01*
X181199143Y-130696014D01*
X181502964Y-131431316D01*
X182065045Y-131994379D01*
X182799816Y-132299482D01*
X183595414Y-132300177D01*
X184330716Y-131996356D01*
X184893779Y-131434275D01*
X185198882Y-130699504D01*
X185199577Y-129903906D01*
X184895756Y-129168604D01*
X184333675Y-128605541D01*
X183598904Y-128300438D01*
X182803306Y-128299743D01*
X182068004Y-128603564D01*
X181504941Y-129165645D01*
X181199838Y-129900416D01*
X181199143Y-130696014D01*
X154800165Y-130696014D01*
X154800857Y-129903906D01*
X154497036Y-129168604D01*
X153934955Y-128605541D01*
X153200184Y-128300438D01*
X152404586Y-128299743D01*
X151669284Y-128603564D01*
X151106221Y-129165645D01*
X150801118Y-129900416D01*
X150800423Y-130696014D01*
X118550000Y-130696014D01*
X118550000Y-125278236D01*
X144999844Y-125278236D01*
X145136572Y-125609143D01*
X145389525Y-125862538D01*
X145720194Y-125999843D01*
X145900000Y-126000000D01*
X145899844Y-126178236D01*
X146036572Y-126509143D01*
X146289525Y-126762538D01*
X146620194Y-126899843D01*
X146978236Y-126900156D01*
X147309143Y-126763428D01*
X147422769Y-126650000D01*
X157300000Y-126650000D01*
X157507476Y-126608731D01*
X157548745Y-126600522D01*
X157759619Y-126459619D01*
X158569239Y-125650000D01*
X162787689Y-125650000D01*
X162466873Y-125970256D01*
X162190446Y-126635968D01*
X162189817Y-127356790D01*
X162465082Y-128022983D01*
X162974336Y-128533127D01*
X163640048Y-128809554D01*
X164360870Y-128810183D01*
X165027063Y-128534918D01*
X165537207Y-128025664D01*
X165813634Y-127359952D01*
X165814263Y-126639130D01*
X165538998Y-125972937D01*
X165216624Y-125650000D01*
X166785649Y-125650000D01*
X166464833Y-125970256D01*
X166188406Y-126635968D01*
X166187777Y-127356790D01*
X166463042Y-128022983D01*
X166972296Y-128533127D01*
X167638008Y-128809554D01*
X168358830Y-128810183D01*
X169025023Y-128534918D01*
X169535167Y-128025664D01*
X169811594Y-127359952D01*
X169811596Y-127356790D01*
X170185737Y-127356790D01*
X170461002Y-128022983D01*
X170970256Y-128533127D01*
X171635968Y-128809554D01*
X172356790Y-128810183D01*
X173022983Y-128534918D01*
X173533127Y-128025664D01*
X173809554Y-127359952D01*
X173810183Y-126639130D01*
X173534918Y-125972937D01*
X173025664Y-125462793D01*
X172359952Y-125186366D01*
X171639130Y-125185737D01*
X170972937Y-125461002D01*
X170462793Y-125970256D01*
X170186366Y-126635968D01*
X170185737Y-127356790D01*
X169811596Y-127356790D01*
X169812223Y-126639130D01*
X169536958Y-125972937D01*
X169027704Y-125462793D01*
X168623334Y-125294884D01*
X169262235Y-124655983D01*
X169636988Y-124811594D01*
X170357810Y-124812223D01*
X171024003Y-124536958D01*
X171534147Y-124027704D01*
X171810574Y-123361992D01*
X171811203Y-122641170D01*
X171535938Y-121974977D01*
X171139890Y-121578236D01*
X184699844Y-121578236D01*
X184836572Y-121909143D01*
X184953375Y-122026150D01*
X184879531Y-122203988D01*
X184879218Y-122562030D01*
X185015946Y-122892937D01*
X185268899Y-123146332D01*
X185599568Y-123283637D01*
X185957610Y-123283950D01*
X186235433Y-123169156D01*
X190670933Y-123169156D01*
X190683449Y-123181694D01*
X191014118Y-123318999D01*
X191372160Y-123319312D01*
X191703067Y-123182584D01*
X191956462Y-122929631D01*
X192093767Y-122598962D01*
X192094080Y-122240920D01*
X191957352Y-121910013D01*
X191704399Y-121656618D01*
X191699865Y-121654735D01*
X191700156Y-121321764D01*
X191563428Y-120990857D01*
X191310475Y-120737462D01*
X190979806Y-120600157D01*
X190621764Y-120599844D01*
X190290857Y-120736572D01*
X190277406Y-120750000D01*
X186222817Y-120750000D01*
X186110475Y-120637462D01*
X185779806Y-120500157D01*
X185421764Y-120499844D01*
X185090857Y-120636572D01*
X184837462Y-120889525D01*
X184700157Y-121220194D01*
X184699844Y-121578236D01*
X171139890Y-121578236D01*
X171026684Y-121464833D01*
X170360972Y-121188406D01*
X169640150Y-121187777D01*
X168973957Y-121463042D01*
X168463813Y-121972296D01*
X168187386Y-122638008D01*
X168186757Y-123358830D01*
X168342934Y-123736808D01*
X167729742Y-124350000D01*
X167213328Y-124350000D01*
X167536187Y-124027704D01*
X167812614Y-123361992D01*
X167813243Y-122641170D01*
X167537978Y-121974977D01*
X167028724Y-121464833D01*
X166363012Y-121188406D01*
X165642190Y-121187777D01*
X164975997Y-121463042D01*
X164465853Y-121972296D01*
X164189426Y-122638008D01*
X164188797Y-123358830D01*
X164344974Y-123736808D01*
X164331782Y-123750000D01*
X158000000Y-123750000D01*
X157751256Y-123799478D01*
X157751254Y-123799479D01*
X157751255Y-123799479D01*
X157540380Y-123940381D01*
X157030762Y-124450000D01*
X146522817Y-124450000D01*
X146410475Y-124337462D01*
X146079806Y-124200157D01*
X145721764Y-124199844D01*
X145390857Y-124336572D01*
X145137462Y-124589525D01*
X145000157Y-124920194D01*
X144999844Y-125278236D01*
X118550000Y-125278236D01*
X118550000Y-118078236D01*
X138399844Y-118078236D01*
X138536572Y-118409143D01*
X138700000Y-118572857D01*
X138700000Y-120627271D01*
X138537462Y-120789525D01*
X138400157Y-121120194D01*
X138399844Y-121478236D01*
X138536572Y-121809143D01*
X138789525Y-122062538D01*
X139120194Y-122199843D01*
X139478236Y-122200156D01*
X139809143Y-122063428D01*
X140062538Y-121810475D01*
X140199843Y-121479806D01*
X140200156Y-121121764D01*
X140063428Y-120790857D01*
X139900000Y-120627143D01*
X139900000Y-118572729D01*
X140062538Y-118410475D01*
X140199843Y-118079806D01*
X140200156Y-117721764D01*
X140187086Y-117690130D01*
X162180335Y-117690130D01*
X162180335Y-120313950D01*
X162219141Y-120509040D01*
X162329650Y-120674430D01*
X162495040Y-120784939D01*
X162690130Y-120823745D01*
X165313950Y-120823745D01*
X165509040Y-120784939D01*
X165674430Y-120674430D01*
X165784939Y-120509040D01*
X165823745Y-120313950D01*
X165823745Y-120237515D01*
X166799880Y-120237515D01*
X166934446Y-120511182D01*
X167593080Y-120804075D01*
X168313663Y-120822624D01*
X168986495Y-120564006D01*
X169065554Y-120511182D01*
X169200120Y-120237515D01*
X168000000Y-119037395D01*
X166799880Y-120237515D01*
X165823745Y-120237515D01*
X165823745Y-119315703D01*
X166179416Y-119315703D01*
X166438034Y-119988535D01*
X166490858Y-120067594D01*
X166764525Y-120202160D01*
X167964645Y-119002040D01*
X168035355Y-119002040D01*
X169235475Y-120202160D01*
X169509142Y-120067594D01*
X169802035Y-119408960D01*
X169803272Y-119360870D01*
X170185737Y-119360870D01*
X170461002Y-120027063D01*
X170970256Y-120537207D01*
X171635968Y-120813634D01*
X172356790Y-120814263D01*
X173022983Y-120538998D01*
X173410617Y-120152040D01*
X173853280Y-120152040D01*
X173863536Y-120150000D01*
X199100000Y-120150000D01*
X199540086Y-120062461D01*
X199913173Y-119813173D01*
X200162461Y-119440086D01*
X200250000Y-119000000D01*
X200162461Y-118559914D01*
X199913173Y-118186827D01*
X199540086Y-117937539D01*
X199100000Y-117850000D01*
X173855320Y-117850000D01*
X173845064Y-117852040D01*
X173410159Y-117852040D01*
X173025664Y-117466873D01*
X172359952Y-117190446D01*
X171639130Y-117189817D01*
X170972937Y-117465082D01*
X170462793Y-117974336D01*
X170186366Y-118640048D01*
X170185737Y-119360870D01*
X169803272Y-119360870D01*
X169820584Y-118688377D01*
X169561966Y-118015545D01*
X169509142Y-117936486D01*
X169235475Y-117801920D01*
X168035355Y-119002040D01*
X167964645Y-119002040D01*
X166764525Y-117801920D01*
X166490858Y-117936486D01*
X166197965Y-118595120D01*
X166179416Y-119315703D01*
X165823745Y-119315703D01*
X165823745Y-117766565D01*
X166799880Y-117766565D01*
X168000000Y-118966685D01*
X169200120Y-117766565D01*
X169065554Y-117492898D01*
X168406920Y-117200005D01*
X167686337Y-117181456D01*
X167013505Y-117440074D01*
X166934446Y-117492898D01*
X166799880Y-117766565D01*
X165823745Y-117766565D01*
X165823745Y-117690130D01*
X165784939Y-117495040D01*
X165674430Y-117329650D01*
X165509040Y-117219141D01*
X165313950Y-117180335D01*
X162690130Y-117180335D01*
X162495040Y-117219141D01*
X162329650Y-117329650D01*
X162219141Y-117495040D01*
X162180335Y-117690130D01*
X140187086Y-117690130D01*
X140063428Y-117390857D01*
X139810475Y-117137462D01*
X139479806Y-117000157D01*
X139121764Y-116999844D01*
X138790857Y-117136572D01*
X138537462Y-117389525D01*
X138400157Y-117720194D01*
X138399844Y-118078236D01*
X118550000Y-118078236D01*
X118550000Y-117178236D01*
X120661644Y-117178236D01*
X120798372Y-117509143D01*
X121051325Y-117762538D01*
X121381994Y-117899843D01*
X121740036Y-117900156D01*
X122070943Y-117763428D01*
X122084394Y-117750000D01*
X134509221Y-117750000D01*
X134796234Y-117692910D01*
X135039551Y-117530330D01*
X135660530Y-116909351D01*
X135678247Y-116909366D01*
X136009154Y-116772638D01*
X136262549Y-116519685D01*
X136399854Y-116189016D01*
X136400167Y-115830974D01*
X136263439Y-115500067D01*
X136010486Y-115246672D01*
X135679817Y-115109367D01*
X135321775Y-115109054D01*
X134990868Y-115245782D01*
X134737473Y-115498735D01*
X134600168Y-115829404D01*
X134600151Y-115848410D01*
X134198561Y-116250000D01*
X122084791Y-116250000D01*
X122072275Y-116237462D01*
X121741606Y-116100157D01*
X121383564Y-116099844D01*
X121052657Y-116236572D01*
X120799262Y-116489525D01*
X120661957Y-116820194D01*
X120661644Y-117178236D01*
X118550000Y-117178236D01*
X118550000Y-112598514D01*
X152301563Y-112598514D01*
X152605384Y-113333816D01*
X153167465Y-113896879D01*
X153902236Y-114201982D01*
X154697834Y-114202677D01*
X155433136Y-113898856D01*
X155996199Y-113336775D01*
X156301302Y-112602004D01*
X156301305Y-112598514D01*
X179698003Y-112598514D01*
X180001824Y-113333816D01*
X180563905Y-113896879D01*
X181298676Y-114201982D01*
X182094274Y-114202677D01*
X182829576Y-113898856D01*
X183392639Y-113336775D01*
X183697742Y-112602004D01*
X183698437Y-111806406D01*
X183394616Y-111071104D01*
X182832535Y-110508041D01*
X182097764Y-110202938D01*
X181302166Y-110202243D01*
X180566864Y-110506064D01*
X180003801Y-111068145D01*
X179698698Y-111802916D01*
X179698003Y-112598514D01*
X156301305Y-112598514D01*
X156301997Y-111806406D01*
X155998176Y-111071104D01*
X155436095Y-110508041D01*
X154701324Y-110202938D01*
X153905726Y-110202243D01*
X153170424Y-110506064D01*
X152607361Y-111068145D01*
X152302258Y-111802916D01*
X152301563Y-112598514D01*
X118550000Y-112598514D01*
X118550000Y-107178236D01*
X135999844Y-107178236D01*
X136136572Y-107509143D01*
X136389525Y-107762538D01*
X136600044Y-107849952D01*
X136599844Y-108078236D01*
X136736572Y-108409143D01*
X136989525Y-108662538D01*
X137253389Y-108772103D01*
X137189397Y-108926214D01*
X137189084Y-109284256D01*
X137325812Y-109615163D01*
X137567717Y-109857491D01*
X137500157Y-110020194D01*
X137499844Y-110378236D01*
X137636572Y-110709143D01*
X137889525Y-110962538D01*
X138220194Y-111099843D01*
X138578236Y-111100156D01*
X138909143Y-110963428D01*
X139099525Y-110773378D01*
X139195295Y-110754328D01*
X139389949Y-110624264D01*
X141914213Y-108100000D01*
X164600000Y-108100000D01*
X164829610Y-108054328D01*
X165024264Y-107924264D01*
X166148573Y-106799955D01*
X166378236Y-106800156D01*
X166709143Y-106663428D01*
X166962538Y-106410475D01*
X167099843Y-106079806D01*
X167100156Y-105721764D01*
X166963428Y-105390857D01*
X166710475Y-105137462D01*
X166379806Y-105000157D01*
X166021764Y-104999844D01*
X165690857Y-105136572D01*
X165437462Y-105389525D01*
X165300157Y-105720194D01*
X165299955Y-105951517D01*
X164351472Y-106900000D01*
X159648528Y-106900000D01*
X160048528Y-106500000D01*
X160927271Y-106500000D01*
X161089525Y-106662538D01*
X161420194Y-106799843D01*
X161778236Y-106800156D01*
X162109143Y-106663428D01*
X162362538Y-106410475D01*
X162499843Y-106079806D01*
X162500156Y-105721764D01*
X162363428Y-105390857D01*
X162110475Y-105137462D01*
X161779806Y-105000157D01*
X161421764Y-104999844D01*
X161090857Y-105136572D01*
X160927143Y-105300000D01*
X159800000Y-105300000D01*
X159570390Y-105345672D01*
X159375736Y-105475736D01*
X158351483Y-106499989D01*
X149672868Y-106499989D01*
X149762538Y-106410475D01*
X149899843Y-106079806D01*
X149900156Y-105721764D01*
X149763428Y-105390857D01*
X149510475Y-105137462D01*
X149179806Y-105000157D01*
X148821764Y-104999844D01*
X148490857Y-105136572D01*
X148327143Y-105300000D01*
X147200000Y-105300000D01*
X146970390Y-105345672D01*
X146775736Y-105475736D01*
X146151494Y-106099978D01*
X145091467Y-106099978D01*
X145099843Y-106079806D01*
X145100156Y-105721764D01*
X144963428Y-105390857D01*
X144710475Y-105137462D01*
X144379806Y-105000157D01*
X144021764Y-104999844D01*
X143690857Y-105136572D01*
X143527143Y-105300000D01*
X139940517Y-105300000D01*
X139855177Y-105264564D01*
X139497135Y-105264251D01*
X139166228Y-105400979D01*
X138912833Y-105653932D01*
X138775528Y-105984601D01*
X138775326Y-106215924D01*
X138591250Y-106400000D01*
X137572729Y-106400000D01*
X137410475Y-106237462D01*
X137079806Y-106100157D01*
X136721764Y-106099844D01*
X136390857Y-106236572D01*
X136137462Y-106489525D01*
X136000157Y-106820194D01*
X135999844Y-107178236D01*
X118550000Y-107178236D01*
X118550000Y-99278236D01*
X142099844Y-99278236D01*
X142236572Y-99609143D01*
X142489525Y-99862538D01*
X142820194Y-99999843D01*
X143178236Y-100000156D01*
X143371693Y-99920221D01*
X144975736Y-101524264D01*
X145170390Y-101654328D01*
X145400000Y-101700000D01*
X186351472Y-101700000D01*
X187989362Y-103337890D01*
X187837462Y-103489525D01*
X187700157Y-103820194D01*
X187699844Y-104178236D01*
X187836572Y-104509143D01*
X188089525Y-104762538D01*
X188420194Y-104899843D01*
X188778236Y-104900156D01*
X189109143Y-104763428D01*
X189362538Y-104510475D01*
X189472652Y-104245288D01*
X191251628Y-106024264D01*
X191446282Y-106154328D01*
X191663784Y-106197592D01*
X191518608Y-106257577D01*
X191354894Y-106421005D01*
X176769533Y-106421005D01*
X176299955Y-105951427D01*
X176300156Y-105721764D01*
X176163428Y-105390857D01*
X175910475Y-105137462D01*
X175579806Y-105000157D01*
X175221764Y-104999844D01*
X174890857Y-105136572D01*
X174646193Y-105380809D01*
X174593606Y-105345672D01*
X174363996Y-105300000D01*
X171472729Y-105300000D01*
X171310475Y-105137462D01*
X170979806Y-105000157D01*
X170621764Y-104999844D01*
X170290857Y-105136572D01*
X170037462Y-105389525D01*
X169900157Y-105720194D01*
X169899844Y-106078236D01*
X170036572Y-106409143D01*
X170289525Y-106662538D01*
X170620194Y-106799843D01*
X170978236Y-106800156D01*
X171309143Y-106663428D01*
X171472857Y-106500000D01*
X174115468Y-106500000D01*
X175539732Y-107924264D01*
X175734386Y-108054328D01*
X175963996Y-108100000D01*
X190375722Y-108100000D01*
X190759252Y-108483530D01*
X190953906Y-108613594D01*
X191049950Y-108632698D01*
X191238726Y-108821804D01*
X191569395Y-108959109D01*
X191927437Y-108959422D01*
X192258344Y-108822694D01*
X192511739Y-108569741D01*
X192649044Y-108239072D01*
X192649357Y-107881030D01*
X192588258Y-107733159D01*
X192790289Y-107531480D01*
X192927594Y-107200811D01*
X192927907Y-106842769D01*
X192791179Y-106511862D01*
X192538226Y-106258467D01*
X192397421Y-106200000D01*
X192827271Y-106200000D01*
X192989525Y-106362538D01*
X193320194Y-106499843D01*
X193678236Y-106500156D01*
X194009143Y-106363428D01*
X194262538Y-106110475D01*
X194399843Y-105779806D01*
X194400088Y-105500000D01*
X194578236Y-105500156D01*
X194909143Y-105363428D01*
X195162538Y-105110475D01*
X195299843Y-104779806D01*
X195300156Y-104421764D01*
X195163428Y-104090857D01*
X194910475Y-103837462D01*
X194579806Y-103700157D01*
X194221764Y-103699844D01*
X193890857Y-103836572D01*
X193727143Y-104000000D01*
X192066879Y-104000000D01*
X192199843Y-103679785D01*
X192200156Y-103321743D01*
X192063428Y-102990836D01*
X191810475Y-102737441D01*
X191479806Y-102600136D01*
X191210800Y-102599901D01*
X191129611Y-102545652D01*
X190900001Y-102499980D01*
X190648508Y-102499980D01*
X187624231Y-99475703D01*
X187429577Y-99345639D01*
X187199967Y-99299967D01*
X146448495Y-99299967D01*
X146200000Y-99051472D01*
X146200000Y-97872729D01*
X146362538Y-97710475D01*
X146499843Y-97379806D01*
X146500156Y-97021764D01*
X146363428Y-96690857D01*
X146110475Y-96437462D01*
X145779806Y-96300157D01*
X145421764Y-96299844D01*
X145090857Y-96436572D01*
X144837462Y-96689525D01*
X144791556Y-96800080D01*
X144521764Y-96799844D01*
X144190857Y-96936572D01*
X143937462Y-97189525D01*
X143800157Y-97520194D01*
X143800087Y-97599912D01*
X143721764Y-97599844D01*
X143390857Y-97736572D01*
X143137462Y-97989525D01*
X143050048Y-98200044D01*
X142821764Y-98199844D01*
X142490857Y-98336572D01*
X142237462Y-98589525D01*
X142100157Y-98920194D01*
X142099844Y-99278236D01*
X118550000Y-99278236D01*
X118550000Y-97378236D01*
X123438044Y-97378236D01*
X123574772Y-97709143D01*
X123827725Y-97962538D01*
X124158394Y-98099843D01*
X124516436Y-98100156D01*
X124847343Y-97963428D01*
X125011057Y-97800000D01*
X125200000Y-97800000D01*
X125429610Y-97754328D01*
X125624264Y-97624264D01*
X125870292Y-97378236D01*
X137399844Y-97378236D01*
X137536572Y-97709143D01*
X137789525Y-97962538D01*
X138120194Y-98099843D01*
X138478236Y-98100156D01*
X138809143Y-97963428D01*
X139062538Y-97710475D01*
X139199843Y-97379806D01*
X139199983Y-97219255D01*
X140269238Y-96150001D01*
X156974999Y-96150001D01*
X157182475Y-96108732D01*
X157223744Y-96100523D01*
X157434618Y-95959620D01*
X160816002Y-92578236D01*
X206799844Y-92578236D01*
X206936572Y-92909143D01*
X207189525Y-93162538D01*
X207520194Y-93299843D01*
X207878236Y-93300156D01*
X208209143Y-93163428D01*
X208462538Y-92910475D01*
X208599843Y-92579806D01*
X208600045Y-92348483D01*
X210548528Y-90400000D01*
X211389071Y-90400000D01*
X211551325Y-90562538D01*
X211881994Y-90699843D01*
X212240036Y-90700156D01*
X212570943Y-90563428D01*
X212824338Y-90310475D01*
X212961643Y-89979806D01*
X212961956Y-89621764D01*
X212825228Y-89290857D01*
X212572275Y-89037462D01*
X212241606Y-88900157D01*
X211883564Y-88899844D01*
X211552657Y-89036572D01*
X211388943Y-89200000D01*
X210300000Y-89200000D01*
X210070390Y-89245672D01*
X209875736Y-89375736D01*
X207751427Y-91500045D01*
X207521764Y-91499844D01*
X207190857Y-91636572D01*
X206937462Y-91889525D01*
X206800157Y-92220194D01*
X206799844Y-92578236D01*
X160816002Y-92578236D01*
X162619326Y-90774912D01*
X162920194Y-90899843D01*
X163278236Y-90900156D01*
X163609143Y-90763428D01*
X163862538Y-90510475D01*
X163999843Y-90179806D01*
X164000079Y-89909317D01*
X164550381Y-90459619D01*
X164761255Y-90600522D01*
X164802524Y-90608731D01*
X165010000Y-90650000D01*
X165012183Y-90650000D01*
X165124525Y-90762538D01*
X165455194Y-90899843D01*
X165813236Y-90900156D01*
X166144143Y-90763428D01*
X166397538Y-90510475D01*
X166534843Y-90179806D01*
X166534844Y-90178236D01*
X170199844Y-90178236D01*
X170336572Y-90509143D01*
X170589525Y-90762538D01*
X170920194Y-90899843D01*
X171278236Y-90900156D01*
X171609143Y-90763428D01*
X171722769Y-90650000D01*
X171725000Y-90650000D01*
X171932476Y-90608731D01*
X171973745Y-90600522D01*
X172184619Y-90459619D01*
X172735079Y-89909159D01*
X172734844Y-90178236D01*
X172871572Y-90509143D01*
X173124525Y-90762538D01*
X173455194Y-90899843D01*
X173813236Y-90900156D01*
X174144143Y-90763428D01*
X174257769Y-90650000D01*
X194742564Y-90650000D01*
X194774480Y-90681916D01*
X194774341Y-90840930D01*
X194911069Y-91171837D01*
X195164022Y-91425232D01*
X195494691Y-91562537D01*
X195852733Y-91562850D01*
X196183640Y-91426122D01*
X196437035Y-91173169D01*
X196574340Y-90842500D01*
X196574653Y-90484458D01*
X196437925Y-90153551D01*
X196362742Y-90078236D01*
X206999842Y-90078236D01*
X207136570Y-90409143D01*
X207389523Y-90662538D01*
X207720192Y-90799843D01*
X208078234Y-90800156D01*
X208409141Y-90663428D01*
X208662536Y-90410475D01*
X208799841Y-90079806D01*
X208800043Y-89848483D01*
X210148526Y-88500000D01*
X211389071Y-88500000D01*
X211551325Y-88662538D01*
X211881994Y-88799843D01*
X212240036Y-88800156D01*
X212570943Y-88663428D01*
X212824338Y-88410475D01*
X212961643Y-88079806D01*
X212961956Y-87721764D01*
X212825228Y-87390857D01*
X212572275Y-87137462D01*
X212241606Y-87000157D01*
X211883564Y-86999844D01*
X211552657Y-87136572D01*
X211388943Y-87300000D01*
X209899998Y-87300000D01*
X209670388Y-87345672D01*
X209475734Y-87475736D01*
X207951425Y-89000045D01*
X207721762Y-88999844D01*
X207390855Y-89136572D01*
X207137460Y-89389525D01*
X207000155Y-89720194D01*
X206999842Y-90078236D01*
X196362742Y-90078236D01*
X196184972Y-89900156D01*
X196140589Y-89881727D01*
X196312150Y-89710465D01*
X196449455Y-89379796D01*
X196449768Y-89021754D01*
X196313040Y-88690847D01*
X196060087Y-88437452D01*
X195729418Y-88300147D01*
X195548795Y-88299989D01*
X195398358Y-88199469D01*
X195357089Y-88191260D01*
X195149613Y-88149991D01*
X172925009Y-88149991D01*
X172717533Y-88191260D01*
X172676264Y-88199469D01*
X172465390Y-88340372D01*
X171580674Y-89225088D01*
X171279806Y-89100157D01*
X170921764Y-89099844D01*
X170590857Y-89236572D01*
X170337462Y-89489525D01*
X170200157Y-89820194D01*
X170199844Y-90178236D01*
X166534844Y-90178236D01*
X166535156Y-89821764D01*
X166398428Y-89490857D01*
X166145475Y-89237462D01*
X165814806Y-89100157D01*
X165456764Y-89099844D01*
X165154128Y-89224890D01*
X164369619Y-88440381D01*
X164158745Y-88299478D01*
X164117476Y-88291269D01*
X163910000Y-88250000D01*
X162700000Y-88250000D01*
X162451255Y-88299478D01*
X162240381Y-88440381D01*
X157130762Y-93550000D01*
X140122817Y-93550000D01*
X140010475Y-93437462D01*
X139679806Y-93300157D01*
X139321764Y-93299844D01*
X138990857Y-93436572D01*
X138737462Y-93689525D01*
X138600157Y-94020194D01*
X138599844Y-94378236D01*
X138736572Y-94709143D01*
X138989525Y-94962538D01*
X139320194Y-95099843D01*
X139480778Y-95099983D01*
X138280779Y-96299983D01*
X138121764Y-96299844D01*
X137790857Y-96436572D01*
X137537462Y-96689525D01*
X137400157Y-97020194D01*
X137399844Y-97378236D01*
X125870292Y-97378236D01*
X126248573Y-96999955D01*
X126478236Y-97000156D01*
X126809143Y-96863428D01*
X127062538Y-96610475D01*
X127199843Y-96279806D01*
X127200156Y-95921764D01*
X127063428Y-95590857D01*
X126810475Y-95337462D01*
X126479806Y-95200157D01*
X126121764Y-95199844D01*
X125790857Y-95336572D01*
X125537462Y-95589525D01*
X125400157Y-95920194D01*
X125399955Y-96151517D01*
X124981227Y-96570245D01*
X124848675Y-96437462D01*
X124518006Y-96300157D01*
X124159964Y-96299844D01*
X123829057Y-96436572D01*
X123575662Y-96689525D01*
X123438357Y-97020194D01*
X123438044Y-97378236D01*
X118550000Y-97378236D01*
X118550000Y-95478236D01*
X123438044Y-95478236D01*
X123574772Y-95809143D01*
X123827725Y-96062538D01*
X124158394Y-96199843D01*
X124516436Y-96200156D01*
X124847343Y-96063428D01*
X125100738Y-95810475D01*
X125238043Y-95479806D01*
X125238279Y-95210249D01*
X125948573Y-94499955D01*
X126178236Y-94500156D01*
X126509143Y-94363428D01*
X126762538Y-94110475D01*
X126899843Y-93779806D01*
X126900156Y-93421764D01*
X126763428Y-93090857D01*
X126510475Y-92837462D01*
X126179806Y-92700157D01*
X125821764Y-92699844D01*
X125490857Y-92836572D01*
X125237462Y-93089525D01*
X125100157Y-93420194D01*
X125099955Y-93651517D01*
X124351461Y-94400011D01*
X124159964Y-94399844D01*
X123829057Y-94536572D01*
X123575662Y-94789525D01*
X123438357Y-95120194D01*
X123438044Y-95478236D01*
X118550000Y-95478236D01*
X118550000Y-91978248D01*
X139099844Y-91978248D01*
X139236572Y-92309155D01*
X139489525Y-92562550D01*
X139820194Y-92699855D01*
X140178236Y-92700168D01*
X140509143Y-92563440D01*
X140762538Y-92310487D01*
X140899843Y-91979818D01*
X140899983Y-91819267D01*
X142069251Y-90650000D01*
X154477183Y-90650000D01*
X154589525Y-90762538D01*
X154920194Y-90899843D01*
X155278236Y-90900156D01*
X155609143Y-90763428D01*
X155862538Y-90510475D01*
X155999843Y-90179806D01*
X156000156Y-89821764D01*
X155863428Y-89490857D01*
X155610475Y-89237462D01*
X155279806Y-89100157D01*
X154921764Y-89099844D01*
X154590857Y-89236572D01*
X154477231Y-89350000D01*
X141800012Y-89350000D01*
X141551268Y-89399478D01*
X141481295Y-89446233D01*
X141340392Y-89540381D01*
X139980779Y-90899995D01*
X139821764Y-90899856D01*
X139490857Y-91036584D01*
X139237462Y-91289537D01*
X139100157Y-91620206D01*
X139099844Y-91978248D01*
X118550000Y-91978248D01*
X118550000Y-89878236D01*
X123438044Y-89878236D01*
X123574772Y-90209143D01*
X123827725Y-90462538D01*
X124158394Y-90599843D01*
X124516436Y-90600156D01*
X124753624Y-90502152D01*
X125200045Y-90948573D01*
X125199844Y-91178236D01*
X125336572Y-91509143D01*
X125589525Y-91762538D01*
X125920194Y-91899843D01*
X126278236Y-91900156D01*
X126609143Y-91763428D01*
X126862538Y-91510475D01*
X126999843Y-91179806D01*
X127000156Y-90821764D01*
X126863428Y-90490857D01*
X126610475Y-90237462D01*
X126279806Y-90100157D01*
X126048483Y-90099955D01*
X125326764Y-89378236D01*
X139099844Y-89378236D01*
X139236572Y-89709143D01*
X139489525Y-89962538D01*
X139820194Y-90099843D01*
X140178236Y-90100156D01*
X140509143Y-89963428D01*
X140762538Y-89710475D01*
X140899843Y-89379806D01*
X140899983Y-89219255D01*
X141569239Y-88549999D01*
X155310761Y-88549999D01*
X156735022Y-89974261D01*
X156734844Y-90178236D01*
X156871572Y-90509143D01*
X157124525Y-90762538D01*
X157455194Y-90899843D01*
X157813236Y-90900156D01*
X158144143Y-90763428D01*
X158397538Y-90510475D01*
X158534843Y-90179806D01*
X158535156Y-89821764D01*
X158398428Y-89490857D01*
X158145475Y-89237462D01*
X157814806Y-89100157D01*
X157699295Y-89100056D01*
X156039618Y-87440380D01*
X155828744Y-87299477D01*
X155787475Y-87291268D01*
X155579999Y-87249999D01*
X141300001Y-87249999D01*
X141092525Y-87291268D01*
X141051256Y-87299477D01*
X140840382Y-87440380D01*
X139980779Y-88299983D01*
X139821764Y-88299844D01*
X139490857Y-88436572D01*
X139237462Y-88689525D01*
X139100157Y-89020194D01*
X139099844Y-89378236D01*
X125326764Y-89378236D01*
X125224264Y-89275736D01*
X125103304Y-89194913D01*
X125101628Y-89190857D01*
X124848675Y-88937462D01*
X124518006Y-88800157D01*
X124159964Y-88799844D01*
X123829057Y-88936572D01*
X123575662Y-89189525D01*
X123438357Y-89520194D01*
X123438044Y-89878236D01*
X118550000Y-89878236D01*
X118550000Y-72696014D01*
X140800443Y-72696014D01*
X141104264Y-73431316D01*
X141666345Y-73994379D01*
X142401116Y-74299482D01*
X143196714Y-74300177D01*
X143932016Y-73996356D01*
X144495079Y-73434275D01*
X144518348Y-73378236D01*
X151499844Y-73378236D01*
X151636572Y-73709143D01*
X151889525Y-73962538D01*
X152220194Y-74099843D01*
X152578236Y-74100156D01*
X152909143Y-73963428D01*
X153072857Y-73800000D01*
X153700000Y-73800000D01*
X153929610Y-73754328D01*
X154124264Y-73624264D01*
X154248528Y-73500000D01*
X187851472Y-73500000D01*
X188750478Y-74399006D01*
X188700157Y-74520194D01*
X188699844Y-74878236D01*
X188836572Y-75209143D01*
X189089525Y-75462538D01*
X189420194Y-75599843D01*
X189778236Y-75600156D01*
X190109143Y-75463428D01*
X190174756Y-75397929D01*
X190420194Y-75499843D01*
X190778236Y-75500156D01*
X191109143Y-75363428D01*
X191362538Y-75110475D01*
X191499843Y-74779806D01*
X191500156Y-74421764D01*
X191363428Y-74090857D01*
X191110475Y-73837462D01*
X190779806Y-73700157D01*
X190548483Y-73699955D01*
X189544542Y-72696014D01*
X191199123Y-72696014D01*
X191502944Y-73431316D01*
X192065025Y-73994379D01*
X192799796Y-74299482D01*
X193595394Y-74300177D01*
X194330696Y-73996356D01*
X194893759Y-73434275D01*
X195198862Y-72699504D01*
X195199557Y-71903906D01*
X194895736Y-71168604D01*
X194333655Y-70605541D01*
X193598884Y-70300438D01*
X192803286Y-70299743D01*
X192067984Y-70603564D01*
X191504921Y-71165645D01*
X191199818Y-71900416D01*
X191199123Y-72696014D01*
X189544542Y-72696014D01*
X188824264Y-71975736D01*
X188629610Y-71845672D01*
X188400000Y-71800000D01*
X154214223Y-71800000D01*
X154189949Y-71775726D01*
X153995295Y-71645662D01*
X153899251Y-71626558D01*
X153710475Y-71437452D01*
X153379806Y-71300147D01*
X153021764Y-71299834D01*
X152690857Y-71436562D01*
X152437462Y-71689515D01*
X152300157Y-72020184D01*
X152299912Y-72299912D01*
X152221764Y-72299844D01*
X151890857Y-72436572D01*
X151637462Y-72689525D01*
X151500157Y-73020194D01*
X151499844Y-73378236D01*
X144518348Y-73378236D01*
X144800182Y-72699504D01*
X144800877Y-71903906D01*
X144497056Y-71168604D01*
X143934975Y-70605541D01*
X143200204Y-70300438D01*
X142404606Y-70299743D01*
X141669304Y-70603564D01*
X141106241Y-71165645D01*
X140801138Y-71900416D01*
X140800443Y-72696014D01*
X118550000Y-72696014D01*
X118550000Y-69356790D01*
X152189837Y-69356790D01*
X152465102Y-70022983D01*
X152974356Y-70533127D01*
X153640068Y-70809554D01*
X154360890Y-70810183D01*
X155027083Y-70534918D01*
X155537227Y-70025664D01*
X155813654Y-69359952D01*
X155813656Y-69356790D01*
X156187797Y-69356790D01*
X156463062Y-70022983D01*
X156972316Y-70533127D01*
X157638028Y-70809554D01*
X158358850Y-70810183D01*
X159025043Y-70534918D01*
X159535187Y-70025664D01*
X159811614Y-69359952D01*
X159811616Y-69356790D01*
X160188297Y-69356790D01*
X160463562Y-70022983D01*
X160972816Y-70533127D01*
X161638528Y-70809554D01*
X162359350Y-70810183D01*
X163025543Y-70534918D01*
X163535687Y-70025664D01*
X163812114Y-69359952D01*
X163812116Y-69356790D01*
X164188797Y-69356790D01*
X164464062Y-70022983D01*
X164973316Y-70533127D01*
X165639028Y-70809554D01*
X166359850Y-70810183D01*
X167026043Y-70534918D01*
X167536187Y-70025664D01*
X167812614Y-69359952D01*
X167812616Y-69356790D01*
X168186757Y-69356790D01*
X168462022Y-70022983D01*
X168971276Y-70533127D01*
X169636988Y-70809554D01*
X170357810Y-70810183D01*
X171024003Y-70534918D01*
X171534147Y-70025664D01*
X171810574Y-69359952D01*
X171810576Y-69356790D01*
X172187257Y-69356790D01*
X172462522Y-70022983D01*
X172971776Y-70533127D01*
X173637488Y-70809554D01*
X174358310Y-70810183D01*
X175024503Y-70534918D01*
X175534647Y-70025664D01*
X175811074Y-69359952D01*
X175811076Y-69356790D01*
X176187757Y-69356790D01*
X176463022Y-70022983D01*
X176972276Y-70533127D01*
X177637988Y-70809554D01*
X178358810Y-70810183D01*
X179025003Y-70534918D01*
X179535147Y-70025664D01*
X179811574Y-69359952D01*
X179811576Y-69356790D01*
X180185717Y-69356790D01*
X180460982Y-70022983D01*
X180970236Y-70533127D01*
X181635948Y-70809554D01*
X182356770Y-70810183D01*
X183022963Y-70534918D01*
X183533107Y-70025664D01*
X183809534Y-69359952D01*
X183810163Y-68639130D01*
X183534898Y-67972937D01*
X183025644Y-67462793D01*
X182359932Y-67186366D01*
X181639110Y-67185737D01*
X180972917Y-67461002D01*
X180462773Y-67970256D01*
X180186346Y-68635968D01*
X180185717Y-69356790D01*
X179811576Y-69356790D01*
X179812203Y-68639130D01*
X179536938Y-67972937D01*
X179027684Y-67462793D01*
X178361972Y-67186366D01*
X177641150Y-67185737D01*
X176974957Y-67461002D01*
X176464813Y-67970256D01*
X176188386Y-68635968D01*
X176187757Y-69356790D01*
X175811076Y-69356790D01*
X175811703Y-68639130D01*
X175536438Y-67972937D01*
X175027184Y-67462793D01*
X174361472Y-67186366D01*
X173640650Y-67185737D01*
X172974457Y-67461002D01*
X172464313Y-67970256D01*
X172187886Y-68635968D01*
X172187257Y-69356790D01*
X171810576Y-69356790D01*
X171811203Y-68639130D01*
X171535938Y-67972937D01*
X171026684Y-67462793D01*
X170360972Y-67186366D01*
X169640150Y-67185737D01*
X168973957Y-67461002D01*
X168463813Y-67970256D01*
X168187386Y-68635968D01*
X168186757Y-69356790D01*
X167812616Y-69356790D01*
X167813243Y-68639130D01*
X167537978Y-67972937D01*
X167028724Y-67462793D01*
X166363012Y-67186366D01*
X165642190Y-67185737D01*
X164975997Y-67461002D01*
X164465853Y-67970256D01*
X164189426Y-68635968D01*
X164188797Y-69356790D01*
X163812116Y-69356790D01*
X163812743Y-68639130D01*
X163537478Y-67972937D01*
X163028224Y-67462793D01*
X162362512Y-67186366D01*
X161641690Y-67185737D01*
X160975497Y-67461002D01*
X160465353Y-67970256D01*
X160188926Y-68635968D01*
X160188297Y-69356790D01*
X159811616Y-69356790D01*
X159812243Y-68639130D01*
X159536978Y-67972937D01*
X159027724Y-67462793D01*
X158362012Y-67186366D01*
X157641190Y-67185737D01*
X156974997Y-67461002D01*
X156464853Y-67970256D01*
X156188426Y-68635968D01*
X156187797Y-69356790D01*
X155813656Y-69356790D01*
X155814283Y-68639130D01*
X155539018Y-67972937D01*
X155029764Y-67462793D01*
X154364052Y-67186366D01*
X153643230Y-67185737D01*
X152977037Y-67461002D01*
X152466893Y-67970256D01*
X152190466Y-68635968D01*
X152189837Y-69356790D01*
X118550000Y-69356790D01*
X118550000Y-63078236D01*
X150299844Y-63078236D01*
X150436572Y-63409143D01*
X150689525Y-63662538D01*
X151020194Y-63799843D01*
X151378236Y-63800156D01*
X151709143Y-63663428D01*
X151822769Y-63550000D01*
X154888907Y-63550000D01*
X154465873Y-63972296D01*
X154189446Y-64638008D01*
X154188817Y-65358830D01*
X154464082Y-66025023D01*
X154973336Y-66535167D01*
X155639048Y-66811594D01*
X156359870Y-66812223D01*
X157026063Y-66536958D01*
X157536207Y-66027704D01*
X157812634Y-65361992D01*
X157813263Y-64641170D01*
X157537998Y-63974977D01*
X157113762Y-63550000D01*
X158889407Y-63550000D01*
X158466373Y-63972296D01*
X158189946Y-64638008D01*
X158189317Y-65358830D01*
X158464582Y-66025023D01*
X158973836Y-66535167D01*
X159639548Y-66811594D01*
X160360370Y-66812223D01*
X161026563Y-66536958D01*
X161536707Y-66027704D01*
X161813134Y-65361992D01*
X161813763Y-64641170D01*
X161538498Y-63974977D01*
X161114262Y-63550000D01*
X162889907Y-63550000D01*
X162466873Y-63972296D01*
X162190446Y-64638008D01*
X162189817Y-65358830D01*
X162465082Y-66025023D01*
X162974336Y-66535167D01*
X163640048Y-66811594D01*
X164360870Y-66812223D01*
X165027063Y-66536958D01*
X165537207Y-66027704D01*
X165813634Y-65361992D01*
X165814263Y-64641170D01*
X165538998Y-63974977D01*
X165114762Y-63550000D01*
X166887867Y-63550000D01*
X166464833Y-63972296D01*
X166188406Y-64638008D01*
X166187777Y-65358830D01*
X166463042Y-66025023D01*
X166972296Y-66535167D01*
X167638008Y-66811594D01*
X168358830Y-66812223D01*
X169025023Y-66536958D01*
X169535167Y-66027704D01*
X169811594Y-65361992D01*
X169812223Y-64641170D01*
X169536958Y-63974977D01*
X169112722Y-63550000D01*
X170885827Y-63550000D01*
X170462793Y-63972296D01*
X170186366Y-64638008D01*
X170185737Y-65358830D01*
X170461002Y-66025023D01*
X170970256Y-66535167D01*
X171635968Y-66811594D01*
X172356790Y-66812223D01*
X173022983Y-66536958D01*
X173533127Y-66027704D01*
X173809554Y-65361992D01*
X173809556Y-65358830D01*
X174186237Y-65358830D01*
X174461502Y-66025023D01*
X174970756Y-66535167D01*
X175636468Y-66811594D01*
X176357290Y-66812223D01*
X177023483Y-66536958D01*
X177533627Y-66027704D01*
X177810054Y-65361992D01*
X177810056Y-65358830D01*
X178186737Y-65358830D01*
X178462002Y-66025023D01*
X178971256Y-66535167D01*
X179636968Y-66811594D01*
X180357790Y-66812223D01*
X181023983Y-66536958D01*
X181534127Y-66027704D01*
X181810554Y-65361992D01*
X181811183Y-64641170D01*
X181535918Y-63974977D01*
X181026664Y-63464833D01*
X180360952Y-63188406D01*
X179640130Y-63187777D01*
X178973937Y-63463042D01*
X178463793Y-63972296D01*
X178187366Y-64638008D01*
X178186737Y-65358830D01*
X177810056Y-65358830D01*
X177810683Y-64641170D01*
X177535418Y-63974977D01*
X177026164Y-63464833D01*
X176360452Y-63188406D01*
X175639630Y-63187777D01*
X174973437Y-63463042D01*
X174463293Y-63972296D01*
X174186866Y-64638008D01*
X174186237Y-65358830D01*
X173809556Y-65358830D01*
X173810183Y-64641170D01*
X173534918Y-63974977D01*
X173025664Y-63464833D01*
X172359952Y-63188406D01*
X171831294Y-63187945D01*
X172459620Y-62559619D01*
X172600522Y-62348745D01*
X172630948Y-62195783D01*
X172971776Y-62537207D01*
X173637488Y-62813634D01*
X174358310Y-62814263D01*
X175024503Y-62538998D01*
X175534647Y-62029744D01*
X175811074Y-61364032D01*
X175811076Y-61360870D01*
X176187757Y-61360870D01*
X176463022Y-62027063D01*
X176972276Y-62537207D01*
X177637988Y-62813634D01*
X178358810Y-62814263D01*
X179025003Y-62538998D01*
X179535147Y-62029744D01*
X179811574Y-61364032D01*
X179811576Y-61360870D01*
X180185717Y-61360870D01*
X180460982Y-62027063D01*
X180970236Y-62537207D01*
X181635948Y-62813634D01*
X182356770Y-62814263D01*
X183022963Y-62538998D01*
X183533107Y-62029744D01*
X183809534Y-61364032D01*
X183810163Y-60643210D01*
X183534898Y-59977017D01*
X183025644Y-59466873D01*
X182359932Y-59190446D01*
X181639110Y-59189817D01*
X180972917Y-59465082D01*
X180462773Y-59974336D01*
X180186346Y-60640048D01*
X180185717Y-61360870D01*
X179811576Y-61360870D01*
X179812203Y-60643210D01*
X179536938Y-59977017D01*
X179027684Y-59466873D01*
X178361972Y-59190446D01*
X177641150Y-59189817D01*
X176974957Y-59465082D01*
X176464813Y-59974336D01*
X176188386Y-60640048D01*
X176187757Y-61360870D01*
X175811076Y-61360870D01*
X175811703Y-60643210D01*
X175536438Y-59977017D01*
X175027184Y-59466873D01*
X174361472Y-59190446D01*
X173640650Y-59189817D01*
X172974457Y-59465082D01*
X172899966Y-59539443D01*
X172900156Y-59321764D01*
X172763428Y-58990857D01*
X172510475Y-58737462D01*
X172179806Y-58600157D01*
X171821764Y-58599844D01*
X171490857Y-58736572D01*
X171237462Y-58989525D01*
X171100157Y-59320194D01*
X171099965Y-59540282D01*
X171026684Y-59466873D01*
X170360972Y-59190446D01*
X169640150Y-59189817D01*
X168973957Y-59465082D01*
X168463813Y-59974336D01*
X168187386Y-60640048D01*
X168186757Y-61360870D01*
X168462022Y-62027063D01*
X168684570Y-62250000D01*
X167315546Y-62250000D01*
X167536187Y-62029744D01*
X167812614Y-61364032D01*
X167813243Y-60643210D01*
X167537978Y-59977017D01*
X167028724Y-59466873D01*
X166363012Y-59190446D01*
X165642190Y-59189817D01*
X164975997Y-59465082D01*
X164465853Y-59974336D01*
X164189426Y-60640048D01*
X164188797Y-61360870D01*
X164464062Y-62027063D01*
X164686610Y-62250000D01*
X163315046Y-62250000D01*
X163535687Y-62029744D01*
X163812114Y-61364032D01*
X163812743Y-60643210D01*
X163537478Y-59977017D01*
X163028224Y-59466873D01*
X162362512Y-59190446D01*
X161641690Y-59189817D01*
X160975497Y-59465082D01*
X160465353Y-59974336D01*
X160188926Y-60640048D01*
X160188297Y-61360870D01*
X160463562Y-62027063D01*
X160686110Y-62250000D01*
X159314546Y-62250000D01*
X159535187Y-62029744D01*
X159811614Y-61364032D01*
X159812243Y-60643210D01*
X159536978Y-59977017D01*
X159027724Y-59466873D01*
X158362012Y-59190446D01*
X157641190Y-59189817D01*
X156974997Y-59465082D01*
X156464853Y-59974336D01*
X156188426Y-60640048D01*
X156187797Y-61360870D01*
X156463062Y-62027063D01*
X156685610Y-62250000D01*
X155823765Y-62250000D01*
X155823765Y-59690130D01*
X155784959Y-59495040D01*
X155674450Y-59329650D01*
X155509060Y-59219141D01*
X155313970Y-59180335D01*
X152690150Y-59180335D01*
X152495060Y-59219141D01*
X152329670Y-59329650D01*
X152219161Y-59495040D01*
X152180355Y-59690130D01*
X152180355Y-62250000D01*
X151822817Y-62250000D01*
X151710475Y-62137462D01*
X151379806Y-62000157D01*
X151021764Y-61999844D01*
X150690857Y-62136572D01*
X150437462Y-62389525D01*
X150300157Y-62720194D01*
X150299844Y-63078236D01*
X118550000Y-63078236D01*
X118550000Y-54598514D01*
X142301583Y-54598514D01*
X142605404Y-55333816D01*
X143167485Y-55896879D01*
X143902256Y-56201982D01*
X144697854Y-56202677D01*
X145433156Y-55898856D01*
X145996219Y-55336775D01*
X146301322Y-54602004D01*
X146301325Y-54598514D01*
X189697983Y-54598514D01*
X190001804Y-55333816D01*
X190563885Y-55896879D01*
X191298656Y-56201982D01*
X192094254Y-56202677D01*
X192829556Y-55898856D01*
X193392619Y-55336775D01*
X193697722Y-54602004D01*
X193698417Y-53806406D01*
X193394596Y-53071104D01*
X192832515Y-52508041D01*
X192097744Y-52202938D01*
X191302146Y-52202243D01*
X190566844Y-52506064D01*
X190003781Y-53068145D01*
X189698678Y-53802916D01*
X189697983Y-54598514D01*
X146301325Y-54598514D01*
X146302017Y-53806406D01*
X145998196Y-53071104D01*
X145436115Y-52508041D01*
X144701344Y-52202938D01*
X143905746Y-52202243D01*
X143170444Y-52506064D01*
X142607381Y-53068145D01*
X142302278Y-53802916D01*
X142301583Y-54598514D01*
X118550000Y-54598514D01*
X118550000Y-54451374D01*
X120020717Y-54158830D01*
X120218981Y-54076707D01*
X120218984Y-54076704D01*
X121841094Y-52992845D01*
X121841098Y-52992843D01*
X121916970Y-52916970D01*
X121992843Y-52841098D01*
X121992845Y-52841094D01*
X123076705Y-51218983D01*
X123076707Y-51218981D01*
X123158830Y-51020717D01*
X123451374Y-49550000D01*
X165246897Y-49550000D01*
X165122314Y-49736451D01*
M02*
