M48
INCH,TZ
T1C0.016
T2C0.069
T3C0.079
%
G90
G05
T1
X46929Y-45236
X46969Y-47362
X47165Y-51614
X47224Y-34075
X47362Y-26260
X47638Y-48031
X47992Y-25039
X47992Y-44882
X47994Y-40037
X48150Y-34213
X48327Y-27343
X48937Y-53346
X49370Y-43425
X49409Y-19961
X49488Y-46969
X49685Y-51516
X49764Y-49370
X49844Y-40549
X50199Y-25414
X50217Y-32657
X50374Y-36969
X50512Y-45236
X51299Y-22598
X51378Y-23976
X51476Y-30138
X51634Y-36240
X52362Y-21339
X52677Y-52087
X52717Y-27362
X52756Y-26496
X53110Y-25157
X53209Y-48228
X53858Y-30059
X54094Y-46457
X54114Y-40768
X54370Y-21575
X54457Y-25217
X54606Y-47795
X54961Y-27559
X54961Y-39803
X55217Y-26181
X56437Y-23031
X56772Y-53071
X56831Y-24961
X57344Y-49348
X57677Y-49704
X57736Y-36142
X57756Y-33957
X57776Y-20512
X57795Y-53031
X57862Y-35580
X58031Y-36732
X58215Y-35754
X58524Y-35197
X58598Y-35661
X58878Y-29134
X58957Y-35217
X59626Y-35079
X59783Y-32520
X59823Y-22402
X59961Y-29744
X60033Y-32205
X60787Y-36969
X60827Y-37977
X60866Y-34075
X60886Y-31693
X61157Y-31378
X61378Y-51299
X61457Y-37977
X61693Y-53701
X62087Y-37977
X62264Y-28189
X62264Y-30728
X62657Y-33406
X62697Y-38917
X62717Y-37977
X63760Y-37008
X64331Y-28465
X64331Y-31988
X64409Y-31004
X64429Y-19803
X64646Y-32933
X64646Y-37977
X65276Y-37977
X65433Y-20906
X65768Y-28228
X65768Y-51752
X65906Y-38898
X66535Y-34665
X66909Y-20433
X67067Y-50787
X67559Y-35107
X68014Y-34764
X68445Y-33071
X68602Y-34902
X68994Y-34944
X69606Y-29134
X70472Y-53701
X70866Y-51614
X70893Y-34985
X71260Y-34843
X71535Y-32992
X71654Y-39567
X71909Y-34902
X72008Y-54094
X72323Y-34886
X72717Y-23937
X73346Y-38917
X73346Y-40512
X73406Y-35059
X74193Y-20197
X74193Y-35000
X74547Y-34823
X74782Y-33053
X75197Y-34823
X75551Y-35000
X76535Y-46949
X76594Y-26772
X76732Y-35118
X77205Y-47539
X77618Y-24055
X77736Y-54094
X77756Y-47579
X78504Y-47992
X78957Y-38799
X79134Y-25709
X79173Y-40157
X79173Y-43720
X79823Y-29823
X79902Y-32953
X80000Y-50669
X80020Y-20276
X81181Y-32992
X81319Y-40295
X81339Y-44626
X81457Y-38681
X81929Y-49134
X83425Y-54016
X84075Y-38346
X84154Y-40079
X84252Y-45433
X84331Y-28209
X84331Y-31850
X84508Y-22402
X84724Y-26378
X85197Y-48386
X85433Y-52244
T2
X60631Y-24017
X60631Y-27165
X61418Y-25591
X62205Y-24017
X62205Y-27165
X62993Y-25591
X63780Y-24017
X63780Y-27165
X64568Y-25591
X64568Y-46851
X64568Y-49999
X65355Y-24017
X65355Y-27165
X65355Y-48425
X66142Y-25591
X66142Y-46851
X66142Y-49999
X66929Y-24017
X66929Y-27165
X66929Y-48425
X67716Y-25591
X67716Y-46851
X67716Y-49999
X68504Y-24017
X68504Y-27165
X69291Y-25591
X70079Y-24017
X70079Y-27165
X70866Y-25591
X71653Y-24017
X71653Y-27165
T3
X56221Y-28465
X56812Y-21340
X60158Y-51299
X60749Y-44174
X71535Y-44174
X72126Y-51299
X75472Y-21340
X76063Y-28465
T0
M30
