M48
;DRILL file {KiCad (2017-01-11 revision e99b79cb2)-master} date Tue Sep  5 10:55:29 2017
;FORMAT={-:-/ absolute / metric / decimal}
FMAT,2
METRIC,TZ
T1C0.400
T2C1.748
T3C1.999
%
G90
G05
M71
T1
X119.2Y-114.9
X119.3Y-120.3
X119.8Y-131.1
X120.Y-90.3
X120.2Y-66.6
X121.Y-122.
X121.562Y-117.
X121.9Y-63.6
X121.9Y-114.
X121.905Y-101.695
X122.3Y-78.9
X122.5Y-84.5
X122.7Y-58.3
X124.2Y-73.
X124.3Y-135.5
X124.338Y-89.7
X124.338Y-95.3
X124.338Y-97.2
X125.4Y-110.3
X125.5Y-50.7
X125.7Y-119.3
X126.Y-93.6
X126.1Y-91.
X126.3Y-96.1
X126.4Y-125.4
X126.605Y-102.995
X126.9Y-130.8
X127.Y-85.6
X127.2Y-68.9
X127.5Y-64.5
X128.3Y-114.9
X129.7Y-99.6
X129.8Y-81.2
X130.3Y-57.4
X130.5Y-60.9
X131.Y-118.6
X131.Y-135.5
X132.1Y-113.6
X132.3Y-109.9
X132.5Y-106.
X133.Y-54.2
X133.2Y-80.4
X133.2Y-93.4
X133.7Y-100.6
X133.8Y-132.3
X133.9Y-69.5
X134.7Y-50.1
X134.9Y-63.9
X135.05Y-67.16
X135.5Y-116.009
X136.9Y-107.
X137.1Y-121.
X137.1Y-124.5
X137.2Y-76.3
X137.3Y-58.9
X137.5Y-107.9
X137.8Y-105.5
X138.089Y-109.106
X138.1Y-54.8
X138.3Y-97.2
X138.321Y-64.037
X138.4Y-110.2
X138.9Y-61.4
X139.2Y-80.5
X139.3Y-117.9
X139.3Y-121.3
X139.4Y-134.7
X139.5Y-94.2
X139.675Y-106.164
X140.Y-89.2
X140.Y-91.8
X140.3Y-66.5
X140.377Y-106.877
X141.26Y-96.49
X141.6Y-131.4
X141.7Y-98.4
X141.7Y-104.5
X141.8Y-136.9
X143.Y-99.1
X143.5Y-129.1
X143.9Y-98.5
X144.2Y-105.9
X144.2Y-134.8
X144.7Y-97.7
X144.8Y-65.2
X145.5Y-87.
X145.6Y-97.2
X145.9Y-125.1
X146.1Y-50.1
X146.8Y-126.
X146.8Y-134.7
X147.3Y-81.8
X147.3Y-96.3
X149.Y-105.9
X151.Y-71.6
X151.2Y-62.9
X152.1Y-65.7
X152.4Y-73.2
X153.2Y-72.2
X154.1Y-77.6
X154.2Y-87.1
X155.1Y-90.
X155.2Y-105.8
X155.8Y-58.4
X156.7Y-136.4
X157.635Y-90.
X158.9Y-102.1
X161.6Y-105.9
X163.1Y-90.
X163.7Y-50.1
X163.7Y-58.8
X165.635Y-90.
X165.9Y-128.8
X166.Y-50.1
X166.2Y-105.9
X167.Y-51.4
X168.6Y-134.2
X169.9Y-129.1
X170.8Y-105.9
X171.1Y-90.
X172.Y-59.5
X173.635Y-90.
X175.4Y-105.9
X176.1Y-58.8
X177.3Y-51.6
X179.Y-136.4
X179.5Y-108.7
X179.7Y-98.
X179.8Y-102.1
X180.Y-131.1
X180.6Y-105.8
X181.6Y-97.
X182.7Y-117.3
X182.9Y-137.4
X183.7Y-65.
X184.2Y-122.8
X184.7Y-94.9
X185.4Y-115.1
X185.6Y-121.4
X185.7Y-61.1
X185.779Y-122.384
X187.2Y-98.9
X187.4Y-105.7
X187.5Y-109.
X188.3Y-128.9
X188.6Y-104.
X188.6Y-116.5
X189.6Y-74.7
X189.6Y-76.7
X189.9Y-125.3
X190.6Y-74.6
X190.659Y-88.013
X190.8Y-121.5
X191.194Y-122.419
X191.2Y-109.3
X191.3Y-103.5
X191.749Y-108.059
X192.028Y-107.021
X193.5Y-105.6
X193.58Y-102.46
X193.6Y-65.1
X194.4Y-104.6
X194.77Y-107.72
X194.8Y-51.8
X195.1Y-74.6
X195.2Y-112.9
X195.55Y-89.2
X195.674Y-90.663
X196.66Y-93.23
X197.7Y-119.
X198.3Y-82.9
X199.Y-60.8
X199.1Y-119.
X199.4Y-121.9
X200.Y-108.2
X200.8Y-102.4
X202.6Y-111.3
X202.7Y-114.5
X203.2Y-128.7
X204.Y-99.5
X206.1Y-91.2
X206.165Y-103.
X206.8Y-86.3
X207.7Y-92.4
X207.9Y-89.9
X208.1Y-124.8
X208.9Y-66.6
X209.4Y-51.8
X209.4Y-105.1
X211.9Y-137.2
X212.062Y-87.9
X212.062Y-89.8
X213.1Y-95.5
X214.Y-65.3
X214.Y-115.4
X214.2Y-74.9
X214.4Y-98.6
X216.4Y-122.9
X217.Y-132.7
T2
X154.002Y-61.002
X154.002Y-68.998
X156.001Y-65.
X158.Y-61.002
X158.Y-68.998
X160.002Y-65.
X162.001Y-61.002
X162.001Y-68.998
X164.002Y-65.
X164.002Y-119.002
X164.002Y-126.998
X166.001Y-61.002
X166.001Y-68.998
X166.001Y-123.
X168.Y-65.
X168.Y-119.002
X168.Y-126.998
X169.999Y-61.002
X169.999Y-68.998
X169.999Y-123.
X171.998Y-65.
X171.998Y-119.002
X171.998Y-126.998
X173.999Y-61.002
X173.999Y-68.998
X175.998Y-65.
X178.Y-61.002
X178.Y-68.998
X179.999Y-65.
X181.998Y-61.002
X181.998Y-68.998
T3
X142.801Y-72.3
X144.302Y-54.202
X152.801Y-130.3
X154.302Y-112.202
X181.698Y-112.202
X183.199Y-130.3
X191.698Y-54.202
X193.199Y-72.3
T0
M30
