M48
INCH,TZ
T1C0.0157
T2C0.0688
T3C0.0787
%
G90
G05
T1
X46850Y-45354
X46929Y-49764
X47205Y-38740
X47244Y-23898
X47244Y-32677
X47362Y-44409
X47559Y-26102
X47756Y-52756
X47992Y-25039
X48189Y-32992
X48189Y-38661
X48228Y-27677
X48425Y-21535
X48504Y-42638
X49213Y-46732
X49409Y-19961
X50039Y-42795
X50199Y-25414
X50354Y-35709
X50394Y-31260
X51142Y-49094
X51299Y-22598
X51339Y-33740
X51378Y-23976
X51693Y-46693
X51890Y-36890
X51929Y-26575
X52362Y-21339
X52402Y-29764
X52480Y-54252
X52717Y-27362
X52756Y-26496
X53110Y-25157
X53583Y-29370
X53819Y-40315
X54016Y-23661
X54016Y-50118
X54134Y-19606
X54173Y-44173
X54269Y-36114
X54370Y-21575
X54449Y-35630
X54567Y-51339
X54724Y-39724
X54803Y-27126
X54919Y-35559
X54961Y-35039
X55197Y-34213
X55354Y-35197
X55472Y-26181
X55591Y-34764
X56102Y-26142
X56122Y-36929
X56181Y-29606
X56505Y-37569
X56540Y-31141
X56693Y-23031
X56732Y-32480
X56772Y-24921
X56882Y-37456
X56933Y-31119
X57008Y-25748
X57176Y-30279
X57265Y-37549
X57301Y-30652
X57323Y-31063
X57344Y-49348
X57559Y-53307
X57638Y-29224
X57657Y-37520
X57677Y-49704
X57953Y-25433
X58031Y-38878
X58150Y-25787
X58346Y-52126
X58976Y-34921
X59094Y-36969
X59488Y-19646
X59843Y-23071
X59921Y-32559
X59941Y-37480
X60335Y-37480
X60669Y-28583
X61181Y-51339
X61220Y-54291
X61240Y-38858
X62638Y-35009
X62972Y-33780
X63031Y-22520
X63425Y-33071
X63937Y-35000
X64055Y-33622
X64528Y-19685
X64724Y-53504
X65433Y-20906
X65551Y-45787
X65669Y-51496
X66024Y-39291
X66142Y-45787
X66299Y-22520
X66732Y-45787
X66969Y-52362
X67087Y-20315
X67717Y-36811
X67717Y-37402
X67717Y-38091
X68406Y-36417
X68406Y-38484
X69094Y-36811
X69094Y-37402
X69094Y-37992
X70787Y-54252
X70906Y-35000
X71240Y-33661
X71378Y-48898
X71535Y-20315
X71535Y-32992
X71654Y-39567
X71850Y-25433
X72180Y-32994
X72244Y-35000
X72638Y-44134
X72913Y-24173
X73346Y-40354
X73386Y-38898
X74213Y-35039
X74488Y-49016
X74547Y-33740
X74782Y-33053
X75393Y-33031
X75551Y-35000
X76614Y-26772
X76772Y-50827
X76850Y-54370
X77205Y-20315
X77205Y-47539
X77756Y-47579
X77992Y-48228
X78110Y-35197
X78937Y-24134
X79016Y-25669
X79646Y-44370
X79803Y-38898
X79843Y-33071
X79882Y-40591
X79921Y-28740
X80394Y-49291
X80906Y-45000
X81142Y-40472
X81181Y-28622
X81181Y-33031
X81181Y-38898
X81299Y-54291
X82362Y-20394
X82638Y-50787
X82795Y-24409
X84055Y-47244
X84331Y-32953
X84331Y-38346
X84370Y-28386
X84370Y-40118
X84606Y-22598
X84724Y-26496
X85315Y-52323
X85472Y-48110
T2
X64568Y-46851
X64568Y-49999
X65355Y-48425
X66142Y-46851
X66142Y-49999
X66929Y-48425
X67716Y-46851
X67716Y-49999
X60631Y-24017
X60631Y-27165
X61418Y-25591
X62205Y-24017
X62205Y-27165
X62993Y-25591
X63780Y-24017
X63780Y-27165
X64568Y-25591
X65355Y-24017
X65355Y-27165
X66142Y-25591
X66929Y-24017
X66929Y-27165
X67716Y-25591
X68504Y-24017
X68504Y-27165
X69291Y-25591
X70079Y-24017
X70079Y-27165
X70866Y-25591
X71653Y-24017
X71653Y-27165
T3
X60158Y-51299
X60749Y-44174
X71535Y-44174
X72126Y-51299
X56221Y-28465
X56812Y-21340
X75472Y-21340
X76063Y-28465
T0
M30
